<?xml version="1.0" encoding="UTF-8" standalone="no"?>
<svg
   xmlns:dc="http://purl.org/dc/elements/1.1/"
   xmlns:cc="http://creativecommons.org/ns#"
   xmlns:rdf="http://www.w3.org/1999/02/22-rdf-syntax-ns#"
   xmlns:svg="http://www.w3.org/2000/svg"
   xmlns="http://www.w3.org/2000/svg"
   xmlns:sodipodi="http://sodipodi.sourceforge.net/DTD/sodipodi-0.dtd"
   xmlns:inkscape="http://www.inkscape.org/namespaces/inkscape"
   version="1.0"
   width="741.78302"
   height="852.03516"
   viewBox="0 0 7417.8302 8520.3516"
   preserveAspectRatio="xMidYMid meet"
   id="svg2"
   inkscape:version="0.91 r13725"
   sodipodi:docname="area.svg">
  <metadata
     id="metadata488">
    <rdf:RDF>
      <cc:Work
         rdf:about="">
        <dc:format>image/svg+xml</dc:format>
        <dc:type
           rdf:resource="http://purl.org/dc/dcmitype/StillImage" />
        <dc:title></dc:title>
      </cc:Work>
    </rdf:RDF>
  </metadata>
  <defs
     id="defs486" />
  <sodipodi:namedview
     pagecolor="#ffffff"
     bordercolor="#666666"
     borderopacity="1"
     objecttolerance="10"
     gridtolerance="10"
     guidetolerance="10"
     inkscape:pageopacity="0"
     inkscape:pageshadow="2"
     inkscape:window-width="693"
     inkscape:window-height="480"
     id="namedview484"
     showgrid="false"
     fit-margin-top="0"
     fit-margin-left="0"
     fit-margin-right="0"
     fit-margin-bottom="0"
     inkscape:zoom="0.22412156"
     inkscape:cx="369.43299"
     inkscape:cy="426.40005"
     inkscape:window-x="0"
     inkscape:window-y="23"
     inkscape:window-maximized="0"
     inkscape:current-layer="svg2" />
  <g
     id="g4"
     style="fill:#fffedb;stroke:none"
     transform="translate(-30.670086,-1008.6487)">
    <path
       d="m 3665,9506 c -11,-8 -14,-16 -8,-19 6,-4 18,0 28,7 11,8 14,16 8,19 -6,4 -18,0 -28,-7 z"
       id="path6"
       inkscape:connector-curvature="0" />
    <path
       d="m 3765,9511 c -3,-6 3,-15 14,-21 12,-6 22,-6 26,-1 3,6 -3,15 -14,21 -12,6 -22,6 -26,1 z"
       id="path8"
       inkscape:connector-curvature="0" />
    <path
       d="m 3615,9476 c -11,-8 -14,-16 -8,-19 6,-4 18,0 28,7 11,8 14,16 8,19 -6,4 -18,0 -28,-7 z"
       id="path10"
       inkscape:connector-curvature="0" />
    <path
       d="m 3835,9471 c -3,-6 3,-15 14,-21 12,-6 22,-6 26,-1 3,6 -3,15 -14,21 -12,6 -22,6 -26,1 z"
       id="path12"
       inkscape:connector-curvature="0" />
    <path
       d="m 3545,9436 c -11,-8 -14,-16 -8,-19 6,-4 18,0 28,7 11,8 14,16 8,19 -6,4 -18,0 -28,-7 z"
       id="path14"
       inkscape:connector-curvature="0" />
    <path
       d="m 3905,9431 c -3,-6 3,-15 14,-21 12,-6 22,-6 26,-1 3,6 -3,15 -14,21 -12,6 -22,6 -26,1 z"
       id="path16"
       inkscape:connector-curvature="0" />
    <path
       d="m 3487,9404 c -38,-20 -24,-38 14,-19 16,9 27,20 24,25 -7,12 -4,13 -38,-6 z"
       id="path18"
       inkscape:connector-curvature="0" />
    <path
       d="m 3975,9391 c -3,-6 3,-15 14,-21 12,-6 22,-6 26,-1 3,6 -3,15 -14,21 -12,6 -22,6 -26,1 z"
       id="path20"
       inkscape:connector-curvature="0" />
    <path
       d="m 3425,9366 c -11,-8 -14,-16 -8,-19 6,-4 18,0 28,7 11,8 14,16 8,19 -6,4 -18,0 -28,-7 z"
       id="path22"
       inkscape:connector-curvature="0" />
    <path
       d="m 4045,9351 c -3,-6 3,-15 14,-21 12,-6 22,-6 26,-1 3,6 -3,15 -14,21 -12,6 -22,6 -26,1 z"
       id="path24"
       inkscape:connector-curvature="0" />
    <path
       d="m 3355,9326 c -11,-8 -14,-16 -8,-19 6,-4 18,0 28,7 11,8 14,16 8,19 -6,4 -18,0 -28,-7 z"
       id="path26"
       inkscape:connector-curvature="0" />
    <path
       d="m 4115,9311 c -3,-6 3,-15 14,-21 12,-6 22,-6 26,-1 3,6 -3,15 -14,21 -12,6 -22,6 -26,1 z"
       id="path28"
       inkscape:connector-curvature="0" />
    <path
       d="m 3305,9296 c -11,-8 -14,-16 -8,-19 6,-4 18,0 28,7 11,8 14,16 8,19 -6,4 -18,0 -28,-7 z"
       id="path30"
       inkscape:connector-curvature="0" />
    <path
       d="m 4185,9271 c -3,-6 3,-15 14,-21 12,-6 22,-6 26,-1 3,6 -3,15 -14,21 -12,6 -22,6 -26,1 z"
       id="path32"
       inkscape:connector-curvature="0" />
    <path
       d="m 3235,9256 c -11,-8 -14,-16 -8,-19 6,-4 18,0 28,7 11,8 14,16 8,19 -6,4 -18,0 -28,-7 z"
       id="path34"
       inkscape:connector-curvature="0" />
    <path
       d="m 3185,9226 c -11,-8 -14,-16 -8,-19 6,-4 18,0 28,7 11,8 14,16 8,19 -6,4 -18,0 -28,-7 z"
       id="path36"
       inkscape:connector-curvature="0" />
    <path
       d="m 4255,9231 c -3,-6 3,-15 14,-21 12,-6 22,-6 26,-1 3,6 -3,15 -14,21 -12,6 -22,6 -26,1 z"
       id="path38"
       inkscape:connector-curvature="0" />
    <path
       d="m 3115,9186 c -11,-8 -14,-16 -8,-19 6,-4 18,0 28,7 11,8 14,16 8,19 -6,4 -18,0 -28,-7 z"
       id="path40"
       inkscape:connector-curvature="0" />
    <path
       d="m 4325,9191 c -3,-6 3,-15 14,-21 12,-6 22,-6 26,-1 3,6 -3,15 -14,21 -12,6 -22,6 -26,1 z"
       id="path42"
       inkscape:connector-curvature="0" />
    <path
       d="m 3057,9154 c -38,-20 -24,-38 14,-19 16,9 27,20 24,25 -7,12 -4,13 -38,-6 z"
       id="path44"
       inkscape:connector-curvature="0" />
    <path
       d="m 4395,9151 c -3,-6 3,-15 14,-21 12,-6 22,-6 26,-1 3,6 -3,15 -14,21 -12,6 -22,6 -26,1 z"
       id="path46"
       inkscape:connector-curvature="0" />
    <path
       d="m 2995,9116 c -11,-8 -14,-16 -8,-19 6,-4 18,0 28,7 11,8 14,16 8,19 -6,4 -18,0 -28,-7 z"
       id="path48"
       inkscape:connector-curvature="0" />
    <path
       d="m 4445,9120 c -3,-5 8,-16 24,-25 18,-9 32,-11 36,-5 3,5 -8,16 -24,25 -18,9 -32,11 -36,5 z"
       id="path50"
       inkscape:connector-curvature="0" />
    <path
       d="m 2925,9076 c -11,-8 -14,-16 -8,-19 6,-4 18,0 28,7 11,8 14,16 8,19 -6,4 -18,0 -28,-7 z"
       id="path52"
       inkscape:connector-curvature="0" />
    <path
       d="m 4515,9081 c -3,-6 3,-15 14,-21 12,-6 22,-6 26,-1 3,6 -3,15 -14,21 -12,6 -22,6 -26,1 z"
       id="path54"
       inkscape:connector-curvature="0" />
    <path
       d="m 2875,9046 c -11,-8 -14,-16 -8,-19 6,-4 18,0 28,7 11,8 14,16 8,19 -6,4 -18,0 -28,-7 z"
       id="path56"
       inkscape:connector-curvature="0" />
    <path
       d="m 4585,9041 c -3,-6 3,-15 14,-21 12,-6 22,-6 26,-1 3,6 -3,15 -14,21 -12,6 -22,6 -26,1 z"
       id="path58"
       inkscape:connector-curvature="0" />
    <path
       d="m 2805,9006 c -11,-8 -14,-16 -8,-19 6,-4 18,0 28,7 11,8 14,16 8,19 -6,4 -18,0 -28,-7 z"
       id="path60"
       inkscape:connector-curvature="0" />
    <path
       d="m 4655,9001 c -3,-6 3,-15 14,-21 12,-6 22,-6 26,-1 3,6 -3,15 -14,21 -12,6 -22,6 -26,1 z"
       id="path62"
       inkscape:connector-curvature="0" />
    <path
       d="m 2755,8976 c -11,-8 -14,-16 -8,-19 6,-4 18,0 28,7 11,8 14,16 8,19 -6,4 -18,0 -28,-7 z"
       id="path64"
       inkscape:connector-curvature="0" />
    <path
       d="m 4725,8961 c -3,-6 3,-15 14,-21 12,-6 22,-6 26,-1 3,6 -3,15 -14,21 -12,6 -22,6 -26,1 z"
       id="path66"
       inkscape:connector-curvature="0" />
    <path
       d="m 2685,8936 c -11,-8 -14,-16 -8,-19 6,-4 18,0 28,7 11,8 14,16 8,19 -6,4 -18,0 -28,-7 z"
       id="path68"
       inkscape:connector-curvature="0" />
    <path
       d="m 4795,8921 c -3,-6 3,-15 14,-21 12,-6 22,-6 26,-1 3,6 -3,15 -14,21 -12,6 -22,6 -26,1 z"
       id="path70"
       inkscape:connector-curvature="0" />
    <path
       d="m 2627,8904 c -38,-20 -24,-38 14,-19 16,9 27,20 24,25 -7,12 -4,13 -38,-6 z"
       id="path72"
       inkscape:connector-curvature="0" />
    <path
       d="m 4865,8881 c -3,-6 3,-15 14,-21 12,-6 22,-6 26,-1 3,6 -3,15 -14,21 -12,6 -22,6 -26,1 z"
       id="path74"
       inkscape:connector-curvature="0" />
    <path
       d="m 2565,8866 c -11,-8 -14,-16 -8,-19 6,-4 18,0 28,7 11,8 14,16 8,19 -6,4 -18,0 -28,-7 z"
       id="path76"
       inkscape:connector-curvature="0" />
    <path
       d="m 4935,8841 c -3,-6 3,-15 14,-21 12,-6 22,-6 26,-1 3,6 -3,15 -14,21 -12,6 -22,6 -26,1 z"
       id="path78"
       inkscape:connector-curvature="0" />
    <path
       d="m 2495,8826 c -11,-8 -14,-16 -8,-19 6,-4 18,0 28,7 11,8 14,16 8,19 -6,4 -18,0 -28,-7 z"
       id="path80"
       inkscape:connector-curvature="0" />
    <path
       d="m 2445,8796 c -11,-8 -14,-16 -8,-19 6,-4 18,0 28,7 11,8 14,16 8,19 -6,4 -18,0 -28,-7 z"
       id="path82"
       inkscape:connector-curvature="0" />
    <path
       d="m 5005,8801 c -3,-6 3,-15 14,-21 12,-6 22,-6 26,-1 3,6 -3,15 -14,21 -12,6 -22,6 -26,1 z"
       id="path84"
       inkscape:connector-curvature="0" />
    <path
       d="m 2375,8756 c -11,-8 -14,-16 -8,-19 6,-4 18,0 28,7 11,8 14,16 8,19 -6,4 -18,0 -28,-7 z"
       id="path86"
       inkscape:connector-curvature="0" />
    <path
       d="m 5075,8761 c -3,-6 3,-15 14,-21 12,-6 22,-6 26,-1 3,6 -3,15 -14,21 -12,6 -22,6 -26,1 z"
       id="path88"
       inkscape:connector-curvature="0" />
    <path
       d="m 2325,8726 c -11,-8 -14,-16 -8,-19 6,-4 18,0 28,7 11,8 14,16 8,19 -6,4 -18,0 -28,-7 z"
       id="path90"
       inkscape:connector-curvature="0" />
    <path
       d="m 5145,8721 c -3,-6 3,-15 14,-21 12,-6 22,-6 26,-1 3,6 -3,15 -14,21 -12,6 -22,6 -26,1 z"
       id="path92"
       inkscape:connector-curvature="0" />
    <path
       d="m 2255,8686 c -11,-8 -14,-16 -8,-19 6,-4 18,0 28,7 11,8 14,16 8,19 -6,4 -18,0 -28,-7 z"
       id="path94"
       inkscape:connector-curvature="0" />
    <path
       d="m 5195,8690 c -3,-5 8,-16 24,-25 18,-9 32,-11 36,-5 3,5 -8,16 -24,25 -18,9 -32,11 -36,5 z"
       id="path96"
       inkscape:connector-curvature="0" />
    <path
       d="m 2197,8654 c -38,-20 -24,-38 14,-19 16,9 27,20 24,25 -7,12 -4,13 -38,-6 z"
       id="path98"
       inkscape:connector-curvature="0" />
    <path
       d="m 5265,8651 c -3,-6 3,-15 14,-21 12,-6 22,-6 26,-1 3,6 -3,15 -14,21 -12,6 -22,6 -26,1 z"
       id="path100"
       inkscape:connector-curvature="0" />
    <path
       d="m 2135,8616 c -11,-8 -14,-16 -8,-19 6,-4 18,0 28,7 11,8 14,16 8,19 -6,4 -18,0 -28,-7 z"
       id="path102"
       inkscape:connector-curvature="0" />
    <path
       d="m 5335,8611 c -3,-6 3,-15 14,-21 12,-6 22,-6 26,-1 3,6 -3,15 -14,21 -12,6 -22,6 -26,1 z"
       id="path104"
       inkscape:connector-curvature="0" />
    <path
       d="m 2065,8576 c -11,-8 -14,-16 -8,-19 6,-4 18,0 28,7 11,8 14,16 8,19 -6,4 -18,0 -28,-7 z"
       id="path106"
       inkscape:connector-curvature="0" />
    <path
       d="m 5405,8571 c -3,-6 3,-15 14,-21 12,-6 22,-6 26,-1 3,6 -3,15 -14,21 -12,6 -22,6 -26,1 z"
       id="path108"
       inkscape:connector-curvature="0" />
    <path
       d="m 2015,8546 c -11,-8 -14,-16 -8,-19 6,-4 18,0 28,7 11,8 14,16 8,19 -6,4 -18,0 -28,-7 z"
       id="path110"
       inkscape:connector-curvature="0" />
    <path
       d="m 5475,8531 c -3,-6 3,-15 14,-21 12,-6 22,-6 26,-1 3,6 -3,15 -14,21 -12,6 -22,6 -26,1 z"
       id="path112"
       inkscape:connector-curvature="0" />
    <path
       d="m 1945,8506 c -11,-8 -14,-16 -8,-19 6,-4 18,0 28,7 11,8 14,16 8,19 -6,4 -18,0 -28,-7 z"
       id="path114"
       inkscape:connector-curvature="0" />
    <path
       d="m 5545,8491 c -3,-6 3,-15 14,-21 12,-6 22,-6 26,-1 3,6 -3,15 -14,21 -12,6 -22,6 -26,1 z"
       id="path116"
       inkscape:connector-curvature="0" />
    <path
       d="m 1895,8476 c -11,-8 -14,-16 -8,-19 6,-4 18,0 28,7 11,8 14,16 8,19 -6,4 -18,0 -28,-7 z"
       id="path118"
       inkscape:connector-curvature="0" />
    <path
       d="m 5615,8451 c -3,-6 3,-15 14,-21 12,-6 22,-6 26,-1 3,6 -3,15 -14,21 -12,6 -22,6 -26,1 z"
       id="path120"
       inkscape:connector-curvature="0" />
    <path
       d="m 1825,8436 c -11,-8 -14,-16 -8,-19 6,-4 18,0 28,7 11,8 14,16 8,19 -6,4 -18,0 -28,-7 z"
       id="path122"
       inkscape:connector-curvature="0" />
    <path
       d="m 1767,8404 c -38,-20 -24,-38 14,-19 16,9 27,20 24,25 -7,12 -4,13 -38,-6 z"
       id="path124"
       inkscape:connector-curvature="0" />
    <path
       d="m 5685,8411 c -3,-6 3,-15 14,-21 12,-6 22,-6 26,-1 3,6 -3,15 -14,21 -12,6 -22,6 -26,1 z"
       id="path126"
       inkscape:connector-curvature="0" />
    <path
       d="m 1705,8366 c -11,-8 -14,-16 -8,-19 6,-4 18,0 28,7 11,8 14,16 8,19 -6,4 -18,0 -28,-7 z"
       id="path128"
       inkscape:connector-curvature="0" />
    <path
       d="m 5755,8371 c -3,-6 3,-15 14,-21 12,-6 22,-6 26,-1 3,6 -3,15 -14,21 -12,6 -22,6 -26,1 z"
       id="path130"
       inkscape:connector-curvature="0" />
    <path
       d="m 1635,8326 c -11,-8 -14,-16 -8,-19 6,-4 18,0 28,7 11,8 14,16 8,19 -6,4 -18,0 -28,-7 z"
       id="path132"
       inkscape:connector-curvature="0" />
    <path
       d="m 5825,8331 c -3,-6 3,-15 14,-21 12,-6 22,-6 26,-1 3,6 -3,15 -14,21 -12,6 -22,6 -26,1 z"
       id="path134"
       inkscape:connector-curvature="0" />
    <path
       d="m 1585,8296 c -11,-8 -14,-16 -8,-19 6,-4 18,0 28,7 11,8 14,16 8,19 -6,4 -18,0 -28,-7 z"
       id="path136"
       inkscape:connector-curvature="0" />
    <path
       d="m 5895,8291 c -3,-6 3,-15 14,-21 12,-6 22,-6 26,-1 3,6 -3,15 -14,21 -12,6 -22,6 -26,1 z"
       id="path138"
       inkscape:connector-curvature="0" />
    <path
       d="m 1515,8256 c -11,-8 -14,-16 -8,-19 6,-4 18,0 28,7 11,8 14,16 8,19 -6,4 -18,0 -28,-7 z"
       id="path140"
       inkscape:connector-curvature="0" />
    <path
       d="m 5945,8260 c -3,-5 8,-16 24,-25 18,-9 32,-11 36,-5 3,5 -8,16 -24,25 -18,9 -32,11 -36,5 z"
       id="path142"
       inkscape:connector-curvature="0" />
    <path
       d="m 1465,8226 c -11,-8 -14,-16 -8,-19 6,-4 18,0 28,7 11,8 14,16 8,19 -6,4 -18,0 -28,-7 z"
       id="path144"
       inkscape:connector-curvature="0" />
    <path
       d="m 6015,8221 c -3,-6 3,-15 14,-21 12,-6 22,-6 26,-1 3,6 -3,15 -14,21 -12,6 -22,6 -26,1 z"
       id="path146"
       inkscape:connector-curvature="0" />
    <path
       d="m 1395,8186 c -11,-8 -14,-16 -8,-19 6,-4 18,0 28,7 11,8 14,16 8,19 -6,4 -18,0 -28,-7 z"
       id="path148"
       inkscape:connector-curvature="0" />
    <path
       d="m 6085,8181 c -3,-6 3,-15 14,-21 12,-6 22,-6 26,-1 3,6 -3,15 -14,21 -12,6 -22,6 -26,1 z"
       id="path150"
       inkscape:connector-curvature="0" />
    <path
       d="m 1337,8154 c -38,-20 -24,-38 14,-19 16,9 27,20 24,25 -7,12 -4,13 -38,-6 z"
       id="path152"
       inkscape:connector-curvature="0" />
    <path
       d="m 6155,8141 c -3,-6 3,-15 14,-21 12,-6 22,-6 26,-1 3,6 -3,15 -14,21 -12,6 -22,6 -26,1 z"
       id="path154"
       inkscape:connector-curvature="0" />
    <path
       d="m 1275,8116 c -11,-8 -14,-16 -8,-19 6,-4 18,0 28,7 11,8 14,16 8,19 -6,4 -18,0 -28,-7 z"
       id="path156"
       inkscape:connector-curvature="0" />
    <path
       d="m 6225,8101 c -3,-6 3,-15 14,-21 12,-6 22,-6 26,-1 3,6 -3,15 -14,21 -12,6 -22,6 -26,1 z"
       id="path158"
       inkscape:connector-curvature="0" />
    <path
       d="m 1205,8076 c -11,-8 -14,-16 -8,-19 6,-4 18,0 28,7 11,8 14,16 8,19 -6,4 -18,0 -28,-7 z"
       id="path160"
       inkscape:connector-curvature="0" />
    <path
       d="m 6295,8061 c -3,-6 3,-15 14,-21 12,-6 22,-6 26,-1 3,6 -3,15 -14,21 -12,6 -22,6 -26,1 z"
       id="path162"
       inkscape:connector-curvature="0" />
    <path
       d="m 1155,8046 c -11,-8 -14,-16 -8,-19 6,-4 18,0 28,7 11,8 14,16 8,19 -6,4 -18,0 -28,-7 z"
       id="path164"
       inkscape:connector-curvature="0" />
    <path
       d="m 6365,8021 c -3,-6 3,-15 14,-21 12,-6 22,-6 26,-1 3,6 -3,15 -14,21 -12,6 -22,6 -26,1 z"
       id="path166"
       inkscape:connector-curvature="0" />
    <path
       d="m 1085,8006 c -11,-8 -14,-16 -8,-19 6,-4 18,0 28,7 11,8 14,16 8,19 -6,4 -18,0 -28,-7 z"
       id="path168"
       inkscape:connector-curvature="0" />
    <path
       d="m 1035,7976 c -11,-8 -14,-16 -8,-19 6,-4 18,0 28,7 11,8 14,16 8,19 -6,4 -18,0 -28,-7 z"
       id="path170"
       inkscape:connector-curvature="0" />
    <path
       d="m 6435,7981 c -3,-6 3,-15 14,-21 12,-6 22,-6 26,-1 3,6 -3,15 -14,21 -12,6 -22,6 -26,1 z"
       id="path172"
       inkscape:connector-curvature="0" />
    <path
       d="m 965,7936 c -11,-8 -14,-16 -8,-19 6,-4 18,0 28,7 11,8 14,16 8,19 -6,4 -18,0 -28,-7 z"
       id="path174"
       inkscape:connector-curvature="0" />
    <path
       d="m 6505,7941 c -3,-6 3,-15 14,-21 12,-6 22,-6 26,-1 3,6 -3,15 -14,21 -12,6 -22,6 -26,1 z"
       id="path176"
       inkscape:connector-curvature="0" />
    <path
       d="m 907,7904 c -38,-20 -24,-38 14,-19 16,9 27,20 24,25 -7,12 -4,13 -38,-6 z"
       id="path178"
       inkscape:connector-curvature="0" />
    <path
       d="m 6575,7901 c -3,-6 3,-15 14,-21 12,-6 22,-6 26,-1 3,6 -3,15 -14,21 -12,6 -22,6 -26,1 z"
       id="path180"
       inkscape:connector-curvature="0" />
    <path
       d="m 845,7866 c -11,-8 -14,-16 -8,-19 6,-4 18,0 28,7 11,8 14,16 8,19 -6,4 -18,0 -28,-7 z"
       id="path182"
       inkscape:connector-curvature="0" />
    <path
       d="m 6645,7861 c -3,-6 3,-15 14,-21 12,-6 22,-6 26,-1 3,6 -3,15 -14,21 -12,6 -22,6 -26,1 z"
       id="path184"
       inkscape:connector-curvature="0" />
    <path
       d="m 775,7826 c -11,-8 -14,-16 -8,-19 6,-4 18,0 28,7 11,8 14,16 8,19 -6,4 -18,0 -28,-7 z"
       id="path186"
       inkscape:connector-curvature="0" />
    <path
       d="m 6695,7830 c -3,-5 8,-16 24,-25 18,-9 32,-11 36,-5 3,5 -8,16 -24,25 -18,9 -32,11 -36,5 z"
       id="path188"
       inkscape:connector-curvature="0" />
    <path
       d="m 725,7796 c -11,-8 -14,-16 -8,-19 6,-4 18,0 28,7 11,8 14,16 8,19 -6,4 -18,0 -28,-7 z"
       id="path190"
       inkscape:connector-curvature="0" />
    <path
       d="m 6765,7791 c -3,-6 3,-15 14,-21 12,-6 22,-6 26,-1 3,6 -3,15 -14,21 -12,6 -22,6 -26,1 z"
       id="path192"
       inkscape:connector-curvature="0" />
    <path
       d="m 655,7756 c -11,-8 -14,-16 -8,-19 6,-4 18,0 28,7 11,8 14,16 8,19 -6,4 -18,0 -28,-7 z"
       id="path194"
       inkscape:connector-curvature="0" />
    <path
       d="M 3510,7759 C 2151,7610 1131,6409 1220,5063 c 42,-638 280,-1174 720,-1627 375,-386 824,-631 1345,-735 644,-129 1324,4 1878,366 702,460 1132,1216 1164,2048 23,616 -177,1221 -564,1700 -111,138 -314,333 -458,441 -343,257 -741,424 -1165,489 -125,20 -505,28 -630,14 z m 585,-354 c 347,-54 630,-163 914,-353 211,-141 312,-232 351,-318 15,-33 53,-89 84,-124 31,-34 56,-67 56,-72 0,-19 -82,56 -156,143 -41,49 -79,89 -84,89 -5,0 -37,25 -72,56 -108,95 -222,165 -311,191 -152,44 -176,29 -116,-71 60,-100 116,-281 134,-438 6,-44 13,-58 85,-150 11,-15 29,-67 40,-117 l 20,-89 -30,-97 c -17,-54 -30,-109 -30,-123 0,-24 -1,-24 -18,-9 -40,36 -108,6 -100,-44 8,-60 107,-63 118,-4 6,30 6,30 24,-17 23,-59 12,-78 -45,-78 -32,0 -41,-5 -56,-30 -19,-33 -56,-40 -108,-20 -15,6 -75,14 -135,20 -59,5 -130,12 -156,15 -45,6 -54,3 -109,-34 -89,-58 -145,-111 -209,-194 -53,-69 -96,-159 -96,-199 0,-9 9,-38 21,-65 23,-54 26,-111 9,-171 -12,-39 -11,-42 57,-173 65,-128 72,-136 138,-186 52,-39 73,-62 83,-90 7,-21 38,-64 69,-95 31,-32 55,-59 52,-61 -2,-1 -16,-8 -31,-15 -46,-19 -62,-64 -63,-175 0,-97 1,-99 29,-124 27,-23 34,-24 93,-18 52,5 63,4 63,-8 0,-19 -27,-47 -45,-47 -18,0 -57,-49 -49,-62 3,-5 -4,-17 -16,-25 -16,-11 -21,-23 -17,-40 4,-21 2,-24 -17,-18 -90,26 -106,16 -109,-71 -2,-58 -2,-59 35,-78 28,-16 38,-29 43,-56 7,-39 31,-70 52,-70 21,0 82,50 98,79 22,43 96,121 113,121 10,-1 28,-10 41,-20 31,-26 23,-71 -19,-107 -39,-33 -90,-106 -90,-130 0,-10 7,-29 17,-42 9,-13 22,-53 30,-90 11,-52 21,-74 50,-103 21,-21 45,-38 54,-38 10,0 64,11 121,25 57,14 112,25 123,25 17,0 17,-2 -7,-18 -14,-9 -55,-39 -90,-66 -155,-119 -474,-242 -783,-303 -73,-14 -145,-17 -375,-17 -273,-1 -291,1 -416,27 -221,46 -390,104 -578,198 -116,58 -110,54 -101,69 5,8 16,4 34,-14 26,-25 111,-66 136,-66 7,0 35,-11 62,-25 59,-30 217,-49 234,-28 9,10 17,8 39,-9 34,-25 60,-18 60,17 0,24 1,24 36,-15 41,-45 68,-57 90,-39 12,10 19,8 37,-8 38,-33 136,-93 152,-93 17,0 64,30 107,69 l 28,25 57,-25 c 50,-20 74,-24 170,-24 102,0 114,2 144,24 18,13 53,32 78,42 62,23 73,44 41,72 -23,20 -25,30 -25,98 0,56 -5,82 -18,103 -22,33 -102,72 -175,86 -28,5 -73,20 -99,33 -26,13 -65,30 -85,36 -21,7 -59,31 -85,55 -114,100 -139,107 -197,53 -44,-42 -52,-73 -36,-148 10,-46 20,-66 45,-88 38,-33 49,-60 40,-100 -4,-21 -14,-31 -38,-37 -18,-5 -36,-20 -42,-32 -5,-12 -13,-22 -17,-22 -15,0 -116,48 -122,59 -4,6 1,25 9,42 9,17 14,40 12,51 -3,11 2,35 10,54 21,42 10,56 -72,96 -108,53 -125,63 -130,79 -3,9 -7,57 -9,107 -3,86 -2,92 20,107 19,12 22,20 17,52 -3,21 -11,46 -18,56 -7,10 -10,37 -7,65 3,38 0,50 -16,65 -29,27 -90,32 -136,13 -51,-21 -66,-20 -66,4 0,25 -23,40 -132,84 -96,40 -123,44 -136,20 -15,-27 -79,2 -108,48 -13,21 -34,40 -47,42 -12,3 -33,7 -47,10 -34,7 -161,119 -176,156 -8,17 -50,56 -109,100 -101,75 -107,82 -131,189 -15,62 -14,66 5,92 28,38 26,65 -4,85 -24,16 -27,16 -48,-3 -12,-11 -35,-25 -52,-30 -30,-9 -30,-11 -35,-94 -5,-76 -7,-84 -26,-87 -11,-2 -27,4 -34,13 -16,19 -44,19 -60,0 -27,-33 -57,-18 -94,45 -50,85 -71,153 -71,234 0,77 14,95 34,41 14,-40 29,-50 87,-60 27,-4 52,-17 69,-35 52,-54 85,-50 203,28 51,34 53,34 72,17 19,-17 21,-17 39,-1 11,10 23,31 26,47 4,16 12,32 18,36 16,10 134,43 189,53 58,11 84,24 126,63 l 32,31 0,122 0,122 34,6 c 47,9 61,28 43,58 -30,48 -29,74 4,102 17,14 43,26 57,26 62,0 134,48 242,159 58,60 120,116 138,125 18,10 77,26 130,37 109,23 253,88 284,129 31,42 28,127 -7,186 -15,27 -37,59 -49,72 -19,22 -21,35 -21,155 0,160 -7,178 -90,228 -65,40 -63,33 -49,137 5,39 2,64 -11,99 -10,26 -17,68 -16,94 1,26 -3,50 -9,54 -26,16 -8,56 58,123 37,38 80,77 95,87 27,17 28,17 41,-1 12,-15 19,-17 41,-9 38,14 53,39 38,64 -11,18 -9,20 30,25 90,12 138,14 307,10 96,-2 220,-11 275,-19 z m -960,-96 c -33,-22 -84,-56 -112,-75 -29,-19 -107,-90 -173,-157 -105,-106 -160,-174 -355,-441 -17,-22 -53,-55 -80,-73 -120,-77 -162,-113 -233,-203 -41,-52 -99,-120 -127,-150 -61,-65 -75,-90 -104,-185 -21,-68 -21,-72 -5,-145 14,-65 15,-86 4,-157 -12,-81 -13,-83 -37,-77 -19,5 -32,-1 -56,-23 -18,-16 -46,-40 -64,-51 -22,-16 -39,-42 -59,-93 -17,-43 -46,-91 -76,-125 -26,-30 -48,-59 -48,-65 0,-5 -14,-9 -30,-9 l -31,0 6,63 c 46,447 154,767 369,1097 111,170 295,372 456,501 139,111 370,249 520,310 96,38 264,98 280,98 8,1 -12,-17 -45,-40 z M 5715,6287 c 39,-60 182,-404 172,-414 -3,-2 -34,41 -70,96 -72,111 -127,233 -135,299 -5,48 9,56 33,19 z M 1991,5471 c 29,-51 84,-84 146,-88 52,-3 58,-1 94,32 32,29 47,35 82,35 24,0 64,6 90,14 l 45,14 -4,-37 c -3,-20 -12,-76 -21,-124 -13,-73 -20,-90 -37,-96 -12,-5 -90,-14 -174,-21 -138,-11 -154,-11 -171,4 -10,9 -29,16 -43,16 -29,0 -78,-35 -78,-56 0,-8 -8,-14 -17,-14 -20,0 -53,-28 -53,-45 0,-7 -11,-20 -23,-28 -23,-15 -24,-14 -40,31 -22,61 -22,89 1,96 10,4 32,20 48,37 27,29 29,36 34,137 l 5,107 45,6 c 25,3 47,7 50,7 3,1 12,-11 21,-27 z m 3329,-856 c 0,-38 79,-42 173,-9 29,10 59,13 94,8 52,-6 53,-7 53,-39 0,-27 -3,-32 -18,-28 -10,2 -27,-6 -41,-21 -29,-31 -66,-34 -81,-6 -7,14 -21,20 -44,20 -39,0 -85,-33 -164,-118 l -53,-57 -19,45 c -10,25 -26,67 -35,93 -19,53 -36,66 -63,46 -15,-12 -15,-11 -2,3 8,9 44,25 80,37 36,12 72,26 80,31 22,14 40,12 40,-5 z m -563,-166 c 44,-16 264,-38 290,-28 21,8 22,7 10,-12 -10,-18 -9,-23 12,-40 13,-11 22,-21 20,-23 -67,-51 -82,-60 -75,-41 23,56 14,85 -27,85 -22,0 -57,-27 -57,-44 0,-6 -5,-28 -11,-48 -9,-36 -12,-38 -48,-38 -33,0 -40,4 -45,26 -5,17 -18,30 -36,37 -27,10 -29,15 -24,45 5,28 2,38 -22,63 -31,32 -29,34 13,18 z m 791,-223 33,-1 -23,-18 c -14,-12 -32,-17 -48,-14 -14,3 -34,-1 -45,-9 -17,-13 -20,-13 -26,3 -3,10 -4,26 -1,36 4,16 10,18 41,12 20,-4 51,-8 69,-9 z M 2876,4039 c 10,-11 26,-18 35,-16 16,4 29,-11 29,-34 0,-5 -13,-9 -30,-9 -18,0 -30,5 -30,13 0,8 -9,22 -20,32 -11,10 -20,22 -20,27 0,14 16,9 36,-13 z m 2164,-261 c 0,-21 -35,-68 -51,-68 -16,0 -29,36 -29,80 0,16 5,17 40,8 22,-6 40,-15 40,-20 z m -2357,-37 c 25,-11 58,-36 73,-56 16,-19 43,-44 61,-55 17,-10 36,-27 42,-38 9,-17 5,-21 -27,-31 -36,-12 -43,-11 -134,33 -66,31 -99,53 -103,67 -7,21 21,99 36,99 4,0 27,-9 52,-19 z m 407,-120 c -1,-9 -48,-61 -55,-61 -4,0 3,15 14,33 11,19 18,37 14,41 -4,4 0,4 10,0 9,-3 17,-9 17,-13 z"
       id="path196"
       inkscape:connector-curvature="0" />
    <path
       d="m 4082,3605 c -18,-8 -35,-22 -38,-32 -3,-10 -11,-28 -16,-40 -20,-41 3,-53 107,-53 79,0 96,3 119,21 82,65 -62,152 -172,104 z"
       id="path198"
       inkscape:connector-curvature="0" />
    <path
       d="m 4524,3287 c -12,-6 -40,-22 -63,-35 -76,-42 -63,-79 33,-89 56,-6 58,-5 97,33 47,46 49,68 9,89 -35,18 -48,19 -76,2 z"
       id="path200"
       inkscape:connector-curvature="0" />
    <path
       d="m 6835,7751 c -3,-6 3,-15 14,-21 12,-6 22,-6 26,-1 3,6 -3,15 -14,21 -12,6 -22,6 -26,1 z"
       id="path202"
       inkscape:connector-curvature="0" />
    <path
       d="m 605,7726 c -11,-8 -14,-16 -8,-19 6,-4 18,0 28,7 11,8 14,16 8,19 -6,4 -18,0 -28,-7 z"
       id="path204"
       inkscape:connector-curvature="0" />
    <path
       d="m 6905,7711 c -3,-6 3,-15 14,-21 12,-6 22,-6 26,-1 3,6 -3,15 -14,21 -12,6 -22,6 -26,1 z"
       id="path206"
       inkscape:connector-curvature="0" />
    <path
       d="m 535,7686 c -11,-8 -14,-16 -8,-19 6,-4 18,0 28,7 11,8 14,16 8,19 -6,4 -18,0 -28,-7 z"
       id="path208"
       inkscape:connector-curvature="0" />
    <path
       d="m 6975,7671 c -3,-6 3,-15 14,-21 12,-6 22,-6 26,-1 3,6 -3,15 -14,21 -12,6 -22,6 -26,1 z"
       id="path210"
       inkscape:connector-curvature="0" />
    <path
       d="m 477,7654 c -38,-20 -24,-38 14,-19 16,9 27,20 24,25 -7,12 -4,13 -38,-6 z"
       id="path212"
       inkscape:connector-curvature="0" />
    <path
       d="m 7045,7631 c -3,-6 3,-15 14,-21 12,-6 22,-6 26,-1 3,6 -3,15 -14,21 -12,6 -22,6 -26,1 z"
       id="path214"
       inkscape:connector-curvature="0" />
    <path
       d="m 415,7616 c -11,-8 -14,-16 -8,-19 6,-4 18,0 28,7 11,8 14,16 8,19 -6,4 -18,0 -28,-7 z"
       id="path216"
       inkscape:connector-curvature="0" />
    <path
       d="m 7115,7591 c -3,-6 3,-15 14,-21 12,-6 22,-6 26,-1 3,6 -3,15 -14,21 -12,6 -22,6 -26,1 z"
       id="path218"
       inkscape:connector-curvature="0" />
    <path
       d="m 345,7576 c -11,-8 -14,-16 -8,-19 6,-4 18,0 28,7 11,8 14,16 8,19 -6,4 -18,0 -28,-7 z"
       id="path220"
       inkscape:connector-curvature="0" />
    <path
       d="m 295,7546 c -11,-8 -14,-16 -8,-19 6,-4 18,0 28,7 11,8 14,16 8,19 -6,4 -18,0 -28,-7 z"
       id="path222"
       inkscape:connector-curvature="0" />
    <path
       d="m 7185,7551 c -3,-6 3,-15 14,-21 12,-6 22,-6 26,-1 3,6 -3,15 -14,21 -12,6 -22,6 -26,1 z"
       id="path224"
       inkscape:connector-curvature="0" />
    <path
       d="m 225,7506 c -11,-8 -14,-16 -8,-19 6,-4 18,0 28,7 11,8 14,16 8,19 -6,4 -18,0 -28,-7 z"
       id="path226"
       inkscape:connector-curvature="0" />
    <path
       d="m 7255,7511 c -3,-6 3,-15 14,-21 12,-6 22,-6 26,-1 3,6 -3,15 -14,21 -12,6 -22,6 -26,1 z"
       id="path228"
       inkscape:connector-curvature="0" />
    <path
       d="m 175,7476 c -11,-8 -14,-16 -8,-19 6,-4 18,0 28,7 11,8 14,16 8,19 -6,4 -18,0 -28,-7 z"
       id="path230"
       inkscape:connector-curvature="0" />
    <path
       d="m 7325,7471 c -3,-6 3,-15 14,-21 12,-6 22,-6 26,-1 3,6 -3,15 -14,21 -12,6 -22,6 -26,1 z"
       id="path232"
       inkscape:connector-curvature="0" />
    <path
       d="m 105,7436 c -11,-8 -14,-16 -8,-19 6,-4 18,0 28,7 11,8 14,16 8,19 -6,4 -18,0 -28,-7 z"
       id="path234"
       inkscape:connector-curvature="0" />
    <path
       d="m 7395,7430 c -3,-5 4,-14 15,-20 16,-8 20,-8 20,4 0,16 -27,29 -35,16 z"
       id="path236"
       inkscape:connector-curvature="0" />
    <path
       d="m 35,6919 c -10,-27 -1,-944 10,-942 14,4 19,933 5,947 -6,6 -11,4 -15,-5 z"
       id="path238"
       inkscape:connector-curvature="0" />
    <path
       d="m 7427,6433 c -12,-11 -8,-941 3,-948 7,-4 10,157 10,474 0,265 -1,481 -3,481 -2,0 -7,-3 -10,-7 z"
       id="path240"
       inkscape:connector-curvature="0" />
    <path
       d="m 45,3619 c -10,-26 -1,-504 10,-502 14,4 19,493 6,506 -7,7 -12,5 -16,-4 z"
       id="path242"
       inkscape:connector-curvature="0" />
    <path
       d="m 7444,3460 c 0,-58 1,-81 3,-52 2,28 2,76 0,105 -2,28 -3,5 -3,-53 z"
       id="path244"
       inkscape:connector-curvature="0" />
    <path
       d="m 75,3111 c -3,-6 3,-15 14,-21 12,-6 22,-6 26,-1 3,6 -3,15 -14,21 -12,6 -22,6 -26,1 z"
       id="path246"
       inkscape:connector-curvature="0" />
    <path
       d="m 7305,3076 c -11,-8 -14,-16 -8,-19 6,-4 18,0 28,7 11,8 14,16 8,19 -6,4 -18,0 -28,-7 z"
       id="path248"
       inkscape:connector-curvature="0" />
    <path
       d="m 145,3071 c -3,-6 3,-15 14,-21 12,-6 22,-6 26,-1 3,6 -3,15 -14,21 -12,6 -22,6 -26,1 z"
       id="path250"
       inkscape:connector-curvature="0" />
    <path
       d="m 7235,3036 c -11,-8 -14,-16 -8,-19 6,-4 18,0 28,7 11,8 14,16 8,19 -6,4 -18,0 -28,-7 z"
       id="path252"
       inkscape:connector-curvature="0" />
    <path
       d="m 215,3031 c -3,-6 3,-15 14,-21 12,-6 22,-6 26,-1 3,6 -3,15 -14,21 -12,6 -22,6 -26,1 z"
       id="path254"
       inkscape:connector-curvature="0" />
    <path
       d="m 7185,3006 c -11,-8 -14,-16 -8,-19 6,-4 18,0 28,7 11,8 14,16 8,19 -6,4 -18,0 -28,-7 z"
       id="path256"
       inkscape:connector-curvature="0" />
    <path
       d="m 285,2991 c -3,-6 3,-15 14,-21 12,-6 22,-6 26,-1 3,6 -3,15 -14,21 -12,6 -22,6 -26,1 z"
       id="path258"
       inkscape:connector-curvature="0" />
    <path
       d="m 7115,2966 c -11,-8 -14,-16 -8,-19 6,-4 18,0 28,7 11,8 14,16 8,19 -6,4 -18,0 -28,-7 z"
       id="path260"
       inkscape:connector-curvature="0" />
    <path
       d="m 355,2951 c -3,-6 3,-15 14,-21 12,-6 22,-6 26,-1 3,6 -3,15 -14,21 -12,6 -22,6 -26,1 z"
       id="path262"
       inkscape:connector-curvature="0" />
    <path
       d="m 7065,2936 c -11,-8 -14,-16 -8,-19 6,-4 18,0 28,7 11,8 14,16 8,19 -6,4 -18,0 -28,-7 z"
       id="path264"
       inkscape:connector-curvature="0" />
    <path
       d="m 405,2920 c -3,-5 8,-16 24,-25 18,-9 32,-11 36,-5 3,5 -8,16 -24,25 -18,9 -32,11 -36,5 z"
       id="path266"
       inkscape:connector-curvature="0" />
    <path
       d="m 6995,2896 c -11,-8 -14,-16 -8,-19 6,-4 18,0 28,7 11,8 14,16 8,19 -6,4 -18,0 -28,-7 z"
       id="path268"
       inkscape:connector-curvature="0" />
    <path
       d="m 475,2880 c -3,-5 8,-16 24,-25 18,-9 32,-11 36,-5 3,5 -8,16 -24,25 -18,9 -32,11 -36,5 z"
       id="path270"
       inkscape:connector-curvature="0" />
    <path
       d="m 545,2840 c -3,-5 8,-16 24,-25 18,-9 32,-11 36,-5 3,5 -8,16 -24,25 -18,9 -32,11 -36,5 z"
       id="path272"
       inkscape:connector-curvature="0" />
    <path
       d="m 6875,2826 c -11,-8 -14,-16 -8,-19 6,-4 18,0 28,7 11,8 14,16 8,19 -6,4 -18,0 -28,-7 z"
       id="path274"
       inkscape:connector-curvature="0" />
    <path
       d="m 615,2801 c -3,-6 3,-15 14,-21 12,-6 22,-6 26,-1 3,6 -3,15 -14,21 -12,6 -22,6 -26,1 z"
       id="path276"
       inkscape:connector-curvature="0" />
    <path
       d="m 6805,2786 c -11,-8 -14,-16 -8,-19 6,-4 18,0 28,7 11,8 14,16 8,19 -6,4 -18,0 -28,-7 z"
       id="path278"
       inkscape:connector-curvature="0" />
    <path
       d="m 685,2761 c -3,-6 3,-15 14,-21 12,-6 22,-6 26,-1 3,6 -3,15 -14,21 -12,6 -22,6 -26,1 z"
       id="path280"
       inkscape:connector-curvature="0" />
    <path
       d="m 6755,2756 c -11,-8 -14,-16 -8,-19 6,-4 18,0 28,7 11,8 14,16 8,19 -6,4 -18,0 -28,-7 z"
       id="path282"
       inkscape:connector-curvature="0" />
    <path
       d="m 755,2721 c -3,-6 3,-15 14,-21 12,-6 22,-6 26,-1 3,6 -3,15 -14,21 -12,6 -22,6 -26,1 z"
       id="path284"
       inkscape:connector-curvature="0" />
    <path
       d="m 6685,2716 c -11,-8 -14,-16 -8,-19 6,-4 18,0 28,7 11,8 14,16 8,19 -6,4 -18,0 -28,-7 z"
       id="path286"
       inkscape:connector-curvature="0" />
    <path
       d="m 6635,2686 c -11,-8 -14,-16 -8,-19 6,-4 18,0 28,7 11,8 14,16 8,19 -6,4 -18,0 -28,-7 z"
       id="path288"
       inkscape:connector-curvature="0" />
    <path
       d="m 825,2681 c -3,-6 3,-15 14,-21 12,-6 22,-6 26,-1 3,6 -3,15 -14,21 -12,6 -22,6 -26,1 z"
       id="path290"
       inkscape:connector-curvature="0" />
    <path
       d="m 6565,2646 c -11,-8 -14,-16 -8,-19 6,-4 18,0 28,7 11,8 14,16 8,19 -6,4 -18,0 -28,-7 z"
       id="path292"
       inkscape:connector-curvature="0" />
    <path
       d="m 895,2641 c -3,-6 3,-15 14,-21 12,-6 22,-6 26,-1 3,6 -3,15 -14,21 -12,6 -22,6 -26,1 z"
       id="path294"
       inkscape:connector-curvature="0" />
    <path
       d="m 965,2601 c -3,-6 3,-15 14,-21 12,-6 22,-6 26,-1 3,6 -3,15 -14,21 -12,6 -22,6 -26,1 z"
       id="path296"
       inkscape:connector-curvature="0" />
    <path
       d="m 6445,2576 c -11,-8 -14,-16 -8,-19 6,-4 18,0 28,7 11,8 14,16 8,19 -6,4 -18,0 -28,-7 z"
       id="path298"
       inkscape:connector-curvature="0" />
    <path
       d="m 1035,2561 c -3,-6 3,-15 14,-21 12,-6 22,-6 26,-1 3,6 -3,15 -14,21 -12,6 -22,6 -26,1 z"
       id="path300"
       inkscape:connector-curvature="0" />
    <path
       d="m 6375,2536 c -11,-8 -14,-16 -8,-19 6,-4 18,0 28,7 11,8 14,16 8,19 -6,4 -18,0 -28,-7 z"
       id="path302"
       inkscape:connector-curvature="0" />
    <path
       d="m 1105,2521 c -3,-6 3,-15 14,-21 12,-6 22,-6 26,-1 3,6 -3,15 -14,21 -12,6 -22,6 -26,1 z"
       id="path304"
       inkscape:connector-curvature="0" />
    <path
       d="m 6325,2506 c -11,-8 -14,-16 -8,-19 6,-4 18,0 28,7 11,8 14,16 8,19 -6,4 -18,0 -28,-7 z"
       id="path306"
       inkscape:connector-curvature="0" />
    <path
       d="m 1155,2490 c -3,-5 8,-16 24,-25 18,-9 32,-11 36,-5 3,5 -8,16 -24,25 -18,9 -32,11 -36,5 z"
       id="path308"
       inkscape:connector-curvature="0" />
    <path
       d="m 6255,2466 c -11,-8 -14,-16 -8,-19 6,-4 18,0 28,7 11,8 14,16 8,19 -6,4 -18,0 -28,-7 z"
       id="path310"
       inkscape:connector-curvature="0" />
    <path
       d="m 1225,2450 c -3,-5 8,-16 24,-25 18,-9 32,-11 36,-5 3,5 -8,16 -24,25 -18,9 -32,11 -36,5 z"
       id="path312"
       inkscape:connector-curvature="0" />
    <path
       d="m 6205,2436 c -11,-8 -14,-16 -8,-19 6,-4 18,0 28,7 11,8 14,16 8,19 -6,4 -18,0 -28,-7 z"
       id="path314"
       inkscape:connector-curvature="0" />
    <path
       d="m 1295,2410 c -3,-5 8,-16 24,-25 18,-9 32,-11 36,-5 3,5 -8,16 -24,25 -18,9 -32,11 -36,5 z"
       id="path316"
       inkscape:connector-curvature="0" />
    <path
       d="m 6135,2396 c -11,-8 -14,-16 -8,-19 6,-4 18,0 28,7 11,8 14,16 8,19 -6,4 -18,0 -28,-7 z"
       id="path318"
       inkscape:connector-curvature="0" />
    <path
       d="m 1365,2370 c -3,-5 8,-16 24,-25 18,-9 32,-11 36,-5 3,5 -8,16 -24,25 -18,9 -32,11 -36,5 z"
       id="path320"
       inkscape:connector-curvature="0" />
    <path
       d="m 1435,2331 c -3,-6 3,-15 14,-21 12,-6 22,-6 26,-1 3,6 -3,15 -14,21 -12,6 -22,6 -26,1 z"
       id="path322"
       inkscape:connector-curvature="0" />
    <path
       d="m 6015,2326 c -11,-8 -14,-16 -8,-19 6,-4 18,0 28,7 11,8 14,16 8,19 -6,4 -18,0 -28,-7 z"
       id="path324"
       inkscape:connector-curvature="0" />
    <path
       d="m 1505,2291 c -3,-6 3,-15 14,-21 12,-6 22,-6 26,-1 3,6 -3,15 -14,21 -12,6 -22,6 -26,1 z"
       id="path326"
       inkscape:connector-curvature="0" />
    <path
       d="m 5945,2286 c -11,-8 -14,-16 -8,-19 6,-4 18,0 28,7 11,8 14,16 8,19 -6,4 -18,0 -28,-7 z"
       id="path328"
       inkscape:connector-curvature="0" />
    <path
       d="m 5895,2256 c -11,-8 -14,-16 -8,-19 6,-4 18,0 28,7 11,8 14,16 8,19 -6,4 -18,0 -28,-7 z"
       id="path330"
       inkscape:connector-curvature="0" />
    <path
       d="m 1575,2251 c -3,-6 3,-15 14,-21 12,-6 22,-6 26,-1 3,6 -3,15 -14,21 -12,6 -22,6 -26,1 z"
       id="path332"
       inkscape:connector-curvature="0" />
    <path
       d="m 5825,2216 c -11,-8 -14,-16 -8,-19 6,-4 18,0 28,7 11,8 14,16 8,19 -6,4 -18,0 -28,-7 z"
       id="path334"
       inkscape:connector-curvature="0" />
    <path
       d="m 1645,2211 c -3,-6 3,-15 14,-21 12,-6 22,-6 26,-1 3,6 -3,15 -14,21 -12,6 -22,6 -26,1 z"
       id="path336"
       inkscape:connector-curvature="0" />
    <path
       d="m 5775,2186 c -11,-8 -14,-16 -8,-19 6,-4 18,0 28,7 11,8 14,16 8,19 -6,4 -18,0 -28,-7 z"
       id="path338"
       inkscape:connector-curvature="0" />
    <path
       d="m 1715,2171 c -3,-6 3,-15 14,-21 12,-6 22,-6 26,-1 3,6 -3,15 -14,21 -12,6 -22,6 -26,1 z"
       id="path340"
       inkscape:connector-curvature="0" />
    <path
       d="m 5705,2146 c -11,-8 -14,-16 -8,-19 6,-4 18,0 28,7 11,8 14,16 8,19 -6,4 -18,0 -28,-7 z"
       id="path342"
       inkscape:connector-curvature="0" />
    <path
       d="m 1785,2131 c -3,-6 3,-15 14,-21 12,-6 22,-6 26,-1 3,6 -3,15 -14,21 -12,6 -22,6 -26,1 z"
       id="path344"
       inkscape:connector-curvature="0" />
    <path
       d="m 1855,2091 c -3,-6 3,-15 14,-21 12,-6 22,-6 26,-1 3,6 -3,15 -14,21 -12,6 -22,6 -26,1 z"
       id="path346"
       inkscape:connector-curvature="0" />
    <path
       d="m 5585,2076 c -11,-8 -14,-16 -8,-19 6,-4 18,0 28,7 11,8 14,16 8,19 -6,4 -18,0 -28,-7 z"
       id="path348"
       inkscape:connector-curvature="0" />
    <path
       d="m 1905,2060 c -3,-5 8,-16 24,-25 18,-9 32,-11 36,-5 3,5 -8,16 -24,25 -18,9 -32,11 -36,5 z"
       id="path350"
       inkscape:connector-curvature="0" />
    <path
       d="m 5515,2036 c -11,-8 -14,-16 -8,-19 6,-4 18,0 28,7 11,8 14,16 8,19 -6,4 -18,0 -28,-7 z"
       id="path352"
       inkscape:connector-curvature="0" />
    <path
       d="m 1975,2020 c -3,-5 8,-16 24,-25 18,-9 32,-11 36,-5 3,5 -8,16 -24,25 -18,9 -32,11 -36,5 z"
       id="path354"
       inkscape:connector-curvature="0" />
    <path
       d="m 5465,2006 c -11,-8 -14,-16 -8,-19 6,-4 18,0 28,7 11,8 14,16 8,19 -6,4 -18,0 -28,-7 z"
       id="path356"
       inkscape:connector-curvature="0" />
    <path
       d="m 2045,1980 c -3,-5 8,-16 24,-25 18,-9 32,-11 36,-5 3,5 -8,16 -24,25 -18,9 -32,11 -36,5 z"
       id="path358"
       inkscape:connector-curvature="0" />
    <path
       d="m 5395,1966 c -11,-8 -14,-16 -8,-19 6,-4 18,0 28,7 11,8 14,16 8,19 -6,4 -18,0 -28,-7 z"
       id="path360"
       inkscape:connector-curvature="0" />
    <path
       d="m 2115,1940 c -3,-5 8,-16 24,-25 18,-9 32,-11 36,-5 3,5 -8,16 -24,25 -18,9 -32,11 -36,5 z"
       id="path362"
       inkscape:connector-curvature="0" />
    <path
       d="m 5345,1936 c -11,-8 -14,-16 -8,-19 6,-4 18,0 28,7 11,8 14,16 8,19 -6,4 -18,0 -28,-7 z"
       id="path364"
       inkscape:connector-curvature="0" />
    <path
       d="m 2185,1901 c -3,-6 3,-15 14,-21 12,-6 22,-6 26,-1 3,6 -3,15 -14,21 -12,6 -22,6 -26,1 z"
       id="path366"
       inkscape:connector-curvature="0" />
    <path
       d="m 5275,1896 c -11,-8 -14,-16 -8,-19 6,-4 18,0 28,7 11,8 14,16 8,19 -6,4 -18,0 -28,-7 z"
       id="path368"
       inkscape:connector-curvature="0" />
    <path
       d="m 2255,1861 c -3,-6 3,-15 14,-21 12,-6 22,-6 26,-1 3,6 -3,15 -14,21 -12,6 -22,6 -26,1 z"
       id="path370"
       inkscape:connector-curvature="0" />
    <path
       d="m 5155,1826 c -11,-8 -14,-16 -8,-19 6,-4 18,0 28,7 11,8 14,16 8,19 -6,4 -18,0 -28,-7 z"
       id="path372"
       inkscape:connector-curvature="0" />
    <path
       d="m 2325,1821 c -3,-6 3,-15 14,-21 12,-6 22,-6 26,-1 3,6 -3,15 -14,21 -12,6 -22,6 -26,1 z"
       id="path374"
       inkscape:connector-curvature="0" />
    <path
       d="m 5085,1786 c -11,-8 -14,-16 -8,-19 6,-4 18,0 28,7 11,8 14,16 8,19 -6,4 -18,0 -28,-7 z"
       id="path376"
       inkscape:connector-curvature="0" />
    <path
       d="m 2395,1781 c -3,-6 3,-15 14,-21 12,-6 22,-6 26,-1 3,6 -3,15 -14,21 -12,6 -22,6 -26,1 z"
       id="path378"
       inkscape:connector-curvature="0" />
    <path
       d="m 5035,1756 c -11,-8 -14,-16 -8,-19 6,-4 18,0 28,7 11,8 14,16 8,19 -6,4 -18,0 -28,-7 z"
       id="path380"
       inkscape:connector-curvature="0" />
    <path
       d="m 2465,1741 c -3,-6 3,-15 14,-21 12,-6 22,-6 26,-1 3,6 -3,15 -14,21 -12,6 -22,6 -26,1 z"
       id="path382"
       inkscape:connector-curvature="0" />
    <path
       d="m 4965,1716 c -11,-8 -14,-16 -8,-19 6,-4 18,0 28,7 11,8 14,16 8,19 -6,4 -18,0 -28,-7 z"
       id="path384"
       inkscape:connector-curvature="0" />
    <path
       d="m 2535,1701 c -3,-6 3,-15 14,-21 12,-6 22,-6 26,-1 3,6 -3,15 -14,21 -12,6 -22,6 -26,1 z"
       id="path386"
       inkscape:connector-curvature="0" />
    <path
       d="m 4915,1686 c -11,-8 -14,-16 -8,-19 6,-4 18,0 28,7 11,8 14,16 8,19 -6,4 -18,0 -28,-7 z"
       id="path388"
       inkscape:connector-curvature="0" />
    <path
       d="m 2605,1661 c -3,-6 3,-15 14,-21 12,-6 22,-6 26,-1 3,6 -3,15 -14,21 -12,6 -22,6 -26,1 z"
       id="path390"
       inkscape:connector-curvature="0" />
    <path
       d="m 4845,1646 c -11,-8 -14,-16 -8,-19 6,-4 18,0 28,7 11,8 14,16 8,19 -6,4 -18,0 -28,-7 z"
       id="path392"
       inkscape:connector-curvature="0" />
    <path
       d="m 2655,1630 c -3,-5 8,-16 24,-25 18,-9 32,-11 36,-5 3,5 -8,16 -24,25 -18,9 -32,11 -36,5 z"
       id="path394"
       inkscape:connector-curvature="0" />
    <path
       d="m 2725,1590 c -3,-5 8,-16 24,-25 18,-9 32,-11 36,-5 3,5 -8,16 -24,25 -18,9 -32,11 -36,5 z"
       id="path396"
       inkscape:connector-curvature="0" />
    <path
       d="m 4725,1576 c -11,-8 -14,-16 -8,-19 6,-4 18,0 28,7 11,8 14,16 8,19 -6,4 -18,0 -28,-7 z"
       id="path398"
       inkscape:connector-curvature="0" />
    <path
       d="m 2795,1550 c -3,-5 8,-16 24,-25 18,-9 32,-11 36,-5 3,5 -8,16 -24,25 -18,9 -32,11 -36,5 z"
       id="path400"
       inkscape:connector-curvature="0" />
    <path
       d="m 4655,1536 c -11,-8 -14,-16 -8,-19 6,-4 18,0 28,7 11,8 14,16 8,19 -6,4 -18,0 -28,-7 z"
       id="path402"
       inkscape:connector-curvature="0" />
    <path
       d="m 2865,1510 c -3,-5 8,-16 24,-25 18,-9 32,-11 36,-5 3,5 -8,16 -24,25 -18,9 -32,11 -36,5 z"
       id="path404"
       inkscape:connector-curvature="0" />
    <path
       d="m 4605,1506 c -11,-8 -14,-16 -8,-19 6,-4 18,0 28,7 11,8 14,16 8,19 -6,4 -18,0 -28,-7 z"
       id="path406"
       inkscape:connector-curvature="0" />
    <path
       d="m 2935,1471 c -3,-6 3,-15 14,-21 12,-6 22,-6 26,-1 3,6 -3,15 -14,21 -12,6 -22,6 -26,1 z"
       id="path408"
       inkscape:connector-curvature="0" />
    <path
       d="m 4535,1466 c -11,-8 -14,-16 -8,-19 6,-4 18,0 28,7 11,8 14,16 8,19 -6,4 -18,0 -28,-7 z"
       id="path410"
       inkscape:connector-curvature="0" />
    <path
       d="m 4485,1436 c -11,-8 -14,-16 -8,-19 6,-4 18,0 28,7 11,8 14,16 8,19 -6,4 -18,0 -28,-7 z"
       id="path412"
       inkscape:connector-curvature="0" />
    <path
       d="m 3005,1431 c -3,-6 3,-15 14,-21 12,-6 22,-6 26,-1 3,6 -3,15 -14,21 -12,6 -22,6 -26,1 z"
       id="path414"
       inkscape:connector-curvature="0" />
    <path
       d="m 4415,1396 c -11,-8 -14,-16 -8,-19 6,-4 18,0 28,7 11,8 14,16 8,19 -6,4 -18,0 -28,-7 z"
       id="path416"
       inkscape:connector-curvature="0" />
    <path
       d="m 3075,1391 c -3,-6 3,-15 14,-21 12,-6 22,-6 26,-1 3,6 -3,15 -14,21 -12,6 -22,6 -26,1 z"
       id="path418"
       inkscape:connector-curvature="0" />
    <path
       d="m 3145,1351 c -3,-6 3,-15 14,-21 12,-6 22,-6 26,-1 3,6 -3,15 -14,21 -12,6 -22,6 -26,1 z"
       id="path420"
       inkscape:connector-curvature="0" />
    <path
       d="m 4295,1326 c -11,-8 -14,-16 -8,-19 6,-4 18,0 28,7 11,8 14,16 8,19 -6,4 -18,0 -28,-7 z"
       id="path422"
       inkscape:connector-curvature="0" />
    <path
       d="m 3215,1311 c -3,-6 3,-15 14,-21 12,-6 22,-6 26,-1 3,6 -3,15 -14,21 -12,6 -22,6 -26,1 z"
       id="path424"
       inkscape:connector-curvature="0" />
    <path
       d="m 4225,1286 c -11,-8 -14,-16 -8,-19 6,-4 18,0 28,7 11,8 14,16 8,19 -6,4 -18,0 -28,-7 z"
       id="path426"
       inkscape:connector-curvature="0" />
    <path
       d="m 3285,1271 c -3,-6 3,-15 14,-21 12,-6 22,-6 26,-1 3,6 -3,15 -14,21 -12,6 -22,6 -26,1 z"
       id="path428"
       inkscape:connector-curvature="0" />
    <path
       d="m 4175,1256 c -11,-8 -14,-16 -8,-19 6,-4 18,0 28,7 11,8 14,16 8,19 -6,4 -18,0 -28,-7 z"
       id="path430"
       inkscape:connector-curvature="0" />
    <path
       d="m 3355,1231 c -3,-6 3,-15 14,-21 12,-6 22,-6 26,-1 3,6 -3,15 -14,21 -12,6 -22,6 -26,1 z"
       id="path432"
       inkscape:connector-curvature="0" />
    <path
       d="m 4105,1216 c -11,-8 -14,-16 -8,-19 6,-4 18,0 28,7 11,8 14,16 8,19 -6,4 -18,0 -28,-7 z"
       id="path434"
       inkscape:connector-curvature="0" />
    <path
       d="m 3405,1200 c -3,-5 8,-16 24,-25 18,-9 32,-11 36,-5 3,5 -8,16 -24,25 -18,9 -32,11 -36,5 z"
       id="path436"
       inkscape:connector-curvature="0" />
    <path
       d="m 4055,1186 c -11,-8 -14,-16 -8,-19 6,-4 18,0 28,7 11,8 14,16 8,19 -6,4 -18,0 -28,-7 z"
       id="path438"
       inkscape:connector-curvature="0" />
    <path
       d="m 3475,1160 c -3,-5 8,-16 24,-25 18,-9 32,-11 36,-5 3,5 -8,16 -24,25 -18,9 -32,11 -36,5 z"
       id="path440"
       inkscape:connector-curvature="0" />
    <path
       d="m 3985,1146 c -11,-8 -14,-16 -8,-19 6,-4 18,0 28,7 11,8 14,16 8,19 -6,4 -18,0 -28,-7 z"
       id="path442"
       inkscape:connector-curvature="0" />
    <path
       d="m 3545,1120 c -3,-5 8,-16 24,-25 18,-9 32,-11 36,-5 3,5 -8,16 -24,25 -18,9 -32,11 -36,5 z"
       id="path444"
       inkscape:connector-curvature="0" />
    <path
       d="m 3615,1080 c -3,-5 8,-16 24,-25 18,-9 32,-11 36,-5 3,5 -8,16 -24,25 -18,9 -32,11 -36,5 z"
       id="path446"
       inkscape:connector-curvature="0" />
    <path
       d="m 3865,1076 c -11,-8 -14,-16 -8,-19 6,-4 18,0 28,7 11,8 14,16 8,19 -6,4 -18,0 -28,-7 z"
       id="path448"
       inkscape:connector-curvature="0" />
    <path
       d="m 3685,1041 c -3,-6 3,-15 14,-21 12,-6 22,-6 26,-1 3,6 -3,15 -14,21 -12,6 -22,6 -26,1 z"
       id="path450"
       inkscape:connector-curvature="0" />
    <path
       d="m 3795,1036 c -11,-8 -14,-16 -8,-19 6,-4 18,0 28,7 11,8 14,16 8,19 -6,4 -18,0 -28,-7 z"
       id="path452"
       inkscape:connector-curvature="0" />
  </g>
  <g
     id="g454"
     style="fill:#cb248b;stroke:none"
     transform="translate(-30.670086,-1008.6487)">
    <path
       d="M 1880,8461 45,7393 42,7309 c -2,-46 0,-1007 3,-2136 L 52,3121 1903,2060 c 1572,-901 1854,-1060 1872,-1051 11,5 839,486 1840,1069 l 1820,1059 -4,2134 c -2,1589 -6,2137 -15,2146 -18,19 -3676,2113 -3689,2112 -7,0 -838,-481 -1847,-1068 z m 2222,-727 c 448,-62 855,-227 1209,-491 476,-353 812,-876 944,-1468 194,-868 -70,-1771 -696,-2381 -335,-325 -703,-531 -1149,-644 -239,-60 -403,-80 -647,-80 -967,0 -1846,544 -2268,1404 -92,188 -136,308 -185,500 -62,246 -75,355 -75,641 0,276 12,380 66,604 73,298 194,573 361,821 102,151 175,238 317,380 387,385 870,626 1424,710 163,24 537,27 699,4 z"
       id="path456"
       inkscape:connector-curvature="0" />
    <path
       d="m 3530,7433 c -59,-6 -76,-20 -54,-44 14,-16 14,-19 -5,-38 -25,-25 -39,-26 -62,-5 -24,21 -37,13 -139,-90 l -84,-86 12,-33 c 7,-18 12,-51 12,-73 0,-21 9,-67 20,-101 18,-57 18,-66 4,-118 -8,-31 -12,-61 -9,-65 3,-5 32,-25 65,-45 33,-20 66,-46 73,-58 8,-15 12,-69 12,-158 1,-135 1,-136 29,-170 52,-61 76,-128 69,-188 -5,-43 -11,-56 -38,-76 -53,-41 -159,-84 -262,-106 -54,-12 -109,-27 -123,-34 -14,-7 -74,-63 -133,-125 -112,-116 -163,-149 -251,-163 -53,-8 -98,-51 -89,-86 3,-14 13,-36 21,-49 18,-27 10,-37 -38,-49 l -35,-9 -5,-125 c -3,-68 -9,-131 -15,-140 -17,-27 -58,-48 -125,-63 -174,-38 -214,-57 -225,-106 -8,-37 -28,-47 -59,-30 -21,11 -31,7 -92,-33 -38,-25 -76,-46 -84,-48 -39,-4 -61,4 -100,36 -23,19 -52,35 -63,35 -42,0 -67,13 -73,35 -3,13 -14,31 -23,40 -17,14 -19,14 -31,0 -30,-36 -1,-196 52,-285 48,-80 91,-108 118,-75 16,19 44,19 60,0 17,-21 47,-19 60,4 5,11 10,51 10,90 0,64 2,71 20,71 11,0 29,9 41,21 27,27 73,23 77,-8 2,-12 -6,-35 -18,-51 -20,-28 -21,-33 -10,-88 20,-96 41,-126 141,-199 61,-45 95,-78 104,-99 8,-18 31,-45 52,-61 21,-15 54,-43 74,-62 23,-22 50,-36 75,-40 45,-7 63,-18 75,-50 5,-13 29,-33 55,-45 44,-22 46,-22 59,-4 18,24 51,17 165,-32 67,-30 85,-42 90,-62 7,-31 30,-36 69,-16 54,28 130,16 151,-24 7,-14 8,-31 1,-54 -5,-22 -5,-38 1,-44 5,-5 14,-29 19,-53 9,-39 8,-45 -12,-60 -26,-20 -30,-62 -15,-167 11,-82 -4,-68 149,-144 65,-32 74,-46 56,-80 -7,-13 -12,-38 -10,-55 1,-18 -5,-46 -13,-62 -14,-26 -14,-30 2,-44 10,-9 44,-28 75,-42 48,-21 58,-23 62,-10 3,8 7,22 10,30 2,8 15,15 28,15 35,0 57,30 57,78 0,34 -5,45 -27,59 -36,23 -40,28 -58,91 -20,68 -11,118 28,154 50,48 83,39 185,-53 30,-27 76,-56 108,-68 31,-12 70,-29 87,-37 17,-9 59,-22 93,-30 76,-15 139,-47 155,-76 6,-12 13,-57 14,-100 3,-67 6,-81 26,-97 28,-23 20,-47 -20,-56 -16,-3 -51,-21 -78,-38 -47,-32 -49,-32 -168,-31 -100,1 -127,4 -165,22 -36,17 -48,19 -61,9 -71,-52 -112,-77 -125,-77 -15,0 -114,61 -152,94 -17,15 -25,17 -34,8 -20,-20 -36,-14 -82,28 -43,40 -56,42 -56,8 0,-22 -18,-23 -48,-3 -15,11 -27,13 -39,7 -31,-16 -180,5 -239,33 -29,14 -59,25 -66,25 -22,0 -121,50 -133,67 -12,17 -45,12 -45,-6 0,-25 265,-149 439,-205 130,-42 314,-81 467,-97 137,-16 478,1 625,30 194,39 377,102 559,193 136,68 299,183 282,200 -5,5 -51,-1 -103,-13 -52,-12 -109,-24 -127,-26 -59,-9 -102,37 -117,127 -4,25 -18,66 -31,92 l -24,46 40,59 c 22,33 50,64 63,70 16,7 27,23 31,45 6,29 3,37 -24,61 -17,15 -34,27 -39,27 -9,0 -113,-111 -149,-159 -27,-36 -67,-50 -87,-30 -7,8 -17,30 -22,49 -6,24 -21,43 -46,59 -39,26 -43,39 -30,115 l 6,38 41,-6 c 85,-13 81,-14 78,18 -2,16 2,32 9,37 7,4 17,22 23,41 7,22 18,34 32,36 30,4 68,47 60,67 -5,14 -16,16 -69,10 -54,-6 -66,-4 -87,13 -23,18 -25,29 -28,109 -3,76 0,94 20,133 15,28 31,47 46,50 13,3 23,10 23,15 -1,6 -24,36 -52,68 -28,32 -55,73 -60,93 -8,27 -27,47 -83,88 -70,52 -75,58 -140,186 l -68,131 17,63 c 17,62 17,62 -10,140 -22,64 -25,83 -16,103 6,13 11,32 11,41 0,21 73,130 128,193 53,59 187,152 221,152 62,1 290,-25 338,-39 69,-19 71,-19 94,21 18,30 26,35 60,35 29,0 42,6 54,23 14,21 14,28 0,60 -8,19 -19,38 -23,41 -12,7 2,84 31,178 24,75 24,79 10,158 -15,79 -23,96 -95,197 -24,33 -32,57 -39,120 -11,102 -78,311 -123,386 -19,31 -38,67 -42,79 -6,20 -4,21 54,15 121,-13 250,-79 390,-199 34,-29 76,-64 93,-77 17,-14 53,-52 79,-85 27,-34 69,-78 95,-100 67,-56 77,-33 14,34 -29,31 -67,87 -86,127 -29,61 -48,85 -121,149 -330,290 -698,465 -1137,540 -89,15 -489,27 -585,17 z M 4962,5913 c 9,-12 13,-27 9,-43 -5,-19 -14,-26 -40,-28 -36,-4 -56,8 -64,39 -11,43 64,68 95,32 z M 4230,3590 c 47,-24 54,-60 18,-84 -32,-19 -182,-28 -204,-12 -16,12 -16,15 2,54 29,63 108,81 184,42 z m 359,-311 c 40,-14 40,-37 1,-79 -29,-31 -33,-32 -90,-28 -65,5 -102,26 -78,45 11,9 128,73 133,73 1,0 16,-5 34,-11 z"
       id="path458"
       inkscape:connector-curvature="0" />
    <path
       d="m 3110,7341 c -214,-73 -391,-158 -555,-267 -446,-295 -767,-725 -920,-1231 -55,-180 -111,-551 -87,-575 16,-16 60,-1 73,25 7,12 31,43 53,68 24,27 54,76 70,117 18,46 36,76 54,88 15,10 40,31 56,47 21,20 35,27 51,23 31,-8 41,8 55,91 10,62 9,84 -5,151 -16,75 -16,83 0,138 24,83 50,130 104,188 26,28 81,94 123,147 79,100 120,138 203,184 72,41 88,57 175,180 43,61 99,137 124,170 85,109 257,285 320,327 33,23 94,64 134,90 40,27 70,53 67,59 -7,11 5,14 -95,-20 z"
       id="path460"
       inkscape:connector-curvature="0" />
    <path
       d="m 5681,6306 c -29,-34 37,-201 135,-348 113,-168 105,-91 -21,184 -36,78 -73,150 -83,161 -17,16 -20,16 -31,3 z"
       id="path462"
       inkscape:connector-curvature="0" />
    <path
       d="m 1923,5502 c -59,-4 -66,-17 -64,-125 2,-104 -10,-132 -71,-163 -27,-14 -30,-19 -25,-52 3,-21 12,-54 21,-75 16,-37 17,-37 41,-21 13,9 27,25 31,36 3,11 21,26 40,34 19,8 34,21 34,29 0,19 39,45 68,45 13,0 37,-9 52,-20 26,-18 35,-19 97,-10 37,5 95,10 128,11 33,0 78,6 100,13 45,13 40,-1 68,183 7,51 12,94 10,96 -2,2 -27,-2 -55,-10 -29,-7 -69,-13 -90,-13 -29,0 -47,-8 -76,-35 -35,-31 -44,-34 -89,-31 -63,5 -88,17 -138,69 -36,38 -44,42 -82,39 z"
       id="path464"
       inkscape:connector-curvature="0" />
    <path
       d="m 5293,4639 c -5,-5 -43,-21 -84,-36 -80,-27 -102,-40 -93,-55 3,-5 11,-5 19,2 18,15 29,-2 60,-95 14,-44 30,-84 34,-88 4,-4 32,18 61,49 103,109 167,137 210,94 27,-27 52,-25 80,5 14,15 33,24 45,23 18,-3 20,2 20,42 0,43 -1,45 -28,42 -15,-2 -35,1 -44,7 -11,6 -32,4 -62,-5 -109,-34 -181,-38 -181,-9 0,20 -25,36 -37,24 z"
       id="path466"
       inkscape:connector-curvature="0" />
    <path
       d="m 4717,4463 c -4,-4 2,-15 14,-24 17,-12 22,-28 23,-60 1,-35 6,-46 24,-55 13,-7 31,-24 40,-39 13,-21 26,-28 55,-30 43,-2 47,3 67,83 10,41 13,43 43,40 29,-3 32,-6 33,-38 1,-19 2,-39 3,-43 1,-8 91,50 91,59 0,2 -11,9 -24,14 -14,5 -26,19 -28,32 -3,22 -9,23 -98,31 -90,7 -170,19 -215,32 -11,3 -24,3 -28,-2 z"
       id="path468"
       inkscape:connector-curvature="0" />
    <path
       d="m 5440,4236 c -19,-23 -9,-62 15,-58 11,2 34,5 50,6 33,1 80,24 70,34 -6,7 -92,31 -111,32 -6,0 -17,-7 -24,-14 z"
       id="path470"
       inkscape:connector-curvature="0" />
    <path
       d="m 2837,4064 c -3,-3 8,-25 25,-50 31,-46 72,-60 84,-29 7,18 -13,45 -33,45 -8,0 -27,9 -43,20 -15,11 -30,17 -33,14 z"
       id="path472"
       inkscape:connector-curvature="0" />
    <path
       d="m 4955,3801 c -10,-18 5,-92 21,-98 8,-3 21,1 30,8 24,20 47,70 36,81 -15,15 -79,21 -87,9 z"
       id="path474"
       inkscape:connector-curvature="0" />
    <path
       d="m 2600,3728 c -26,-54 -25,-59 8,-90 23,-23 171,-98 192,-98 4,0 24,7 45,16 l 37,15 -79,78 c -70,70 -143,121 -172,121 -6,0 -20,-19 -31,-42 z"
       id="path476"
       inkscape:connector-curvature="0" />
    <path
       d="m 3053,3608 c -36,-61 -23,-74 20,-22 22,26 24,34 13,43 -11,9 -18,5 -33,-21 z"
       id="path478"
       inkscape:connector-curvature="0" />
    <path
       d="m 2965,3510 c -10,-17 12,-37 25,-24 8,8 6,15 -4,23 -10,9 -16,9 -21,1 z"
       id="path480"
       inkscape:connector-curvature="0" />
    <path
       d="m 3076,3452 c -3,-6 1,-15 8,-21 8,-7 17,-8 20,-3 3,6 -1,15 -8,21 -8,7 -17,8 -20,3 z"
       id="path482"
       inkscape:connector-curvature="0" />
  </g>
</svg>
