<?xml version="1.0" encoding="UTF-8" standalone="no"?>
<svg
   xmlns:dc="http://purl.org/dc/elements/1.1/"
   xmlns:cc="http://creativecommons.org/ns#"
   xmlns:rdf="http://www.w3.org/1999/02/22-rdf-syntax-ns#"
   xmlns:svg="http://www.w3.org/2000/svg"
   xmlns="http://www.w3.org/2000/svg"
   xmlns:sodipodi="http://sodipodi.sourceforge.net/DTD/sodipodi-0.dtd"
   xmlns:inkscape="http://www.inkscape.org/namespaces/inkscape"
   version="1.0"
   width="741.78302"
   height="852.03516"
   viewBox="0 0 7417.8302 8520.3516"
   preserveAspectRatio="xMidYMid meet"
   id="svg2"
   inkscape:version="0.91 r13725"
   sodipodi:docname="character.svg">
  <metadata
     id="metadata470">
    <rdf:RDF>
      <cc:Work
         rdf:about="">
        <dc:format>image/svg+xml</dc:format>
        <dc:type
           rdf:resource="http://purl.org/dc/dcmitype/StillImage" />
        <dc:title></dc:title>
      </cc:Work>
    </rdf:RDF>
  </metadata>
  <defs
     id="defs468" />
  <sodipodi:namedview
     pagecolor="#ffffff"
     bordercolor="#666666"
     borderopacity="1"
     objecttolerance="10"
     gridtolerance="10"
     guidetolerance="10"
     inkscape:pageopacity="0"
     inkscape:pageshadow="2"
     inkscape:window-width="693"
     inkscape:window-height="480"
     id="namedview466"
     showgrid="false"
     fit-margin-top="0"
     fit-margin-left="0"
     fit-margin-right="0"
     fit-margin-bottom="0"
     inkscape:zoom="0.22412156"
     inkscape:cx="369.43299"
     inkscape:cy="426.40005"
     inkscape:window-x="0"
     inkscape:window-y="23"
     inkscape:window-maximized="0"
     inkscape:current-layer="svg2" />
  <g
     id="g4"
     style="fill:#fffedb;stroke:none"
     transform="translate(-30.670086,-1008.6487)">
    <path
       d="m 3665,9506 c -11,-8 -14,-16 -8,-19 6,-4 18,0 28,7 11,8 14,16 8,19 -6,4 -18,0 -28,-7 z"
       id="path6"
       inkscape:connector-curvature="0" />
    <path
       d="m 3765,9511 c -3,-6 3,-15 14,-21 12,-6 22,-6 26,-1 3,6 -3,15 -14,21 -12,6 -22,6 -26,1 z"
       id="path8"
       inkscape:connector-curvature="0" />
    <path
       d="m 3615,9476 c -11,-8 -14,-16 -8,-19 6,-4 18,0 28,7 11,8 14,16 8,19 -6,4 -18,0 -28,-7 z"
       id="path10"
       inkscape:connector-curvature="0" />
    <path
       d="m 3835,9471 c -3,-6 3,-15 14,-21 12,-6 22,-6 26,-1 3,6 -3,15 -14,21 -12,6 -22,6 -26,1 z"
       id="path12"
       inkscape:connector-curvature="0" />
    <path
       d="m 3545,9436 c -11,-8 -14,-16 -8,-19 6,-4 18,0 28,7 11,8 14,16 8,19 -6,4 -18,0 -28,-7 z"
       id="path14"
       inkscape:connector-curvature="0" />
    <path
       d="m 3905,9431 c -3,-6 3,-15 14,-21 12,-6 22,-6 26,-1 3,6 -3,15 -14,21 -12,6 -22,6 -26,1 z"
       id="path16"
       inkscape:connector-curvature="0" />
    <path
       d="m 3487,9404 c -38,-20 -24,-38 14,-19 16,9 27,20 24,25 -7,12 -4,13 -38,-6 z"
       id="path18"
       inkscape:connector-curvature="0" />
    <path
       d="m 3975,9391 c -3,-6 3,-15 14,-21 12,-6 22,-6 26,-1 3,6 -3,15 -14,21 -12,6 -22,6 -26,1 z"
       id="path20"
       inkscape:connector-curvature="0" />
    <path
       d="m 3425,9366 c -11,-8 -14,-16 -8,-19 6,-4 18,0 28,7 11,8 14,16 8,19 -6,4 -18,0 -28,-7 z"
       id="path22"
       inkscape:connector-curvature="0" />
    <path
       d="m 4045,9351 c -3,-6 3,-15 14,-21 12,-6 22,-6 26,-1 3,6 -3,15 -14,21 -12,6 -22,6 -26,1 z"
       id="path24"
       inkscape:connector-curvature="0" />
    <path
       d="m 3355,9326 c -11,-8 -14,-16 -8,-19 6,-4 18,0 28,7 11,8 14,16 8,19 -6,4 -18,0 -28,-7 z"
       id="path26"
       inkscape:connector-curvature="0" />
    <path
       d="m 4115,9311 c -3,-6 3,-15 14,-21 12,-6 22,-6 26,-1 3,6 -3,15 -14,21 -12,6 -22,6 -26,1 z"
       id="path28"
       inkscape:connector-curvature="0" />
    <path
       d="m 3305,9296 c -11,-8 -14,-16 -8,-19 6,-4 18,0 28,7 11,8 14,16 8,19 -6,4 -18,0 -28,-7 z"
       id="path30"
       inkscape:connector-curvature="0" />
    <path
       d="m 4185,9271 c -3,-6 3,-15 14,-21 12,-6 22,-6 26,-1 3,6 -3,15 -14,21 -12,6 -22,6 -26,1 z"
       id="path32"
       inkscape:connector-curvature="0" />
    <path
       d="m 3235,9256 c -11,-8 -14,-16 -8,-19 6,-4 18,0 28,7 11,8 14,16 8,19 -6,4 -18,0 -28,-7 z"
       id="path34"
       inkscape:connector-curvature="0" />
    <path
       d="m 3185,9226 c -11,-8 -14,-16 -8,-19 6,-4 18,0 28,7 11,8 14,16 8,19 -6,4 -18,0 -28,-7 z"
       id="path36"
       inkscape:connector-curvature="0" />
    <path
       d="m 4255,9231 c -3,-6 3,-15 14,-21 12,-6 22,-6 26,-1 3,6 -3,15 -14,21 -12,6 -22,6 -26,1 z"
       id="path38"
       inkscape:connector-curvature="0" />
    <path
       d="m 3115,9186 c -11,-8 -14,-16 -8,-19 6,-4 18,0 28,7 11,8 14,16 8,19 -6,4 -18,0 -28,-7 z"
       id="path40"
       inkscape:connector-curvature="0" />
    <path
       d="m 4325,9191 c -3,-6 3,-15 14,-21 12,-6 22,-6 26,-1 3,6 -3,15 -14,21 -12,6 -22,6 -26,1 z"
       id="path42"
       inkscape:connector-curvature="0" />
    <path
       d="m 3057,9154 c -38,-20 -24,-38 14,-19 16,9 27,20 24,25 -7,12 -4,13 -38,-6 z"
       id="path44"
       inkscape:connector-curvature="0" />
    <path
       d="m 4395,9151 c -3,-6 3,-15 14,-21 12,-6 22,-6 26,-1 3,6 -3,15 -14,21 -12,6 -22,6 -26,1 z"
       id="path46"
       inkscape:connector-curvature="0" />
    <path
       d="m 2995,9116 c -11,-8 -14,-16 -8,-19 6,-4 18,0 28,7 11,8 14,16 8,19 -6,4 -18,0 -28,-7 z"
       id="path48"
       inkscape:connector-curvature="0" />
    <path
       d="m 4445,9120 c -3,-5 8,-16 24,-25 18,-9 32,-11 36,-5 3,5 -8,16 -24,25 -18,9 -32,11 -36,5 z"
       id="path50"
       inkscape:connector-curvature="0" />
    <path
       d="m 2925,9076 c -11,-8 -14,-16 -8,-19 6,-4 18,0 28,7 11,8 14,16 8,19 -6,4 -18,0 -28,-7 z"
       id="path52"
       inkscape:connector-curvature="0" />
    <path
       d="m 4515,9081 c -3,-6 3,-15 14,-21 12,-6 22,-6 26,-1 3,6 -3,15 -14,21 -12,6 -22,6 -26,1 z"
       id="path54"
       inkscape:connector-curvature="0" />
    <path
       d="m 2875,9046 c -11,-8 -14,-16 -8,-19 6,-4 18,0 28,7 11,8 14,16 8,19 -6,4 -18,0 -28,-7 z"
       id="path56"
       inkscape:connector-curvature="0" />
    <path
       d="m 4585,9041 c -3,-6 3,-15 14,-21 12,-6 22,-6 26,-1 3,6 -3,15 -14,21 -12,6 -22,6 -26,1 z"
       id="path58"
       inkscape:connector-curvature="0" />
    <path
       d="m 2805,9006 c -11,-8 -14,-16 -8,-19 6,-4 18,0 28,7 11,8 14,16 8,19 -6,4 -18,0 -28,-7 z"
       id="path60"
       inkscape:connector-curvature="0" />
    <path
       d="m 4655,9001 c -3,-6 3,-15 14,-21 12,-6 22,-6 26,-1 3,6 -3,15 -14,21 -12,6 -22,6 -26,1 z"
       id="path62"
       inkscape:connector-curvature="0" />
    <path
       d="m 2755,8976 c -11,-8 -14,-16 -8,-19 6,-4 18,0 28,7 11,8 14,16 8,19 -6,4 -18,0 -28,-7 z"
       id="path64"
       inkscape:connector-curvature="0" />
    <path
       d="m 4725,8961 c -3,-6 3,-15 14,-21 12,-6 22,-6 26,-1 3,6 -3,15 -14,21 -12,6 -22,6 -26,1 z"
       id="path66"
       inkscape:connector-curvature="0" />
    <path
       d="m 2685,8936 c -11,-8 -14,-16 -8,-19 6,-4 18,0 28,7 11,8 14,16 8,19 -6,4 -18,0 -28,-7 z"
       id="path68"
       inkscape:connector-curvature="0" />
    <path
       d="m 4795,8921 c -3,-6 3,-15 14,-21 12,-6 22,-6 26,-1 3,6 -3,15 -14,21 -12,6 -22,6 -26,1 z"
       id="path70"
       inkscape:connector-curvature="0" />
    <path
       d="m 2627,8904 c -38,-20 -24,-38 14,-19 16,9 27,20 24,25 -7,12 -4,13 -38,-6 z"
       id="path72"
       inkscape:connector-curvature="0" />
    <path
       d="m 4865,8881 c -3,-6 3,-15 14,-21 12,-6 22,-6 26,-1 3,6 -3,15 -14,21 -12,6 -22,6 -26,1 z"
       id="path74"
       inkscape:connector-curvature="0" />
    <path
       d="m 2565,8866 c -11,-8 -14,-16 -8,-19 6,-4 18,0 28,7 11,8 14,16 8,19 -6,4 -18,0 -28,-7 z"
       id="path76"
       inkscape:connector-curvature="0" />
    <path
       d="m 4935,8841 c -3,-6 3,-15 14,-21 12,-6 22,-6 26,-1 3,6 -3,15 -14,21 -12,6 -22,6 -26,1 z"
       id="path78"
       inkscape:connector-curvature="0" />
    <path
       d="m 2495,8826 c -11,-8 -14,-16 -8,-19 6,-4 18,0 28,7 11,8 14,16 8,19 -6,4 -18,0 -28,-7 z"
       id="path80"
       inkscape:connector-curvature="0" />
    <path
       d="m 2445,8796 c -11,-8 -14,-16 -8,-19 6,-4 18,0 28,7 11,8 14,16 8,19 -6,4 -18,0 -28,-7 z"
       id="path82"
       inkscape:connector-curvature="0" />
    <path
       d="m 5005,8801 c -3,-6 3,-15 14,-21 12,-6 22,-6 26,-1 3,6 -3,15 -14,21 -12,6 -22,6 -26,1 z"
       id="path84"
       inkscape:connector-curvature="0" />
    <path
       d="m 2375,8756 c -11,-8 -14,-16 -8,-19 6,-4 18,0 28,7 11,8 14,16 8,19 -6,4 -18,0 -28,-7 z"
       id="path86"
       inkscape:connector-curvature="0" />
    <path
       d="m 5075,8761 c -3,-6 3,-15 14,-21 12,-6 22,-6 26,-1 3,6 -3,15 -14,21 -12,6 -22,6 -26,1 z"
       id="path88"
       inkscape:connector-curvature="0" />
    <path
       d="m 2325,8726 c -11,-8 -14,-16 -8,-19 6,-4 18,0 28,7 11,8 14,16 8,19 -6,4 -18,0 -28,-7 z"
       id="path90"
       inkscape:connector-curvature="0" />
    <path
       d="m 5145,8721 c -3,-6 3,-15 14,-21 12,-6 22,-6 26,-1 3,6 -3,15 -14,21 -12,6 -22,6 -26,1 z"
       id="path92"
       inkscape:connector-curvature="0" />
    <path
       d="m 2255,8686 c -11,-8 -14,-16 -8,-19 6,-4 18,0 28,7 11,8 14,16 8,19 -6,4 -18,0 -28,-7 z"
       id="path94"
       inkscape:connector-curvature="0" />
    <path
       d="m 5195,8690 c -3,-5 8,-16 24,-25 18,-9 32,-11 36,-5 3,5 -8,16 -24,25 -18,9 -32,11 -36,5 z"
       id="path96"
       inkscape:connector-curvature="0" />
    <path
       d="m 2197,8654 c -38,-20 -24,-38 14,-19 16,9 27,20 24,25 -7,12 -4,13 -38,-6 z"
       id="path98"
       inkscape:connector-curvature="0" />
    <path
       d="m 5265,8651 c -3,-6 3,-15 14,-21 12,-6 22,-6 26,-1 3,6 -3,15 -14,21 -12,6 -22,6 -26,1 z"
       id="path100"
       inkscape:connector-curvature="0" />
    <path
       d="m 2135,8616 c -11,-8 -14,-16 -8,-19 6,-4 18,0 28,7 11,8 14,16 8,19 -6,4 -18,0 -28,-7 z"
       id="path102"
       inkscape:connector-curvature="0" />
    <path
       d="m 5335,8611 c -3,-6 3,-15 14,-21 12,-6 22,-6 26,-1 3,6 -3,15 -14,21 -12,6 -22,6 -26,1 z"
       id="path104"
       inkscape:connector-curvature="0" />
    <path
       d="m 2065,8576 c -11,-8 -14,-16 -8,-19 6,-4 18,0 28,7 11,8 14,16 8,19 -6,4 -18,0 -28,-7 z"
       id="path106"
       inkscape:connector-curvature="0" />
    <path
       d="m 5405,8571 c -3,-6 3,-15 14,-21 12,-6 22,-6 26,-1 3,6 -3,15 -14,21 -12,6 -22,6 -26,1 z"
       id="path108"
       inkscape:connector-curvature="0" />
    <path
       d="m 2015,8546 c -11,-8 -14,-16 -8,-19 6,-4 18,0 28,7 11,8 14,16 8,19 -6,4 -18,0 -28,-7 z"
       id="path110"
       inkscape:connector-curvature="0" />
    <path
       d="m 5475,8531 c -3,-6 3,-15 14,-21 12,-6 22,-6 26,-1 3,6 -3,15 -14,21 -12,6 -22,6 -26,1 z"
       id="path112"
       inkscape:connector-curvature="0" />
    <path
       d="m 1945,8506 c -11,-8 -14,-16 -8,-19 6,-4 18,0 28,7 11,8 14,16 8,19 -6,4 -18,0 -28,-7 z"
       id="path114"
       inkscape:connector-curvature="0" />
    <path
       d="m 5545,8491 c -3,-6 3,-15 14,-21 12,-6 22,-6 26,-1 3,6 -3,15 -14,21 -12,6 -22,6 -26,1 z"
       id="path116"
       inkscape:connector-curvature="0" />
    <path
       d="m 1895,8476 c -11,-8 -14,-16 -8,-19 6,-4 18,0 28,7 11,8 14,16 8,19 -6,4 -18,0 -28,-7 z"
       id="path118"
       inkscape:connector-curvature="0" />
    <path
       d="m 5615,8451 c -3,-6 3,-15 14,-21 12,-6 22,-6 26,-1 3,6 -3,15 -14,21 -12,6 -22,6 -26,1 z"
       id="path120"
       inkscape:connector-curvature="0" />
    <path
       d="m 1825,8436 c -11,-8 -14,-16 -8,-19 6,-4 18,0 28,7 11,8 14,16 8,19 -6,4 -18,0 -28,-7 z"
       id="path122"
       inkscape:connector-curvature="0" />
    <path
       d="m 1767,8404 c -38,-20 -24,-38 14,-19 16,9 27,20 24,25 -7,12 -4,13 -38,-6 z"
       id="path124"
       inkscape:connector-curvature="0" />
    <path
       d="m 5685,8411 c -3,-6 3,-15 14,-21 12,-6 22,-6 26,-1 3,6 -3,15 -14,21 -12,6 -22,6 -26,1 z"
       id="path126"
       inkscape:connector-curvature="0" />
    <path
       d="m 1705,8366 c -11,-8 -14,-16 -8,-19 6,-4 18,0 28,7 11,8 14,16 8,19 -6,4 -18,0 -28,-7 z"
       id="path128"
       inkscape:connector-curvature="0" />
    <path
       d="m 5755,8371 c -3,-6 3,-15 14,-21 12,-6 22,-6 26,-1 3,6 -3,15 -14,21 -12,6 -22,6 -26,1 z"
       id="path130"
       inkscape:connector-curvature="0" />
    <path
       d="m 1635,8326 c -11,-8 -14,-16 -8,-19 6,-4 18,0 28,7 11,8 14,16 8,19 -6,4 -18,0 -28,-7 z"
       id="path132"
       inkscape:connector-curvature="0" />
    <path
       d="m 5825,8331 c -3,-6 3,-15 14,-21 12,-6 22,-6 26,-1 3,6 -3,15 -14,21 -12,6 -22,6 -26,1 z"
       id="path134"
       inkscape:connector-curvature="0" />
    <path
       d="m 1585,8296 c -11,-8 -14,-16 -8,-19 6,-4 18,0 28,7 11,8 14,16 8,19 -6,4 -18,0 -28,-7 z"
       id="path136"
       inkscape:connector-curvature="0" />
    <path
       d="m 5895,8291 c -3,-6 3,-15 14,-21 12,-6 22,-6 26,-1 3,6 -3,15 -14,21 -12,6 -22,6 -26,1 z"
       id="path138"
       inkscape:connector-curvature="0" />
    <path
       d="m 1515,8256 c -11,-8 -14,-16 -8,-19 6,-4 18,0 28,7 11,8 14,16 8,19 -6,4 -18,0 -28,-7 z"
       id="path140"
       inkscape:connector-curvature="0" />
    <path
       d="m 5945,8260 c -3,-5 8,-16 24,-25 18,-9 32,-11 36,-5 3,5 -8,16 -24,25 -18,9 -32,11 -36,5 z"
       id="path142"
       inkscape:connector-curvature="0" />
    <path
       d="m 1465,8226 c -11,-8 -14,-16 -8,-19 6,-4 18,0 28,7 11,8 14,16 8,19 -6,4 -18,0 -28,-7 z"
       id="path144"
       inkscape:connector-curvature="0" />
    <path
       d="m 6015,8221 c -3,-6 3,-15 14,-21 12,-6 22,-6 26,-1 3,6 -3,15 -14,21 -12,6 -22,6 -26,1 z"
       id="path146"
       inkscape:connector-curvature="0" />
    <path
       d="m 1395,8186 c -11,-8 -14,-16 -8,-19 6,-4 18,0 28,7 11,8 14,16 8,19 -6,4 -18,0 -28,-7 z"
       id="path148"
       inkscape:connector-curvature="0" />
    <path
       d="m 6085,8181 c -3,-6 3,-15 14,-21 12,-6 22,-6 26,-1 3,6 -3,15 -14,21 -12,6 -22,6 -26,1 z"
       id="path150"
       inkscape:connector-curvature="0" />
    <path
       d="m 1337,8154 c -38,-20 -24,-38 14,-19 16,9 27,20 24,25 -7,12 -4,13 -38,-6 z"
       id="path152"
       inkscape:connector-curvature="0" />
    <path
       d="m 6155,8141 c -3,-6 3,-15 14,-21 12,-6 22,-6 26,-1 3,6 -3,15 -14,21 -12,6 -22,6 -26,1 z"
       id="path154"
       inkscape:connector-curvature="0" />
    <path
       d="m 1275,8116 c -11,-8 -14,-16 -8,-19 6,-4 18,0 28,7 11,8 14,16 8,19 -6,4 -18,0 -28,-7 z"
       id="path156"
       inkscape:connector-curvature="0" />
    <path
       d="m 6225,8101 c -3,-6 3,-15 14,-21 12,-6 22,-6 26,-1 3,6 -3,15 -14,21 -12,6 -22,6 -26,1 z"
       id="path158"
       inkscape:connector-curvature="0" />
    <path
       d="m 1205,8076 c -11,-8 -14,-16 -8,-19 6,-4 18,0 28,7 11,8 14,16 8,19 -6,4 -18,0 -28,-7 z"
       id="path160"
       inkscape:connector-curvature="0" />
    <path
       d="m 6295,8061 c -3,-6 3,-15 14,-21 12,-6 22,-6 26,-1 3,6 -3,15 -14,21 -12,6 -22,6 -26,1 z"
       id="path162"
       inkscape:connector-curvature="0" />
    <path
       d="m 1155,8046 c -11,-8 -14,-16 -8,-19 6,-4 18,0 28,7 11,8 14,16 8,19 -6,4 -18,0 -28,-7 z"
       id="path164"
       inkscape:connector-curvature="0" />
    <path
       d="m 6365,8021 c -3,-6 3,-15 14,-21 12,-6 22,-6 26,-1 3,6 -3,15 -14,21 -12,6 -22,6 -26,1 z"
       id="path166"
       inkscape:connector-curvature="0" />
    <path
       d="m 1085,8006 c -11,-8 -14,-16 -8,-19 6,-4 18,0 28,7 11,8 14,16 8,19 -6,4 -18,0 -28,-7 z"
       id="path168"
       inkscape:connector-curvature="0" />
    <path
       d="m 1035,7976 c -11,-8 -14,-16 -8,-19 6,-4 18,0 28,7 11,8 14,16 8,19 -6,4 -18,0 -28,-7 z"
       id="path170"
       inkscape:connector-curvature="0" />
    <path
       d="m 6435,7981 c -3,-6 3,-15 14,-21 12,-6 22,-6 26,-1 3,6 -3,15 -14,21 -12,6 -22,6 -26,1 z"
       id="path172"
       inkscape:connector-curvature="0" />
    <path
       d="m 965,7936 c -11,-8 -14,-16 -8,-19 6,-4 18,0 28,7 11,8 14,16 8,19 -6,4 -18,0 -28,-7 z"
       id="path174"
       inkscape:connector-curvature="0" />
    <path
       d="m 6505,7941 c -3,-6 3,-15 14,-21 12,-6 22,-6 26,-1 3,6 -3,15 -14,21 -12,6 -22,6 -26,1 z"
       id="path176"
       inkscape:connector-curvature="0" />
    <path
       d="m 907,7904 c -38,-20 -24,-38 14,-19 16,9 27,20 24,25 -7,12 -4,13 -38,-6 z"
       id="path178"
       inkscape:connector-curvature="0" />
    <path
       d="m 6575,7901 c -3,-6 3,-15 14,-21 12,-6 22,-6 26,-1 3,6 -3,15 -14,21 -12,6 -22,6 -26,1 z"
       id="path180"
       inkscape:connector-curvature="0" />
    <path
       d="m 845,7866 c -11,-8 -14,-16 -8,-19 6,-4 18,0 28,7 11,8 14,16 8,19 -6,4 -18,0 -28,-7 z"
       id="path182"
       inkscape:connector-curvature="0" />
    <path
       d="m 6645,7861 c -3,-6 3,-15 14,-21 12,-6 22,-6 26,-1 3,6 -3,15 -14,21 -12,6 -22,6 -26,1 z"
       id="path184"
       inkscape:connector-curvature="0" />
    <path
       d="m 775,7826 c -11,-8 -14,-16 -8,-19 6,-4 18,0 28,7 11,8 14,16 8,19 -6,4 -18,0 -28,-7 z"
       id="path186"
       inkscape:connector-curvature="0" />
    <path
       d="m 6695,7830 c -3,-5 8,-16 24,-25 18,-9 32,-11 36,-5 3,5 -8,16 -24,25 -18,9 -32,11 -36,5 z"
       id="path188"
       inkscape:connector-curvature="0" />
    <path
       d="m 725,7796 c -11,-8 -14,-16 -8,-19 6,-4 18,0 28,7 11,8 14,16 8,19 -6,4 -18,0 -28,-7 z"
       id="path190"
       inkscape:connector-curvature="0" />
    <path
       d="m 3933,7786 c -87,-22 -160,-64 -243,-142 -227,-215 -364,-510 -411,-889 -15,-120 -6,-451 15,-600 49,-338 170,-736 344,-1136 135,-310 208,-463 243,-502 34,-39 38,-41 90,-39 79,2 586,144 866,242 424,149 746,340 1358,807 156,118 176,147 157,220 -26,96 -313,615 -478,863 -422,633 -878,1016 -1379,1157 -81,23 -112,26 -300,29 -150,2 -225,0 -262,-10 z m 508,-587 c 88,-22 239,-88 324,-142 80,-50 179,-127 164,-127 -8,0 -72,5 -143,10 -153,11 -384,-2 -466,-26 -209,-61 -409,-247 -598,-555 l -33,-54 6,130 c 7,150 25,254 66,380 102,320 357,464 680,384 z m 1069,-757 c 20,-7 20,-8 -1,-47 -29,-55 -110,-163 -151,-202 -82,-78 -194,-125 -323,-137 -69,-6 -220,6 -233,19 -10,10 54,126 106,190 80,99 195,165 322,185 59,10 247,4 280,-8 z M 4508,5946 c 17,-11 -36,-107 -101,-185 -116,-137 -238,-194 -417,-195 -111,-1 -190,10 -190,27 0,29 81,147 145,212 124,125 210,157 415,152 75,-2 141,-7 148,-11 z"
       id="path192"
       inkscape:connector-curvature="0" />
    <path
       d="m 6765,7791 c -3,-6 3,-15 14,-21 12,-6 22,-6 26,-1 3,6 -3,15 -14,21 -12,6 -22,6 -26,1 z"
       id="path194"
       inkscape:connector-curvature="0" />
    <path
       d="m 655,7756 c -11,-8 -14,-16 -8,-19 6,-4 18,0 28,7 11,8 14,16 8,19 -6,4 -18,0 -28,-7 z"
       id="path196"
       inkscape:connector-curvature="0" />
    <path
       d="m 6835,7751 c -3,-6 3,-15 14,-21 12,-6 22,-6 26,-1 3,6 -3,15 -14,21 -12,6 -22,6 -26,1 z"
       id="path198"
       inkscape:connector-curvature="0" />
    <path
       d="m 605,7726 c -11,-8 -14,-16 -8,-19 6,-4 18,0 28,7 11,8 14,16 8,19 -6,4 -18,0 -28,-7 z"
       id="path200"
       inkscape:connector-curvature="0" />
    <path
       d="m 6905,7711 c -3,-6 3,-15 14,-21 12,-6 22,-6 26,-1 3,6 -3,15 -14,21 -12,6 -22,6 -26,1 z"
       id="path202"
       inkscape:connector-curvature="0" />
    <path
       d="m 535,7686 c -11,-8 -14,-16 -8,-19 6,-4 18,0 28,7 11,8 14,16 8,19 -6,4 -18,0 -28,-7 z"
       id="path204"
       inkscape:connector-curvature="0" />
    <path
       d="m 6975,7671 c -3,-6 3,-15 14,-21 12,-6 22,-6 26,-1 3,6 -3,15 -14,21 -12,6 -22,6 -26,1 z"
       id="path206"
       inkscape:connector-curvature="0" />
    <path
       d="m 477,7654 c -38,-20 -24,-38 14,-19 16,9 27,20 24,25 -7,12 -4,13 -38,-6 z"
       id="path208"
       inkscape:connector-curvature="0" />
    <path
       d="m 7045,7631 c -3,-6 3,-15 14,-21 12,-6 22,-6 26,-1 3,6 -3,15 -14,21 -12,6 -22,6 -26,1 z"
       id="path210"
       inkscape:connector-curvature="0" />
    <path
       d="m 415,7616 c -11,-8 -14,-16 -8,-19 6,-4 18,0 28,7 11,8 14,16 8,19 -6,4 -18,0 -28,-7 z"
       id="path212"
       inkscape:connector-curvature="0" />
    <path
       d="m 7115,7591 c -3,-6 3,-15 14,-21 12,-6 22,-6 26,-1 3,6 -3,15 -14,21 -12,6 -22,6 -26,1 z"
       id="path214"
       inkscape:connector-curvature="0" />
    <path
       d="m 345,7576 c -11,-8 -14,-16 -8,-19 6,-4 18,0 28,7 11,8 14,16 8,19 -6,4 -18,0 -28,-7 z"
       id="path216"
       inkscape:connector-curvature="0" />
    <path
       d="m 295,7546 c -11,-8 -14,-16 -8,-19 6,-4 18,0 28,7 11,8 14,16 8,19 -6,4 -18,0 -28,-7 z"
       id="path218"
       inkscape:connector-curvature="0" />
    <path
       d="m 7185,7551 c -3,-6 3,-15 14,-21 12,-6 22,-6 26,-1 3,6 -3,15 -14,21 -12,6 -22,6 -26,1 z"
       id="path220"
       inkscape:connector-curvature="0" />
    <path
       d="m 225,7506 c -11,-8 -14,-16 -8,-19 6,-4 18,0 28,7 11,8 14,16 8,19 -6,4 -18,0 -28,-7 z"
       id="path222"
       inkscape:connector-curvature="0" />
    <path
       d="m 7255,7511 c -3,-6 3,-15 14,-21 12,-6 22,-6 26,-1 3,6 -3,15 -14,21 -12,6 -22,6 -26,1 z"
       id="path224"
       inkscape:connector-curvature="0" />
    <path
       d="m 175,7476 c -11,-8 -14,-16 -8,-19 6,-4 18,0 28,7 11,8 14,16 8,19 -6,4 -18,0 -28,-7 z"
       id="path226"
       inkscape:connector-curvature="0" />
    <path
       d="m 7325,7471 c -3,-6 3,-15 14,-21 12,-6 22,-6 26,-1 3,6 -3,15 -14,21 -12,6 -22,6 -26,1 z"
       id="path228"
       inkscape:connector-curvature="0" />
    <path
       d="m 105,7436 c -11,-8 -14,-16 -8,-19 6,-4 18,0 28,7 11,8 14,16 8,19 -6,4 -18,0 -28,-7 z"
       id="path230"
       inkscape:connector-curvature="0" />
    <path
       d="m 7395,7430 c -3,-5 4,-14 15,-20 16,-8 20,-8 20,4 0,16 -27,29 -35,16 z"
       id="path232"
       inkscape:connector-curvature="0" />
    <path
       d="m 35,6919 c -10,-27 -1,-944 10,-942 14,4 19,933 5,947 -6,6 -11,4 -15,-5 z"
       id="path234"
       inkscape:connector-curvature="0" />
    <path
       d="m 7427,6433 c -12,-11 -8,-941 3,-948 7,-4 10,157 10,474 0,265 -1,481 -3,481 -2,0 -7,-3 -10,-7 z"
       id="path236"
       inkscape:connector-curvature="0" />
    <path
       d="m 2936,5965 c -260,-93 -484,-242 -706,-472 -362,-373 -603,-794 -901,-1576 -89,-234 -101,-296 -64,-337 60,-67 620,-402 870,-520 301,-143 495,-198 970,-275 345,-56 657,-97 692,-90 38,7 88,46 107,84 30,57 183,579 235,796 61,261 120,649 101,669 -5,5 -46,-3 -97,-20 -72,-24 -105,-29 -183,-29 -81,0 -103,4 -150,26 -121,56 -182,138 -304,404 -49,105 -92,194 -96,199 -5,5 -49,8 -97,7 -162,-4 -310,46 -416,140 -104,91 -193,255 -241,441 -48,183 -54,181 102,28 182,-179 346,-289 485,-324 43,-10 43,14 -1,132 -53,143 -145,452 -172,582 -23,108 -38,151 -55,156 -5,2 -41,-8 -79,-21 z M 2278,4614 c 197,-40 320,-163 393,-392 20,-63 21,-74 9,-83 -24,-15 -227,0 -294,23 -160,53 -266,171 -325,362 -33,108 -35,106 59,106 45,0 116,-7 158,-16 z m 1354,-512 c 69,-24 158,-77 213,-126 l 40,-36 -40,-35 c -63,-55 -201,-121 -281,-134 -112,-19 -240,9 -346,75 -53,33 -138,103 -138,113 0,10 121,91 178,120 105,53 261,63 374,23 z"
       id="path238"
       inkscape:connector-curvature="0" />
    <path
       d="m 45,3619 c -10,-26 -1,-504 10,-502 14,4 19,493 6,506 -7,7 -12,5 -16,-4 z"
       id="path240"
       inkscape:connector-curvature="0" />
    <path
       d="m 7444,3460 c 0,-58 1,-81 3,-52 2,28 2,76 0,105 -2,28 -3,5 -3,-53 z"
       id="path242"
       inkscape:connector-curvature="0" />
    <path
       d="m 75,3111 c -3,-6 3,-15 14,-21 12,-6 22,-6 26,-1 3,6 -3,15 -14,21 -12,6 -22,6 -26,1 z"
       id="path244"
       inkscape:connector-curvature="0" />
    <path
       d="m 7305,3076 c -11,-8 -14,-16 -8,-19 6,-4 18,0 28,7 11,8 14,16 8,19 -6,4 -18,0 -28,-7 z"
       id="path246"
       inkscape:connector-curvature="0" />
    <path
       d="m 145,3071 c -3,-6 3,-15 14,-21 12,-6 22,-6 26,-1 3,6 -3,15 -14,21 -12,6 -22,6 -26,1 z"
       id="path248"
       inkscape:connector-curvature="0" />
    <path
       d="m 7235,3036 c -11,-8 -14,-16 -8,-19 6,-4 18,0 28,7 11,8 14,16 8,19 -6,4 -18,0 -28,-7 z"
       id="path250"
       inkscape:connector-curvature="0" />
    <path
       d="m 215,3031 c -3,-6 3,-15 14,-21 12,-6 22,-6 26,-1 3,6 -3,15 -14,21 -12,6 -22,6 -26,1 z"
       id="path252"
       inkscape:connector-curvature="0" />
    <path
       d="m 7185,3006 c -11,-8 -14,-16 -8,-19 6,-4 18,0 28,7 11,8 14,16 8,19 -6,4 -18,0 -28,-7 z"
       id="path254"
       inkscape:connector-curvature="0" />
    <path
       d="m 285,2991 c -3,-6 3,-15 14,-21 12,-6 22,-6 26,-1 3,6 -3,15 -14,21 -12,6 -22,6 -26,1 z"
       id="path256"
       inkscape:connector-curvature="0" />
    <path
       d="m 7115,2966 c -11,-8 -14,-16 -8,-19 6,-4 18,0 28,7 11,8 14,16 8,19 -6,4 -18,0 -28,-7 z"
       id="path258"
       inkscape:connector-curvature="0" />
    <path
       d="m 355,2951 c -3,-6 3,-15 14,-21 12,-6 22,-6 26,-1 3,6 -3,15 -14,21 -12,6 -22,6 -26,1 z"
       id="path260"
       inkscape:connector-curvature="0" />
    <path
       d="m 7065,2936 c -11,-8 -14,-16 -8,-19 6,-4 18,0 28,7 11,8 14,16 8,19 -6,4 -18,0 -28,-7 z"
       id="path262"
       inkscape:connector-curvature="0" />
    <path
       d="m 405,2920 c -3,-5 8,-16 24,-25 18,-9 32,-11 36,-5 3,5 -8,16 -24,25 -18,9 -32,11 -36,5 z"
       id="path264"
       inkscape:connector-curvature="0" />
    <path
       d="m 6995,2896 c -11,-8 -14,-16 -8,-19 6,-4 18,0 28,7 11,8 14,16 8,19 -6,4 -18,0 -28,-7 z"
       id="path266"
       inkscape:connector-curvature="0" />
    <path
       d="m 475,2880 c -3,-5 8,-16 24,-25 18,-9 32,-11 36,-5 3,5 -8,16 -24,25 -18,9 -32,11 -36,5 z"
       id="path268"
       inkscape:connector-curvature="0" />
    <path
       d="m 545,2840 c -3,-5 8,-16 24,-25 18,-9 32,-11 36,-5 3,5 -8,16 -24,25 -18,9 -32,11 -36,5 z"
       id="path270"
       inkscape:connector-curvature="0" />
    <path
       d="m 6875,2826 c -11,-8 -14,-16 -8,-19 6,-4 18,0 28,7 11,8 14,16 8,19 -6,4 -18,0 -28,-7 z"
       id="path272"
       inkscape:connector-curvature="0" />
    <path
       d="m 615,2801 c -3,-6 3,-15 14,-21 12,-6 22,-6 26,-1 3,6 -3,15 -14,21 -12,6 -22,6 -26,1 z"
       id="path274"
       inkscape:connector-curvature="0" />
    <path
       d="m 6805,2786 c -11,-8 -14,-16 -8,-19 6,-4 18,0 28,7 11,8 14,16 8,19 -6,4 -18,0 -28,-7 z"
       id="path276"
       inkscape:connector-curvature="0" />
    <path
       d="m 685,2761 c -3,-6 3,-15 14,-21 12,-6 22,-6 26,-1 3,6 -3,15 -14,21 -12,6 -22,6 -26,1 z"
       id="path278"
       inkscape:connector-curvature="0" />
    <path
       d="m 6755,2756 c -11,-8 -14,-16 -8,-19 6,-4 18,0 28,7 11,8 14,16 8,19 -6,4 -18,0 -28,-7 z"
       id="path280"
       inkscape:connector-curvature="0" />
    <path
       d="m 755,2721 c -3,-6 3,-15 14,-21 12,-6 22,-6 26,-1 3,6 -3,15 -14,21 -12,6 -22,6 -26,1 z"
       id="path282"
       inkscape:connector-curvature="0" />
    <path
       d="m 6685,2716 c -11,-8 -14,-16 -8,-19 6,-4 18,0 28,7 11,8 14,16 8,19 -6,4 -18,0 -28,-7 z"
       id="path284"
       inkscape:connector-curvature="0" />
    <path
       d="m 6635,2686 c -11,-8 -14,-16 -8,-19 6,-4 18,0 28,7 11,8 14,16 8,19 -6,4 -18,0 -28,-7 z"
       id="path286"
       inkscape:connector-curvature="0" />
    <path
       d="m 825,2681 c -3,-6 3,-15 14,-21 12,-6 22,-6 26,-1 3,6 -3,15 -14,21 -12,6 -22,6 -26,1 z"
       id="path288"
       inkscape:connector-curvature="0" />
    <path
       d="m 6565,2646 c -11,-8 -14,-16 -8,-19 6,-4 18,0 28,7 11,8 14,16 8,19 -6,4 -18,0 -28,-7 z"
       id="path290"
       inkscape:connector-curvature="0" />
    <path
       d="m 895,2641 c -3,-6 3,-15 14,-21 12,-6 22,-6 26,-1 3,6 -3,15 -14,21 -12,6 -22,6 -26,1 z"
       id="path292"
       inkscape:connector-curvature="0" />
    <path
       d="m 965,2601 c -3,-6 3,-15 14,-21 12,-6 22,-6 26,-1 3,6 -3,15 -14,21 -12,6 -22,6 -26,1 z"
       id="path294"
       inkscape:connector-curvature="0" />
    <path
       d="m 6445,2576 c -11,-8 -14,-16 -8,-19 6,-4 18,0 28,7 11,8 14,16 8,19 -6,4 -18,0 -28,-7 z"
       id="path296"
       inkscape:connector-curvature="0" />
    <path
       d="m 1035,2561 c -3,-6 3,-15 14,-21 12,-6 22,-6 26,-1 3,6 -3,15 -14,21 -12,6 -22,6 -26,1 z"
       id="path298"
       inkscape:connector-curvature="0" />
    <path
       d="m 6375,2536 c -11,-8 -14,-16 -8,-19 6,-4 18,0 28,7 11,8 14,16 8,19 -6,4 -18,0 -28,-7 z"
       id="path300"
       inkscape:connector-curvature="0" />
    <path
       d="m 1105,2521 c -3,-6 3,-15 14,-21 12,-6 22,-6 26,-1 3,6 -3,15 -14,21 -12,6 -22,6 -26,1 z"
       id="path302"
       inkscape:connector-curvature="0" />
    <path
       d="m 6325,2506 c -11,-8 -14,-16 -8,-19 6,-4 18,0 28,7 11,8 14,16 8,19 -6,4 -18,0 -28,-7 z"
       id="path304"
       inkscape:connector-curvature="0" />
    <path
       d="m 1155,2490 c -3,-5 8,-16 24,-25 18,-9 32,-11 36,-5 3,5 -8,16 -24,25 -18,9 -32,11 -36,5 z"
       id="path306"
       inkscape:connector-curvature="0" />
    <path
       d="m 6255,2466 c -11,-8 -14,-16 -8,-19 6,-4 18,0 28,7 11,8 14,16 8,19 -6,4 -18,0 -28,-7 z"
       id="path308"
       inkscape:connector-curvature="0" />
    <path
       d="m 1225,2450 c -3,-5 8,-16 24,-25 18,-9 32,-11 36,-5 3,5 -8,16 -24,25 -18,9 -32,11 -36,5 z"
       id="path310"
       inkscape:connector-curvature="0" />
    <path
       d="m 6205,2436 c -11,-8 -14,-16 -8,-19 6,-4 18,0 28,7 11,8 14,16 8,19 -6,4 -18,0 -28,-7 z"
       id="path312"
       inkscape:connector-curvature="0" />
    <path
       d="m 1295,2410 c -3,-5 8,-16 24,-25 18,-9 32,-11 36,-5 3,5 -8,16 -24,25 -18,9 -32,11 -36,5 z"
       id="path314"
       inkscape:connector-curvature="0" />
    <path
       d="m 6135,2396 c -11,-8 -14,-16 -8,-19 6,-4 18,0 28,7 11,8 14,16 8,19 -6,4 -18,0 -28,-7 z"
       id="path316"
       inkscape:connector-curvature="0" />
    <path
       d="m 1365,2370 c -3,-5 8,-16 24,-25 18,-9 32,-11 36,-5 3,5 -8,16 -24,25 -18,9 -32,11 -36,5 z"
       id="path318"
       inkscape:connector-curvature="0" />
    <path
       d="m 1435,2331 c -3,-6 3,-15 14,-21 12,-6 22,-6 26,-1 3,6 -3,15 -14,21 -12,6 -22,6 -26,1 z"
       id="path320"
       inkscape:connector-curvature="0" />
    <path
       d="m 6015,2326 c -11,-8 -14,-16 -8,-19 6,-4 18,0 28,7 11,8 14,16 8,19 -6,4 -18,0 -28,-7 z"
       id="path322"
       inkscape:connector-curvature="0" />
    <path
       d="m 1505,2291 c -3,-6 3,-15 14,-21 12,-6 22,-6 26,-1 3,6 -3,15 -14,21 -12,6 -22,6 -26,1 z"
       id="path324"
       inkscape:connector-curvature="0" />
    <path
       d="m 5945,2286 c -11,-8 -14,-16 -8,-19 6,-4 18,0 28,7 11,8 14,16 8,19 -6,4 -18,0 -28,-7 z"
       id="path326"
       inkscape:connector-curvature="0" />
    <path
       d="m 5895,2256 c -11,-8 -14,-16 -8,-19 6,-4 18,0 28,7 11,8 14,16 8,19 -6,4 -18,0 -28,-7 z"
       id="path328"
       inkscape:connector-curvature="0" />
    <path
       d="m 1575,2251 c -3,-6 3,-15 14,-21 12,-6 22,-6 26,-1 3,6 -3,15 -14,21 -12,6 -22,6 -26,1 z"
       id="path330"
       inkscape:connector-curvature="0" />
    <path
       d="m 5825,2216 c -11,-8 -14,-16 -8,-19 6,-4 18,0 28,7 11,8 14,16 8,19 -6,4 -18,0 -28,-7 z"
       id="path332"
       inkscape:connector-curvature="0" />
    <path
       d="m 1645,2211 c -3,-6 3,-15 14,-21 12,-6 22,-6 26,-1 3,6 -3,15 -14,21 -12,6 -22,6 -26,1 z"
       id="path334"
       inkscape:connector-curvature="0" />
    <path
       d="m 5775,2186 c -11,-8 -14,-16 -8,-19 6,-4 18,0 28,7 11,8 14,16 8,19 -6,4 -18,0 -28,-7 z"
       id="path336"
       inkscape:connector-curvature="0" />
    <path
       d="m 1715,2171 c -3,-6 3,-15 14,-21 12,-6 22,-6 26,-1 3,6 -3,15 -14,21 -12,6 -22,6 -26,1 z"
       id="path338"
       inkscape:connector-curvature="0" />
    <path
       d="m 5705,2146 c -11,-8 -14,-16 -8,-19 6,-4 18,0 28,7 11,8 14,16 8,19 -6,4 -18,0 -28,-7 z"
       id="path340"
       inkscape:connector-curvature="0" />
    <path
       d="m 1785,2131 c -3,-6 3,-15 14,-21 12,-6 22,-6 26,-1 3,6 -3,15 -14,21 -12,6 -22,6 -26,1 z"
       id="path342"
       inkscape:connector-curvature="0" />
    <path
       d="m 1855,2091 c -3,-6 3,-15 14,-21 12,-6 22,-6 26,-1 3,6 -3,15 -14,21 -12,6 -22,6 -26,1 z"
       id="path344"
       inkscape:connector-curvature="0" />
    <path
       d="m 5585,2076 c -11,-8 -14,-16 -8,-19 6,-4 18,0 28,7 11,8 14,16 8,19 -6,4 -18,0 -28,-7 z"
       id="path346"
       inkscape:connector-curvature="0" />
    <path
       d="m 1905,2060 c -3,-5 8,-16 24,-25 18,-9 32,-11 36,-5 3,5 -8,16 -24,25 -18,9 -32,11 -36,5 z"
       id="path348"
       inkscape:connector-curvature="0" />
    <path
       d="m 5515,2036 c -11,-8 -14,-16 -8,-19 6,-4 18,0 28,7 11,8 14,16 8,19 -6,4 -18,0 -28,-7 z"
       id="path350"
       inkscape:connector-curvature="0" />
    <path
       d="m 1975,2020 c -3,-5 8,-16 24,-25 18,-9 32,-11 36,-5 3,5 -8,16 -24,25 -18,9 -32,11 -36,5 z"
       id="path352"
       inkscape:connector-curvature="0" />
    <path
       d="m 5465,2006 c -11,-8 -14,-16 -8,-19 6,-4 18,0 28,7 11,8 14,16 8,19 -6,4 -18,0 -28,-7 z"
       id="path354"
       inkscape:connector-curvature="0" />
    <path
       d="m 2045,1980 c -3,-5 8,-16 24,-25 18,-9 32,-11 36,-5 3,5 -8,16 -24,25 -18,9 -32,11 -36,5 z"
       id="path356"
       inkscape:connector-curvature="0" />
    <path
       d="m 5395,1966 c -11,-8 -14,-16 -8,-19 6,-4 18,0 28,7 11,8 14,16 8,19 -6,4 -18,0 -28,-7 z"
       id="path358"
       inkscape:connector-curvature="0" />
    <path
       d="m 2115,1940 c -3,-5 8,-16 24,-25 18,-9 32,-11 36,-5 3,5 -8,16 -24,25 -18,9 -32,11 -36,5 z"
       id="path360"
       inkscape:connector-curvature="0" />
    <path
       d="m 5345,1936 c -11,-8 -14,-16 -8,-19 6,-4 18,0 28,7 11,8 14,16 8,19 -6,4 -18,0 -28,-7 z"
       id="path362"
       inkscape:connector-curvature="0" />
    <path
       d="m 2185,1901 c -3,-6 3,-15 14,-21 12,-6 22,-6 26,-1 3,6 -3,15 -14,21 -12,6 -22,6 -26,1 z"
       id="path364"
       inkscape:connector-curvature="0" />
    <path
       d="m 5275,1896 c -11,-8 -14,-16 -8,-19 6,-4 18,0 28,7 11,8 14,16 8,19 -6,4 -18,0 -28,-7 z"
       id="path366"
       inkscape:connector-curvature="0" />
    <path
       d="m 2255,1861 c -3,-6 3,-15 14,-21 12,-6 22,-6 26,-1 3,6 -3,15 -14,21 -12,6 -22,6 -26,1 z"
       id="path368"
       inkscape:connector-curvature="0" />
    <path
       d="m 5155,1826 c -11,-8 -14,-16 -8,-19 6,-4 18,0 28,7 11,8 14,16 8,19 -6,4 -18,0 -28,-7 z"
       id="path370"
       inkscape:connector-curvature="0" />
    <path
       d="m 2325,1821 c -3,-6 3,-15 14,-21 12,-6 22,-6 26,-1 3,6 -3,15 -14,21 -12,6 -22,6 -26,1 z"
       id="path372"
       inkscape:connector-curvature="0" />
    <path
       d="m 5085,1786 c -11,-8 -14,-16 -8,-19 6,-4 18,0 28,7 11,8 14,16 8,19 -6,4 -18,0 -28,-7 z"
       id="path374"
       inkscape:connector-curvature="0" />
    <path
       d="m 2395,1781 c -3,-6 3,-15 14,-21 12,-6 22,-6 26,-1 3,6 -3,15 -14,21 -12,6 -22,6 -26,1 z"
       id="path376"
       inkscape:connector-curvature="0" />
    <path
       d="m 5035,1756 c -11,-8 -14,-16 -8,-19 6,-4 18,0 28,7 11,8 14,16 8,19 -6,4 -18,0 -28,-7 z"
       id="path378"
       inkscape:connector-curvature="0" />
    <path
       d="m 2465,1741 c -3,-6 3,-15 14,-21 12,-6 22,-6 26,-1 3,6 -3,15 -14,21 -12,6 -22,6 -26,1 z"
       id="path380"
       inkscape:connector-curvature="0" />
    <path
       d="m 4965,1716 c -11,-8 -14,-16 -8,-19 6,-4 18,0 28,7 11,8 14,16 8,19 -6,4 -18,0 -28,-7 z"
       id="path382"
       inkscape:connector-curvature="0" />
    <path
       d="m 2535,1701 c -3,-6 3,-15 14,-21 12,-6 22,-6 26,-1 3,6 -3,15 -14,21 -12,6 -22,6 -26,1 z"
       id="path384"
       inkscape:connector-curvature="0" />
    <path
       d="m 4915,1686 c -11,-8 -14,-16 -8,-19 6,-4 18,0 28,7 11,8 14,16 8,19 -6,4 -18,0 -28,-7 z"
       id="path386"
       inkscape:connector-curvature="0" />
    <path
       d="m 2605,1661 c -3,-6 3,-15 14,-21 12,-6 22,-6 26,-1 3,6 -3,15 -14,21 -12,6 -22,6 -26,1 z"
       id="path388"
       inkscape:connector-curvature="0" />
    <path
       d="m 4845,1646 c -11,-8 -14,-16 -8,-19 6,-4 18,0 28,7 11,8 14,16 8,19 -6,4 -18,0 -28,-7 z"
       id="path390"
       inkscape:connector-curvature="0" />
    <path
       d="m 2655,1630 c -3,-5 8,-16 24,-25 18,-9 32,-11 36,-5 3,5 -8,16 -24,25 -18,9 -32,11 -36,5 z"
       id="path392"
       inkscape:connector-curvature="0" />
    <path
       d="m 2725,1590 c -3,-5 8,-16 24,-25 18,-9 32,-11 36,-5 3,5 -8,16 -24,25 -18,9 -32,11 -36,5 z"
       id="path394"
       inkscape:connector-curvature="0" />
    <path
       d="m 4725,1576 c -11,-8 -14,-16 -8,-19 6,-4 18,0 28,7 11,8 14,16 8,19 -6,4 -18,0 -28,-7 z"
       id="path396"
       inkscape:connector-curvature="0" />
    <path
       d="m 2795,1550 c -3,-5 8,-16 24,-25 18,-9 32,-11 36,-5 3,5 -8,16 -24,25 -18,9 -32,11 -36,5 z"
       id="path398"
       inkscape:connector-curvature="0" />
    <path
       d="m 4655,1536 c -11,-8 -14,-16 -8,-19 6,-4 18,0 28,7 11,8 14,16 8,19 -6,4 -18,0 -28,-7 z"
       id="path400"
       inkscape:connector-curvature="0" />
    <path
       d="m 2865,1510 c -3,-5 8,-16 24,-25 18,-9 32,-11 36,-5 3,5 -8,16 -24,25 -18,9 -32,11 -36,5 z"
       id="path402"
       inkscape:connector-curvature="0" />
    <path
       d="m 4605,1506 c -11,-8 -14,-16 -8,-19 6,-4 18,0 28,7 11,8 14,16 8,19 -6,4 -18,0 -28,-7 z"
       id="path404"
       inkscape:connector-curvature="0" />
    <path
       d="m 2935,1471 c -3,-6 3,-15 14,-21 12,-6 22,-6 26,-1 3,6 -3,15 -14,21 -12,6 -22,6 -26,1 z"
       id="path406"
       inkscape:connector-curvature="0" />
    <path
       d="m 4535,1466 c -11,-8 -14,-16 -8,-19 6,-4 18,0 28,7 11,8 14,16 8,19 -6,4 -18,0 -28,-7 z"
       id="path408"
       inkscape:connector-curvature="0" />
    <path
       d="m 4485,1436 c -11,-8 -14,-16 -8,-19 6,-4 18,0 28,7 11,8 14,16 8,19 -6,4 -18,0 -28,-7 z"
       id="path410"
       inkscape:connector-curvature="0" />
    <path
       d="m 3005,1431 c -3,-6 3,-15 14,-21 12,-6 22,-6 26,-1 3,6 -3,15 -14,21 -12,6 -22,6 -26,1 z"
       id="path412"
       inkscape:connector-curvature="0" />
    <path
       d="m 4415,1396 c -11,-8 -14,-16 -8,-19 6,-4 18,0 28,7 11,8 14,16 8,19 -6,4 -18,0 -28,-7 z"
       id="path414"
       inkscape:connector-curvature="0" />
    <path
       d="m 3075,1391 c -3,-6 3,-15 14,-21 12,-6 22,-6 26,-1 3,6 -3,15 -14,21 -12,6 -22,6 -26,1 z"
       id="path416"
       inkscape:connector-curvature="0" />
    <path
       d="m 3145,1351 c -3,-6 3,-15 14,-21 12,-6 22,-6 26,-1 3,6 -3,15 -14,21 -12,6 -22,6 -26,1 z"
       id="path418"
       inkscape:connector-curvature="0" />
    <path
       d="m 4295,1326 c -11,-8 -14,-16 -8,-19 6,-4 18,0 28,7 11,8 14,16 8,19 -6,4 -18,0 -28,-7 z"
       id="path420"
       inkscape:connector-curvature="0" />
    <path
       d="m 3215,1311 c -3,-6 3,-15 14,-21 12,-6 22,-6 26,-1 3,6 -3,15 -14,21 -12,6 -22,6 -26,1 z"
       id="path422"
       inkscape:connector-curvature="0" />
    <path
       d="m 4225,1286 c -11,-8 -14,-16 -8,-19 6,-4 18,0 28,7 11,8 14,16 8,19 -6,4 -18,0 -28,-7 z"
       id="path424"
       inkscape:connector-curvature="0" />
    <path
       d="m 3285,1271 c -3,-6 3,-15 14,-21 12,-6 22,-6 26,-1 3,6 -3,15 -14,21 -12,6 -22,6 -26,1 z"
       id="path426"
       inkscape:connector-curvature="0" />
    <path
       d="m 4175,1256 c -11,-8 -14,-16 -8,-19 6,-4 18,0 28,7 11,8 14,16 8,19 -6,4 -18,0 -28,-7 z"
       id="path428"
       inkscape:connector-curvature="0" />
    <path
       d="m 3355,1231 c -3,-6 3,-15 14,-21 12,-6 22,-6 26,-1 3,6 -3,15 -14,21 -12,6 -22,6 -26,1 z"
       id="path430"
       inkscape:connector-curvature="0" />
    <path
       d="m 4105,1216 c -11,-8 -14,-16 -8,-19 6,-4 18,0 28,7 11,8 14,16 8,19 -6,4 -18,0 -28,-7 z"
       id="path432"
       inkscape:connector-curvature="0" />
    <path
       d="m 3405,1200 c -3,-5 8,-16 24,-25 18,-9 32,-11 36,-5 3,5 -8,16 -24,25 -18,9 -32,11 -36,5 z"
       id="path434"
       inkscape:connector-curvature="0" />
    <path
       d="m 4055,1186 c -11,-8 -14,-16 -8,-19 6,-4 18,0 28,7 11,8 14,16 8,19 -6,4 -18,0 -28,-7 z"
       id="path436"
       inkscape:connector-curvature="0" />
    <path
       d="m 3475,1160 c -3,-5 8,-16 24,-25 18,-9 32,-11 36,-5 3,5 -8,16 -24,25 -18,9 -32,11 -36,5 z"
       id="path438"
       inkscape:connector-curvature="0" />
    <path
       d="m 3985,1146 c -11,-8 -14,-16 -8,-19 6,-4 18,0 28,7 11,8 14,16 8,19 -6,4 -18,0 -28,-7 z"
       id="path440"
       inkscape:connector-curvature="0" />
    <path
       d="m 3545,1120 c -3,-5 8,-16 24,-25 18,-9 32,-11 36,-5 3,5 -8,16 -24,25 -18,9 -32,11 -36,5 z"
       id="path442"
       inkscape:connector-curvature="0" />
    <path
       d="m 3615,1080 c -3,-5 8,-16 24,-25 18,-9 32,-11 36,-5 3,5 -8,16 -24,25 -18,9 -32,11 -36,5 z"
       id="path444"
       inkscape:connector-curvature="0" />
    <path
       d="m 3865,1076 c -11,-8 -14,-16 -8,-19 6,-4 18,0 28,7 11,8 14,16 8,19 -6,4 -18,0 -28,-7 z"
       id="path446"
       inkscape:connector-curvature="0" />
    <path
       d="m 3685,1041 c -3,-6 3,-15 14,-21 12,-6 22,-6 26,-1 3,6 -3,15 -14,21 -12,6 -22,6 -26,1 z"
       id="path448"
       inkscape:connector-curvature="0" />
    <path
       d="m 3795,1036 c -11,-8 -14,-16 -8,-19 6,-4 18,0 28,7 11,8 14,16 8,19 -6,4 -18,0 -28,-7 z"
       id="path450"
       inkscape:connector-curvature="0" />
  </g>
  <g
     id="g452"
     style="fill:#cb248b;stroke:none"
     transform="translate(-30.670086,-1008.6487)">
    <path
       d="M 1880,8461 45,7393 42,7309 c -2,-46 0,-1007 3,-2136 L 52,3121 1903,2060 c 1572,-901 1854,-1060 1872,-1051 11,5 839,486 1840,1069 l 1820,1059 -4,2134 c -2,1589 -6,2137 -15,2146 -18,19 -3676,2113 -3689,2112 -7,0 -838,-481 -1847,-1068 z m 2602,-705 c 233,-59 471,-183 703,-366 44,-34 143,-127 220,-204 304,-308 539,-654 842,-1243 78,-152 93,-189 93,-228 0,-25 -5,-55 -10,-65 -21,-38 -442,-350 -735,-543 -207,-136 -485,-278 -698,-357 -261,-95 -844,-261 -929,-264 -44,-1 -53,3 -77,29 -30,34 -209,424 -306,665 -152,378 -251,740 -286,1041 -18,158 -16,504 4,619 78,454 319,828 591,921 42,15 90,18 272,18 202,1 230,-1 316,-23 z M 3040,5923 c 36,-179 111,-442 186,-653 24,-69 44,-131 44,-138 0,-15 -31,-8 -111,24 -128,52 -273,160 -434,321 -56,57 -105,100 -108,97 -13,-14 34,-201 78,-311 43,-107 131,-239 198,-298 63,-56 193,-122 266,-135 29,-6 97,-10 150,-10 l 96,0 89,-194 c 124,-271 210,-378 339,-423 78,-27 200,-23 305,11 46,15 86,25 90,22 7,-8 -14,-203 -39,-346 -43,-253 -114,-532 -230,-905 -71,-229 -82,-251 -137,-272 -45,-17 -50,-16 -378,31 -912,129 -1103,190 -1710,542 -275,159 -437,265 -460,298 -30,47 -14,119 89,386 291,756 520,1157 866,1514 185,189 332,299 525,392 106,51 237,103 263,104 6,0 17,-26 23,-57 z"
       id="path454"
       inkscape:connector-curvature="0" />
    <path
       d="m 4131,7214 c -269,-72 -443,-373 -445,-771 -1,-76 3,-133 8,-134 6,-1 36,41 69,92 175,279 336,430 528,495 102,35 332,51 506,36 74,-7 131,-8 137,-2 15,15 -162,137 -289,200 -70,34 -155,67 -204,79 -100,25 -230,27 -310,5 z"
       id="path456"
       inkscape:connector-curvature="0" />
    <path
       d="m 5233,6460 c -127,-23 -219,-76 -315,-180 -74,-79 -139,-193 -122,-210 18,-18 151,-32 237,-25 141,12 241,58 341,159 65,65 169,212 163,229 -2,6 -16,14 -32,19 -48,13 -217,18 -272,8 z"
       id="path458"
       inkscape:connector-curvature="0" />
    <path
       d="m 4180,5955 c -81,-23 -152,-62 -218,-121 -58,-52 -152,-177 -172,-228 -9,-24 -7,-28 18,-37 15,-6 74,-13 132,-16 120,-6 239,17 315,61 59,35 205,192 240,259 28,52 29,58 13,73 -24,24 -252,30 -328,9 z"
       id="path460"
       inkscape:connector-curvature="0" />
    <path
       d="m 2034,4625 c -15,-37 36,-185 94,-272 43,-67 139,-148 222,-187 61,-28 74,-31 202,-34 162,-5 161,-6 128,95 -91,277 -273,412 -558,413 -64,0 -84,-3 -88,-15 z"
       id="path462"
       inkscape:connector-curvature="0" />
    <path
       d="m 3370,4126 c -75,-17 -116,-36 -202,-94 -110,-74 -109,-71 -38,-131 34,-28 98,-69 143,-91 176,-86 322,-74 510,44 95,59 115,80 96,102 -25,30 -118,94 -187,129 -105,53 -210,66 -322,41 z"
       id="path464"
       inkscape:connector-curvature="0" />
  </g>
</svg>
