<?xml version="1.0" encoding="UTF-8" standalone="no"?>
<svg
   xmlns:dc="http://purl.org/dc/elements/1.1/"
   xmlns:cc="http://creativecommons.org/ns#"
   xmlns:rdf="http://www.w3.org/1999/02/22-rdf-syntax-ns#"
   xmlns:svg="http://www.w3.org/2000/svg"
   xmlns="http://www.w3.org/2000/svg"
   xmlns:sodipodi="http://sodipodi.sourceforge.net/DTD/sodipodi-0.dtd"
   xmlns:inkscape="http://www.inkscape.org/namespaces/inkscape"
   version="1.0"
   width="738.43298"
   height="853.82263"
   viewBox="0 0 7384.3298 8538.2263"
   preserveAspectRatio="xMidYMid meet"
   id="svg2"
   inkscape:version="0.91 r13725"
   sodipodi:docname="choir (1).svg">
  <metadata
     id="metadata484">
    <rdf:RDF>
      <cc:Work
         rdf:about="">
        <dc:format>image/svg+xml</dc:format>
        <dc:type
           rdf:resource="http://purl.org/dc/dcmitype/StillImage" />
        <dc:title></dc:title>
      </cc:Work>
    </rdf:RDF>
  </metadata>
  <defs
     id="defs482" />
  <sodipodi:namedview
     pagecolor="#ffffff"
     bordercolor="#666666"
     borderopacity="1"
     objecttolerance="10"
     gridtolerance="10"
     guidetolerance="10"
     inkscape:pageopacity="0"
     inkscape:pageshadow="2"
     inkscape:window-width="693"
     inkscape:window-height="480"
     id="namedview480"
     showgrid="false"
     fit-margin-top="0"
     fit-margin-left="0"
     fit-margin-right="0"
     fit-margin-bottom="0"
     inkscape:zoom="0.22412156"
     inkscape:cx="366.43299"
     inkscape:cy="424.02266"
     inkscape:window-x="0"
     inkscape:window-y="23"
     inkscape:window-maximized="0"
     inkscape:current-layer="svg2" />
  <g
     id="g4"
     style="fill:#fffedb;stroke:none"
     transform="translate(-60.670086,-967)">
    <path
       d="m 3725,9498 c -23,-13 -8,-30 15,-18 11,6 23,9 29,8 5,-2 8,1 8,7 -2,12 -31,14 -52,3 z"
       id="path6"
       inkscape:connector-curvature="0" />
    <path
       d="m 3675,9466 c -11,-8 -14,-16 -8,-19 6,-4 18,0 28,7 11,8 14,16 8,19 -6,4 -18,0 -28,-7 z"
       id="path8"
       inkscape:connector-curvature="0" />
    <path
       d="m 3815,9471 c -3,-6 3,-15 14,-21 12,-6 22,-6 26,-1 3,6 -3,15 -14,21 -12,6 -22,6 -26,1 z"
       id="path10"
       inkscape:connector-curvature="0" />
    <path
       d="m 3605,9426 c -11,-8 -14,-16 -8,-19 6,-4 18,0 28,7 11,8 14,16 8,19 -6,4 -18,0 -28,-7 z"
       id="path12"
       inkscape:connector-curvature="0" />
    <path
       d="m 3885,9431 c -3,-6 3,-15 14,-21 12,-6 22,-6 26,-1 3,6 -3,15 -14,21 -12,6 -22,6 -26,1 z"
       id="path14"
       inkscape:connector-curvature="0" />
    <path
       d="m 3555,9396 c -11,-8 -14,-16 -8,-19 6,-4 18,0 28,7 11,8 14,16 8,19 -6,4 -18,0 -28,-7 z"
       id="path16"
       inkscape:connector-curvature="0" />
    <path
       d="m 3955,9391 c -3,-6 3,-15 14,-21 12,-6 22,-6 26,-1 3,6 -3,15 -14,21 -12,6 -22,6 -26,1 z"
       id="path18"
       inkscape:connector-curvature="0" />
    <path
       d="m 3485,9356 c -11,-8 -14,-16 -8,-19 6,-4 18,0 28,7 11,8 14,16 8,19 -6,4 -18,0 -28,-7 z"
       id="path20"
       inkscape:connector-curvature="0" />
    <path
       d="m 4005,9360 c -3,-5 8,-16 24,-25 18,-9 32,-11 36,-5 3,5 -8,16 -24,25 -18,9 -32,11 -36,5 z"
       id="path22"
       inkscape:connector-curvature="0" />
    <path
       d="m 3427,9324 c -38,-20 -24,-38 14,-19 16,9 27,20 24,25 -7,12 -4,13 -38,-6 z"
       id="path24"
       inkscape:connector-curvature="0" />
    <path
       d="m 4075,9321 c -3,-6 3,-15 14,-21 12,-6 22,-6 26,-1 3,6 -3,15 -14,21 -12,6 -22,6 -26,1 z"
       id="path26"
       inkscape:connector-curvature="0" />
    <path
       d="m 3365,9286 c -11,-8 -14,-16 -8,-19 6,-4 18,0 28,7 11,8 14,16 8,19 -6,4 -18,0 -28,-7 z"
       id="path28"
       inkscape:connector-curvature="0" />
    <path
       d="m 4145,9281 c -3,-6 3,-15 14,-21 12,-6 22,-6 26,-1 3,6 -3,15 -14,21 -12,6 -22,6 -26,1 z"
       id="path30"
       inkscape:connector-curvature="0" />
    <path
       d="m 3295,9246 c -11,-8 -14,-16 -8,-19 6,-4 18,0 28,7 11,8 14,16 8,19 -6,4 -18,0 -28,-7 z"
       id="path32"
       inkscape:connector-curvature="0" />
    <path
       d="m 4215,9241 c -3,-6 3,-15 14,-21 12,-6 22,-6 26,-1 3,6 -3,15 -14,21 -12,6 -22,6 -26,1 z"
       id="path34"
       inkscape:connector-curvature="0" />
    <path
       d="m 3245,9216 c -11,-8 -14,-16 -8,-19 6,-4 18,0 28,7 11,8 14,16 8,19 -6,4 -18,0 -28,-7 z"
       id="path36"
       inkscape:connector-curvature="0" />
    <path
       d="m 4285,9201 c -3,-6 3,-15 14,-21 12,-6 22,-6 26,-1 3,6 -3,15 -14,21 -12,6 -22,6 -26,1 z"
       id="path38"
       inkscape:connector-curvature="0" />
    <path
       d="m 3175,9176 c -11,-8 -14,-16 -8,-19 6,-4 18,0 28,7 11,8 14,16 8,19 -6,4 -18,0 -28,-7 z"
       id="path40"
       inkscape:connector-curvature="0" />
    <path
       d="m 4355,9161 c -3,-6 3,-15 14,-21 12,-6 22,-6 26,-1 3,6 -3,15 -14,21 -12,6 -22,6 -26,1 z"
       id="path42"
       inkscape:connector-curvature="0" />
    <path
       d="m 3125,9146 c -11,-8 -14,-16 -8,-19 6,-4 18,0 28,7 11,8 14,16 8,19 -6,4 -18,0 -28,-7 z"
       id="path44"
       inkscape:connector-curvature="0" />
    <path
       d="m 4425,9121 c -3,-6 3,-15 14,-21 12,-6 22,-6 26,-1 3,6 -3,15 -14,21 -12,6 -22,6 -26,1 z"
       id="path46"
       inkscape:connector-curvature="0" />
    <path
       d="m 3055,9106 c -11,-8 -14,-16 -8,-19 6,-4 18,0 28,7 11,8 14,16 8,19 -6,4 -18,0 -28,-7 z"
       id="path48"
       inkscape:connector-curvature="0" />
    <path
       d="m 2997,9074 c -38,-20 -24,-38 14,-19 16,9 27,20 24,25 -7,12 -4,13 -38,-6 z"
       id="path50"
       inkscape:connector-curvature="0" />
    <path
       d="m 4495,9081 c -3,-6 3,-15 14,-21 12,-6 22,-6 26,-1 3,6 -3,15 -14,21 -12,6 -22,6 -26,1 z"
       id="path52"
       inkscape:connector-curvature="0" />
    <path
       d="m 2935,9036 c -11,-8 -14,-16 -8,-19 6,-4 18,0 28,7 11,8 14,16 8,19 -6,4 -18,0 -28,-7 z"
       id="path54"
       inkscape:connector-curvature="0" />
    <path
       d="m 4565,9041 c -3,-6 3,-15 14,-21 12,-6 22,-6 26,-1 3,6 -3,15 -14,21 -12,6 -22,6 -26,1 z"
       id="path56"
       inkscape:connector-curvature="0" />
    <path
       d="m 2865,8996 c -11,-8 -14,-16 -8,-19 6,-4 18,0 28,7 11,8 14,16 8,19 -6,4 -18,0 -28,-7 z"
       id="path58"
       inkscape:connector-curvature="0" />
    <path
       d="m 4635,9001 c -3,-6 3,-15 14,-21 12,-6 22,-6 26,-1 3,6 -3,15 -14,21 -12,6 -22,6 -26,1 z"
       id="path60"
       inkscape:connector-curvature="0" />
    <path
       d="m 2815,8966 c -11,-8 -14,-16 -8,-19 6,-4 18,0 28,7 11,8 14,16 8,19 -6,4 -18,0 -28,-7 z"
       id="path62"
       inkscape:connector-curvature="0" />
    <path
       d="m 4705,8961 c -3,-6 3,-15 14,-21 12,-6 22,-6 26,-1 3,6 -3,15 -14,21 -12,6 -22,6 -26,1 z"
       id="path64"
       inkscape:connector-curvature="0" />
    <path
       d="m 2745,8926 c -11,-8 -14,-16 -8,-19 6,-4 18,0 28,7 11,8 14,16 8,19 -6,4 -18,0 -28,-7 z"
       id="path66"
       inkscape:connector-curvature="0" />
    <path
       d="m 4775,8921 c -3,-6 3,-15 14,-21 12,-6 22,-6 26,-1 3,6 -3,15 -14,21 -12,6 -22,6 -26,1 z"
       id="path68"
       inkscape:connector-curvature="0" />
    <path
       d="m 2695,8896 c -11,-8 -14,-16 -8,-19 6,-4 18,0 28,7 11,8 14,16 8,19 -6,4 -18,0 -28,-7 z"
       id="path70"
       inkscape:connector-curvature="0" />
    <path
       d="m 4825,8890 c -3,-5 8,-16 24,-25 18,-9 32,-11 36,-5 3,5 -8,16 -24,25 -18,9 -32,11 -36,5 z"
       id="path72"
       inkscape:connector-curvature="0" />
    <path
       d="m 2625,8856 c -11,-8 -14,-16 -8,-19 6,-4 18,0 28,7 11,8 14,16 8,19 -6,4 -18,0 -28,-7 z"
       id="path74"
       inkscape:connector-curvature="0" />
    <path
       d="m 4895,8851 c -3,-6 3,-15 14,-21 12,-6 22,-6 26,-1 3,6 -3,15 -14,21 -12,6 -22,6 -26,1 z"
       id="path76"
       inkscape:connector-curvature="0" />
    <path
       d="m 2567,8824 c -38,-20 -24,-38 14,-19 16,9 27,20 24,25 -7,12 -4,13 -38,-6 z"
       id="path78"
       inkscape:connector-curvature="0" />
    <path
       d="m 4965,8811 c -3,-6 3,-15 14,-21 12,-6 22,-6 26,-1 3,6 -3,15 -14,21 -12,6 -22,6 -26,1 z"
       id="path80"
       inkscape:connector-curvature="0" />
    <path
       d="m 2505,8786 c -11,-8 -14,-16 -8,-19 6,-4 18,0 28,7 11,8 14,16 8,19 -6,4 -18,0 -28,-7 z"
       id="path82"
       inkscape:connector-curvature="0" />
    <path
       d="m 5035,8771 c -3,-6 3,-15 14,-21 12,-6 22,-6 26,-1 3,6 -3,15 -14,21 -12,6 -22,6 -26,1 z"
       id="path84"
       inkscape:connector-curvature="0" />
    <path
       d="m 2435,8746 c -11,-8 -14,-16 -8,-19 6,-4 18,0 28,7 11,8 14,16 8,19 -6,4 -18,0 -28,-7 z"
       id="path86"
       inkscape:connector-curvature="0" />
    <path
       d="m 5105,8731 c -3,-6 3,-15 14,-21 12,-6 22,-6 26,-1 3,6 -3,15 -14,21 -12,6 -22,6 -26,1 z"
       id="path88"
       inkscape:connector-curvature="0" />
    <path
       d="m 2385,8716 c -11,-8 -14,-16 -8,-19 6,-4 18,0 28,7 11,8 14,16 8,19 -6,4 -18,0 -28,-7 z"
       id="path90"
       inkscape:connector-curvature="0" />
    <path
       d="m 5175,8691 c -3,-6 3,-15 14,-21 12,-6 22,-6 26,-1 3,6 -3,15 -14,21 -12,6 -22,6 -26,1 z"
       id="path92"
       inkscape:connector-curvature="0" />
    <path
       d="m 2315,8676 c -11,-8 -14,-16 -8,-19 6,-4 18,0 28,7 11,8 14,16 8,19 -6,4 -18,0 -28,-7 z"
       id="path94"
       inkscape:connector-curvature="0" />
    <path
       d="m 2265,8646 c -11,-8 -14,-16 -8,-19 6,-4 18,0 28,7 11,8 14,16 8,19 -6,4 -18,0 -28,-7 z"
       id="path96"
       inkscape:connector-curvature="0" />
    <path
       d="m 5245,8651 c -3,-6 3,-15 14,-21 12,-6 22,-6 26,-1 3,6 -3,15 -14,21 -12,6 -22,6 -26,1 z"
       id="path98"
       inkscape:connector-curvature="0" />
    <path
       d="m 2195,8606 c -11,-8 -14,-16 -8,-19 6,-4 18,0 28,7 11,8 14,16 8,19 -6,4 -18,0 -28,-7 z"
       id="path100"
       inkscape:connector-curvature="0" />
    <path
       d="m 5315,8611 c -3,-6 3,-15 14,-21 12,-6 22,-6 26,-1 3,6 -3,15 -14,21 -12,6 -22,6 -26,1 z"
       id="path102"
       inkscape:connector-curvature="0" />
    <path
       d="m 2137,8574 c -38,-20 -24,-38 14,-19 16,9 27,20 24,25 -7,12 -4,13 -38,-6 z"
       id="path104"
       inkscape:connector-curvature="0" />
    <path
       d="m 5385,8571 c -3,-6 3,-15 14,-21 12,-6 22,-6 26,-1 3,6 -3,15 -14,21 -12,6 -22,6 -26,1 z"
       id="path106"
       inkscape:connector-curvature="0" />
    <path
       d="m 2075,8536 c -11,-8 -14,-16 -8,-19 6,-4 18,0 28,7 11,8 14,16 8,19 -6,4 -18,0 -28,-7 z"
       id="path108"
       inkscape:connector-curvature="0" />
    <path
       d="m 5455,8531 c -3,-6 3,-15 14,-21 12,-6 22,-6 26,-1 3,6 -3,15 -14,21 -12,6 -22,6 -26,1 z"
       id="path110"
       inkscape:connector-curvature="0" />
    <path
       d="m 2005,8496 c -11,-8 -14,-16 -8,-19 6,-4 18,0 28,7 11,8 14,16 8,19 -6,4 -18,0 -28,-7 z"
       id="path112"
       inkscape:connector-curvature="0" />
    <path
       d="m 5525,8491 c -3,-6 3,-15 14,-21 12,-6 22,-6 26,-1 3,6 -3,15 -14,21 -12,6 -22,6 -26,1 z"
       id="path114"
       inkscape:connector-curvature="0" />
    <path
       d="m 1955,8466 c -11,-8 -14,-16 -8,-19 6,-4 18,0 28,7 11,8 14,16 8,19 -6,4 -18,0 -28,-7 z"
       id="path116"
       inkscape:connector-curvature="0" />
    <path
       d="m 5575,8460 c -3,-5 8,-16 24,-25 18,-9 32,-11 36,-5 3,5 -8,16 -24,25 -18,9 -32,11 -36,5 z"
       id="path118"
       inkscape:connector-curvature="0" />
    <path
       d="m 1885,8426 c -11,-8 -14,-16 -8,-19 6,-4 18,0 28,7 11,8 14,16 8,19 -6,4 -18,0 -28,-7 z"
       id="path120"
       inkscape:connector-curvature="0" />
    <path
       d="m 5645,8421 c -3,-6 3,-15 14,-21 12,-6 22,-6 26,-1 3,6 -3,15 -14,21 -12,6 -22,6 -26,1 z"
       id="path122"
       inkscape:connector-curvature="0" />
    <path
       d="m 1835,8396 c -11,-8 -14,-16 -8,-19 6,-4 18,0 28,7 11,8 14,16 8,19 -6,4 -18,0 -28,-7 z"
       id="path124"
       inkscape:connector-curvature="0" />
    <path
       d="m 5715,8381 c -3,-6 3,-15 14,-21 12,-6 22,-6 26,-1 3,6 -3,15 -14,21 -12,6 -22,6 -26,1 z"
       id="path126"
       inkscape:connector-curvature="0" />
    <path
       d="m 1765,8356 c -11,-8 -14,-16 -8,-19 6,-4 18,0 28,7 11,8 14,16 8,19 -6,4 -18,0 -28,-7 z"
       id="path128"
       inkscape:connector-curvature="0" />
    <path
       d="m 5785,8341 c -3,-6 3,-15 14,-21 12,-6 22,-6 26,-1 3,6 -3,15 -14,21 -12,6 -22,6 -26,1 z"
       id="path130"
       inkscape:connector-curvature="0" />
    <path
       d="m 1707,8324 c -38,-20 -24,-38 14,-19 16,9 27,20 24,25 -7,12 -4,13 -38,-6 z"
       id="path132"
       inkscape:connector-curvature="0" />
    <path
       d="m 5855,8301 c -3,-6 3,-15 14,-21 12,-6 22,-6 26,-1 3,6 -3,15 -14,21 -12,6 -22,6 -26,1 z"
       id="path134"
       inkscape:connector-curvature="0" />
    <path
       d="m 1645,8286 c -11,-8 -14,-16 -8,-19 6,-4 18,0 28,7 11,8 14,16 8,19 -6,4 -18,0 -28,-7 z"
       id="path136"
       inkscape:connector-curvature="0" />
    <path
       d="m 5925,8261 c -3,-6 3,-15 14,-21 12,-6 22,-6 26,-1 3,6 -3,15 -14,21 -12,6 -22,6 -26,1 z"
       id="path138"
       inkscape:connector-curvature="0" />
    <path
       d="m 1575,8246 c -11,-8 -14,-16 -8,-19 6,-4 18,0 28,7 11,8 14,16 8,19 -6,4 -18,0 -28,-7 z"
       id="path140"
       inkscape:connector-curvature="0" />
    <path
       d="m 1525,8216 c -11,-8 -14,-16 -8,-19 6,-4 18,0 28,7 11,8 14,16 8,19 -6,4 -18,0 -28,-7 z"
       id="path142"
       inkscape:connector-curvature="0" />
    <path
       d="m 5995,8221 c -3,-6 3,-15 14,-21 12,-6 22,-6 26,-1 3,6 -3,15 -14,21 -12,6 -22,6 -26,1 z"
       id="path144"
       inkscape:connector-curvature="0" />
    <path
       d="m 1455,8176 c -11,-8 -14,-16 -8,-19 6,-4 18,0 28,7 11,8 14,16 8,19 -6,4 -18,0 -28,-7 z"
       id="path146"
       inkscape:connector-curvature="0" />
    <path
       d="m 6065,8181 c -3,-6 3,-15 14,-21 12,-6 22,-6 26,-1 3,6 -3,15 -14,21 -12,6 -22,6 -26,1 z"
       id="path148"
       inkscape:connector-curvature="0" />
    <path
       d="m 1405,8146 c -11,-8 -14,-16 -8,-19 6,-4 18,0 28,7 11,8 14,16 8,19 -6,4 -18,0 -28,-7 z"
       id="path150"
       inkscape:connector-curvature="0" />
    <path
       d="m 6135,8141 c -3,-6 3,-15 14,-21 12,-6 22,-6 26,-1 3,6 -3,15 -14,21 -12,6 -22,6 -26,1 z"
       id="path152"
       inkscape:connector-curvature="0" />
    <path
       d="m 1335,8106 c -11,-8 -14,-16 -8,-19 6,-4 18,0 28,7 11,8 14,16 8,19 -6,4 -18,0 -28,-7 z"
       id="path154"
       inkscape:connector-curvature="0" />
    <path
       d="m 6205,8101 c -3,-6 3,-15 14,-21 12,-6 22,-6 26,-1 3,6 -3,15 -14,21 -12,6 -22,6 -26,1 z"
       id="path156"
       inkscape:connector-curvature="0" />
    <path
       d="m 1277,8074 c -38,-20 -24,-38 14,-19 16,9 27,20 24,25 -7,12 -4,13 -38,-6 z"
       id="path158"
       inkscape:connector-curvature="0" />
    <path
       d="m 6275,8061 c -3,-6 3,-15 14,-21 12,-6 22,-6 26,-1 3,6 -3,15 -14,21 -12,6 -22,6 -26,1 z"
       id="path160"
       inkscape:connector-curvature="0" />
    <path
       d="m 1215,8036 c -11,-8 -14,-16 -8,-19 6,-4 18,0 28,7 11,8 14,16 8,19 -6,4 -18,0 -28,-7 z"
       id="path162"
       inkscape:connector-curvature="0" />
    <path
       d="m 6325,8030 c -3,-5 8,-16 24,-25 18,-9 32,-11 36,-5 3,5 -8,16 -24,25 -18,9 -32,11 -36,5 z"
       id="path164"
       inkscape:connector-curvature="0" />
    <path
       d="m 1145,7996 c -11,-8 -14,-16 -8,-19 6,-4 18,0 28,7 11,8 14,16 8,19 -6,4 -18,0 -28,-7 z"
       id="path166"
       inkscape:connector-curvature="0" />
    <path
       d="m 6395,7991 c -3,-6 3,-15 14,-21 12,-6 22,-6 26,-1 3,6 -3,15 -14,21 -12,6 -22,6 -26,1 z"
       id="path168"
       inkscape:connector-curvature="0" />
    <path
       d="m 1095,7966 c -11,-8 -14,-16 -8,-19 6,-4 18,0 28,7 11,8 14,16 8,19 -6,4 -18,0 -28,-7 z"
       id="path170"
       inkscape:connector-curvature="0" />
    <path
       d="m 6465,7951 c -3,-6 3,-15 14,-21 12,-6 22,-6 26,-1 3,6 -3,15 -14,21 -12,6 -22,6 -26,1 z"
       id="path172"
       inkscape:connector-curvature="0" />
    <path
       d="m 1025,7926 c -11,-8 -14,-16 -8,-19 6,-4 18,0 28,7 11,8 14,16 8,19 -6,4 -18,0 -28,-7 z"
       id="path174"
       inkscape:connector-curvature="0" />
    <path
       d="m 6535,7911 c -3,-6 3,-15 14,-21 12,-6 22,-6 26,-1 3,6 -3,15 -14,21 -12,6 -22,6 -26,1 z"
       id="path176"
       inkscape:connector-curvature="0" />
    <path
       d="m 975,7896 c -11,-8 -14,-16 -8,-19 6,-4 18,0 28,7 11,8 14,16 8,19 -6,4 -18,0 -28,-7 z"
       id="path178"
       inkscape:connector-curvature="0" />
    <path
       d="m 6605,7871 c -3,-6 3,-15 14,-21 12,-6 22,-6 26,-1 3,6 -3,15 -14,21 -12,6 -22,6 -26,1 z"
       id="path180"
       inkscape:connector-curvature="0" />
    <path
       d="m 905,7856 c -11,-8 -14,-16 -8,-19 6,-4 18,0 28,7 11,8 14,16 8,19 -6,4 -18,0 -28,-7 z"
       id="path182"
       inkscape:connector-curvature="0" />
    <path
       d="m 847,7824 c -38,-20 -24,-38 14,-19 16,9 27,20 24,25 -7,12 -4,13 -38,-6 z"
       id="path184"
       inkscape:connector-curvature="0" />
    <path
       d="m 6675,7831 c -3,-6 3,-15 14,-21 12,-6 22,-6 26,-1 3,6 -3,15 -14,21 -12,6 -22,6 -26,1 z"
       id="path186"
       inkscape:connector-curvature="0" />
    <path
       d="m 785,7786 c -11,-8 -14,-16 -8,-19 6,-4 18,0 28,7 11,8 14,16 8,19 -6,4 -18,0 -28,-7 z"
       id="path188"
       inkscape:connector-curvature="0" />
    <path
       d="m 6745,7791 c -3,-6 3,-15 14,-21 12,-6 22,-6 26,-1 3,6 -3,15 -14,21 -12,6 -22,6 -26,1 z"
       id="path190"
       inkscape:connector-curvature="0" />
    <path
       d="m 715,7746 c -11,-8 -14,-16 -8,-19 6,-4 18,0 28,7 11,8 14,16 8,19 -6,4 -18,0 -28,-7 z"
       id="path192"
       inkscape:connector-curvature="0" />
    <path
       d="m 6815,7751 c -3,-6 3,-15 14,-21 12,-6 22,-6 26,-1 3,6 -3,15 -14,21 -12,6 -22,6 -26,1 z"
       id="path194"
       inkscape:connector-curvature="0" />
    <path
       d="m 665,7716 c -11,-8 -14,-16 -8,-19 6,-4 18,0 28,7 11,8 14,16 8,19 -6,4 -18,0 -28,-7 z"
       id="path196"
       inkscape:connector-curvature="0" />
    <path
       d="m 3345,7714 c -586,-38 -982,-127 -1178,-267 -83,-59 -123,-106 -161,-187 -26,-56 -31,-79 -34,-164 -8,-194 26,-276 182,-432 186,-186 481,-366 829,-505 194,-78 235,-108 284,-214 25,-54 28,-71 28,-165 0,-123 -6,-138 -111,-270 -122,-155 -205,-300 -277,-490 -138,-358 -142,-764 -13,-1037 121,-253 329,-427 609,-507 115,-33 214,-41 370,-27 229,20 435,106 583,244 134,125 211,250 274,442 31,93 33,112 38,267 5,185 -5,281 -44,426 -59,220 -226,532 -383,716 -66,78 -85,135 -85,256 0,108 18,175 64,238 25,35 43,46 152,87 465,180 755,349 949,553 122,128 159,217 159,388 0,161 -30,237 -134,332 -175,159 -463,244 -1011,298 -152,15 -935,28 -1090,18 z m 522,-2275 c 86,-53 127,-160 121,-309 -6,-143 -52,-229 -143,-271 -102,-47 -212,4 -266,126 -35,77 -38,213 -8,307 26,82 83,150 141,167 46,14 114,5 155,-20 z"
       id="path198"
       inkscape:connector-curvature="0" />
    <path
       d="m 6885,7711 c -3,-6 3,-15 14,-21 12,-6 22,-6 26,-1 3,6 -3,15 -14,21 -12,6 -22,6 -26,1 z"
       id="path200"
       inkscape:connector-curvature="0" />
    <path
       d="m 595,7676 c -11,-8 -14,-16 -8,-19 6,-4 18,0 28,7 11,8 14,16 8,19 -6,4 -18,0 -28,-7 z"
       id="path202"
       inkscape:connector-curvature="0" />
    <path
       d="m 6955,7671 c -3,-6 3,-15 14,-21 12,-6 22,-6 26,-1 3,6 -3,15 -14,21 -12,6 -22,6 -26,1 z"
       id="path204"
       inkscape:connector-curvature="0" />
    <path
       d="m 545,7646 c -11,-8 -14,-16 -8,-19 6,-4 18,0 28,7 11,8 14,16 8,19 -6,4 -18,0 -28,-7 z"
       id="path206"
       inkscape:connector-curvature="0" />
    <path
       d="m 7025,7631 c -3,-6 3,-15 14,-21 12,-6 22,-6 26,-1 3,6 -3,15 -14,21 -12,6 -22,6 -26,1 z"
       id="path208"
       inkscape:connector-curvature="0" />
    <path
       d="m 475,7606 c -11,-8 -14,-16 -8,-19 6,-4 18,0 28,7 11,8 14,16 8,19 -6,4 -18,0 -28,-7 z"
       id="path210"
       inkscape:connector-curvature="0" />
    <path
       d="m 7075,7600 c -3,-5 8,-16 24,-25 18,-9 32,-11 36,-5 3,5 -8,16 -24,25 -18,9 -32,11 -36,5 z"
       id="path212"
       inkscape:connector-curvature="0" />
    <path
       d="m 417,7574 c -38,-20 -24,-38 14,-19 16,9 27,20 24,25 -7,12 -4,13 -38,-6 z"
       id="path214"
       inkscape:connector-curvature="0" />
    <path
       d="m 7145,7561 c -3,-6 3,-15 14,-21 12,-6 22,-6 26,-1 3,6 -3,15 -14,21 -12,6 -22,6 -26,1 z"
       id="path216"
       inkscape:connector-curvature="0" />
    <path
       d="m 355,7536 c -11,-8 -14,-16 -8,-19 6,-4 18,0 28,7 11,8 14,16 8,19 -6,4 -18,0 -28,-7 z"
       id="path218"
       inkscape:connector-curvature="0" />
    <path
       d="m 7215,7521 c -3,-6 3,-15 14,-21 12,-6 22,-6 26,-1 3,6 -3,15 -14,21 -12,6 -22,6 -26,1 z"
       id="path220"
       inkscape:connector-curvature="0" />
    <path
       d="m 285,7496 c -11,-8 -14,-16 -8,-19 6,-4 18,0 28,7 11,8 14,16 8,19 -6,4 -18,0 -28,-7 z"
       id="path222"
       inkscape:connector-curvature="0" />
    <path
       d="m 7285,7481 c -3,-6 3,-15 14,-21 12,-6 22,-6 26,-1 3,6 -3,15 -14,21 -12,6 -22,6 -26,1 z"
       id="path224"
       inkscape:connector-curvature="0" />
    <path
       d="m 235,7466 c -11,-8 -14,-16 -8,-19 6,-4 18,0 28,7 11,8 14,16 8,19 -6,4 -18,0 -28,-7 z"
       id="path226"
       inkscape:connector-curvature="0" />
    <path
       d="m 7355,7441 c -3,-6 3,-15 14,-21 12,-6 22,-6 26,-1 3,6 -3,15 -14,21 -12,6 -22,6 -26,1 z"
       id="path228"
       inkscape:connector-curvature="0" />
    <path
       d="m 165,7426 c -11,-8 -14,-16 -8,-19 6,-4 18,0 28,7 11,8 14,16 8,19 -6,4 -18,0 -28,-7 z"
       id="path230"
       inkscape:connector-curvature="0" />
    <path
       d="m 115,7396 c -11,-8 -14,-16 -8,-19 6,-4 18,0 28,7 11,8 14,16 8,19 -6,4 -18,0 -28,-7 z"
       id="path232"
       inkscape:connector-curvature="0" />
    <path
       d="m 65,6419 c -10,-27 -1,-944 10,-942 14,4 19,933 5,947 -6,6 -11,4 -15,-5 z"
       id="path234"
       inkscape:connector-curvature="0" />
    <path
       d="m 2085,6133 c -351,-21 -508,-38 -685,-74 -267,-54 -447,-155 -520,-290 -34,-62 -35,-67 -35,-179 0,-125 6,-150 62,-238 108,-172 438,-390 794,-526 120,-46 171,-79 197,-125 44,-79 52,-214 18,-296 -8,-18 -49,-82 -91,-142 -167,-234 -257,-492 -272,-773 -15,-295 63,-538 225,-703 84,-85 166,-139 270,-177 209,-76 439,-61 647,43 86,42 229,189 279,285 50,96 86,203 93,277 l 5,61 -53,35 c -72,49 -170,137 -247,223 -125,140 -228,349 -280,569 -25,105 -26,126 -27,362 0,282 9,346 86,582 82,253 174,429 337,646 l 73,98 -48,20 c -280,121 -402,179 -567,273 -106,60 -100,59 -261,49 z m 92,-2030 c 97,-64 97,-334 -1,-398 -86,-57 -194,-4 -225,110 -55,201 86,380 226,288 z"
       id="path236"
       inkscape:connector-curvature="0" />
    <path
       d="m 5235,6099 c -94,-56 -385,-196 -518,-249 -60,-23 -111,-49 -114,-56 -3,-7 29,-57 70,-111 234,-305 368,-616 428,-993 15,-96 15,-360 0,-470 -50,-357 -218,-642 -510,-863 -60,-46 -99,-83 -106,-101 -14,-40 24,-179 81,-295 38,-78 61,-109 138,-186 76,-77 105,-99 176,-133 47,-22 103,-45 125,-51 134,-38 359,-31 481,15 124,46 185,85 275,174 99,99 150,180 190,304 43,131 52,209 46,391 -5,132 -11,180 -35,275 -52,205 -128,368 -248,531 -86,117 -98,149 -98,249 0,161 46,221 223,290 420,166 733,383 831,576 34,67 35,71 35,188 -1,138 -15,182 -80,254 -161,178 -511,265 -1200,297 l -120,5 -70,-41 z m 348,-2048 c 70,-27 114,-128 104,-242 -13,-151 -103,-228 -211,-181 -36,16 -48,30 -70,74 -42,86 -36,222 13,297 33,52 105,74 164,52 z"
       id="path238"
       inkscape:connector-curvature="0" />
    <path
       d="m 762,4725 c -16,-14 -33,-36 -36,-50 -10,-38 18,-90 65,-124 34,-25 52,-31 96,-31 l 53,0 0,-180 0,-180 28,-30 c 22,-26 56,-40 202,-85 96,-30 183,-55 193,-55 9,0 26,9 37,20 19,19 20,33 20,281 0,246 -1,264 -21,295 -54,87 -184,108 -249,40 -68,-73 23,-196 145,-196 l 45,0 0,-116 c 0,-89 -3,-115 -12,-112 -7,3 -76,24 -153,48 -77,24 -146,48 -152,53 -10,7 -13,54 -13,174 0,185 -6,206 -67,248 -53,36 -139,36 -181,0 z"
       id="path240"
       inkscape:connector-curvature="0" />
    <path
       d="m 6076,4619 c -58,-45 -54,-113 9,-168 39,-34 105,-56 141,-47 l 24,6 0,-179 c 0,-243 -19,-224 323,-326 95,-29 130,-27 147,5 7,14 10,110 8,286 l -3,265 -41,39 c -51,47 -108,65 -162,50 -101,-27 -115,-129 -27,-196 28,-21 51,-29 96,-32 l 59,-4 0,-114 c 0,-63 -2,-114 -4,-114 -15,0 -303,94 -313,102 -10,8 -13,56 -13,176 0,150 -2,168 -21,199 -43,69 -165,97 -223,52 z"
       id="path242"
       inkscape:connector-curvature="0" />
    <path
       d="m 74,3116 c -4,-10 -2,-22 4,-28 8,-8 13,-7 18,6 4,10 2,22 -4,28 -8,8 -13,7 -18,-6 z"
       id="path244"
       inkscape:connector-curvature="0" />
    <path
       d="m 105,3080 c -3,-5 8,-16 24,-25 18,-9 32,-11 36,-5 3,5 -8,16 -24,25 -18,9 -32,11 -36,5 z"
       id="path246"
       inkscape:connector-curvature="0" />
    <path
       d="m 7365,3066 c -11,-8 -14,-16 -8,-19 6,-4 18,0 28,7 11,8 14,16 8,19 -6,4 -18,0 -28,-7 z"
       id="path248"
       inkscape:connector-curvature="0" />
    <path
       d="m 175,3040 c -3,-5 8,-16 24,-25 18,-9 32,-11 36,-5 3,5 -8,16 -24,25 -18,9 -32,11 -36,5 z"
       id="path250"
       inkscape:connector-curvature="0" />
    <path
       d="m 7315,3036 c -11,-8 -14,-16 -8,-19 6,-4 18,0 28,7 11,8 14,16 8,19 -6,4 -18,0 -28,-7 z"
       id="path252"
       inkscape:connector-curvature="0" />
    <path
       d="m 245,3001 c -3,-6 3,-15 14,-21 12,-6 22,-6 26,-1 3,6 -3,15 -14,21 -12,6 -22,6 -26,1 z"
       id="path254"
       inkscape:connector-curvature="0" />
    <path
       d="m 7245,2996 c -11,-8 -14,-16 -8,-19 6,-4 18,0 28,7 11,8 14,16 8,19 -6,4 -18,0 -28,-7 z"
       id="path256"
       inkscape:connector-curvature="0" />
    <path
       d="m 315,2961 c -3,-6 3,-15 14,-21 12,-6 22,-6 26,-1 3,6 -3,15 -14,21 -12,6 -22,6 -26,1 z"
       id="path258"
       inkscape:connector-curvature="0" />
    <path
       d="m 7175,2956 c -11,-8 -14,-16 -8,-19 6,-4 18,0 28,7 11,8 14,16 8,19 -6,4 -18,0 -28,-7 z"
       id="path260"
       inkscape:connector-curvature="0" />
    <path
       d="m 7125,2926 c -11,-8 -14,-16 -8,-19 6,-4 18,0 28,7 11,8 14,16 8,19 -6,4 -18,0 -28,-7 z"
       id="path262"
       inkscape:connector-curvature="0" />
    <path
       d="m 385,2921 c -3,-6 3,-15 14,-21 12,-6 22,-6 26,-1 3,6 -3,15 -14,21 -12,6 -22,6 -26,1 z"
       id="path264"
       inkscape:connector-curvature="0" />
    <path
       d="m 7055,2886 c -11,-8 -14,-16 -8,-19 6,-4 18,0 28,7 11,8 14,16 8,19 -6,4 -18,0 -28,-7 z"
       id="path266"
       inkscape:connector-curvature="0" />
    <path
       d="m 455,2881 c -3,-6 3,-15 14,-21 12,-6 22,-6 26,-1 3,6 -3,15 -14,21 -12,6 -22,6 -26,1 z"
       id="path268"
       inkscape:connector-curvature="0" />
    <path
       d="m 7005,2856 c -11,-8 -14,-16 -8,-19 6,-4 18,0 28,7 11,8 14,16 8,19 -6,4 -18,0 -28,-7 z"
       id="path270"
       inkscape:connector-curvature="0" />
    <path
       d="m 525,2841 c -3,-6 3,-15 14,-21 12,-6 22,-6 26,-1 3,6 -3,15 -14,21 -12,6 -22,6 -26,1 z"
       id="path272"
       inkscape:connector-curvature="0" />
    <path
       d="m 6935,2816 c -11,-8 -14,-16 -8,-19 6,-4 18,0 28,7 11,8 14,16 8,19 -6,4 -18,0 -28,-7 z"
       id="path274"
       inkscape:connector-curvature="0" />
    <path
       d="m 595,2801 c -3,-6 3,-15 14,-21 12,-6 22,-6 26,-1 3,6 -3,15 -14,21 -12,6 -22,6 -26,1 z"
       id="path276"
       inkscape:connector-curvature="0" />
    <path
       d="m 6885,2786 c -11,-8 -14,-16 -8,-19 6,-4 18,0 28,7 11,8 14,16 8,19 -6,4 -18,0 -28,-7 z"
       id="path278"
       inkscape:connector-curvature="0" />
    <path
       d="m 665,2761 c -3,-6 3,-15 14,-21 12,-6 22,-6 26,-1 3,6 -3,15 -14,21 -12,6 -22,6 -26,1 z"
       id="path280"
       inkscape:connector-curvature="0" />
    <path
       d="m 6815,2746 c -11,-8 -14,-16 -8,-19 6,-4 18,0 28,7 11,8 14,16 8,19 -6,4 -18,0 -28,-7 z"
       id="path282"
       inkscape:connector-curvature="0" />
    <path
       d="m 715,2730 c -3,-5 8,-16 24,-25 18,-9 32,-11 36,-5 3,5 -8,16 -24,25 -18,9 -32,11 -36,5 z"
       id="path284"
       inkscape:connector-curvature="0" />
    <path
       d="m 6745,2706 c -11,-8 -14,-16 -8,-19 6,-4 18,0 28,7 11,8 14,16 8,19 -6,4 -18,0 -28,-7 z"
       id="path286"
       inkscape:connector-curvature="0" />
    <path
       d="m 785,2690 c -3,-5 8,-16 24,-25 18,-9 32,-11 36,-5 3,5 -8,16 -24,25 -18,9 -32,11 -36,5 z"
       id="path288"
       inkscape:connector-curvature="0" />
    <path
       d="m 6695,2676 c -11,-8 -14,-16 -8,-19 6,-4 18,0 28,7 11,8 14,16 8,19 -6,4 -18,0 -28,-7 z"
       id="path290"
       inkscape:connector-curvature="0" />
    <path
       d="m 855,2650 c -3,-5 8,-16 24,-25 18,-9 32,-11 36,-5 3,5 -8,16 -24,25 -18,9 -32,11 -36,5 z"
       id="path292"
       inkscape:connector-curvature="0" />
    <path
       d="m 6625,2636 c -11,-8 -14,-16 -8,-19 6,-4 18,0 28,7 11,8 14,16 8,19 -6,4 -18,0 -28,-7 z"
       id="path294"
       inkscape:connector-curvature="0" />
    <path
       d="m 925,2610 c -3,-5 8,-16 24,-25 18,-9 32,-11 36,-5 3,5 -8,16 -24,25 -18,9 -32,11 -36,5 z"
       id="path296"
       inkscape:connector-curvature="0" />
    <path
       d="m 6575,2606 c -11,-8 -14,-16 -8,-19 6,-4 18,0 28,7 11,8 14,16 8,19 -6,4 -18,0 -28,-7 z"
       id="path298"
       inkscape:connector-curvature="0" />
    <path
       d="m 995,2571 c -3,-6 3,-15 14,-21 12,-6 22,-6 26,-1 3,6 -3,15 -14,21 -12,6 -22,6 -26,1 z"
       id="path300"
       inkscape:connector-curvature="0" />
    <path
       d="m 6505,2566 c -11,-8 -14,-16 -8,-19 6,-4 18,0 28,7 11,8 14,16 8,19 -6,4 -18,0 -28,-7 z"
       id="path302"
       inkscape:connector-curvature="0" />
    <path
       d="m 6455,2536 c -11,-8 -14,-16 -8,-19 6,-4 18,0 28,7 11,8 14,16 8,19 -6,4 -18,0 -28,-7 z"
       id="path304"
       inkscape:connector-curvature="0" />
    <path
       d="m 1065,2531 c -3,-6 3,-15 14,-21 12,-6 22,-6 26,-1 3,6 -3,15 -14,21 -12,6 -22,6 -26,1 z"
       id="path306"
       inkscape:connector-curvature="0" />
    <path
       d="m 6385,2496 c -11,-8 -14,-16 -8,-19 6,-4 18,0 28,7 11,8 14,16 8,19 -6,4 -18,0 -28,-7 z"
       id="path308"
       inkscape:connector-curvature="0" />
    <path
       d="m 1135,2491 c -3,-6 3,-15 14,-21 12,-6 22,-6 26,-1 3,6 -3,15 -14,21 -12,6 -22,6 -26,1 z"
       id="path310"
       inkscape:connector-curvature="0" />
    <path
       d="m 6315,2456 c -11,-8 -14,-16 -8,-19 6,-4 18,0 28,7 11,8 14,16 8,19 -6,4 -18,0 -28,-7 z"
       id="path312"
       inkscape:connector-curvature="0" />
    <path
       d="m 1205,2451 c -3,-6 3,-15 14,-21 12,-6 22,-6 26,-1 3,6 -3,15 -14,21 -12,6 -22,6 -26,1 z"
       id="path314"
       inkscape:connector-curvature="0" />
    <path
       d="m 6265,2426 c -11,-8 -14,-16 -8,-19 6,-4 18,0 28,7 11,8 14,16 8,19 -6,4 -18,0 -28,-7 z"
       id="path316"
       inkscape:connector-curvature="0" />
    <path
       d="m 1275,2411 c -3,-6 3,-15 14,-21 12,-6 22,-6 26,-1 3,6 -3,15 -14,21 -12,6 -22,6 -26,1 z"
       id="path318"
       inkscape:connector-curvature="0" />
    <path
       d="m 6195,2386 c -11,-8 -14,-16 -8,-19 6,-4 18,0 28,7 11,8 14,16 8,19 -6,4 -18,0 -28,-7 z"
       id="path320"
       inkscape:connector-curvature="0" />
    <path
       d="m 1345,2371 c -3,-6 3,-15 14,-21 12,-6 22,-6 26,-1 3,6 -3,15 -14,21 -12,6 -22,6 -26,1 z"
       id="path322"
       inkscape:connector-curvature="0" />
    <path
       d="m 6145,2356 c -11,-8 -14,-16 -8,-19 6,-4 18,0 28,7 11,8 14,16 8,19 -6,4 -18,0 -28,-7 z"
       id="path324"
       inkscape:connector-curvature="0" />
    <path
       d="m 1415,2331 c -3,-6 3,-15 14,-21 12,-6 22,-6 26,-1 3,6 -3,15 -14,21 -12,6 -22,6 -26,1 z"
       id="path326"
       inkscape:connector-curvature="0" />
    <path
       d="m 6075,2316 c -11,-8 -14,-16 -8,-19 6,-4 18,0 28,7 11,8 14,16 8,19 -6,4 -18,0 -28,-7 z"
       id="path328"
       inkscape:connector-curvature="0" />
    <path
       d="m 1465,2300 c -3,-5 8,-16 24,-25 18,-9 32,-11 36,-5 3,5 -8,16 -24,25 -18,9 -32,11 -36,5 z"
       id="path330"
       inkscape:connector-curvature="0" />
    <path
       d="m 6025,2286 c -11,-8 -14,-16 -8,-19 6,-4 18,0 28,7 11,8 14,16 8,19 -6,4 -18,0 -28,-7 z"
       id="path332"
       inkscape:connector-curvature="0" />
    <path
       d="m 1535,2260 c -3,-5 8,-16 24,-25 18,-9 32,-11 36,-5 3,5 -8,16 -24,25 -18,9 -32,11 -36,5 z"
       id="path334"
       inkscape:connector-curvature="0" />
    <path
       d="m 5955,2246 c -11,-8 -14,-16 -8,-19 6,-4 18,0 28,7 11,8 14,16 8,19 -6,4 -18,0 -28,-7 z"
       id="path336"
       inkscape:connector-curvature="0" />
    <path
       d="m 1605,2220 c -3,-5 8,-16 24,-25 18,-9 32,-11 36,-5 3,5 -8,16 -24,25 -18,9 -32,11 -36,5 z"
       id="path338"
       inkscape:connector-curvature="0" />
    <path
       d="m 5885,2206 c -11,-8 -14,-16 -8,-19 6,-4 18,0 28,7 11,8 14,16 8,19 -6,4 -18,0 -28,-7 z"
       id="path340"
       inkscape:connector-curvature="0" />
    <path
       d="m 1675,2180 c -3,-5 8,-16 24,-25 18,-9 32,-11 36,-5 3,5 -8,16 -24,25 -18,9 -32,11 -36,5 z"
       id="path342"
       inkscape:connector-curvature="0" />
    <path
       d="m 5835,2176 c -11,-8 -14,-16 -8,-19 6,-4 18,0 28,7 11,8 14,16 8,19 -6,4 -18,0 -28,-7 z"
       id="path344"
       inkscape:connector-curvature="0" />
    <path
       d="m 1745,2141 c -3,-6 3,-15 14,-21 12,-6 22,-6 26,-1 3,6 -3,15 -14,21 -12,6 -22,6 -26,1 z"
       id="path346"
       inkscape:connector-curvature="0" />
    <path
       d="m 5765,2136 c -11,-8 -14,-16 -8,-19 6,-4 18,0 28,7 11,8 14,16 8,19 -6,4 -18,0 -28,-7 z"
       id="path348"
       inkscape:connector-curvature="0" />
    <path
       d="m 5715,2106 c -11,-8 -14,-16 -8,-19 6,-4 18,0 28,7 11,8 14,16 8,19 -6,4 -18,0 -28,-7 z"
       id="path350"
       inkscape:connector-curvature="0" />
    <path
       d="m 1815,2101 c -3,-6 3,-15 14,-21 12,-6 22,-6 26,-1 3,6 -3,15 -14,21 -12,6 -22,6 -26,1 z"
       id="path352"
       inkscape:connector-curvature="0" />
    <path
       d="m 5645,2066 c -11,-8 -14,-16 -8,-19 6,-4 18,0 28,7 11,8 14,16 8,19 -6,4 -18,0 -28,-7 z"
       id="path354"
       inkscape:connector-curvature="0" />
    <path
       d="m 1885,2061 c -3,-6 3,-15 14,-21 12,-6 22,-6 26,-1 3,6 -3,15 -14,21 -12,6 -22,6 -26,1 z"
       id="path356"
       inkscape:connector-curvature="0" />
    <path
       d="m 5595,2036 c -11,-8 -14,-16 -8,-19 6,-4 18,0 28,7 11,8 14,16 8,19 -6,4 -18,0 -28,-7 z"
       id="path358"
       inkscape:connector-curvature="0" />
    <path
       d="m 1955,2021 c -3,-6 3,-15 14,-21 12,-6 22,-6 26,-1 3,6 -3,15 -14,21 -12,6 -22,6 -26,1 z"
       id="path360"
       inkscape:connector-curvature="0" />
    <path
       d="m 5525,1996 c -11,-8 -14,-16 -8,-19 6,-4 18,0 28,7 11,8 14,16 8,19 -6,4 -18,0 -28,-7 z"
       id="path362"
       inkscape:connector-curvature="0" />
    <path
       d="m 2025,1981 c -3,-6 3,-15 14,-21 12,-6 22,-6 26,-1 3,6 -3,15 -14,21 -12,6 -22,6 -26,1 z"
       id="path364"
       inkscape:connector-curvature="0" />
    <path
       d="m 5455,1956 c -11,-8 -14,-16 -8,-19 6,-4 18,0 28,7 11,8 14,16 8,19 -6,4 -18,0 -28,-7 z"
       id="path366"
       inkscape:connector-curvature="0" />
    <path
       d="m 2095,1941 c -3,-6 3,-15 14,-21 12,-6 22,-6 26,-1 3,6 -3,15 -14,21 -12,6 -22,6 -26,1 z"
       id="path368"
       inkscape:connector-curvature="0" />
    <path
       d="m 5405,1926 c -11,-8 -14,-16 -8,-19 6,-4 18,0 28,7 11,8 14,16 8,19 -6,4 -18,0 -28,-7 z"
       id="path370"
       inkscape:connector-curvature="0" />
    <path
       d="m 2165,1901 c -3,-6 3,-15 14,-21 12,-6 22,-6 26,-1 3,6 -3,15 -14,21 -12,6 -22,6 -26,1 z"
       id="path372"
       inkscape:connector-curvature="0" />
    <path
       d="m 5335,1886 c -11,-8 -14,-16 -8,-19 6,-4 18,0 28,7 11,8 14,16 8,19 -6,4 -18,0 -28,-7 z"
       id="path374"
       inkscape:connector-curvature="0" />
    <path
       d="m 2235,1861 c -3,-6 3,-15 14,-21 12,-6 22,-6 26,-1 3,6 -3,15 -14,21 -12,6 -22,6 -26,1 z"
       id="path376"
       inkscape:connector-curvature="0" />
    <path
       d="m 5285,1856 c -11,-8 -14,-16 -8,-19 6,-4 18,0 28,7 11,8 14,16 8,19 -6,4 -18,0 -28,-7 z"
       id="path378"
       inkscape:connector-curvature="0" />
    <path
       d="m 2285,1830 c -3,-5 8,-16 24,-25 18,-9 32,-11 36,-5 3,5 -8,16 -24,25 -18,9 -32,11 -36,5 z"
       id="path380"
       inkscape:connector-curvature="0" />
    <path
       d="m 5215,1816 c -11,-8 -14,-16 -8,-19 6,-4 18,0 28,7 11,8 14,16 8,19 -6,4 -18,0 -28,-7 z"
       id="path382"
       inkscape:connector-curvature="0" />
    <path
       d="m 2355,1790 c -3,-5 8,-16 24,-25 18,-9 32,-11 36,-5 3,5 -8,16 -24,25 -18,9 -32,11 -36,5 z"
       id="path384"
       inkscape:connector-curvature="0" />
    <path
       d="m 5165,1786 c -11,-8 -14,-16 -8,-19 6,-4 18,0 28,7 11,8 14,16 8,19 -6,4 -18,0 -28,-7 z"
       id="path386"
       inkscape:connector-curvature="0" />
    <path
       d="m 2425,1750 c -3,-5 8,-16 24,-25 18,-9 32,-11 36,-5 3,5 -8,16 -24,25 -18,9 -32,11 -36,5 z"
       id="path388"
       inkscape:connector-curvature="0" />
    <path
       d="m 5095,1746 c -11,-8 -14,-16 -8,-19 6,-4 18,0 28,7 11,8 14,16 8,19 -6,4 -18,0 -28,-7 z"
       id="path390"
       inkscape:connector-curvature="0" />
    <path
       d="m 2495,1711 c -3,-6 3,-15 14,-21 12,-6 22,-6 26,-1 3,6 -3,15 -14,21 -12,6 -22,6 -26,1 z"
       id="path392"
       inkscape:connector-curvature="0" />
    <path
       d="m 5025,1706 c -11,-8 -14,-16 -8,-19 6,-4 18,0 28,7 11,8 14,16 8,19 -6,4 -18,0 -28,-7 z"
       id="path394"
       inkscape:connector-curvature="0" />
    <path
       d="m 4975,1676 c -11,-8 -14,-16 -8,-19 6,-4 18,0 28,7 11,8 14,16 8,19 -6,4 -18,0 -28,-7 z"
       id="path396"
       inkscape:connector-curvature="0" />
    <path
       d="m 2565,1671 c -3,-6 3,-15 14,-21 12,-6 22,-6 26,-1 3,6 -3,15 -14,21 -12,6 -22,6 -26,1 z"
       id="path398"
       inkscape:connector-curvature="0" />
    <path
       d="m 4905,1636 c -11,-8 -14,-16 -8,-19 6,-4 18,0 28,7 11,8 14,16 8,19 -6,4 -18,0 -28,-7 z"
       id="path400"
       inkscape:connector-curvature="0" />
    <path
       d="m 2635,1631 c -3,-6 3,-15 14,-21 12,-6 22,-6 26,-1 3,6 -3,15 -14,21 -12,6 -22,6 -26,1 z"
       id="path402"
       inkscape:connector-curvature="0" />
    <path
       d="m 4855,1606 c -11,-8 -14,-16 -8,-19 6,-4 18,0 28,7 11,8 14,16 8,19 -6,4 -18,0 -28,-7 z"
       id="path404"
       inkscape:connector-curvature="0" />
    <path
       d="m 2705,1591 c -3,-6 3,-15 14,-21 12,-6 22,-6 26,-1 3,6 -3,15 -14,21 -12,6 -22,6 -26,1 z"
       id="path406"
       inkscape:connector-curvature="0" />
    <path
       d="m 4785,1566 c -11,-8 -14,-16 -8,-19 6,-4 18,0 28,7 11,8 14,16 8,19 -6,4 -18,0 -28,-7 z"
       id="path408"
       inkscape:connector-curvature="0" />
    <path
       d="m 2775,1551 c -3,-6 3,-15 14,-21 12,-6 22,-6 26,-1 3,6 -3,15 -14,21 -12,6 -22,6 -26,1 z"
       id="path410"
       inkscape:connector-curvature="0" />
    <path
       d="m 4735,1536 c -11,-8 -14,-16 -8,-19 6,-4 18,0 28,7 11,8 14,16 8,19 -6,4 -18,0 -28,-7 z"
       id="path412"
       inkscape:connector-curvature="0" />
    <path
       d="m 2845,1511 c -3,-6 3,-15 14,-21 12,-6 22,-6 26,-1 3,6 -3,15 -14,21 -12,6 -22,6 -26,1 z"
       id="path414"
       inkscape:connector-curvature="0" />
    <path
       d="m 4665,1496 c -11,-8 -14,-16 -8,-19 6,-4 18,0 28,7 11,8 14,16 8,19 -6,4 -18,0 -28,-7 z"
       id="path416"
       inkscape:connector-curvature="0" />
    <path
       d="m 2915,1471 c -3,-6 3,-15 14,-21 12,-6 22,-6 26,-1 3,6 -3,15 -14,21 -12,6 -22,6 -26,1 z"
       id="path418"
       inkscape:connector-curvature="0" />
    <path
       d="m 4595,1456 c -11,-8 -14,-16 -8,-19 6,-4 18,0 28,7 11,8 14,16 8,19 -6,4 -18,0 -28,-7 z"
       id="path420"
       inkscape:connector-curvature="0" />
    <path
       d="m 2985,1431 c -3,-6 3,-15 14,-21 12,-6 22,-6 26,-1 3,6 -3,15 -14,21 -12,6 -22,6 -26,1 z"
       id="path422"
       inkscape:connector-curvature="0" />
    <path
       d="m 4545,1426 c -11,-8 -14,-16 -8,-19 6,-4 18,0 28,7 11,8 14,16 8,19 -6,4 -18,0 -28,-7 z"
       id="path424"
       inkscape:connector-curvature="0" />
    <path
       d="m 3035,1400 c -3,-5 8,-16 24,-25 18,-9 32,-11 36,-5 3,5 -8,16 -24,25 -18,9 -32,11 -36,5 z"
       id="path426"
       inkscape:connector-curvature="0" />
    <path
       d="m 4475,1386 c -11,-8 -14,-16 -8,-19 6,-4 18,0 28,7 11,8 14,16 8,19 -6,4 -18,0 -28,-7 z"
       id="path428"
       inkscape:connector-curvature="0" />
    <path
       d="m 3105,1360 c -3,-5 8,-16 24,-25 18,-9 32,-11 36,-5 3,5 -8,16 -24,25 -18,9 -32,11 -36,5 z"
       id="path430"
       inkscape:connector-curvature="0" />
    <path
       d="m 4425,1356 c -11,-8 -14,-16 -8,-19 6,-4 18,0 28,7 11,8 14,16 8,19 -6,4 -18,0 -28,-7 z"
       id="path432"
       inkscape:connector-curvature="0" />
    <path
       d="m 3175,1320 c -3,-5 8,-16 24,-25 18,-9 32,-11 36,-5 3,5 -8,16 -24,25 -18,9 -32,11 -36,5 z"
       id="path434"
       inkscape:connector-curvature="0" />
    <path
       d="m 4355,1316 c -11,-8 -14,-16 -8,-19 6,-4 18,0 28,7 11,8 14,16 8,19 -6,4 -18,0 -28,-7 z"
       id="path436"
       inkscape:connector-curvature="0" />
    <path
       d="m 4305,1286 c -11,-8 -14,-16 -8,-19 6,-4 18,0 28,7 11,8 14,16 8,19 -6,4 -18,0 -28,-7 z"
       id="path438"
       inkscape:connector-curvature="0" />
    <path
       d="m 3245,1281 c -3,-6 3,-15 14,-21 12,-6 22,-6 26,-1 3,6 -3,15 -14,21 -12,6 -22,6 -26,1 z"
       id="path440"
       inkscape:connector-curvature="0" />
    <path
       d="m 4235,1246 c -11,-8 -14,-16 -8,-19 6,-4 18,0 28,7 11,8 14,16 8,19 -6,4 -18,0 -28,-7 z"
       id="path442"
       inkscape:connector-curvature="0" />
    <path
       d="m 3315,1241 c -3,-6 3,-15 14,-21 12,-6 22,-6 26,-1 3,6 -3,15 -14,21 -12,6 -22,6 -26,1 z"
       id="path444"
       inkscape:connector-curvature="0" />
    <path
       d="m 4165,1206 c -11,-8 -14,-16 -8,-19 6,-4 18,0 28,7 11,8 14,16 8,19 -6,4 -18,0 -28,-7 z"
       id="path446"
       inkscape:connector-curvature="0" />
    <path
       d="m 3385,1201 c -3,-6 3,-15 14,-21 12,-6 22,-6 26,-1 3,6 -3,15 -14,21 -12,6 -22,6 -26,1 z"
       id="path448"
       inkscape:connector-curvature="0" />
    <path
       d="m 4115,1176 c -11,-8 -14,-16 -8,-19 6,-4 18,0 28,7 11,8 14,16 8,19 -6,4 -18,0 -28,-7 z"
       id="path450"
       inkscape:connector-curvature="0" />
    <path
       d="m 3455,1161 c -3,-6 3,-15 14,-21 12,-6 22,-6 26,-1 3,6 -3,15 -14,21 -12,6 -22,6 -26,1 z"
       id="path452"
       inkscape:connector-curvature="0" />
    <path
       d="m 4045,1136 c -11,-8 -14,-16 -8,-19 6,-4 18,0 28,7 11,8 14,16 8,19 -6,4 -18,0 -28,-7 z"
       id="path454"
       inkscape:connector-curvature="0" />
    <path
       d="m 3525,1121 c -3,-6 3,-15 14,-21 12,-6 22,-6 26,-1 3,6 -3,15 -14,21 -12,6 -22,6 -26,1 z"
       id="path456"
       inkscape:connector-curvature="0" />
    <path
       d="m 3995,1106 c -11,-8 -14,-16 -8,-19 6,-4 18,0 28,7 11,8 14,16 8,19 -6,4 -18,0 -28,-7 z"
       id="path458"
       inkscape:connector-curvature="0" />
    <path
       d="m 3595,1081 c -3,-6 3,-15 14,-21 12,-6 22,-6 26,-1 3,6 -3,15 -14,21 -12,6 -22,6 -26,1 z"
       id="path460"
       inkscape:connector-curvature="0" />
    <path
       d="m 3925,1066 c -11,-8 -14,-16 -8,-19 6,-4 18,0 28,7 11,8 14,16 8,19 -6,4 -18,0 -28,-7 z"
       id="path462"
       inkscape:connector-curvature="0" />
    <path
       d="m 3665,1041 c -3,-6 3,-15 14,-21 12,-6 22,-6 26,-1 3,6 -3,15 -14,21 -12,6 -22,6 -26,1 z"
       id="path464"
       inkscape:connector-curvature="0" />
    <path
       d="m 3875,1036 c -11,-8 -14,-16 -8,-19 6,-4 18,0 28,7 11,8 14,16 8,19 -6,4 -18,0 -28,-7 z"
       id="path466"
       inkscape:connector-curvature="0" />
    <path
       d="m 3735,1000 c -3,-5 7,-16 22,-24 25,-12 32,-12 56,0 33,18 27,38 -7,23 -17,-8 -29,-8 -44,0 -13,7 -23,7 -27,1 z"
       id="path468"
       inkscape:connector-curvature="0" />
  </g>
  <g
     id="g470"
     style="fill:#cb248b;stroke:none"
     transform="translate(-60.670086,-967)">
    <path
       d="M 1910,8433 75,7365 72,6810 C 70,6505 72,5543 76,4673 L 82,3092 1928,2033 C 2943,1451 3776,974 3779,972 c 4,-1 830,477 1836,1062 l 1830,1063 0,2148 0,2148 -1830,1050 c -1006,577 -1839,1051 -1850,1053 -13,3 -678,-379 -1855,-1063 z m 2650,-757 c 74,-9 158,-20 185,-26 28,-5 100,-19 160,-31 217,-40 428,-128 540,-223 143,-123 179,-372 80,-571 -109,-222 -468,-465 -982,-666 -191,-74 -222,-95 -264,-177 -20,-40 -25,-65 -27,-161 -5,-145 7,-188 73,-266 189,-225 354,-543 407,-787 19,-88 22,-134 23,-308 0,-184 -2,-214 -23,-290 -51,-188 -136,-337 -259,-457 -86,-83 -177,-140 -300,-189 -124,-50 -196,-63 -368,-71 -170,-7 -260,6 -390,56 -255,99 -423,260 -527,508 -61,147 -73,218 -73,443 1,218 12,294 69,471 41,129 102,267 168,378 54,91 72,118 159,226 75,94 89,124 96,205 8,97 -11,179 -59,250 -50,76 -83,99 -208,150 -421,171 -753,373 -925,563 -105,115 -155,265 -141,422 8,93 59,198 128,264 101,96 306,183 538,226 74,14 171,32 215,41 195,36 363,43 975,39 466,-2 624,-6 730,-19 z M 2369,6066 c 211,-115 443,-226 533,-255 21,-7 40,-16 43,-21 2,-4 -33,-58 -79,-120 -105,-140 -192,-292 -256,-446 -52,-123 -120,-347 -142,-469 -17,-94 -17,-476 1,-573 32,-180 115,-390 210,-536 61,-92 230,-264 319,-325 35,-23 66,-49 69,-58 8,-20 -28,-162 -62,-248 -39,-97 -106,-195 -178,-260 -111,-101 -215,-146 -400,-171 -94,-13 -127,-14 -202,-4 -345,47 -561,245 -641,586 -26,109 -26,400 -1,527 46,229 134,424 275,609 66,88 86,140 85,228 0,99 -30,177 -83,223 -24,20 -91,54 -172,86 -398,159 -709,373 -796,551 -24,48 -27,69 -31,171 -4,144 13,211 67,271 82,91 267,179 462,218 210,42 530,75 769,79 l 94,1 116,-64 z m 3241,53 c 171,-11 467,-49 580,-75 173,-40 353,-124 421,-197 67,-72 74,-97 74,-262 0,-145 -1,-152 -28,-204 -37,-70 -159,-190 -276,-272 -118,-83 -326,-192 -506,-264 -77,-31 -155,-68 -173,-81 -53,-41 -85,-115 -90,-210 -5,-99 11,-157 66,-229 149,-199 239,-391 288,-615 27,-123 27,-453 0,-560 -24,-98 -93,-240 -151,-312 -82,-104 -228,-199 -360,-233 -96,-26 -304,-31 -405,-11 -260,51 -451,233 -534,506 -44,145 -39,172 37,223 90,60 247,211 324,312 93,123 189,346 220,518 26,143 23,475 -5,632 -30,163 -99,363 -181,525 -77,153 -126,232 -235,375 -42,55 -76,103 -76,106 0,4 21,14 48,24 156,58 531,237 610,290 43,29 88,31 352,14 z M 920,4722 c 19,-9 45,-32 57,-51 22,-32 23,-44 23,-197 0,-159 0,-163 24,-181 29,-24 301,-107 321,-99 13,5 15,26 13,128 l -3,123 -41,-3 c -107,-9 -199,81 -168,163 17,43 121,59 183,27 71,-36 72,-37 71,-336 0,-147 -2,-272 -5,-277 -12,-18 -65,-8 -224,41 -178,55 -195,62 -207,87 -5,10 -11,99 -14,198 l -5,180 -56,6 c -92,10 -149,58 -149,126 0,73 96,108 180,65 z m 5315,-113 c 15,-8 38,-27 49,-42 19,-26 21,-44 24,-202 2,-118 7,-177 15,-183 20,-16 300,-103 322,-100 19,3 20,10 20,127 l 0,124 -60,1 c -68,2 -113,24 -139,66 -19,33 -20,78 -2,102 31,41 114,49 176,18 71,-36 71,-34 68,-340 -3,-263 -4,-273 -23,-280 -18,-7 -283,66 -368,101 -46,19 -52,41 -57,234 l -5,180 -55,5 c -30,3 -70,14 -87,23 -50,27 -76,92 -57,142 16,42 115,55 179,24 z"
       id="path472"
       inkscape:connector-curvature="0" />
    <path
       d="m 3695,5466 c -45,-21 -101,-84 -132,-151 -25,-53 -28,-71 -27,-160 0,-77 5,-112 21,-151 93,-234 336,-236 424,-2 40,104 35,245 -12,334 -28,52 -87,113 -126,130 -41,18 -109,17 -148,0 z"
       id="path474"
       inkscape:connector-curvature="0" />
    <path
       d="m 2013,4111 c -101,-73 -117,-286 -29,-387 106,-121 265,-37 283,149 18,194 -127,330 -254,238 z"
       id="path476"
       inkscape:connector-curvature="0" />
    <path
       d="m 5490,4069 c -101,-41 -154,-190 -116,-322 55,-190 246,-197 316,-12 16,41 16,153 0,201 -33,102 -126,164 -200,133 z"
       id="path478"
       inkscape:connector-curvature="0" />
  </g>
</svg>
