<?xml version="1.0" encoding="UTF-8" standalone="no"?>
<svg
   xmlns:dc="http://purl.org/dc/elements/1.1/"
   xmlns:cc="http://creativecommons.org/ns#"
   xmlns:rdf="http://www.w3.org/1999/02/22-rdf-syntax-ns#"
   xmlns:svg="http://www.w3.org/2000/svg"
   xmlns="http://www.w3.org/2000/svg"
   xmlns:sodipodi="http://sodipodi.sourceforge.net/DTD/sodipodi-0.dtd"
   xmlns:inkscape="http://www.inkscape.org/namespaces/inkscape"
   version="1.0"
   width="741.78302"
   height="852.30005"
   viewBox="0 0 7417.8302 8523.0005"
   preserveAspectRatio="xMidYMid meet"
   id="svg2"
   inkscape:version="0.91 r13725"
   sodipodi:docname="event.svg">
  <metadata
     id="metadata490">
    <rdf:RDF>
      <cc:Work
         rdf:about="">
        <dc:format>image/svg+xml</dc:format>
        <dc:type
           rdf:resource="http://purl.org/dc/dcmitype/StillImage" />
        <dc:title></dc:title>
      </cc:Work>
    </rdf:RDF>
  </metadata>
  <defs
     id="defs488" />
  <sodipodi:namedview
     pagecolor="#ffffff"
     bordercolor="#666666"
     borderopacity="1"
     objecttolerance="10"
     gridtolerance="10"
     guidetolerance="10"
     inkscape:pageopacity="0"
     inkscape:pageshadow="2"
     inkscape:window-width="693"
     inkscape:window-height="480"
     id="namedview486"
     showgrid="false"
     fit-margin-top="0"
     fit-margin-left="0"
     fit-margin-right="0"
     fit-margin-bottom="0"
     inkscape:zoom="0.22412156"
     inkscape:cx="369.43299"
     inkscape:cy="426.40005"
     inkscape:window-x="0"
     inkscape:window-y="23"
     inkscape:window-maximized="0"
     inkscape:current-layer="svg2" />
  <g
     id="g4"
     style="fill:#fffedb;stroke:none"
     transform="translate(-30.670086,-1006)">
    <path
       d="m 3665,9506 c -11,-8 -14,-16 -8,-19 6,-4 18,0 28,7 11,8 14,16 8,19 -6,4 -18,0 -28,-7 z"
       id="path6"
       inkscape:connector-curvature="0" />
    <path
       d="m 3765,9511 c -3,-6 3,-15 14,-21 12,-6 22,-6 26,-1 3,6 -3,15 -14,21 -12,6 -22,6 -26,1 z"
       id="path8"
       inkscape:connector-curvature="0" />
    <path
       d="m 3615,9476 c -11,-8 -14,-16 -8,-19 6,-4 18,0 28,7 11,8 14,16 8,19 -6,4 -18,0 -28,-7 z"
       id="path10"
       inkscape:connector-curvature="0" />
    <path
       d="m 3835,9471 c -3,-6 3,-15 14,-21 12,-6 22,-6 26,-1 3,6 -3,15 -14,21 -12,6 -22,6 -26,1 z"
       id="path12"
       inkscape:connector-curvature="0" />
    <path
       d="m 3545,9436 c -11,-8 -14,-16 -8,-19 6,-4 18,0 28,7 11,8 14,16 8,19 -6,4 -18,0 -28,-7 z"
       id="path14"
       inkscape:connector-curvature="0" />
    <path
       d="m 3905,9431 c -3,-6 3,-15 14,-21 12,-6 22,-6 26,-1 3,6 -3,15 -14,21 -12,6 -22,6 -26,1 z"
       id="path16"
       inkscape:connector-curvature="0" />
    <path
       d="m 3487,9404 c -38,-20 -24,-38 14,-19 16,9 27,20 24,25 -7,12 -4,13 -38,-6 z"
       id="path18"
       inkscape:connector-curvature="0" />
    <path
       d="m 3975,9391 c -3,-6 3,-15 14,-21 12,-6 22,-6 26,-1 3,6 -3,15 -14,21 -12,6 -22,6 -26,1 z"
       id="path20"
       inkscape:connector-curvature="0" />
    <path
       d="m 3425,9366 c -11,-8 -14,-16 -8,-19 6,-4 18,0 28,7 11,8 14,16 8,19 -6,4 -18,0 -28,-7 z"
       id="path22"
       inkscape:connector-curvature="0" />
    <path
       d="m 4045,9351 c -3,-6 3,-15 14,-21 12,-6 22,-6 26,-1 3,6 -3,15 -14,21 -12,6 -22,6 -26,1 z"
       id="path24"
       inkscape:connector-curvature="0" />
    <path
       d="m 3355,9326 c -11,-8 -14,-16 -8,-19 6,-4 18,0 28,7 11,8 14,16 8,19 -6,4 -18,0 -28,-7 z"
       id="path26"
       inkscape:connector-curvature="0" />
    <path
       d="m 4115,9311 c -3,-6 3,-15 14,-21 12,-6 22,-6 26,-1 3,6 -3,15 -14,21 -12,6 -22,6 -26,1 z"
       id="path28"
       inkscape:connector-curvature="0" />
    <path
       d="m 3305,9296 c -11,-8 -14,-16 -8,-19 6,-4 18,0 28,7 11,8 14,16 8,19 -6,4 -18,0 -28,-7 z"
       id="path30"
       inkscape:connector-curvature="0" />
    <path
       d="m 4185,9271 c -3,-6 3,-15 14,-21 12,-6 22,-6 26,-1 3,6 -3,15 -14,21 -12,6 -22,6 -26,1 z"
       id="path32"
       inkscape:connector-curvature="0" />
    <path
       d="m 3235,9256 c -11,-8 -14,-16 -8,-19 6,-4 18,0 28,7 11,8 14,16 8,19 -6,4 -18,0 -28,-7 z"
       id="path34"
       inkscape:connector-curvature="0" />
    <path
       d="m 3185,9226 c -11,-8 -14,-16 -8,-19 6,-4 18,0 28,7 11,8 14,16 8,19 -6,4 -18,0 -28,-7 z"
       id="path36"
       inkscape:connector-curvature="0" />
    <path
       d="m 4255,9231 c -3,-6 3,-15 14,-21 12,-6 22,-6 26,-1 3,6 -3,15 -14,21 -12,6 -22,6 -26,1 z"
       id="path38"
       inkscape:connector-curvature="0" />
    <path
       d="m 3115,9186 c -11,-8 -14,-16 -8,-19 6,-4 18,0 28,7 11,8 14,16 8,19 -6,4 -18,0 -28,-7 z"
       id="path40"
       inkscape:connector-curvature="0" />
    <path
       d="m 4325,9191 c -3,-6 3,-15 14,-21 12,-6 22,-6 26,-1 3,6 -3,15 -14,21 -12,6 -22,6 -26,1 z"
       id="path42"
       inkscape:connector-curvature="0" />
    <path
       d="m 3057,9154 c -38,-20 -24,-38 14,-19 16,9 27,20 24,25 -7,12 -4,13 -38,-6 z"
       id="path44"
       inkscape:connector-curvature="0" />
    <path
       d="m 4395,9151 c -3,-6 3,-15 14,-21 12,-6 22,-6 26,-1 3,6 -3,15 -14,21 -12,6 -22,6 -26,1 z"
       id="path46"
       inkscape:connector-curvature="0" />
    <path
       d="m 2995,9116 c -11,-8 -14,-16 -8,-19 6,-4 18,0 28,7 11,8 14,16 8,19 -6,4 -18,0 -28,-7 z"
       id="path48"
       inkscape:connector-curvature="0" />
    <path
       d="m 4445,9120 c -3,-5 8,-16 24,-25 18,-9 32,-11 36,-5 3,5 -8,16 -24,25 -18,9 -32,11 -36,5 z"
       id="path50"
       inkscape:connector-curvature="0" />
    <path
       d="m 2925,9076 c -11,-8 -14,-16 -8,-19 6,-4 18,0 28,7 11,8 14,16 8,19 -6,4 -18,0 -28,-7 z"
       id="path52"
       inkscape:connector-curvature="0" />
    <path
       d="m 4515,9081 c -3,-6 3,-15 14,-21 12,-6 22,-6 26,-1 3,6 -3,15 -14,21 -12,6 -22,6 -26,1 z"
       id="path54"
       inkscape:connector-curvature="0" />
    <path
       d="m 2875,9046 c -11,-8 -14,-16 -8,-19 6,-4 18,0 28,7 11,8 14,16 8,19 -6,4 -18,0 -28,-7 z"
       id="path56"
       inkscape:connector-curvature="0" />
    <path
       d="m 4585,9041 c -3,-6 3,-15 14,-21 12,-6 22,-6 26,-1 3,6 -3,15 -14,21 -12,6 -22,6 -26,1 z"
       id="path58"
       inkscape:connector-curvature="0" />
    <path
       d="m 2805,9006 c -11,-8 -14,-16 -8,-19 6,-4 18,0 28,7 11,8 14,16 8,19 -6,4 -18,0 -28,-7 z"
       id="path60"
       inkscape:connector-curvature="0" />
    <path
       d="m 4655,9001 c -3,-6 3,-15 14,-21 12,-6 22,-6 26,-1 3,6 -3,15 -14,21 -12,6 -22,6 -26,1 z"
       id="path62"
       inkscape:connector-curvature="0" />
    <path
       d="m 2755,8976 c -11,-8 -14,-16 -8,-19 6,-4 18,0 28,7 11,8 14,16 8,19 -6,4 -18,0 -28,-7 z"
       id="path64"
       inkscape:connector-curvature="0" />
    <path
       d="m 4725,8961 c -3,-6 3,-15 14,-21 12,-6 22,-6 26,-1 3,6 -3,15 -14,21 -12,6 -22,6 -26,1 z"
       id="path66"
       inkscape:connector-curvature="0" />
    <path
       d="m 2685,8936 c -11,-8 -14,-16 -8,-19 6,-4 18,0 28,7 11,8 14,16 8,19 -6,4 -18,0 -28,-7 z"
       id="path68"
       inkscape:connector-curvature="0" />
    <path
       d="m 4795,8921 c -3,-6 3,-15 14,-21 12,-6 22,-6 26,-1 3,6 -3,15 -14,21 -12,6 -22,6 -26,1 z"
       id="path70"
       inkscape:connector-curvature="0" />
    <path
       d="m 2627,8904 c -38,-20 -24,-38 14,-19 16,9 27,20 24,25 -7,12 -4,13 -38,-6 z"
       id="path72"
       inkscape:connector-curvature="0" />
    <path
       d="m 4865,8881 c -3,-6 3,-15 14,-21 12,-6 22,-6 26,-1 3,6 -3,15 -14,21 -12,6 -22,6 -26,1 z"
       id="path74"
       inkscape:connector-curvature="0" />
    <path
       d="m 2565,8866 c -11,-8 -14,-16 -8,-19 6,-4 18,0 28,7 11,8 14,16 8,19 -6,4 -18,0 -28,-7 z"
       id="path76"
       inkscape:connector-curvature="0" />
    <path
       d="m 4935,8841 c -3,-6 3,-15 14,-21 12,-6 22,-6 26,-1 3,6 -3,15 -14,21 -12,6 -22,6 -26,1 z"
       id="path78"
       inkscape:connector-curvature="0" />
    <path
       d="m 2495,8826 c -11,-8 -14,-16 -8,-19 6,-4 18,0 28,7 11,8 14,16 8,19 -6,4 -18,0 -28,-7 z"
       id="path80"
       inkscape:connector-curvature="0" />
    <path
       d="m 2445,8796 c -11,-8 -14,-16 -8,-19 6,-4 18,0 28,7 11,8 14,16 8,19 -6,4 -18,0 -28,-7 z"
       id="path82"
       inkscape:connector-curvature="0" />
    <path
       d="m 5005,8801 c -3,-6 3,-15 14,-21 12,-6 22,-6 26,-1 3,6 -3,15 -14,21 -12,6 -22,6 -26,1 z"
       id="path84"
       inkscape:connector-curvature="0" />
    <path
       d="m 2375,8756 c -11,-8 -14,-16 -8,-19 6,-4 18,0 28,7 11,8 14,16 8,19 -6,4 -18,0 -28,-7 z"
       id="path86"
       inkscape:connector-curvature="0" />
    <path
       d="m 5075,8761 c -3,-6 3,-15 14,-21 12,-6 22,-6 26,-1 3,6 -3,15 -14,21 -12,6 -22,6 -26,1 z"
       id="path88"
       inkscape:connector-curvature="0" />
    <path
       d="m 2325,8726 c -11,-8 -14,-16 -8,-19 6,-4 18,0 28,7 11,8 14,16 8,19 -6,4 -18,0 -28,-7 z"
       id="path90"
       inkscape:connector-curvature="0" />
    <path
       d="m 5145,8721 c -3,-6 3,-15 14,-21 12,-6 22,-6 26,-1 3,6 -3,15 -14,21 -12,6 -22,6 -26,1 z"
       id="path92"
       inkscape:connector-curvature="0" />
    <path
       d="m 2255,8686 c -11,-8 -14,-16 -8,-19 6,-4 18,0 28,7 11,8 14,16 8,19 -6,4 -18,0 -28,-7 z"
       id="path94"
       inkscape:connector-curvature="0" />
    <path
       d="m 5195,8690 c -3,-5 8,-16 24,-25 18,-9 32,-11 36,-5 3,5 -8,16 -24,25 -18,9 -32,11 -36,5 z"
       id="path96"
       inkscape:connector-curvature="0" />
    <path
       d="m 2197,8654 c -38,-20 -24,-38 14,-19 16,9 27,20 24,25 -7,12 -4,13 -38,-6 z"
       id="path98"
       inkscape:connector-curvature="0" />
    <path
       d="m 5265,8651 c -3,-6 3,-15 14,-21 12,-6 22,-6 26,-1 3,6 -3,15 -14,21 -12,6 -22,6 -26,1 z"
       id="path100"
       inkscape:connector-curvature="0" />
    <path
       d="m 2135,8616 c -11,-8 -14,-16 -8,-19 6,-4 18,0 28,7 11,8 14,16 8,19 -6,4 -18,0 -28,-7 z"
       id="path102"
       inkscape:connector-curvature="0" />
    <path
       d="m 5335,8611 c -3,-6 3,-15 14,-21 12,-6 22,-6 26,-1 3,6 -3,15 -14,21 -12,6 -22,6 -26,1 z"
       id="path104"
       inkscape:connector-curvature="0" />
    <path
       d="m 2065,8576 c -11,-8 -14,-16 -8,-19 6,-4 18,0 28,7 11,8 14,16 8,19 -6,4 -18,0 -28,-7 z"
       id="path106"
       inkscape:connector-curvature="0" />
    <path
       d="m 5405,8571 c -3,-6 3,-15 14,-21 12,-6 22,-6 26,-1 3,6 -3,15 -14,21 -12,6 -22,6 -26,1 z"
       id="path108"
       inkscape:connector-curvature="0" />
    <path
       d="m 2015,8546 c -11,-8 -14,-16 -8,-19 6,-4 18,0 28,7 11,8 14,16 8,19 -6,4 -18,0 -28,-7 z"
       id="path110"
       inkscape:connector-curvature="0" />
    <path
       d="m 5475,8531 c -3,-6 3,-15 14,-21 12,-6 22,-6 26,-1 3,6 -3,15 -14,21 -12,6 -22,6 -26,1 z"
       id="path112"
       inkscape:connector-curvature="0" />
    <path
       d="m 1945,8506 c -11,-8 -14,-16 -8,-19 6,-4 18,0 28,7 11,8 14,16 8,19 -6,4 -18,0 -28,-7 z"
       id="path114"
       inkscape:connector-curvature="0" />
    <path
       d="m 5545,8491 c -3,-6 3,-15 14,-21 12,-6 22,-6 26,-1 3,6 -3,15 -14,21 -12,6 -22,6 -26,1 z"
       id="path116"
       inkscape:connector-curvature="0" />
    <path
       d="m 1895,8476 c -11,-8 -14,-16 -8,-19 6,-4 18,0 28,7 11,8 14,16 8,19 -6,4 -18,0 -28,-7 z"
       id="path118"
       inkscape:connector-curvature="0" />
    <path
       d="m 5615,8451 c -3,-6 3,-15 14,-21 12,-6 22,-6 26,-1 3,6 -3,15 -14,21 -12,6 -22,6 -26,1 z"
       id="path120"
       inkscape:connector-curvature="0" />
    <path
       d="m 1825,8436 c -11,-8 -14,-16 -8,-19 6,-4 18,0 28,7 11,8 14,16 8,19 -6,4 -18,0 -28,-7 z"
       id="path122"
       inkscape:connector-curvature="0" />
    <path
       d="m 1767,8404 c -38,-20 -24,-38 14,-19 16,9 27,20 24,25 -7,12 -4,13 -38,-6 z"
       id="path124"
       inkscape:connector-curvature="0" />
    <path
       d="m 5685,8411 c -3,-6 3,-15 14,-21 12,-6 22,-6 26,-1 3,6 -3,15 -14,21 -12,6 -22,6 -26,1 z"
       id="path126"
       inkscape:connector-curvature="0" />
    <path
       d="m 1705,8366 c -11,-8 -14,-16 -8,-19 6,-4 18,0 28,7 11,8 14,16 8,19 -6,4 -18,0 -28,-7 z"
       id="path128"
       inkscape:connector-curvature="0" />
    <path
       d="m 5755,8371 c -3,-6 3,-15 14,-21 12,-6 22,-6 26,-1 3,6 -3,15 -14,21 -12,6 -22,6 -26,1 z"
       id="path130"
       inkscape:connector-curvature="0" />
    <path
       d="m 1635,8326 c -11,-8 -14,-16 -8,-19 6,-4 18,0 28,7 11,8 14,16 8,19 -6,4 -18,0 -28,-7 z"
       id="path132"
       inkscape:connector-curvature="0" />
    <path
       d="m 5825,8331 c -3,-6 3,-15 14,-21 12,-6 22,-6 26,-1 3,6 -3,15 -14,21 -12,6 -22,6 -26,1 z"
       id="path134"
       inkscape:connector-curvature="0" />
    <path
       d="m 1585,8296 c -11,-8 -14,-16 -8,-19 6,-4 18,0 28,7 11,8 14,16 8,19 -6,4 -18,0 -28,-7 z"
       id="path136"
       inkscape:connector-curvature="0" />
    <path
       d="m 5895,8291 c -3,-6 3,-15 14,-21 12,-6 22,-6 26,-1 3,6 -3,15 -14,21 -12,6 -22,6 -26,1 z"
       id="path138"
       inkscape:connector-curvature="0" />
    <path
       d="m 1515,8256 c -11,-8 -14,-16 -8,-19 6,-4 18,0 28,7 11,8 14,16 8,19 -6,4 -18,0 -28,-7 z"
       id="path140"
       inkscape:connector-curvature="0" />
    <path
       d="m 5945,8260 c -3,-5 8,-16 24,-25 18,-9 32,-11 36,-5 3,5 -8,16 -24,25 -18,9 -32,11 -36,5 z"
       id="path142"
       inkscape:connector-curvature="0" />
    <path
       d="m 1465,8226 c -11,-8 -14,-16 -8,-19 6,-4 18,0 28,7 11,8 14,16 8,19 -6,4 -18,0 -28,-7 z"
       id="path144"
       inkscape:connector-curvature="0" />
    <path
       d="m 6015,8221 c -3,-6 3,-15 14,-21 12,-6 22,-6 26,-1 3,6 -3,15 -14,21 -12,6 -22,6 -26,1 z"
       id="path146"
       inkscape:connector-curvature="0" />
    <path
       d="m 1395,8186 c -11,-8 -14,-16 -8,-19 6,-4 18,0 28,7 11,8 14,16 8,19 -6,4 -18,0 -28,-7 z"
       id="path148"
       inkscape:connector-curvature="0" />
    <path
       d="m 6085,8181 c -3,-6 3,-15 14,-21 12,-6 22,-6 26,-1 3,6 -3,15 -14,21 -12,6 -22,6 -26,1 z"
       id="path150"
       inkscape:connector-curvature="0" />
    <path
       d="m 1337,8154 c -38,-20 -24,-38 14,-19 16,9 27,20 24,25 -7,12 -4,13 -38,-6 z"
       id="path152"
       inkscape:connector-curvature="0" />
    <path
       d="m 6155,8141 c -3,-6 3,-15 14,-21 12,-6 22,-6 26,-1 3,6 -3,15 -14,21 -12,6 -22,6 -26,1 z"
       id="path154"
       inkscape:connector-curvature="0" />
    <path
       d="m 1275,8116 c -11,-8 -14,-16 -8,-19 6,-4 18,0 28,7 11,8 14,16 8,19 -6,4 -18,0 -28,-7 z"
       id="path156"
       inkscape:connector-curvature="0" />
    <path
       d="m 6225,8101 c -3,-6 3,-15 14,-21 12,-6 22,-6 26,-1 3,6 -3,15 -14,21 -12,6 -22,6 -26,1 z"
       id="path158"
       inkscape:connector-curvature="0" />
    <path
       d="m 1205,8076 c -11,-8 -14,-16 -8,-19 6,-4 18,0 28,7 11,8 14,16 8,19 -6,4 -18,0 -28,-7 z"
       id="path160"
       inkscape:connector-curvature="0" />
    <path
       d="m 6295,8061 c -3,-6 3,-15 14,-21 12,-6 22,-6 26,-1 3,6 -3,15 -14,21 -12,6 -22,6 -26,1 z"
       id="path162"
       inkscape:connector-curvature="0" />
    <path
       d="m 1155,8046 c -11,-8 -14,-16 -8,-19 6,-4 18,0 28,7 11,8 14,16 8,19 -6,4 -18,0 -28,-7 z"
       id="path164"
       inkscape:connector-curvature="0" />
    <path
       d="m 6365,8021 c -3,-6 3,-15 14,-21 12,-6 22,-6 26,-1 3,6 -3,15 -14,21 -12,6 -22,6 -26,1 z"
       id="path166"
       inkscape:connector-curvature="0" />
    <path
       d="m 1085,8006 c -11,-8 -14,-16 -8,-19 6,-4 18,0 28,7 11,8 14,16 8,19 -6,4 -18,0 -28,-7 z"
       id="path168"
       inkscape:connector-curvature="0" />
    <path
       d="m 1035,7976 c -11,-8 -14,-16 -8,-19 6,-4 18,0 28,7 11,8 14,16 8,19 -6,4 -18,0 -28,-7 z"
       id="path170"
       inkscape:connector-curvature="0" />
    <path
       d="m 6435,7981 c -3,-6 3,-15 14,-21 12,-6 22,-6 26,-1 3,6 -3,15 -14,21 -12,6 -22,6 -26,1 z"
       id="path172"
       inkscape:connector-curvature="0" />
    <path
       d="m 965,7936 c -11,-8 -14,-16 -8,-19 6,-4 18,0 28,7 11,8 14,16 8,19 -6,4 -18,0 -28,-7 z"
       id="path174"
       inkscape:connector-curvature="0" />
    <path
       d="m 6505,7941 c -3,-6 3,-15 14,-21 12,-6 22,-6 26,-1 3,6 -3,15 -14,21 -12,6 -22,6 -26,1 z"
       id="path176"
       inkscape:connector-curvature="0" />
    <path
       d="m 907,7904 c -38,-20 -24,-38 14,-19 16,9 27,20 24,25 -7,12 -4,13 -38,-6 z"
       id="path178"
       inkscape:connector-curvature="0" />
    <path
       d="m 6575,7901 c -3,-6 3,-15 14,-21 12,-6 22,-6 26,-1 3,6 -3,15 -14,21 -12,6 -22,6 -26,1 z"
       id="path180"
       inkscape:connector-curvature="0" />
    <path
       d="m 845,7866 c -11,-8 -14,-16 -8,-19 6,-4 18,0 28,7 11,8 14,16 8,19 -6,4 -18,0 -28,-7 z"
       id="path182"
       inkscape:connector-curvature="0" />
    <path
       d="m 6645,7861 c -3,-6 3,-15 14,-21 12,-6 22,-6 26,-1 3,6 -3,15 -14,21 -12,6 -22,6 -26,1 z"
       id="path184"
       inkscape:connector-curvature="0" />
    <path
       d="m 775,7826 c -11,-8 -14,-16 -8,-19 6,-4 18,0 28,7 11,8 14,16 8,19 -6,4 -18,0 -28,-7 z"
       id="path186"
       inkscape:connector-curvature="0" />
    <path
       d="m 6695,7830 c -3,-5 8,-16 24,-25 18,-9 32,-11 36,-5 3,5 -8,16 -24,25 -18,9 -32,11 -36,5 z"
       id="path188"
       inkscape:connector-curvature="0" />
    <path
       d="m 725,7796 c -11,-8 -14,-16 -8,-19 6,-4 18,0 28,7 11,8 14,16 8,19 -6,4 -18,0 -28,-7 z"
       id="path190"
       inkscape:connector-curvature="0" />
    <path
       d="m 6765,7791 c -3,-6 3,-15 14,-21 12,-6 22,-6 26,-1 3,6 -3,15 -14,21 -12,6 -22,6 -26,1 z"
       id="path192"
       inkscape:connector-curvature="0" />
    <path
       d="m 655,7756 c -11,-8 -14,-16 -8,-19 6,-4 18,0 28,7 11,8 14,16 8,19 -6,4 -18,0 -28,-7 z"
       id="path194"
       inkscape:connector-curvature="0" />
    <path
       d="m 1605,7756 c -127,-31 -274,-137 -351,-253 -21,-31 -50,-90 -66,-130 l -28,-73 2,-1902 3,-1903 23,-55 c 55,-130 154,-245 267,-311 123,-73 239,-92 520,-87 l 170,3 6,235 c 8,297 20,341 120,436 84,78 134,98 257,102 99,4 106,3 168,-28 79,-39 140,-98 184,-181 l 34,-64 4,-240 c 3,-206 6,-242 20,-253 23,-18 1531,-18 1554,1 14,10 17,46 20,252 l 4,240 34,64 c 44,83 105,142 184,181 62,31 69,32 168,28 86,-2 111,-7 152,-28 99,-50 178,-140 206,-235 7,-23 15,-139 19,-275 l 6,-235 237,2 c 268,2 315,10 432,70 109,57 201,155 262,278 l 49,98 3,1904 2,1904 -26,67 c -78,196 -250,353 -432,391 -80,17 -4138,14 -4207,-3 z m 4163,-416 c 27,-15 54,-42 70,-70 l 27,-45 3,-1391 3,-1391 -1413,-5 c -777,-3 -1747,-3 -2155,0 l -743,5 0,1336 c 1,735 5,1368 9,1407 9,79 31,118 84,150 26,15 58,20 162,25 72,3 981,5 2020,5 l 1890,-1 43,-25 z"
       id="path196"
       inkscape:connector-curvature="0" />
    <path
       d="m 1966,6949 -26,-31 0,-1020 0,-1020 28,-27 27,-28 310,-6 c 418,-9 2636,-8 2905,2 217,8 250,14 266,48 5,10 10,475 12,1034 l 3,1016 -26,32 -27,31 -1723,0 -1723,0 -26,-31 z m 758,-206 c 3,-21 6,-66 6,-100 0,-60 -1,-63 -31,-78 -47,-25 -108,-85 -130,-127 l -20,-38 -197,2 -197,3 -3,188 -2,187 283,0 284,0 7,-37 z m 986,-53 0,-90 -391,0 -391,0 6,31 c 3,17 6,58 6,90 l 0,59 385,0 385,0 0,-90 z m 780,-100 0,-190 -195,0 -195,0 -23,38 c -29,45 -106,117 -136,127 -20,6 -21,13 -21,111 l 0,104 285,0 285,0 0,-190 z m 790,0 0,-190 -274,0 c -151,0 -281,3 -290,6 -14,5 -16,29 -16,159 0,84 3,167 6,184 l 7,31 283,0 284,0 0,-190 z m -2750,-695 0,-285 -159,0 c -87,0 -173,3 -190,6 l -31,7 0,278 0,279 190,0 190,0 0,-285 z m 1180,5 0,-280 -390,0 -390,0 0,280 0,280 390,0 390,0 0,-280 z m 780,1 0,-279 -126,-7 c -123,-7 -230,-3 -243,10 -3,4 -7,130 -9,281 l -3,274 190,0 191,0 0,-279 z m 790,0 0,-279 -187,-7 c -222,-9 -372,-2 -384,17 -5,7 -9,133 -9,281 l 0,267 290,0 290,0 0,-279 z M 2550,5391 c 0,-16 109,-129 146,-151 33,-21 34,-24 34,-85 0,-34 -3,-76 -6,-92 l -6,-30 -212,-7 c -117,-3 -245,-3 -284,0 l -72,7 0,183 0,184 200,0 c 119,0 200,-4 200,-9 z m 1940,-181 0,-190 -285,0 -285,0 0,103 0,102 35,19 c 40,22 110,94 127,131 l 11,25 199,0 198,0 0,-190 z m 790,6 0,-183 -237,-6 c -131,-3 -260,-3 -288,1 l -50,7 -3,150 c -2,83 0,165 3,183 l 6,32 284,0 285,0 0,-184 z m -1570,-106 0,-90 -390,0 -390,0 0,90 0,90 390,0 390,0 0,-90 z"
       id="path198"
       inkscape:connector-curvature="0" />
    <path
       d="m 6835,7751 c -3,-6 3,-15 14,-21 12,-6 22,-6 26,-1 3,6 -3,15 -14,21 -12,6 -22,6 -26,1 z"
       id="path200"
       inkscape:connector-curvature="0" />
    <path
       d="m 605,7726 c -11,-8 -14,-16 -8,-19 6,-4 18,0 28,7 11,8 14,16 8,19 -6,4 -18,0 -28,-7 z"
       id="path202"
       inkscape:connector-curvature="0" />
    <path
       d="m 6905,7711 c -3,-6 3,-15 14,-21 12,-6 22,-6 26,-1 3,6 -3,15 -14,21 -12,6 -22,6 -26,1 z"
       id="path204"
       inkscape:connector-curvature="0" />
    <path
       d="m 535,7686 c -11,-8 -14,-16 -8,-19 6,-4 18,0 28,7 11,8 14,16 8,19 -6,4 -18,0 -28,-7 z"
       id="path206"
       inkscape:connector-curvature="0" />
    <path
       d="m 6975,7671 c -3,-6 3,-15 14,-21 12,-6 22,-6 26,-1 3,6 -3,15 -14,21 -12,6 -22,6 -26,1 z"
       id="path208"
       inkscape:connector-curvature="0" />
    <path
       d="m 477,7654 c -38,-20 -24,-38 14,-19 16,9 27,20 24,25 -7,12 -4,13 -38,-6 z"
       id="path210"
       inkscape:connector-curvature="0" />
    <path
       d="m 7045,7631 c -3,-6 3,-15 14,-21 12,-6 22,-6 26,-1 3,6 -3,15 -14,21 -12,6 -22,6 -26,1 z"
       id="path212"
       inkscape:connector-curvature="0" />
    <path
       d="m 415,7616 c -11,-8 -14,-16 -8,-19 6,-4 18,0 28,7 11,8 14,16 8,19 -6,4 -18,0 -28,-7 z"
       id="path214"
       inkscape:connector-curvature="0" />
    <path
       d="m 7115,7591 c -3,-6 3,-15 14,-21 12,-6 22,-6 26,-1 3,6 -3,15 -14,21 -12,6 -22,6 -26,1 z"
       id="path216"
       inkscape:connector-curvature="0" />
    <path
       d="m 345,7576 c -11,-8 -14,-16 -8,-19 6,-4 18,0 28,7 11,8 14,16 8,19 -6,4 -18,0 -28,-7 z"
       id="path218"
       inkscape:connector-curvature="0" />
    <path
       d="m 295,7546 c -11,-8 -14,-16 -8,-19 6,-4 18,0 28,7 11,8 14,16 8,19 -6,4 -18,0 -28,-7 z"
       id="path220"
       inkscape:connector-curvature="0" />
    <path
       d="m 7185,7551 c -3,-6 3,-15 14,-21 12,-6 22,-6 26,-1 3,6 -3,15 -14,21 -12,6 -22,6 -26,1 z"
       id="path222"
       inkscape:connector-curvature="0" />
    <path
       d="m 225,7506 c -11,-8 -14,-16 -8,-19 6,-4 18,0 28,7 11,8 14,16 8,19 -6,4 -18,0 -28,-7 z"
       id="path224"
       inkscape:connector-curvature="0" />
    <path
       d="m 7255,7511 c -3,-6 3,-15 14,-21 12,-6 22,-6 26,-1 3,6 -3,15 -14,21 -12,6 -22,6 -26,1 z"
       id="path226"
       inkscape:connector-curvature="0" />
    <path
       d="m 175,7476 c -11,-8 -14,-16 -8,-19 6,-4 18,0 28,7 11,8 14,16 8,19 -6,4 -18,0 -28,-7 z"
       id="path228"
       inkscape:connector-curvature="0" />
    <path
       d="m 7325,7471 c -3,-6 3,-15 14,-21 12,-6 22,-6 26,-1 3,6 -3,15 -14,21 -12,6 -22,6 -26,1 z"
       id="path230"
       inkscape:connector-curvature="0" />
    <path
       d="m 105,7436 c -11,-8 -14,-16 -8,-19 6,-4 18,0 28,7 11,8 14,16 8,19 -6,4 -18,0 -28,-7 z"
       id="path232"
       inkscape:connector-curvature="0" />
    <path
       d="m 7395,7430 c -3,-5 4,-14 15,-20 16,-8 20,-8 20,4 0,16 -27,29 -35,16 z"
       id="path234"
       inkscape:connector-curvature="0" />
    <path
       d="m 35,6919 c -10,-27 -1,-944 10,-942 14,4 19,933 5,947 -6,6 -11,4 -15,-5 z"
       id="path236"
       inkscape:connector-curvature="0" />
    <path
       d="m 7427,6433 c -12,-11 -8,-941 3,-948 7,-4 10,157 10,474 0,265 -1,481 -3,481 -2,0 -7,-3 -10,-7 z"
       id="path238"
       inkscape:connector-curvature="0" />
    <path
       d="m 2460,3632 c -39,-18 -90,-66 -106,-100 -16,-33 -18,-77 -22,-373 -4,-326 -4,-336 17,-377 42,-83 114,-132 191,-132 70,1 170,84 190,160 8,28 10,150 8,370 l -3,328 -30,43 c -49,69 -76,83 -158,86 -40,1 -79,-1 -87,-5 z"
       id="path240"
       inkscape:connector-curvature="0" />
    <path
       d="m 4789,3617 c -18,-12 -47,-42 -64,-65 l -30,-44 -3,-331 c -2,-226 0,-344 8,-370 21,-71 121,-156 185,-157 71,0 146,49 192,127 l 25,44 -4,337 c -4,387 -5,389 -92,449 -43,29 -56,33 -116,33 -53,0 -74,-5 -101,-23 z"
       id="path242"
       inkscape:connector-curvature="0" />
    <path
       d="m 45,3619 c -10,-26 -1,-504 10,-502 14,4 19,493 6,506 -7,7 -12,5 -16,-4 z"
       id="path244"
       inkscape:connector-curvature="0" />
    <path
       d="m 7444,3460 c 0,-58 1,-81 3,-52 2,28 2,76 0,105 -2,28 -3,5 -3,-53 z"
       id="path246"
       inkscape:connector-curvature="0" />
    <path
       d="m 75,3111 c -3,-6 3,-15 14,-21 12,-6 22,-6 26,-1 3,6 -3,15 -14,21 -12,6 -22,6 -26,1 z"
       id="path248"
       inkscape:connector-curvature="0" />
    <path
       d="m 7305,3076 c -11,-8 -14,-16 -8,-19 6,-4 18,0 28,7 11,8 14,16 8,19 -6,4 -18,0 -28,-7 z"
       id="path250"
       inkscape:connector-curvature="0" />
    <path
       d="m 145,3071 c -3,-6 3,-15 14,-21 12,-6 22,-6 26,-1 3,6 -3,15 -14,21 -12,6 -22,6 -26,1 z"
       id="path252"
       inkscape:connector-curvature="0" />
    <path
       d="m 7235,3036 c -11,-8 -14,-16 -8,-19 6,-4 18,0 28,7 11,8 14,16 8,19 -6,4 -18,0 -28,-7 z"
       id="path254"
       inkscape:connector-curvature="0" />
    <path
       d="m 215,3031 c -3,-6 3,-15 14,-21 12,-6 22,-6 26,-1 3,6 -3,15 -14,21 -12,6 -22,6 -26,1 z"
       id="path256"
       inkscape:connector-curvature="0" />
    <path
       d="m 7185,3006 c -11,-8 -14,-16 -8,-19 6,-4 18,0 28,7 11,8 14,16 8,19 -6,4 -18,0 -28,-7 z"
       id="path258"
       inkscape:connector-curvature="0" />
    <path
       d="m 285,2991 c -3,-6 3,-15 14,-21 12,-6 22,-6 26,-1 3,6 -3,15 -14,21 -12,6 -22,6 -26,1 z"
       id="path260"
       inkscape:connector-curvature="0" />
    <path
       d="m 7115,2966 c -11,-8 -14,-16 -8,-19 6,-4 18,0 28,7 11,8 14,16 8,19 -6,4 -18,0 -28,-7 z"
       id="path262"
       inkscape:connector-curvature="0" />
    <path
       d="m 355,2951 c -3,-6 3,-15 14,-21 12,-6 22,-6 26,-1 3,6 -3,15 -14,21 -12,6 -22,6 -26,1 z"
       id="path264"
       inkscape:connector-curvature="0" />
    <path
       d="m 7065,2936 c -11,-8 -14,-16 -8,-19 6,-4 18,0 28,7 11,8 14,16 8,19 -6,4 -18,0 -28,-7 z"
       id="path266"
       inkscape:connector-curvature="0" />
    <path
       d="m 405,2920 c -3,-5 8,-16 24,-25 18,-9 32,-11 36,-5 3,5 -8,16 -24,25 -18,9 -32,11 -36,5 z"
       id="path268"
       inkscape:connector-curvature="0" />
    <path
       d="m 6995,2896 c -11,-8 -14,-16 -8,-19 6,-4 18,0 28,7 11,8 14,16 8,19 -6,4 -18,0 -28,-7 z"
       id="path270"
       inkscape:connector-curvature="0" />
    <path
       d="m 475,2880 c -3,-5 8,-16 24,-25 18,-9 32,-11 36,-5 3,5 -8,16 -24,25 -18,9 -32,11 -36,5 z"
       id="path272"
       inkscape:connector-curvature="0" />
    <path
       d="m 545,2840 c -3,-5 8,-16 24,-25 18,-9 32,-11 36,-5 3,5 -8,16 -24,25 -18,9 -32,11 -36,5 z"
       id="path274"
       inkscape:connector-curvature="0" />
    <path
       d="m 6875,2826 c -11,-8 -14,-16 -8,-19 6,-4 18,0 28,7 11,8 14,16 8,19 -6,4 -18,0 -28,-7 z"
       id="path276"
       inkscape:connector-curvature="0" />
    <path
       d="m 615,2801 c -3,-6 3,-15 14,-21 12,-6 22,-6 26,-1 3,6 -3,15 -14,21 -12,6 -22,6 -26,1 z"
       id="path278"
       inkscape:connector-curvature="0" />
    <path
       d="m 6805,2786 c -11,-8 -14,-16 -8,-19 6,-4 18,0 28,7 11,8 14,16 8,19 -6,4 -18,0 -28,-7 z"
       id="path280"
       inkscape:connector-curvature="0" />
    <path
       d="m 685,2761 c -3,-6 3,-15 14,-21 12,-6 22,-6 26,-1 3,6 -3,15 -14,21 -12,6 -22,6 -26,1 z"
       id="path282"
       inkscape:connector-curvature="0" />
    <path
       d="m 6755,2756 c -11,-8 -14,-16 -8,-19 6,-4 18,0 28,7 11,8 14,16 8,19 -6,4 -18,0 -28,-7 z"
       id="path284"
       inkscape:connector-curvature="0" />
    <path
       d="m 755,2721 c -3,-6 3,-15 14,-21 12,-6 22,-6 26,-1 3,6 -3,15 -14,21 -12,6 -22,6 -26,1 z"
       id="path286"
       inkscape:connector-curvature="0" />
    <path
       d="m 6685,2716 c -11,-8 -14,-16 -8,-19 6,-4 18,0 28,7 11,8 14,16 8,19 -6,4 -18,0 -28,-7 z"
       id="path288"
       inkscape:connector-curvature="0" />
    <path
       d="m 6635,2686 c -11,-8 -14,-16 -8,-19 6,-4 18,0 28,7 11,8 14,16 8,19 -6,4 -18,0 -28,-7 z"
       id="path290"
       inkscape:connector-curvature="0" />
    <path
       d="m 825,2681 c -3,-6 3,-15 14,-21 12,-6 22,-6 26,-1 3,6 -3,15 -14,21 -12,6 -22,6 -26,1 z"
       id="path292"
       inkscape:connector-curvature="0" />
    <path
       d="m 6565,2646 c -11,-8 -14,-16 -8,-19 6,-4 18,0 28,7 11,8 14,16 8,19 -6,4 -18,0 -28,-7 z"
       id="path294"
       inkscape:connector-curvature="0" />
    <path
       d="m 895,2641 c -3,-6 3,-15 14,-21 12,-6 22,-6 26,-1 3,6 -3,15 -14,21 -12,6 -22,6 -26,1 z"
       id="path296"
       inkscape:connector-curvature="0" />
    <path
       d="m 965,2601 c -3,-6 3,-15 14,-21 12,-6 22,-6 26,-1 3,6 -3,15 -14,21 -12,6 -22,6 -26,1 z"
       id="path298"
       inkscape:connector-curvature="0" />
    <path
       d="m 6445,2576 c -11,-8 -14,-16 -8,-19 6,-4 18,0 28,7 11,8 14,16 8,19 -6,4 -18,0 -28,-7 z"
       id="path300"
       inkscape:connector-curvature="0" />
    <path
       d="m 1035,2561 c -3,-6 3,-15 14,-21 12,-6 22,-6 26,-1 3,6 -3,15 -14,21 -12,6 -22,6 -26,1 z"
       id="path302"
       inkscape:connector-curvature="0" />
    <path
       d="m 6375,2536 c -11,-8 -14,-16 -8,-19 6,-4 18,0 28,7 11,8 14,16 8,19 -6,4 -18,0 -28,-7 z"
       id="path304"
       inkscape:connector-curvature="0" />
    <path
       d="m 1105,2521 c -3,-6 3,-15 14,-21 12,-6 22,-6 26,-1 3,6 -3,15 -14,21 -12,6 -22,6 -26,1 z"
       id="path306"
       inkscape:connector-curvature="0" />
    <path
       d="m 6325,2506 c -11,-8 -14,-16 -8,-19 6,-4 18,0 28,7 11,8 14,16 8,19 -6,4 -18,0 -28,-7 z"
       id="path308"
       inkscape:connector-curvature="0" />
    <path
       d="m 1155,2490 c -3,-5 8,-16 24,-25 18,-9 32,-11 36,-5 3,5 -8,16 -24,25 -18,9 -32,11 -36,5 z"
       id="path310"
       inkscape:connector-curvature="0" />
    <path
       d="m 6255,2466 c -11,-8 -14,-16 -8,-19 6,-4 18,0 28,7 11,8 14,16 8,19 -6,4 -18,0 -28,-7 z"
       id="path312"
       inkscape:connector-curvature="0" />
    <path
       d="m 1225,2450 c -3,-5 8,-16 24,-25 18,-9 32,-11 36,-5 3,5 -8,16 -24,25 -18,9 -32,11 -36,5 z"
       id="path314"
       inkscape:connector-curvature="0" />
    <path
       d="m 6205,2436 c -11,-8 -14,-16 -8,-19 6,-4 18,0 28,7 11,8 14,16 8,19 -6,4 -18,0 -28,-7 z"
       id="path316"
       inkscape:connector-curvature="0" />
    <path
       d="m 1295,2410 c -3,-5 8,-16 24,-25 18,-9 32,-11 36,-5 3,5 -8,16 -24,25 -18,9 -32,11 -36,5 z"
       id="path318"
       inkscape:connector-curvature="0" />
    <path
       d="m 6135,2396 c -11,-8 -14,-16 -8,-19 6,-4 18,0 28,7 11,8 14,16 8,19 -6,4 -18,0 -28,-7 z"
       id="path320"
       inkscape:connector-curvature="0" />
    <path
       d="m 1365,2370 c -3,-5 8,-16 24,-25 18,-9 32,-11 36,-5 3,5 -8,16 -24,25 -18,9 -32,11 -36,5 z"
       id="path322"
       inkscape:connector-curvature="0" />
    <path
       d="m 1435,2331 c -3,-6 3,-15 14,-21 12,-6 22,-6 26,-1 3,6 -3,15 -14,21 -12,6 -22,6 -26,1 z"
       id="path324"
       inkscape:connector-curvature="0" />
    <path
       d="m 6015,2326 c -11,-8 -14,-16 -8,-19 6,-4 18,0 28,7 11,8 14,16 8,19 -6,4 -18,0 -28,-7 z"
       id="path326"
       inkscape:connector-curvature="0" />
    <path
       d="m 1505,2291 c -3,-6 3,-15 14,-21 12,-6 22,-6 26,-1 3,6 -3,15 -14,21 -12,6 -22,6 -26,1 z"
       id="path328"
       inkscape:connector-curvature="0" />
    <path
       d="m 5945,2286 c -11,-8 -14,-16 -8,-19 6,-4 18,0 28,7 11,8 14,16 8,19 -6,4 -18,0 -28,-7 z"
       id="path330"
       inkscape:connector-curvature="0" />
    <path
       d="m 5895,2256 c -11,-8 -14,-16 -8,-19 6,-4 18,0 28,7 11,8 14,16 8,19 -6,4 -18,0 -28,-7 z"
       id="path332"
       inkscape:connector-curvature="0" />
    <path
       d="m 1575,2251 c -3,-6 3,-15 14,-21 12,-6 22,-6 26,-1 3,6 -3,15 -14,21 -12,6 -22,6 -26,1 z"
       id="path334"
       inkscape:connector-curvature="0" />
    <path
       d="m 5825,2216 c -11,-8 -14,-16 -8,-19 6,-4 18,0 28,7 11,8 14,16 8,19 -6,4 -18,0 -28,-7 z"
       id="path336"
       inkscape:connector-curvature="0" />
    <path
       d="m 1645,2211 c -3,-6 3,-15 14,-21 12,-6 22,-6 26,-1 3,6 -3,15 -14,21 -12,6 -22,6 -26,1 z"
       id="path338"
       inkscape:connector-curvature="0" />
    <path
       d="m 5775,2186 c -11,-8 -14,-16 -8,-19 6,-4 18,0 28,7 11,8 14,16 8,19 -6,4 -18,0 -28,-7 z"
       id="path340"
       inkscape:connector-curvature="0" />
    <path
       d="m 1715,2171 c -3,-6 3,-15 14,-21 12,-6 22,-6 26,-1 3,6 -3,15 -14,21 -12,6 -22,6 -26,1 z"
       id="path342"
       inkscape:connector-curvature="0" />
    <path
       d="m 5705,2146 c -11,-8 -14,-16 -8,-19 6,-4 18,0 28,7 11,8 14,16 8,19 -6,4 -18,0 -28,-7 z"
       id="path344"
       inkscape:connector-curvature="0" />
    <path
       d="m 1785,2131 c -3,-6 3,-15 14,-21 12,-6 22,-6 26,-1 3,6 -3,15 -14,21 -12,6 -22,6 -26,1 z"
       id="path346"
       inkscape:connector-curvature="0" />
    <path
       d="m 1855,2091 c -3,-6 3,-15 14,-21 12,-6 22,-6 26,-1 3,6 -3,15 -14,21 -12,6 -22,6 -26,1 z"
       id="path348"
       inkscape:connector-curvature="0" />
    <path
       d="m 5585,2076 c -11,-8 -14,-16 -8,-19 6,-4 18,0 28,7 11,8 14,16 8,19 -6,4 -18,0 -28,-7 z"
       id="path350"
       inkscape:connector-curvature="0" />
    <path
       d="m 1905,2060 c -3,-5 8,-16 24,-25 18,-9 32,-11 36,-5 3,5 -8,16 -24,25 -18,9 -32,11 -36,5 z"
       id="path352"
       inkscape:connector-curvature="0" />
    <path
       d="m 5515,2036 c -11,-8 -14,-16 -8,-19 6,-4 18,0 28,7 11,8 14,16 8,19 -6,4 -18,0 -28,-7 z"
       id="path354"
       inkscape:connector-curvature="0" />
    <path
       d="m 1975,2020 c -3,-5 8,-16 24,-25 18,-9 32,-11 36,-5 3,5 -8,16 -24,25 -18,9 -32,11 -36,5 z"
       id="path356"
       inkscape:connector-curvature="0" />
    <path
       d="m 5465,2006 c -11,-8 -14,-16 -8,-19 6,-4 18,0 28,7 11,8 14,16 8,19 -6,4 -18,0 -28,-7 z"
       id="path358"
       inkscape:connector-curvature="0" />
    <path
       d="m 2045,1980 c -3,-5 8,-16 24,-25 18,-9 32,-11 36,-5 3,5 -8,16 -24,25 -18,9 -32,11 -36,5 z"
       id="path360"
       inkscape:connector-curvature="0" />
    <path
       d="m 5395,1966 c -11,-8 -14,-16 -8,-19 6,-4 18,0 28,7 11,8 14,16 8,19 -6,4 -18,0 -28,-7 z"
       id="path362"
       inkscape:connector-curvature="0" />
    <path
       d="m 2115,1940 c -3,-5 8,-16 24,-25 18,-9 32,-11 36,-5 3,5 -8,16 -24,25 -18,9 -32,11 -36,5 z"
       id="path364"
       inkscape:connector-curvature="0" />
    <path
       d="m 5345,1936 c -11,-8 -14,-16 -8,-19 6,-4 18,0 28,7 11,8 14,16 8,19 -6,4 -18,0 -28,-7 z"
       id="path366"
       inkscape:connector-curvature="0" />
    <path
       d="m 2185,1901 c -3,-6 3,-15 14,-21 12,-6 22,-6 26,-1 3,6 -3,15 -14,21 -12,6 -22,6 -26,1 z"
       id="path368"
       inkscape:connector-curvature="0" />
    <path
       d="m 5275,1896 c -11,-8 -14,-16 -8,-19 6,-4 18,0 28,7 11,8 14,16 8,19 -6,4 -18,0 -28,-7 z"
       id="path370"
       inkscape:connector-curvature="0" />
    <path
       d="m 2255,1861 c -3,-6 3,-15 14,-21 12,-6 22,-6 26,-1 3,6 -3,15 -14,21 -12,6 -22,6 -26,1 z"
       id="path372"
       inkscape:connector-curvature="0" />
    <path
       d="m 5155,1826 c -11,-8 -14,-16 -8,-19 6,-4 18,0 28,7 11,8 14,16 8,19 -6,4 -18,0 -28,-7 z"
       id="path374"
       inkscape:connector-curvature="0" />
    <path
       d="m 2325,1821 c -3,-6 3,-15 14,-21 12,-6 22,-6 26,-1 3,6 -3,15 -14,21 -12,6 -22,6 -26,1 z"
       id="path376"
       inkscape:connector-curvature="0" />
    <path
       d="m 5085,1786 c -11,-8 -14,-16 -8,-19 6,-4 18,0 28,7 11,8 14,16 8,19 -6,4 -18,0 -28,-7 z"
       id="path378"
       inkscape:connector-curvature="0" />
    <path
       d="m 2395,1781 c -3,-6 3,-15 14,-21 12,-6 22,-6 26,-1 3,6 -3,15 -14,21 -12,6 -22,6 -26,1 z"
       id="path380"
       inkscape:connector-curvature="0" />
    <path
       d="m 5035,1756 c -11,-8 -14,-16 -8,-19 6,-4 18,0 28,7 11,8 14,16 8,19 -6,4 -18,0 -28,-7 z"
       id="path382"
       inkscape:connector-curvature="0" />
    <path
       d="m 2465,1741 c -3,-6 3,-15 14,-21 12,-6 22,-6 26,-1 3,6 -3,15 -14,21 -12,6 -22,6 -26,1 z"
       id="path384"
       inkscape:connector-curvature="0" />
    <path
       d="m 4965,1716 c -11,-8 -14,-16 -8,-19 6,-4 18,0 28,7 11,8 14,16 8,19 -6,4 -18,0 -28,-7 z"
       id="path386"
       inkscape:connector-curvature="0" />
    <path
       d="m 2535,1701 c -3,-6 3,-15 14,-21 12,-6 22,-6 26,-1 3,6 -3,15 -14,21 -12,6 -22,6 -26,1 z"
       id="path388"
       inkscape:connector-curvature="0" />
    <path
       d="m 4915,1686 c -11,-8 -14,-16 -8,-19 6,-4 18,0 28,7 11,8 14,16 8,19 -6,4 -18,0 -28,-7 z"
       id="path390"
       inkscape:connector-curvature="0" />
    <path
       d="m 2605,1661 c -3,-6 3,-15 14,-21 12,-6 22,-6 26,-1 3,6 -3,15 -14,21 -12,6 -22,6 -26,1 z"
       id="path392"
       inkscape:connector-curvature="0" />
    <path
       d="m 4845,1646 c -11,-8 -14,-16 -8,-19 6,-4 18,0 28,7 11,8 14,16 8,19 -6,4 -18,0 -28,-7 z"
       id="path394"
       inkscape:connector-curvature="0" />
    <path
       d="m 2655,1630 c -3,-5 8,-16 24,-25 18,-9 32,-11 36,-5 3,5 -8,16 -24,25 -18,9 -32,11 -36,5 z"
       id="path396"
       inkscape:connector-curvature="0" />
    <path
       d="m 2725,1590 c -3,-5 8,-16 24,-25 18,-9 32,-11 36,-5 3,5 -8,16 -24,25 -18,9 -32,11 -36,5 z"
       id="path398"
       inkscape:connector-curvature="0" />
    <path
       d="m 4725,1576 c -11,-8 -14,-16 -8,-19 6,-4 18,0 28,7 11,8 14,16 8,19 -6,4 -18,0 -28,-7 z"
       id="path400"
       inkscape:connector-curvature="0" />
    <path
       d="m 2795,1550 c -3,-5 8,-16 24,-25 18,-9 32,-11 36,-5 3,5 -8,16 -24,25 -18,9 -32,11 -36,5 z"
       id="path402"
       inkscape:connector-curvature="0" />
    <path
       d="m 4655,1536 c -11,-8 -14,-16 -8,-19 6,-4 18,0 28,7 11,8 14,16 8,19 -6,4 -18,0 -28,-7 z"
       id="path404"
       inkscape:connector-curvature="0" />
    <path
       d="m 2865,1510 c -3,-5 8,-16 24,-25 18,-9 32,-11 36,-5 3,5 -8,16 -24,25 -18,9 -32,11 -36,5 z"
       id="path406"
       inkscape:connector-curvature="0" />
    <path
       d="m 4605,1506 c -11,-8 -14,-16 -8,-19 6,-4 18,0 28,7 11,8 14,16 8,19 -6,4 -18,0 -28,-7 z"
       id="path408"
       inkscape:connector-curvature="0" />
    <path
       d="m 2935,1471 c -3,-6 3,-15 14,-21 12,-6 22,-6 26,-1 3,6 -3,15 -14,21 -12,6 -22,6 -26,1 z"
       id="path410"
       inkscape:connector-curvature="0" />
    <path
       d="m 4535,1466 c -11,-8 -14,-16 -8,-19 6,-4 18,0 28,7 11,8 14,16 8,19 -6,4 -18,0 -28,-7 z"
       id="path412"
       inkscape:connector-curvature="0" />
    <path
       d="m 4485,1436 c -11,-8 -14,-16 -8,-19 6,-4 18,0 28,7 11,8 14,16 8,19 -6,4 -18,0 -28,-7 z"
       id="path414"
       inkscape:connector-curvature="0" />
    <path
       d="m 3005,1431 c -3,-6 3,-15 14,-21 12,-6 22,-6 26,-1 3,6 -3,15 -14,21 -12,6 -22,6 -26,1 z"
       id="path416"
       inkscape:connector-curvature="0" />
    <path
       d="m 4415,1396 c -11,-8 -14,-16 -8,-19 6,-4 18,0 28,7 11,8 14,16 8,19 -6,4 -18,0 -28,-7 z"
       id="path418"
       inkscape:connector-curvature="0" />
    <path
       d="m 3075,1391 c -3,-6 3,-15 14,-21 12,-6 22,-6 26,-1 3,6 -3,15 -14,21 -12,6 -22,6 -26,1 z"
       id="path420"
       inkscape:connector-curvature="0" />
    <path
       d="m 3145,1351 c -3,-6 3,-15 14,-21 12,-6 22,-6 26,-1 3,6 -3,15 -14,21 -12,6 -22,6 -26,1 z"
       id="path422"
       inkscape:connector-curvature="0" />
    <path
       d="m 4295,1326 c -11,-8 -14,-16 -8,-19 6,-4 18,0 28,7 11,8 14,16 8,19 -6,4 -18,0 -28,-7 z"
       id="path424"
       inkscape:connector-curvature="0" />
    <path
       d="m 3215,1311 c -3,-6 3,-15 14,-21 12,-6 22,-6 26,-1 3,6 -3,15 -14,21 -12,6 -22,6 -26,1 z"
       id="path426"
       inkscape:connector-curvature="0" />
    <path
       d="m 4225,1286 c -11,-8 -14,-16 -8,-19 6,-4 18,0 28,7 11,8 14,16 8,19 -6,4 -18,0 -28,-7 z"
       id="path428"
       inkscape:connector-curvature="0" />
    <path
       d="m 3285,1271 c -3,-6 3,-15 14,-21 12,-6 22,-6 26,-1 3,6 -3,15 -14,21 -12,6 -22,6 -26,1 z"
       id="path430"
       inkscape:connector-curvature="0" />
    <path
       d="m 4175,1256 c -11,-8 -14,-16 -8,-19 6,-4 18,0 28,7 11,8 14,16 8,19 -6,4 -18,0 -28,-7 z"
       id="path432"
       inkscape:connector-curvature="0" />
    <path
       d="m 3355,1231 c -3,-6 3,-15 14,-21 12,-6 22,-6 26,-1 3,6 -3,15 -14,21 -12,6 -22,6 -26,1 z"
       id="path434"
       inkscape:connector-curvature="0" />
    <path
       d="m 4105,1216 c -11,-8 -14,-16 -8,-19 6,-4 18,0 28,7 11,8 14,16 8,19 -6,4 -18,0 -28,-7 z"
       id="path436"
       inkscape:connector-curvature="0" />
    <path
       d="m 3405,1200 c -3,-5 8,-16 24,-25 18,-9 32,-11 36,-5 3,5 -8,16 -24,25 -18,9 -32,11 -36,5 z"
       id="path438"
       inkscape:connector-curvature="0" />
    <path
       d="m 4055,1186 c -11,-8 -14,-16 -8,-19 6,-4 18,0 28,7 11,8 14,16 8,19 -6,4 -18,0 -28,-7 z"
       id="path440"
       inkscape:connector-curvature="0" />
    <path
       d="m 3475,1160 c -3,-5 8,-16 24,-25 18,-9 32,-11 36,-5 3,5 -8,16 -24,25 -18,9 -32,11 -36,5 z"
       id="path442"
       inkscape:connector-curvature="0" />
    <path
       d="m 3985,1146 c -11,-8 -14,-16 -8,-19 6,-4 18,0 28,7 11,8 14,16 8,19 -6,4 -18,0 -28,-7 z"
       id="path444"
       inkscape:connector-curvature="0" />
    <path
       d="m 3545,1120 c -3,-5 8,-16 24,-25 18,-9 32,-11 36,-5 3,5 -8,16 -24,25 -18,9 -32,11 -36,5 z"
       id="path446"
       inkscape:connector-curvature="0" />
    <path
       d="m 3615,1080 c -3,-5 8,-16 24,-25 18,-9 32,-11 36,-5 3,5 -8,16 -24,25 -18,9 -32,11 -36,5 z"
       id="path448"
       inkscape:connector-curvature="0" />
    <path
       d="m 3865,1076 c -11,-8 -14,-16 -8,-19 6,-4 18,0 28,7 11,8 14,16 8,19 -6,4 -18,0 -28,-7 z"
       id="path450"
       inkscape:connector-curvature="0" />
    <path
       d="m 3685,1041 c -3,-6 3,-15 14,-21 12,-6 22,-6 26,-1 3,6 -3,15 -14,21 -12,6 -22,6 -26,1 z"
       id="path452"
       inkscape:connector-curvature="0" />
    <path
       d="m 3795,1036 c -11,-8 -14,-16 -8,-19 6,-4 18,0 28,7 11,8 14,16 8,19 -6,4 -18,0 -28,-7 z"
       id="path454"
       inkscape:connector-curvature="0" />
  </g>
  <g
     id="g456"
     style="fill:#cb248b;stroke:none"
     transform="translate(-30.670086,-1006)">
    <path
       d="M 1880,8461 45,7393 42,7319 C 40,7278 41,6317 45,5183 L 52,3121 1898,2063 c 1016,-582 1853,-1057 1862,-1057 8,1 839,480 1845,1066 l 1830,1065 -4,2134 c -2,1590 -6,2137 -15,2146 -18,19 -3676,2113 -3689,2112 -7,0 -838,-481 -1847,-1068 z m 3993,-734 c 174,-63 291,-178 359,-354 l 28,-73 -2,-1902 -3,-1903 -22,-53 c -63,-146 -172,-267 -296,-326 -104,-50 -136,-55 -403,-63 l -242,-6 -5,229 c -3,179 -8,241 -22,284 -32,103 -107,184 -219,240 -53,27 -69,30 -157,30 -89,0 -102,-3 -155,-31 -78,-40 -155,-118 -193,-193 l -31,-61 -7,-245 -8,-245 -780,0 -780,0 -8,245 -7,245 -31,61 c -38,75 -115,153 -193,193 -53,28 -66,31 -155,31 -88,0 -104,-3 -157,-30 -112,-56 -187,-138 -219,-240 -13,-43 -18,-107 -22,-284 l -6,-228 -236,5 c -258,5 -306,13 -421,69 -144,70 -281,256 -301,407 -5,37 -8,901 -8,1921 l 0,1855 28,71 c 67,171 185,287 355,350 l 61,23 2097,0 2097,1 64,-23 z M 2636,3609 c 34,-16 49,-32 70,-75 l 27,-55 1,-327 c 1,-325 1,-327 -23,-375 -34,-69 -85,-101 -170,-105 -86,-4 -134,22 -174,93 l -27,50 2,345 c 3,367 4,376 54,422 59,53 164,65 240,27 z m 2377,-12 c 73,-55 72,-50 72,-447 l 0,-355 -28,-43 c -34,-53 -92,-82 -162,-82 -112,0 -180,65 -196,187 -10,81 -10,322 0,518 6,125 9,144 31,177 38,57 90,80 176,76 59,-3 77,-8 107,-31 z"
       id="path458"
       inkscape:connector-curvature="0" />
    <path
       d="m 1735,7375 c -5,-2 -22,-6 -38,-9 -33,-8 -102,-68 -125,-110 -16,-29 -17,-137 -17,-1426 l 0,-1395 2160,0 2160,0 0,1395 c 0,1559 7,1416 -72,1492 -29,29 -52,40 -92,48 -49,9 -3949,14 -3976,5 z m 3723,-428 22,-24 -2,-1026 c -2,-759 -6,-1029 -15,-1038 -6,-6 -44,-15 -85,-20 -40,-4 -817,-8 -1727,-9 l -1655,0 -23,22 -23,21 0,1026 0,1025 22,23 21,23 1722,0 1722,0 21,-23 z"
       id="path460"
       inkscape:connector-curvature="0" />
    <path
       d="m 2152,6778 c -8,-8 -12,-64 -12,-188 0,-124 4,-180 12,-188 9,-9 68,-12 204,-12 l 192,0 25,43 c 28,48 85,102 136,130 l 33,17 -7,98 c -4,53 -9,100 -12,105 -8,13 -557,9 -571,-5 z"
       id="path462"
       inkscape:connector-curvature="0" />
    <path
       d="m 2934,6777 c -3,-8 -4,-52 -2,-98 l 3,-84 390,0 390,0 0,95 0,95 -388,3 c -317,2 -388,0 -393,-11 z"
       id="path464"
       inkscape:connector-curvature="0" />
    <path
       d="m 3917,6783 c -4,-3 -7,-50 -7,-104 l 0,-98 58,-40 c 31,-23 74,-66 95,-96 l 38,-55 197,2 197,3 0,195 0,195 -286,3 c -157,1 -288,-1 -292,-5 z"
       id="path466"
       inkscape:connector-curvature="0" />
    <path
       d="m 4707,6783 c -13,-12 -8,-368 5,-381 19,-19 551,-17 567,2 8,9 11,70 9,197 l -3,184 -286,3 c -157,1 -288,-1 -292,-5 z"
       id="path468"
       inkscape:connector-curvature="0" />
    <path
       d="m 2147,6184 c -4,-4 -7,-132 -7,-284 0,-224 3,-280 14,-289 9,-8 70,-11 197,-9 l 184,3 0,290 0,290 -191,3 c -104,1 -193,-1 -197,-4 z"
       id="path470"
       inkscape:connector-curvature="0" />
    <path
       d="m 2935,6177 c -3,-7 -4,-136 -3,-287 l 3,-275 390,0 390,0 0,285 0,285 -388,3 c -307,2 -389,0 -392,-11 z"
       id="path472"
       inkscape:connector-curvature="0" />
    <path
       d="m 4107,6184 c -9,-9 -7,-437 2,-519 l 6,-60 190,0 190,0 0,290 0,290 -191,3 c -104,1 -193,-1 -197,-4 z"
       id="path474"
       inkscape:connector-curvature="0" />
    <path
       d="m 4693,6174 c -9,-24 5,-556 15,-566 4,-4 136,-7 293,-6 l 284,3 0,290 0,290 -293,3 c -264,2 -293,1 -299,-14 z"
       id="path476"
       inkscape:connector-curvature="0" />
    <path
       d="m 2275,5410 -130,-5 -3,-184 c -2,-127 1,-188 9,-197 9,-11 65,-14 290,-14 153,0 280,3 282,8 3,4 8,50 12,103 l 7,96 -64,44 c -40,28 -77,65 -101,102 l -38,57 -67,-2 c -37,-1 -125,-5 -197,-8 z"
       id="path478"
       inkscape:connector-curvature="0" />
    <path
       d="m 4082,5389 c -27,-51 -81,-108 -129,-136 l -44,-25 3,-107 3,-106 290,0 290,0 0,200 0,200 -198,3 -198,2 -17,-31 z"
       id="path480"
       inkscape:connector-curvature="0" />
    <path
       d="m 4707,5403 c -13,-12 -8,-368 5,-381 19,-19 551,-17 567,2 8,9 11,70 9,197 l -3,184 -286,3 c -157,1 -288,-1 -292,-5 z"
       id="path482"
       inkscape:connector-curvature="0" />
    <path
       d="m 2934,5207 c -3,-8 -4,-54 -2,-103 l 3,-89 390,0 390,0 0,100 0,100 -388,3 c -317,2 -388,0 -393,-11 z"
       id="path484"
       inkscape:connector-curvature="0" />
  </g>
</svg>
