<!DOCTYPE svg PUBLIC "-//W3C//DTD SVG 20010904//EN" "http://www.w3.org/TR/2001/REC-SVG-20010904/DTD/svg10.dtd">
<svg version="1.0" xmlns="http://www.w3.org/2000/svg" width="278px" height="320px" viewBox="0 0 2780 3200" preserveAspectRatio="xMidYMid meet"><g fill="#fffedb" stroke="none">
 <path d="M1150 2471 c-287 -31 -398 -108 -360 -250 21 -79 132 -166 310 -242 101 -44 125 -70 125 -137 -1 -40 -8 -58 -56 -127 -75 -109 -104 -200 -104 -325 0 -84 3 -102 28 -152 74 -150 233 -208 412 -151 67 22 153 108 178 178 23 68 23 195 -2 274 -18 59 -77 166 -122 222 -29 37 -35 105 -12 148 15 27 33 39 108 70 176 72 294 161 314 239 35 127 -53 205 -272 242 -81 14 -451 21 -547 11z"/>
 <path d="M692 1939 c-134 -13 -229 -47 -269 -99 -17 -21 -16 -105 2 -140 8 -16 39 -47 68 -69 51 -38 190 -111 213 -111 6 0 23 -11 38 -25 41 -38 36 -95 -13 -172 -107 -164 -115 -377 -18 -481 54 -58 169 -86 255 -63 74 21 148 103 166 186 6 27 2 34 -34 61 -79 61 -130 143 -155 246 -38 160 3 352 109 507 20 29 36 54 36 56 0 1 -52 28 -115 59 -124 61 -124 61 -283 45z"/>
 <path d="M1815 1911 c-38 -20 -89 -45 -112 -54 l-43 -17 37 -47 c45 -60 98 -170 118 -248 22 -86 20 -228 -5 -308 -23 -75 -88 -167 -150 -211 -22 -17 -40 -37 -40 -45 0 -28 46 -115 76 -144 50 -50 82 -62 169 -62 69 0 86 4 126 27 49 29 94 85 110 139 13 46 13 179 -2 231 -13 51 -48 120 -83 167 -20 26 -26 47 -26 84 0 60 15 75 121 121 94 40 193 109 219 151 22 36 26 100 9 139 -27 58 -163 100 -354 109 l-100 5 -70 -37z"/>
 </g>

<g fill="#cb248b" stroke="none">
 <path d="M705 2809 c-374 -214 -684 -390 -690 -392 -5 -2 -11 -311 -13 -808 l-4 -804 683 -400 c375 -220 688 -401 694 -403 6 -1 211 111 456 250 244 140 555 316 691 393 l247 140 3 135 c2 74 5 436 6 805 l2 670 -297 174 c-381 223 -574 337 -851 500 -123 72 -229 131 -235 130 -7 -1 -318 -176 -692 -390z m885 -329 c204 -19 342 -66 374 -128 75 -148 -37 -274 -360 -407 -46 -19 -64 -47 -64 -102 0 -28 14 -57 59 -124 81 -119 103 -181 109 -301 5 -115 -9 -169 -66 -242 -48 -64 -117 -102 -210 -116 -120 -19 -212 11 -294 97 -127 131 -112 390 35 583 35 46 42 62 42 101 0 32 -6 54 -19 67 -10 12 -77 50 -150 86 -237 118 -313 219 -257 343 24 52 81 86 187 113 149 37 398 49 614 30z m-658 -554 c35 -19 88 -44 118 -57 30 -12 57 -24 58 -25 2 -1 -12 -24 -32 -50 -111 -145 -161 -362 -121 -519 26 -100 61 -159 132 -224 l65 -60 -17 -50 c-40 -121 -117 -176 -245 -176 -83 1 -133 20 -182 72 -101 106 -96 327 12 488 41 62 50 107 30 145 -5 10 -61 43 -122 73 -121 59 -197 117 -218 167 -7 18 -10 52 -8 82 5 44 11 57 39 81 41 34 137 64 244 76 154 17 178 14 247 -23z m1227 9 c143 -28 201 -75 201 -165 0 -85 -73 -156 -237 -231 -48 -23 -96 -48 -105 -56 -28 -25 -24 -98 8 -140 100 -132 127 -343 58 -460 -111 -190 -410 -149 -463 63 l-12 47 64 58 c108 98 147 188 147 342 0 142 -39 260 -125 384 -25 36 -45 66 -43 68 2 1 45 21 96 43 50 23 102 48 115 57 18 14 38 16 122 10 55 -3 133 -13 174 -20z"/>
 </g>

</svg>