<?xml version="1.0" encoding="UTF-8" standalone="no"?>
<svg
   xmlns:dc="http://purl.org/dc/elements/1.1/"
   xmlns:cc="http://creativecommons.org/ns#"
   xmlns:rdf="http://www.w3.org/1999/02/22-rdf-syntax-ns#"
   xmlns:svg="http://www.w3.org/2000/svg"
   xmlns="http://www.w3.org/2000/svg"
   xmlns:sodipodi="http://sodipodi.sourceforge.net/DTD/sodipodi-0.dtd"
   xmlns:inkscape="http://www.inkscape.org/namespaces/inkscape"
   version="1.0"
   width="741.78302"
   height="852.24091"
   viewBox="0 0 7417.8302 8522.4091"
   preserveAspectRatio="xMidYMid meet"
   id="svg2"
   inkscape:version="0.91 r13725"
   sodipodi:docname="label.svg">
  <metadata
     id="metadata116">
    <rdf:RDF>
      <cc:Work
         rdf:about="">
        <dc:format>image/svg+xml</dc:format>
        <dc:type
           rdf:resource="http://purl.org/dc/dcmitype/StillImage" />
        <dc:title></dc:title>
      </cc:Work>
    </rdf:RDF>
  </metadata>
  <defs
     id="defs114" />
  <sodipodi:namedview
     pagecolor="#ffffff"
     bordercolor="#666666"
     borderopacity="1"
     objecttolerance="10"
     gridtolerance="10"
     guidetolerance="10"
     inkscape:pageopacity="0"
     inkscape:pageshadow="2"
     inkscape:window-width="693"
     inkscape:window-height="480"
     id="namedview112"
     showgrid="false"
     fit-margin-top="0"
     fit-margin-left="0"
     fit-margin-right="0"
     fit-margin-bottom="0"
     inkscape:zoom="0.22412156"
     inkscape:cx="369.43299"
     inkscape:cy="466.50001"
     inkscape:window-x="0"
     inkscape:window-y="23"
     inkscape:window-maximized="0"
     inkscape:current-layer="svg2" />
  <g
     id="g4"
     style="fill:#fffedb;stroke:none"
     transform="translate(-30.670086,-1407.5911)">
    <path
       d="m 2055,8329 c -83,-11 -221,-48 -343,-90 -318,-112 -638,-404 -804,-733 -51,-101 -110,-282 -133,-406 -22,-116 -25,-369 -6,-485 17,-110 103,-364 154,-457 216,-397 581,-672 1019,-769 118,-26 372,-36 490,-20 139,20 360,89 486,152 l 112,57 0,-1209 0,-1210 25,-24 24,-25 1441,0 1441,0 24,25 25,24 0,2110 0,2109 -31,26 -31,26 -1016,-2 -1017,-3 0,-80 0,-80 147,-3 147,-3 3,-238 3,-238 28,-42 c 43,-65 68,-71 277,-71 209,0 234,6 277,71 l 28,42 3,239 3,238 510,0 509,0 0,-1995 0,-1995 -1330,0 -1330,0 0,1213 0,1212 91,90 c 110,109 210,240 273,357 31,57 52,85 61,82 24,-10 94,16 123,46 16,15 34,48 41,72 11,37 10,50 -4,86 -10,23 -31,53 -47,67 l -29,25 16,95 c 15,92 23,384 10,405 -3,5 5,26 19,47 74,113 39,259 -79,328 -38,23 -51,39 -85,110 -202,412 -596,713 -1058,806 -114,23 -363,33 -467,18 z m 815,-316 c 82,-44 200,-121 200,-130 0,-11 -345,-433 -354,-433 -5,0 -30,13 -55,29 -25,17 -77,44 -114,61 -51,24 -66,36 -62,49 2,9 39,126 80,260 42,135 78,248 81,252 7,12 127,-36 224,-88 z m -451,-617 c 120,-36 268,-149 306,-235 8,-20 26,-56 39,-81 42,-82 60,-170 53,-268 -12,-155 -62,-267 -168,-373 -75,-75 -152,-118 -273,-149 -100,-25 -172,-25 -268,-1 -201,52 -335,173 -404,367 -56,155 -47,296 28,452 47,100 132,191 223,239 61,32 176,69 230,75 50,5 177,-9 234,-26 z M 1820,6220 c 16,-11 64,-37 107,-57 43,-20 79,-37 81,-38 3,-3 -115,-386 -146,-475 -18,-50 -22,-55 -47,-53 -33,3 -248,109 -325,161 -31,21 -55,44 -55,54 0,24 323,428 342,428 8,0 28,-9 43,-20 z"
       id="path6"
       inkscape:connector-curvature="0" />
    <path
       d="m 2210,6978 c -20,-5 -49,-24 -68,-46 -31,-34 -33,-41 -30,-90 4,-43 11,-59 38,-87 55,-57 123,-58 185,-3 61,53 57,153 -8,201 -39,29 -71,36 -117,25 z"
       id="path8"
       inkscape:connector-curvature="0" />
    <path
       d="m 35,6829 c -10,-26 -1,-449 10,-449 14,0 19,440 6,453 -7,7 -12,5 -16,-4 z"
       id="path10"
       inkscape:connector-curvature="0" />
    <path
       d="m 7427,6833 c -11,-11 -8,-461 3,-468 7,-4 10,77 10,234 0,133 -1,241 -3,241 -2,0 -7,-3 -10,-7 z"
       id="path12"
       inkscape:connector-curvature="0" />
    <path
       d="m 3994,6511 c -97,-59 -98,-202 -2,-261 51,-31 90,-34 140,-12 155,68 112,292 -56,292 -32,0 -62,-7 -82,-19 z"
       id="path14"
       inkscape:connector-curvature="0" />
    <path
       d="m 4460,6524 c -30,-12 -80,-68 -91,-101 -16,-49 -3,-98 38,-144 64,-71 156,-73 221,-6 64,66 63,153 -3,217 -30,29 -42,34 -92,37 -32,1 -65,0 -73,-3 z"
       id="path16"
       inkscape:connector-curvature="0" />
    <path
       d="m 4883,6510 c -18,-10 -42,-38 -54,-61 -67,-131 71,-274 200,-207 58,30 83,65 88,125 5,58 -18,107 -67,141 -43,29 -121,30 -167,2 z"
       id="path18"
       inkscape:connector-curvature="0" />
    <path
       d="m 5335,6512 c -55,-35 -69,-59 -73,-126 -4,-62 -3,-65 33,-105 65,-71 159,-76 224,-10 63,63 61,156 -4,219 -30,29 -43,34 -92,37 -45,3 -65,0 -88,-15 z"
       id="path20"
       inkscape:connector-curvature="0" />
    <path
       d="m 3562,6073 c -114,-56 -115,-219 0,-279 68,-35 168,-2 205,69 67,130 -74,275 -205,210 z"
       id="path22"
       inkscape:connector-curvature="0" />
    <path
       d="m 4005,6072 c -64,-41 -80,-68 -80,-137 0,-57 3,-67 30,-95 82,-87 186,-79 252,19 62,91 -7,218 -124,228 -36,3 -56,-1 -78,-15 z"
       id="path24"
       inkscape:connector-curvature="0" />
    <path
       d="m 4453,6076 c -38,-17 -82,-80 -89,-127 -7,-45 30,-116 75,-146 89,-59 216,0 236,110 9,46 -23,117 -67,149 -38,27 -112,33 -155,14 z"
       id="path26"
       inkscape:connector-curvature="0" />
    <path
       d="m 4910,6079 c -89,-37 -127,-146 -77,-220 71,-105 193,-105 264,0 44,65 23,151 -48,204 -31,23 -103,31 -139,16 z"
       id="path28"
       inkscape:connector-curvature="0" />
    <path
       d="m 5340,6072 c -52,-28 -80,-75 -80,-134 0,-61 20,-100 67,-133 124,-84 286,51 225,187 -37,84 -136,122 -212,80 z"
       id="path30"
       inkscape:connector-curvature="0" />
    <path
       d="m 3585,5640 c -42,-13 -95,-70 -105,-114 -23,-105 73,-211 176,-191 50,9 109,65 124,119 10,38 10,49 -8,88 -34,78 -115,120 -187,98 z"
       id="path32"
       inkscape:connector-curvature="0" />
    <path
       d="m 4012,5629 c -111,-56 -125,-190 -27,-264 71,-55 160,-39 216,38 51,70 32,165 -41,213 -54,36 -96,39 -148,13 z"
       id="path34"
       inkscape:connector-curvature="0" />
    <path
       d="m 4476,5640 c -39,-12 -93,-66 -107,-107 -16,-49 -3,-98 37,-143 65,-72 145,-77 215,-13 71,64 73,156 6,221 -18,18 -49,37 -68,42 -39,11 -44,11 -83,0 z"
       id="path36"
       inkscape:connector-curvature="0" />
    <path
       d="m 4900,5627 c -107,-57 -120,-190 -24,-263 30,-23 48,-29 89,-29 151,0 212,197 87,280 -57,38 -98,41 -152,12 z"
       id="path38"
       inkscape:connector-curvature="0" />
    <path
       d="m 5365,5639 c -17,-4 -46,-24 -65,-44 -30,-31 -35,-43 -38,-99 -4,-62 -3,-65 33,-104 66,-74 145,-79 216,-15 71,64 73,156 6,221 -18,18 -49,37 -68,42 -39,11 -43,11 -84,-1 z"
       id="path40"
       inkscape:connector-curvature="0" />
    <path
       d="m 3562,5183 c -117,-57 -114,-229 5,-279 75,-32 155,-6 197,65 74,127 -70,280 -202,214 z"
       id="path42"
       inkscape:connector-curvature="0" />
    <path
       d="m 3999,5177 c -58,-39 -81,-84 -77,-145 4,-47 10,-59 47,-95 40,-41 43,-42 105,-42 58,0 68,3 96,30 43,40 60,76 60,123 0,76 -78,152 -155,152 -27,0 -54,-8 -76,-23 z"
       id="path44"
       inkscape:connector-curvature="0" />
    <path
       d="m 4446,5177 c -52,-29 -89,-97 -83,-150 6,-44 46,-101 87,-122 98,-51 224,25 224,134 0,60 -33,115 -85,141 -50,26 -95,25 -143,-3 z"
       id="path46"
       inkscape:connector-curvature="0" />
    <path
       d="m 4889,5177 c -98,-66 -106,-170 -19,-252 28,-27 38,-30 96,-30 62,0 65,1 105,42 37,36 43,48 47,95 3,44 0,59 -20,88 -34,51 -83,80 -133,80 -27,0 -54,-8 -76,-23 z"
       id="path48"
       inkscape:connector-curvature="0" />
    <path
       d="m 5337,5179 c -106,-56 -104,-218 3,-271 81,-41 166,-11 208,74 38,75 9,159 -67,198 -50,25 -95,25 -144,-1 z"
       id="path50"
       inkscape:connector-curvature="0" />
    <path
       d="m 3555,4731 c -66,-40 -93,-103 -75,-172 12,-44 75,-104 118,-114 105,-23 215,91 182,190 -15,44 -45,82 -80,100 -40,21 -109,19 -145,-4 z"
       id="path52"
       inkscape:connector-curvature="0" />
    <path
       d="m 3994,4731 c -97,-59 -98,-202 -2,-261 51,-31 90,-34 140,-12 155,68 112,292 -56,292 -32,0 -62,-7 -82,-19 z"
       id="path54"
       inkscape:connector-curvature="0" />
    <path
       d="m 4454,4741 c -30,-13 -82,-79 -89,-113 -10,-44 4,-87 42,-129 64,-71 156,-73 221,-6 64,66 63,153 -3,217 -30,29 -42,34 -92,37 -32,1 -67,-1 -79,-6 z"
       id="path56"
       inkscape:connector-curvature="0" />
    <path
       d="m 4883,4730 c -46,-27 -76,-92 -70,-147 10,-90 105,-159 186,-134 135,40 164,201 51,279 -43,29 -121,30 -167,2 z"
       id="path58"
       inkscape:connector-curvature="0" />
    <path
       d="m 5332,4730 c -48,-29 -72,-75 -72,-137 0,-47 4,-58 36,-93 64,-70 158,-74 223,-9 77,76 55,196 -46,248 -34,18 -104,13 -141,-9 z"
       id="path60"
       inkscape:connector-curvature="0" />
    <path
       d="m 3562,4294 c -147,-75 -95,-294 70,-294 112,0 189,132 133,228 -42,70 -135,100 -203,66 z"
       id="path62"
       inkscape:connector-curvature="0" />
    <path
       d="m 4015,4296 c -16,-7 -43,-28 -60,-45 -27,-29 -30,-39 -30,-97 0,-62 1,-65 42,-105 36,-37 48,-43 95,-47 44,-3 59,0 88,20 103,70 107,188 9,261 -34,25 -105,31 -144,13 z"
       id="path64"
       inkscape:connector-curvature="0" />
    <path
       d="m 4453,4296 c -17,-8 -44,-34 -60,-57 -69,-105 2,-239 127,-239 75,0 141,56 155,132 9,47 -23,118 -67,150 -38,27 -112,33 -155,14 z"
       id="path66"
       inkscape:connector-curvature="0" />
    <path
       d="m 4910,4299 c -89,-37 -127,-146 -77,-220 53,-79 134,-100 212,-55 126,74 80,269 -66,282 -24,2 -55,-1 -69,-7 z"
       id="path68"
       inkscape:connector-curvature="0" />
    <path
       d="m 5340,4292 c -105,-57 -109,-210 -8,-272 124,-75 279,60 220,192 -37,84 -136,122 -212,80 z"
       id="path70"
       inkscape:connector-curvature="0" />
    <path
       d="m 7443,3915 c 0,-27 2,-38 4,-22 2,15 2,37 0,50 -2,12 -4,0 -4,-28 z"
       id="path72"
       inkscape:connector-curvature="0" />
    <path
       d="m 3585,3860 c -73,-22 -125,-116 -105,-190 12,-45 25,-62 74,-94 64,-43 135,-29 192,36 42,48 50,96 26,152 -34,76 -115,117 -187,96 z"
       id="path74"
       inkscape:connector-curvature="0" />
    <path
       d="m 4039,3861 c -71,-22 -119,-83 -119,-150 0,-53 20,-93 65,-126 71,-55 160,-39 217,39 26,36 29,48 26,91 -8,99 -103,172 -189,146 z"
       id="path76"
       inkscape:connector-curvature="0" />
    <path
       d="m 4484,3863 c -12,-2 -40,-20 -63,-39 -78,-67 -78,-158 -1,-228 67,-60 133,-60 201,1 71,64 73,156 6,221 -18,18 -49,37 -68,42 -35,10 -38,10 -75,3 z"
       id="path78"
       inkscape:connector-curvature="0" />
    <path
       d="m 4929,3861 c -45,-14 -79,-43 -100,-82 -36,-71 -18,-146 47,-195 30,-23 48,-29 89,-29 151,0 212,198 86,280 -43,27 -86,37 -122,26 z"
       id="path80"
       inkscape:connector-curvature="0" />
    <path
       d="m 5373,3863 c -12,-2 -41,-21 -64,-42 -41,-36 -43,-41 -47,-103 -4,-62 -3,-67 28,-102 77,-87 162,-88 237,-3 41,47 49,95 25,151 -32,71 -109,114 -179,99 z"
       id="path82"
       inkscape:connector-curvature="0" />
    <path
       d="m 405,3321 c -3,-6 3,-15 14,-21 12,-6 22,-6 26,-1 3,6 -3,15 -14,21 -12,6 -22,6 -26,1 z"
       id="path84"
       inkscape:connector-curvature="0" />
    <path
       d="m 1155,2891 c -3,-6 3,-15 14,-21 12,-6 22,-6 26,-1 3,6 -3,15 -14,21 -12,6 -22,6 -26,1 z"
       id="path86"
       inkscape:connector-curvature="0" />
    <path
       d="m 1225,2851 c -3,-6 3,-15 14,-21 12,-6 22,-6 26,-1 3,6 -3,15 -14,21 -12,6 -22,6 -26,1 z"
       id="path88"
       inkscape:connector-curvature="0" />
    <path
       d="m 1905,2461 c -3,-6 3,-15 14,-21 12,-6 22,-6 26,-1 3,6 -3,15 -14,21 -12,6 -22,6 -26,1 z"
       id="path90"
       inkscape:connector-curvature="0" />
    <path
       d="m 1975,2421 c -3,-6 3,-15 14,-21 12,-6 22,-6 26,-1 3,6 -3,15 -14,21 -12,6 -22,6 -26,1 z"
       id="path92"
       inkscape:connector-curvature="0" />
    <path
       d="m 2655,2031 c -3,-6 3,-15 14,-21 12,-6 22,-6 26,-1 3,6 -3,15 -14,21 -12,6 -22,6 -26,1 z"
       id="path94"
       inkscape:connector-curvature="0" />
    <path
       d="m 2725,1991 c -3,-6 3,-15 14,-21 12,-6 22,-6 26,-1 3,6 -3,15 -14,21 -12,6 -22,6 -26,1 z"
       id="path96"
       inkscape:connector-curvature="0" />
    <path
       d="m 3405,1601 c -3,-6 3,-15 14,-21 12,-6 22,-6 26,-1 3,6 -3,15 -14,21 -12,6 -22,6 -26,1 z"
       id="path98"
       inkscape:connector-curvature="0" />
    <path
       d="m 3475,1561 c -3,-6 3,-15 14,-21 12,-6 22,-6 26,-1 3,6 -3,15 -14,21 -12,6 -22,6 -26,1 z"
       id="path100"
       inkscape:connector-curvature="0" />
  </g>
  <g
     id="g102"
     style="fill:#cb248b;stroke:none"
     transform="translate(-30.670086,-1407.5911)">
    <path
       d="M 1880,8862 45,7795 43,6765 C 41,6198 44,5236 48,4626 L 55,3518 1885,2468 c 1007,-577 1840,-1054 1852,-1060 19,-9 253,124 1863,1058 l 1842,1069 -6,965 c -3,531 -6,1494 -6,2140 l 0,1176 -1844,1057 c -1014,581 -1849,1057 -1857,1057 -8,-1 -840,-481 -1849,-1068 z m 674,-572 c 449,-98 830,-396 1018,-797 34,-72 44,-86 81,-104 48,-24 71,-48 97,-104 32,-66 21,-170 -22,-223 -8,-9 -12,-79 -14,-215 -1,-138 -6,-222 -17,-265 l -15,-62 30,-22 c 17,-11 37,-36 44,-54 43,-102 -19,-204 -123,-204 l -42,0 -36,-72 c -62,-123 -145,-237 -263,-359 l -112,-117 2,-1213 3,-1214 1335,0 1335,0 0,2000 0,2000 -520,0 -520,0 -5,-247 c -5,-229 -6,-249 -26,-275 -41,-56 -71,-63 -264,-63 -193,0 -223,7 -264,63 -20,26 -21,46 -26,275 l -5,247 -150,3 -150,2 0,70 0,70 1018,0 c 1004,0 1017,0 1037,-20 20,-20 20,-33 20,-2116 0,-2120 0,-2124 -34,-2146 -14,-10 -2878,-10 -2892,0 -33,22 -34,41 -34,1251 0,660 -4,1202 -8,1205 -5,3 -52,-18 -106,-46 -98,-50 -320,-124 -446,-149 -99,-20 -385,-16 -500,5 -294,56 -547,187 -760,392 -183,178 -292,351 -375,597 -63,190 -78,299 -71,512 5,174 16,242 62,393 116,384 385,699 759,890 51,25 225,84 333,112 164,41 434,41 626,0 z M 4176,6478 c 86,-95 27,-238 -99,-238 -60,0 -96,19 -122,64 -37,63 -30,122 18,175 32,34 55,41 116,37 47,-2 58,-8 87,-38 z m 421,22 c 87,-52 83,-198 -6,-245 -98,-50 -211,16 -211,123 0,85 56,142 140,142 27,0 58,-8 77,-20 z m 459,-11 c 30,-27 54,-77 54,-111 0,-12 -9,-41 -20,-64 -34,-69 -119,-94 -196,-58 -79,38 -94,163 -27,226 37,34 49,38 111,34 38,-2 59,-9 78,-27 z m 432,11 c 85,-52 81,-199 -7,-245 -66,-34 -155,-11 -191,48 -24,39 -26,107 -5,148 35,66 135,90 203,49 z M 3683,6066 c 76,-32 109,-122 72,-199 -18,-38 -81,-77 -123,-77 -42,0 -101,32 -122,65 -31,49 -27,125 7,166 46,55 106,71 166,45 z m 478,-16 c 15,-11 35,-40 45,-65 43,-114 -54,-218 -175,-185 -69,18 -111,90 -96,166 7,39 62,100 97,107 39,8 100,-3 129,-23 z m 435,5 c 92,-60 83,-209 -16,-249 -52,-20 -75,-20 -126,3 -99,45 -99,201 0,251 47,24 101,22 142,-5 z m 461,-11 c 87,-66 57,-216 -48,-244 -117,-32 -211,61 -178,177 12,45 52,85 94,96 37,10 99,-4 132,-29 z m 406,22 c 77,-33 109,-122 71,-201 -19,-40 -76,-75 -124,-75 -48,0 -105,35 -124,75 -59,123 56,253 177,201 z M 3708,5610 c 36,-22 62,-72 62,-120 0,-48 -26,-98 -62,-120 -40,-24 -107,-26 -149,-5 -93,49 -91,209 4,250 46,20 107,18 145,-5 z m 439,0 c 44,-26 66,-64 67,-113 2,-91 -51,-147 -139,-147 -59,0 -101,24 -126,72 -24,47 -24,81 1,133 34,70 129,97 197,55 z m 439,4 c 96,-46 99,-200 5,-249 -96,-49 -211,16 -211,120 0,110 106,176 206,129 z m 451,-4 c 67,-40 88,-112 54,-182 -26,-54 -65,-78 -126,-78 -88,0 -141,56 -139,147 2,75 62,133 139,133 22,0 54,-9 72,-20 z m 444,5 c 42,-22 69,-71 69,-125 0,-83 -57,-140 -140,-140 -23,0 -54,7 -71,15 -93,49 -91,209 4,250 43,19 101,19 138,0 z M 3732,5143 c 62,-63 46,-178 -31,-221 -46,-26 -91,-28 -138,-5 -49,23 -73,66 -73,132 0,49 3,57 40,93 40,40 40,40 105,36 57,-3 70,-8 97,-35 z m 424,18 c 21,-13 38,-36 49,-65 15,-40 16,-52 5,-91 -44,-158 -280,-124 -280,41 0,40 30,94 64,115 41,25 121,25 162,0 z m 448,-2 c 80,-63 73,-189 -13,-237 -21,-12 -53,-22 -71,-22 -45,0 -106,37 -125,76 -30,65 -10,154 44,187 39,25 131,22 165,-4 z m 442,2 c 105,-64 70,-234 -53,-257 -76,-14 -153,36 -167,108 -10,53 14,119 53,145 43,29 122,31 167,4 z m 445,2 c 82,-49 79,-189 -5,-238 -52,-31 -96,-32 -146,-4 -54,30 -74,72 -68,139 5,46 11,59 42,87 31,29 42,33 92,33 35,0 67,-6 85,-17 z M 3700,4722 c 88,-43 93,-189 8,-242 -26,-17 -45,-20 -91,-17 -49,3 -63,8 -89,35 -27,26 -32,40 -35,89 -3,46 0,65 17,91 36,59 122,79 190,44 z m 476,-24 c 87,-96 28,-238 -100,-238 -62,0 -101,22 -126,70 -31,61 -23,119 23,169 32,34 55,41 116,37 47,-2 58,-8 87,-38 z m 409,28 c 72,-30 99,-138 52,-207 -29,-43 -60,-59 -117,-59 -25,0 -56,6 -70,13 -38,19 -70,74 -70,121 0,111 100,176 205,132 z m 481,-29 c 43,-46 52,-94 29,-153 -22,-58 -62,-84 -129,-84 -79,0 -117,31 -141,117 -9,34 12,96 42,125 38,34 49,38 112,34 48,-3 58,-7 87,-39 z m 422,23 c 85,-52 80,-203 -8,-247 -34,-17 -105,-16 -141,2 -93,49 -91,209 4,250 46,20 107,18 145,-5 z M 3683,4286 c 77,-33 109,-122 71,-201 -18,-39 -76,-74 -121,-75 -42,0 -102,31 -123,65 -31,49 -27,125 7,166 46,55 106,71 166,45 z m 455,-6 c 34,-15 47,-29 64,-67 19,-42 20,-53 9,-93 -15,-56 -43,-87 -92,-101 -170,-51 -266,189 -104,262 51,23 70,23 123,-1 z m 460,-6 c 91,-59 79,-209 -18,-248 -52,-20 -75,-20 -126,3 -109,50 -94,225 22,261 36,11 91,3 122,-16 z m 422,10 c 134,-54 109,-248 -35,-269 -86,-13 -158,46 -159,132 -1,66 20,104 74,131 53,26 67,27 120,6 z m 443,2 c 51,-22 79,-59 84,-113 7,-72 -16,-119 -69,-143 -53,-24 -76,-25 -128,-4 -58,23 -84,70 -78,140 9,101 100,159 191,120 z M 3700,3832 c 88,-47 93,-190 8,-242 -67,-41 -172,-15 -205,50 -19,38 -16,110 7,148 36,59 123,79 190,44 z m 440,3 c 66,-34 93,-111 65,-183 -22,-53 -67,-82 -129,-82 -63,0 -101,22 -127,72 -63,123 69,256 191,193 z m 446,-1 c 96,-46 99,-200 5,-249 -96,-49 -211,16 -211,120 0,110 106,176 206,129 z m 444,1 c 67,-35 93,-107 66,-180 -22,-57 -66,-85 -131,-85 -88,0 -141,56 -139,147 1,23 9,54 18,68 39,59 124,82 186,50 z m 445,1 c 97,-41 100,-202 6,-251 -99,-50 -211,16 -211,125 0,107 102,169 205,126 z"
       id="path104"
       inkscape:connector-curvature="0" />
    <path
       d="m 2637,8113 c -5,-8 -84,-257 -137,-431 -17,-56 -28,-107 -24,-113 3,-6 34,-24 68,-39 33,-15 86,-44 116,-63 30,-20 58,-33 62,-31 24,15 359,445 353,454 -21,34 -242,161 -364,210 -57,22 -68,24 -74,13 z"
       id="path106"
       inkscape:connector-curvature="0" />
    <path
       d="m 2110,7419 c -123,-32 -196,-74 -280,-158 -120,-121 -175,-254 -174,-421 1,-126 46,-254 124,-352 115,-145 282,-228 461,-228 102,0 250,43 325,95 121,83 213,213 249,350 30,115 12,289 -39,382 -8,15 -23,45 -32,66 -9,21 -50,71 -90,111 -86,86 -179,137 -296,160 -100,21 -156,19 -248,-5 z m 221,-486 c 53,-61 43,-155 -21,-188 -44,-23 -106,-22 -139,2 -64,48 -64,159 2,203 48,31 121,23 158,-17 z"
       id="path108"
       inkscape:connector-curvature="0" />
    <path
       d="m 1698,6173 c -93,-112 -288,-360 -288,-366 0,-2 33,-27 73,-54 73,-52 218,-128 307,-163 l 50,-20 14,28 c 16,31 166,501 166,521 0,6 -37,30 -82,51 -46,22 -102,51 -125,65 l -42,26 -73,-88 z"
       id="path110"
       inkscape:connector-curvature="0" />
  </g>
</svg>
