<?xml version="1.0" encoding="UTF-8" standalone="no"?>
<svg
   xmlns:dc="http://purl.org/dc/elements/1.1/"
   xmlns:cc="http://creativecommons.org/ns#"
   xmlns:rdf="http://www.w3.org/1999/02/22-rdf-syntax-ns#"
   xmlns:svg="http://www.w3.org/2000/svg"
   xmlns="http://www.w3.org/2000/svg"
   xmlns:sodipodi="http://sodipodi.sourceforge.net/DTD/sodipodi-0.dtd"
   xmlns:inkscape="http://www.inkscape.org/namespaces/inkscape"
   version="1.0"
   width="740.20001"
   height="853.30072"
   viewBox="0 0 7402.0001 8533.0072"
   preserveAspectRatio="xMidYMid meet"
   id="svg2"
   inkscape:version="0.91 r13725"
   sodipodi:docname="orchestra.svg">
  <metadata
     id="metadata18">
    <rdf:RDF>
      <cc:Work
         rdf:about="">
        <dc:format>image/svg+xml</dc:format>
        <dc:type
           rdf:resource="http://purl.org/dc/dcmitype/StillImage" />
        <dc:title></dc:title>
      </cc:Work>
    </rdf:RDF>
  </metadata>
  <defs
     id="defs16" />
  <sodipodi:namedview
     pagecolor="#ffffff"
     bordercolor="#666666"
     borderopacity="1"
     objecttolerance="10"
     gridtolerance="10"
     guidetolerance="10"
     inkscape:pageopacity="0"
     inkscape:pageshadow="2"
     inkscape:window-width="693"
     inkscape:window-height="480"
     id="namedview14"
     showgrid="false"
     fit-margin-top="0"
     fit-margin-left="0"
     fit-margin-right="0"
     fit-margin-bottom="0"
     inkscape:zoom="0.22412156"
     inkscape:cx="368.5"
     inkscape:cy="427.20001"
     inkscape:window-x="0"
     inkscape:window-y="23"
     inkscape:window-maximized="0"
     inkscape:current-layer="svg2" />
  <g
     id="g4"
     style="fill:#fffedb;stroke:none"
     transform="translate(-40,-1003.9929)">
    <path
       d="m 3255,8001 c -47,-22 -89,-63 -106,-106 -9,-22 -14,-192 -17,-672 l -4,-643 -33,-20 c -47,-29 -104,-95 -129,-149 -21,-45 -21,-60 -27,-696 -4,-357 -7,-677 -8,-709 l -1,-59 -227,225 c -126,123 -248,238 -272,254 -38,25 -54,29 -111,29 -58,0 -73,-4 -111,-30 -24,-16 -215,-201 -425,-410 -374,-372 -383,-381 -399,-438 -25,-87 -1,-162 74,-230 72,-65 168,-72 252,-18 24,15 171,152 325,304 155,152 285,277 290,277 5,0 139,-130 299,-289 l 290,-288 70,-11 c 105,-17 378,-35 456,-30 38,2 73,8 79,14 12,12 55,326 115,829 34,284 85,657 90,663 4,4 50,-344 124,-943 78,-622 58,-565 191,-565 97,0 324,17 420,31 l 75,12 290,288 c 160,159 295,289 300,289 6,0 127,-117 270,-260 l 260,-260 -301,-303 c -410,-413 -444,-450 -444,-488 0,-45 47,-89 95,-89 42,0 63,19 515,467 255,252 322,313 344,313 63,0 152,63 187,131 26,53 25,137 -2,192 -25,47 -736,762 -809,812 -38,26 -52,30 -109,30 -44,-1 -77,-7 -101,-19 -19,-11 -141,-124 -271,-253 l -236,-233 -6,211 c -4,117 -7,420 -7,674 0,271 -4,485 -10,516 -14,73 -54,134 -125,192 l -60,48 -5,653 -5,654 -31,39 c -16,21 -50,48 -74,61 -44,22 -48,22 -475,22 -397,0 -433,-2 -470,-19 z"
       id="path6"
       inkscape:connector-curvature="0" />
    <path
       d="m 3590,4074 c -217,-57 -381,-222 -436,-435 -23,-88 -15,-242 16,-323 72,-189 226,-333 407,-382 32,-8 99,-15 148,-16 196,-1 381,103 495,277 57,88 81,164 87,275 9,178 -46,319 -175,447 -82,81 -197,146 -291,163 -75,14 -186,11 -251,-6 z"
       id="path8"
       inkscape:connector-curvature="0" />
  </g>
  <g
     id="g10"
     style="fill:#cb248b;stroke:none"
     transform="translate(-40,-1003.9929)">
    <path
       d="M 1915,8485 C 919,7906 90,7422 73,7411 l -33,-21 1,-1508 c 1,-829 5,-1790 8,-2136 l 6,-630 1845,-1058 c 1103,-633 1852,-1056 1863,-1054 9,2 841,483 1848,1068 l 1831,1063 -6,1319 c -3,726 -6,1689 -6,2142 l 0,822 -1846,1058 c -1015,583 -1849,1060 -1853,1061 -3,0 -820,-473 -1816,-1052 z m 2308,-505 c 21,-14 46,-43 57,-66 19,-39 20,-62 20,-682 l 0,-641 43,-30 c 62,-43 103,-89 129,-146 l 23,-50 3,-695 c 2,-482 6,-698 14,-707 8,-10 56,31 217,189 234,231 280,270 335,288 58,19 140,7 184,-26 57,-43 748,-732 779,-777 25,-36 28,-49 28,-121 0,-71 -3,-86 -27,-122 -28,-44 -111,-94 -155,-94 -31,0 -58,-25 -459,-422 -216,-214 -355,-344 -378,-353 -54,-23 -106,6 -121,67 -9,35 -4,40 409,455 l 341,343 -265,265 c -146,146 -269,265 -275,265 -5,0 -140,-130 -300,-289 l -290,-289 -65,-11 c -101,-17 -345,-33 -450,-29 l -95,3 -67,540 c -85,685 -117,925 -124,937 -13,21 -26,-13 -39,-108 -7,-54 -48,-376 -90,-714 -41,-338 -78,-625 -81,-637 -4,-22 -8,-23 -112,-23 -140,0 -358,17 -447,36 l -70,14 -287,287 -287,287 -293,-290 c -177,-175 -309,-298 -333,-309 -64,-32 -150,-27 -210,10 -92,57 -127,184 -78,280 13,24 176,194 410,427 411,408 411,408 502,408 92,0 126,-26 458,-354 103,-101 154,-145 157,-135 3,7 9,329 13,714 l 8,700 35,64 c 25,47 48,73 91,103 l 57,41 4,646 3,646 24,43 c 26,44 56,69 100,83 14,4 227,7 472,6 l 445,-2 37,-25 z M 3870,4065 c 98,-26 180,-75 260,-155 87,-86 122,-147 150,-256 71,-276 -54,-551 -305,-669 -102,-48 -161,-59 -284,-52 -81,4 -122,11 -175,31 -173,66 -302,212 -352,398 -32,123 -11,294 51,418 67,133 207,242 365,284 71,19 220,20 290,1 z"
       id="path12"
       inkscape:connector-curvature="0" />
  </g>
</svg>
