<!DOCTYPE svg PUBLIC "-//W3C//DTD SVG 20010904//EN" "http://www.w3.org/TR/2001/REC-SVG-20010904/DTD/svg10.dtd">
<svg version="1.0" xmlns="http://www.w3.org/2000/svg" width="283px" height="326px" viewBox="0 0 2830 3260" preserveAspectRatio="xMidYMid meet"><g fill="#fffedb" stroke="none">
 <path d="M1105 2584 c-93 -9 -231 -36 -303 -59 -95 -30 -165 -75 -200 -128 -24 -35 -27 -50 -26 -116 0 -91 15 -123 89 -197 83 -84 223 -167 408 -244 93 -39 117 -65 117 -130 0 -41 -7 -56 -51 -116 -68 -93 -93 -136 -124 -219 -93 -245 -65 -471 76 -620 173 -183 495 -181 662 4 85 95 119 193 118 348 0 170 -55 327 -165 474 -62 82 -76 135 -53 191 13 31 25 38 123 77 163 64 286 135 371 215 94 88 113 124 113 216 0 82 -12 112 -69 163 -49 44 -77 59 -163 86 -150 46 -227 53 -563 56 -176 2 -338 1 -360 -1z"/>
 </g>

<g fill="#cb248b" stroke="none">
 <path d="M1360 3239 c-19 -10 -332 -188 -695 -397 l-660 -379 -3 -829 -2 -829 637 -370 c735 -427 749 -435 773 -435 26 0 46 11 765 423 l650 373 3 830 2 829 -657 382 c-362 210 -675 391 -696 402 -45 25 -70 25 -117 0z m480 -684 c136 -21 206 -41 279 -78 89 -44 123 -90 129 -167 6 -87 -12 -142 -70 -206 -81 -88 -227 -175 -411 -245 -116 -43 -141 -71 -135 -149 3 -49 10 -64 56 -124 104 -135 160 -283 169 -442 16 -285 -121 -470 -373 -505 -104 -15 -184 -2 -280 46 -153 75 -225 210 -225 420 0 172 59 340 173 490 46 60 53 76 53 115 0 63 -30 102 -102 130 -250 99 -448 232 -494 333 -23 51 -26 165 -5 205 56 106 258 175 576 196 125 8 568 -4 660 -19z"/>
 </g>

</svg>