<?xml version="1.0" encoding="UTF-8" standalone="no"?>
<svg
   xmlns:dc="http://purl.org/dc/elements/1.1/"
   xmlns:cc="http://creativecommons.org/ns#"
   xmlns:rdf="http://www.w3.org/1999/02/22-rdf-syntax-ns#"
   xmlns:svg="http://www.w3.org/2000/svg"
   xmlns="http://www.w3.org/2000/svg"
   xmlns:sodipodi="http://sodipodi.sourceforge.net/DTD/sodipodi-0.dtd"
   xmlns:inkscape="http://www.inkscape.org/namespaces/inkscape"
   version="1.0"
   width="739.91425"
   height="850.31775"
   viewBox="0 0 7399.1425 8503.1775"
   preserveAspectRatio="xMidYMid meet"
   id="svg2"
   inkscape:version="0.91 r13725"
   sodipodi:docname="release_group2.svg">
  <metadata
     id="metadata506">
    <rdf:RDF>
      <cc:Work
         rdf:about="">
        <dc:format>image/svg+xml</dc:format>
        <dc:type
           rdf:resource="http://purl.org/dc/dcmitype/StillImage" />
        <dc:title></dc:title>
      </cc:Work>
    </rdf:RDF>
  </metadata>
  <defs
     id="defs504" />
  <sodipodi:namedview
     pagecolor="#ffffff"
     bordercolor="#666666"
     borderopacity="1"
     objecttolerance="10"
     gridtolerance="10"
     guidetolerance="10"
     inkscape:pageopacity="0"
     inkscape:pageshadow="2"
     inkscape:window-width="693"
     inkscape:window-height="480"
     id="namedview502"
     showgrid="false"
     fit-margin-top="0"
     fit-margin-left="0"
     fit-margin-right="0"
     fit-margin-bottom="0"
     inkscape:zoom="0.22412156"
     inkscape:cx="368.41421"
     inkscape:cy="394.47479"
     inkscape:window-x="0"
     inkscape:window-y="23"
     inkscape:window-maximized="0"
     inkscape:current-layer="svg2" />
  <g
     id="g4"
     style="fill:#fffedb;stroke:none"
     transform="translate(-40.857864,-706.57032)">
    <path
       d="m 3722,9198 c -7,-7 -12,-9 -12,-5 0,4 -9,3 -20,-3 -11,-6 -18,-15 -15,-21 4,-5 15,-4 28,3 24,13 67,15 84,5 7,-4 14,-3 18,3 6,10 5,11 -14,14 -5,0 -13,4 -17,9 -11,11 -39,8 -52,-5 z"
       id="path6"
       inkscape:connector-curvature="0" />
    <path
       d="m 3835,9161 c -3,-6 3,-15 14,-21 12,-6 22,-6 26,-1 3,6 -3,15 -14,21 -12,6 -22,6 -26,1 z"
       id="path8"
       inkscape:connector-curvature="0" />
    <path
       d="m 3615,9146 c -11,-8 -14,-16 -8,-19 6,-4 18,0 28,7 11,8 14,16 8,19 -6,4 -18,0 -28,-7 z"
       id="path10"
       inkscape:connector-curvature="0" />
    <path
       d="m 3885,9131 c -3,-6 3,-15 14,-21 12,-6 22,-6 26,-1 3,6 -3,15 -14,21 -12,6 -22,6 -26,1 z"
       id="path12"
       inkscape:connector-curvature="0" />
    <path
       d="m 3557,9114 c -38,-20 -24,-38 14,-19 16,9 27,20 24,25 -7,12 -4,13 -38,-6 z"
       id="path14"
       inkscape:connector-curvature="0" />
    <path
       d="m 3955,9091 c -3,-6 3,-15 14,-21 12,-6 22,-6 26,-1 3,6 -3,15 -14,21 -12,6 -22,6 -26,1 z"
       id="path16"
       inkscape:connector-curvature="0" />
    <path
       d="m 3495,9076 c -11,-8 -14,-16 -8,-19 6,-4 18,0 28,7 11,8 14,16 8,19 -6,4 -18,0 -28,-7 z"
       id="path18"
       inkscape:connector-curvature="0" />
    <path
       d="m 4025,9051 c -3,-6 3,-15 14,-21 12,-6 22,-6 26,-1 3,6 -3,15 -14,21 -12,6 -22,6 -26,1 z"
       id="path20"
       inkscape:connector-curvature="0" />
    <path
       d="m 3425,9036 c -11,-8 -14,-16 -8,-19 6,-4 18,0 28,7 11,8 14,16 8,19 -6,4 -18,0 -28,-7 z"
       id="path22"
       inkscape:connector-curvature="0" />
    <path
       d="m 4075,9021 c -3,-6 3,-15 14,-21 12,-6 22,-6 26,-1 3,6 -3,15 -14,21 -12,6 -22,6 -26,1 z"
       id="path24"
       inkscape:connector-curvature="0" />
    <path
       d="m 3355,8996 c -11,-8 -14,-16 -8,-19 6,-4 18,0 28,7 11,8 14,16 8,19 -6,4 -18,0 -28,-7 z"
       id="path26"
       inkscape:connector-curvature="0" />
    <path
       d="m 4145,8981 c -3,-6 3,-15 14,-21 12,-6 22,-6 26,-1 3,6 -3,15 -14,21 -12,6 -22,6 -26,1 z"
       id="path28"
       inkscape:connector-curvature="0" />
    <path
       d="m 3285,8956 c -11,-8 -14,-16 -8,-19 6,-4 18,0 28,7 11,8 14,16 8,19 -6,4 -18,0 -28,-7 z"
       id="path30"
       inkscape:connector-curvature="0" />
    <path
       d="m 4215,8941 c -3,-6 3,-15 14,-21 12,-6 22,-6 26,-1 3,6 -3,15 -14,21 -12,6 -22,6 -26,1 z"
       id="path32"
       inkscape:connector-curvature="0" />
    <path
       d="m 3227,8924 c -38,-20 -24,-38 14,-19 16,9 27,20 24,25 -7,12 -4,13 -38,-6 z"
       id="path34"
       inkscape:connector-curvature="0" />
    <path
       d="m 4265,8911 c -3,-6 3,-15 14,-21 12,-6 22,-6 26,-1 3,6 -3,15 -14,21 -12,6 -22,6 -26,1 z"
       id="path36"
       inkscape:connector-curvature="0" />
    <path
       d="m 3165,8886 c -11,-8 -14,-16 -8,-19 6,-4 18,0 28,7 11,8 14,16 8,19 -6,4 -18,0 -28,-7 z"
       id="path38"
       inkscape:connector-curvature="0" />
    <path
       d="m 4335,8871 c -3,-6 3,-15 14,-21 12,-6 22,-6 26,-1 3,6 -3,15 -14,21 -12,6 -22,6 -26,1 z"
       id="path40"
       inkscape:connector-curvature="0" />
    <path
       d="m 3095,8846 c -11,-8 -14,-16 -8,-19 6,-4 18,0 28,7 11,8 14,16 8,19 -6,4 -18,0 -28,-7 z"
       id="path42"
       inkscape:connector-curvature="0" />
    <path
       d="m 4405,8831 c -3,-6 3,-15 14,-21 12,-6 22,-6 26,-1 3,6 -3,15 -14,21 -12,6 -22,6 -26,1 z"
       id="path44"
       inkscape:connector-curvature="0" />
    <path
       d="m 3025,8806 c -11,-8 -14,-16 -8,-19 6,-4 18,0 28,7 11,8 14,16 8,19 -6,4 -18,0 -28,-7 z"
       id="path46"
       inkscape:connector-curvature="0" />
    <path
       d="m 4455,8801 c -3,-6 3,-15 14,-21 12,-6 22,-6 26,-1 3,6 -3,15 -14,21 -12,6 -22,6 -26,1 z"
       id="path48"
       inkscape:connector-curvature="0" />
    <path
       d="m 2955,8766 c -11,-8 -14,-16 -8,-19 6,-4 18,0 28,7 11,8 14,16 8,19 -6,4 -18,0 -28,-7 z"
       id="path50"
       inkscape:connector-curvature="0" />
    <path
       d="m 4525,8761 c -3,-6 3,-15 14,-21 12,-6 22,-6 26,-1 3,6 -3,15 -14,21 -12,6 -22,6 -26,1 z"
       id="path52"
       inkscape:connector-curvature="0" />
    <path
       d="m 2897,8734 c -38,-20 -24,-38 14,-19 16,9 27,20 24,25 -7,12 -4,13 -38,-6 z"
       id="path54"
       inkscape:connector-curvature="0" />
    <path
       d="m 4595,8721 c -3,-6 3,-15 14,-21 12,-6 22,-6 26,-1 3,6 -3,15 -14,21 -12,6 -22,6 -26,1 z"
       id="path56"
       inkscape:connector-curvature="0" />
    <path
       d="m 2827,8694 c -38,-20 -24,-38 14,-19 16,9 27,20 24,25 -7,12 -4,13 -38,-6 z"
       id="path58"
       inkscape:connector-curvature="0" />
    <path
       d="m 4645,8691 c -3,-6 3,-15 14,-21 12,-6 22,-6 26,-1 3,6 -3,15 -14,21 -12,6 -22,6 -26,1 z"
       id="path60"
       inkscape:connector-curvature="0" />
    <path
       d="m 2765,8656 c -11,-8 -14,-16 -8,-19 6,-4 18,0 28,7 11,8 14,16 8,19 -6,4 -18,0 -28,-7 z"
       id="path62"
       inkscape:connector-curvature="0" />
    <path
       d="m 4715,8651 c -3,-6 3,-15 14,-21 12,-6 22,-6 26,-1 3,6 -3,15 -14,21 -12,6 -22,6 -26,1 z"
       id="path64"
       inkscape:connector-curvature="0" />
    <path
       d="m 2695,8616 c -11,-8 -14,-16 -8,-19 6,-4 18,0 28,7 11,8 14,16 8,19 -6,4 -18,0 -28,-7 z"
       id="path66"
       inkscape:connector-curvature="0" />
    <path
       d="m 4785,8611 c -3,-6 3,-15 14,-21 12,-6 22,-6 26,-1 3,6 -3,15 -14,21 -12,6 -22,6 -26,1 z"
       id="path68"
       inkscape:connector-curvature="0" />
    <path
       d="m 2625,8576 c -11,-8 -14,-16 -8,-19 6,-4 18,0 28,7 11,8 14,16 8,19 -6,4 -18,0 -28,-7 z"
       id="path70"
       inkscape:connector-curvature="0" />
    <path
       d="m 4835,8581 c -3,-6 3,-15 14,-21 12,-6 22,-6 26,-1 3,6 -3,15 -14,21 -12,6 -22,6 -26,1 z"
       id="path72"
       inkscape:connector-curvature="0" />
    <path
       d="m 2567,8544 c -38,-20 -24,-38 14,-19 16,9 27,20 24,25 -7,12 -4,13 -38,-6 z"
       id="path74"
       inkscape:connector-curvature="0" />
    <path
       d="m 4905,8541 c -3,-6 3,-15 14,-21 12,-6 22,-6 26,-1 3,6 -3,15 -14,21 -12,6 -22,6 -26,1 z"
       id="path76"
       inkscape:connector-curvature="0" />
    <path
       d="m 2497,8504 c -38,-20 -24,-38 14,-19 16,9 27,20 24,25 -7,12 -4,13 -38,-6 z"
       id="path78"
       inkscape:connector-curvature="0" />
    <path
       d="m 4975,8501 c -3,-6 3,-15 14,-21 12,-6 22,-6 26,-1 3,6 -3,15 -14,21 -12,6 -22,6 -26,1 z"
       id="path80"
       inkscape:connector-curvature="0" />
    <path
       d="m 2435,8466 c -11,-8 -14,-16 -8,-19 6,-4 18,0 28,7 11,8 14,16 8,19 -6,4 -18,0 -28,-7 z"
       id="path82"
       inkscape:connector-curvature="0" />
    <path
       d="m 5025,8471 c -3,-6 3,-15 14,-21 12,-6 22,-6 26,-1 3,6 -3,15 -14,21 -12,6 -22,6 -26,1 z"
       id="path84"
       inkscape:connector-curvature="0" />
    <path
       d="m 2365,8426 c -11,-8 -14,-16 -8,-19 6,-4 18,0 28,7 11,8 14,16 8,19 -6,4 -18,0 -28,-7 z"
       id="path86"
       inkscape:connector-curvature="0" />
    <path
       d="m 5095,8431 c -3,-6 3,-15 14,-21 12,-6 22,-6 26,-1 3,6 -3,15 -14,21 -12,6 -22,6 -26,1 z"
       id="path88"
       inkscape:connector-curvature="0" />
    <path
       d="m 2295,8386 c -11,-8 -14,-16 -8,-19 6,-4 18,0 28,7 11,8 14,16 8,19 -6,4 -18,0 -28,-7 z"
       id="path90"
       inkscape:connector-curvature="0" />
    <path
       d="m 5165,8391 c -3,-6 3,-15 14,-21 12,-6 22,-6 26,-1 3,6 -3,15 -14,21 -12,6 -22,6 -26,1 z"
       id="path92"
       inkscape:connector-curvature="0" />
    <path
       d="m 5215,8361 c -3,-6 3,-15 14,-21 12,-6 22,-6 26,-1 3,6 -3,15 -14,21 -12,6 -22,6 -26,1 z"
       id="path94"
       inkscape:connector-curvature="0" />
    <path
       d="m 2225,8346 c -11,-8 -14,-16 -8,-19 6,-4 18,0 28,7 11,8 14,16 8,19 -6,4 -18,0 -28,-7 z"
       id="path96"
       inkscape:connector-curvature="0" />
    <path
       d="m 2167,8314 c -38,-20 -24,-38 14,-19 16,9 27,20 24,25 -7,12 -4,13 -38,-6 z"
       id="path98"
       inkscape:connector-curvature="0" />
    <path
       d="m 5285,8321 c -3,-6 3,-15 14,-21 12,-6 22,-6 26,-1 3,6 -3,15 -14,21 -12,6 -22,6 -26,1 z"
       id="path100"
       inkscape:connector-curvature="0" />
    <path
       d="m 2105,8276 c -11,-8 -14,-16 -8,-19 6,-4 18,0 28,7 11,8 14,16 8,19 -6,4 -18,0 -28,-7 z"
       id="path102"
       inkscape:connector-curvature="0" />
    <path
       d="m 5405,8251 c -3,-6 3,-15 14,-21 12,-6 22,-6 26,-1 3,6 -3,15 -14,21 -12,6 -22,6 -26,1 z"
       id="path104"
       inkscape:connector-curvature="0" />
    <path
       d="m 2035,8236 c -11,-8 -14,-16 -8,-19 6,-4 18,0 28,7 11,8 14,16 8,19 -6,4 -18,0 -28,-7 z"
       id="path106"
       inkscape:connector-curvature="0" />
    <path
       d="m 3117,8235 c -207,-34 -416,-116 -595,-235 -358,-238 -593,-596 -667,-1017 -20,-119 -20,-384 1,-494 93,-495 390,-891 829,-1108 135,-67 232,-101 379,-133 86,-19 129,-22 291,-21 166,1 205,5 309,28 402,90 736,322 958,665 100,153 157,287 206,480 25,98 27,119 27,330 0,199 -3,237 -23,329 -65,288 -198,528 -417,747 -215,216 -463,351 -760,416 -121,26 -413,33 -538,13 z m -365,-626 156,-231 -95,-95 c -63,-62 -100,-92 -110,-89 -12,5 -432,286 -452,302 -24,20 296,345 338,344 3,0 77,-104 163,-231 z m 789,-321 c 148,-54 254,-143 317,-266 55,-106 72,-170 72,-272 0,-120 -13,-182 -59,-275 -72,-145 -179,-238 -335,-290 -92,-31 -258,-35 -347,-9 -131,39 -246,121 -316,227 -70,104 -94,178 -100,309 -5,96 -3,116 20,190 29,93 80,184 135,242 71,74 196,142 307,166 73,16 233,5 306,-22 z m 652,-1132 c 243,-167 257,-177 257,-191 0,-29 -224,-258 -304,-310 l -28,-19 -22,29 c -53,72 -296,430 -296,436 0,4 21,25 48,47 26,22 65,63 87,90 22,28 45,51 51,52 6,0 99,-60 207,-134 z"
       id="path108"
       inkscape:connector-curvature="0" />
    <path
       d="m 3294,6866 c -59,-27 -95,-100 -79,-163 3,-15 23,-44 44,-65 34,-34 44,-38 87,-38 61,0 105,25 127,73 44,92 -10,192 -110,203 -21,2 -52,-2 -69,-10 z"
       id="path110"
       inkscape:connector-curvature="0" />
    <path
       d="m 5475,8211 c -3,-6 3,-15 14,-21 12,-6 22,-6 26,-1 3,6 -3,15 -14,21 -12,6 -22,6 -26,1 z"
       id="path112"
       inkscape:connector-curvature="0" />
    <path
       d="m 1965,8196 c -11,-8 -14,-16 -8,-19 6,-4 18,0 28,7 11,8 14,16 8,19 -6,4 -18,0 -28,-7 z"
       id="path114"
       inkscape:connector-curvature="0" />
    <path
       d="m 5525,8181 c -3,-6 3,-15 14,-21 12,-6 22,-6 26,-1 3,6 -3,15 -14,21 -12,6 -22,6 -26,1 z"
       id="path116"
       inkscape:connector-curvature="0" />
    <path
       d="m 1895,8156 c -11,-8 -14,-16 -8,-19 6,-4 18,0 28,7 11,8 14,16 8,19 -6,4 -18,0 -28,-7 z"
       id="path118"
       inkscape:connector-curvature="0" />
    <path
       d="m 5595,8141 c -3,-6 3,-15 14,-21 12,-6 22,-6 26,-1 3,6 -3,15 -14,21 -12,6 -22,6 -26,1 z"
       id="path120"
       inkscape:connector-curvature="0" />
    <path
       d="m 1837,8124 c -38,-20 -24,-38 14,-19 16,9 27,20 24,25 -7,12 -4,13 -38,-6 z"
       id="path122"
       inkscape:connector-curvature="0" />
    <path
       d="m 5665,8101 c -3,-6 3,-15 14,-21 12,-6 22,-6 26,-1 3,6 -3,15 -14,21 -12,6 -22,6 -26,1 z"
       id="path124"
       inkscape:connector-curvature="0" />
    <path
       d="m 1775,8086 c -11,-8 -14,-16 -8,-19 6,-4 18,0 28,7 11,8 14,16 8,19 -6,4 -18,0 -28,-7 z"
       id="path126"
       inkscape:connector-curvature="0" />
    <path
       d="m 5715,8071 c -3,-6 3,-15 14,-21 12,-6 22,-6 26,-1 3,6 -3,15 -14,21 -12,6 -22,6 -26,1 z"
       id="path128"
       inkscape:connector-curvature="0" />
    <path
       d="m 1705,8046 c -11,-8 -14,-16 -8,-19 6,-4 18,0 28,7 11,8 14,16 8,19 -6,4 -18,0 -28,-7 z"
       id="path130"
       inkscape:connector-curvature="0" />
    <path
       d="m 5785,8031 c -3,-6 3,-15 14,-21 12,-6 22,-6 26,-1 3,6 -3,15 -14,21 -12,6 -22,6 -26,1 z"
       id="path132"
       inkscape:connector-curvature="0" />
    <path
       d="m 1635,8006 c -11,-8 -14,-16 -8,-19 6,-4 18,0 28,7 11,8 14,16 8,19 -6,4 -18,0 -28,-7 z"
       id="path134"
       inkscape:connector-curvature="0" />
    <path
       d="m 5855,7991 c -3,-6 3,-15 14,-21 12,-6 22,-6 26,-1 3,6 -3,15 -14,21 -12,6 -22,6 -26,1 z"
       id="path136"
       inkscape:connector-curvature="0" />
    <path
       d="m 1565,7966 c -11,-8 -14,-16 -8,-19 6,-4 18,0 28,7 11,8 14,16 8,19 -6,4 -18,0 -28,-7 z"
       id="path138"
       inkscape:connector-curvature="0" />
    <path
       d="m 5905,7961 c -3,-6 3,-15 14,-21 12,-6 22,-6 26,-1 3,6 -3,15 -14,21 -12,6 -22,6 -26,1 z"
       id="path140"
       inkscape:connector-curvature="0" />
    <path
       d="m 1507,7934 c -38,-20 -24,-38 14,-19 16,9 27,20 24,25 -7,12 -4,13 -38,-6 z"
       id="path142"
       inkscape:connector-curvature="0" />
    <path
       d="m 5975,7921 c -3,-6 3,-15 14,-21 12,-6 22,-6 26,-1 3,6 -3,15 -14,21 -12,6 -22,6 -26,1 z"
       id="path144"
       inkscape:connector-curvature="0" />
    <path
       d="m 1437,7894 c -38,-20 -24,-38 14,-19 16,9 27,20 24,25 -7,12 -4,13 -38,-6 z"
       id="path146"
       inkscape:connector-curvature="0" />
    <path
       d="m 6045,7881 c -3,-6 3,-15 14,-21 12,-6 22,-6 26,-1 3,6 -3,15 -14,21 -12,6 -22,6 -26,1 z"
       id="path148"
       inkscape:connector-curvature="0" />
    <path
       d="m 1375,7856 c -11,-8 -14,-16 -8,-19 6,-4 18,0 28,7 11,8 14,16 8,19 -6,4 -18,0 -28,-7 z"
       id="path150"
       inkscape:connector-curvature="0" />
    <path
       d="m 6095,7851 c -3,-6 3,-15 14,-21 12,-6 22,-6 26,-1 3,6 -3,15 -14,21 -12,6 -22,6 -26,1 z"
       id="path152"
       inkscape:connector-curvature="0" />
    <path
       d="m 1305,7816 c -11,-8 -14,-16 -8,-19 6,-4 18,0 28,7 11,8 14,16 8,19 -6,4 -18,0 -28,-7 z"
       id="path154"
       inkscape:connector-curvature="0" />
    <path
       d="m 6165,7811 c -3,-6 3,-15 14,-21 12,-6 22,-6 26,-1 3,6 -3,15 -14,21 -12,6 -22,6 -26,1 z"
       id="path156"
       inkscape:connector-curvature="0" />
    <path
       d="m 1235,7776 c -11,-8 -14,-16 -8,-19 6,-4 18,0 28,7 11,8 14,16 8,19 -6,4 -18,0 -28,-7 z"
       id="path158"
       inkscape:connector-curvature="0" />
    <path
       d="m 6235,7771 c -3,-6 3,-15 14,-21 12,-6 22,-6 26,-1 3,6 -3,15 -14,21 -12,6 -22,6 -26,1 z"
       id="path160"
       inkscape:connector-curvature="0" />
    <path
       d="m 1177,7744 c -38,-20 -24,-38 14,-19 16,9 27,20 24,25 -7,12 -4,13 -38,-6 z"
       id="path162"
       inkscape:connector-curvature="0" />
    <path
       d="m 6285,7741 c -3,-6 3,-15 14,-21 12,-6 22,-6 26,-1 3,6 -3,15 -14,21 -12,6 -22,6 -26,1 z"
       id="path164"
       inkscape:connector-curvature="0" />
    <path
       d="m 1107,7704 c -38,-20 -24,-38 14,-19 16,9 27,20 24,25 -7,12 -4,13 -38,-6 z"
       id="path166"
       inkscape:connector-curvature="0" />
    <path
       d="m 6355,7701 c -3,-6 3,-15 14,-21 12,-6 22,-6 26,-1 3,6 -3,15 -14,21 -12,6 -22,6 -26,1 z"
       id="path168"
       inkscape:connector-curvature="0" />
    <path
       d="m 1045,7666 c -11,-8 -14,-16 -8,-19 6,-4 18,0 28,7 11,8 14,16 8,19 -6,4 -18,0 -28,-7 z"
       id="path170"
       inkscape:connector-curvature="0" />
    <path
       d="m 6425,7661 c -3,-6 3,-15 14,-21 12,-6 22,-6 26,-1 3,6 -3,15 -14,21 -12,6 -22,6 -26,1 z"
       id="path172"
       inkscape:connector-curvature="0" />
    <path
       d="m 975,7626 c -11,-8 -14,-16 -8,-19 6,-4 18,0 28,7 11,8 14,16 8,19 -6,4 -18,0 -28,-7 z"
       id="path174"
       inkscape:connector-curvature="0" />
    <path
       d="m 6475,7631 c -3,-6 3,-15 14,-21 12,-6 22,-6 26,-1 3,6 -3,15 -14,21 -12,6 -22,6 -26,1 z"
       id="path176"
       inkscape:connector-curvature="0" />
    <path
       d="m 905,7586 c -11,-8 -14,-16 -8,-19 6,-4 18,0 28,7 11,8 14,16 8,19 -6,4 -18,0 -28,-7 z"
       id="path178"
       inkscape:connector-curvature="0" />
    <path
       d="m 6545,7591 c -3,-6 3,-15 14,-21 12,-6 22,-6 26,-1 3,6 -3,15 -14,21 -12,6 -22,6 -26,1 z"
       id="path180"
       inkscape:connector-curvature="0" />
    <path
       d="m 835,7546 c -11,-8 -14,-16 -8,-19 6,-4 18,0 28,7 11,8 14,16 8,19 -6,4 -18,0 -28,-7 z"
       id="path182"
       inkscape:connector-curvature="0" />
    <path
       d="m 6615,7551 c -3,-6 3,-15 14,-21 12,-6 22,-6 26,-1 3,6 -3,15 -14,21 -12,6 -22,6 -26,1 z"
       id="path184"
       inkscape:connector-curvature="0" />
    <path
       d="m 777,7514 c -38,-20 -24,-38 14,-19 16,9 27,20 24,25 -7,12 -4,13 -38,-6 z"
       id="path186"
       inkscape:connector-curvature="0" />
    <path
       d="m 6665,7521 c -3,-6 3,-15 14,-21 12,-6 22,-6 26,-1 3,6 -3,15 -14,21 -12,6 -22,6 -26,1 z"
       id="path188"
       inkscape:connector-curvature="0" />
    <path
       d="m 715,7476 c -11,-8 -14,-16 -8,-19 6,-4 18,0 28,7 11,8 14,16 8,19 -6,4 -18,0 -28,-7 z"
       id="path190"
       inkscape:connector-curvature="0" />
    <path
       d="m 6735,7481 c -3,-6 3,-15 14,-21 12,-6 22,-6 26,-1 3,6 -3,15 -14,21 -12,6 -22,6 -26,1 z"
       id="path192"
       inkscape:connector-curvature="0" />
    <path
       d="m 645,7436 c -11,-8 -14,-16 -8,-19 6,-4 18,0 28,7 11,8 14,16 8,19 -6,4 -18,0 -28,-7 z"
       id="path194"
       inkscape:connector-curvature="0" />
    <path
       d="m 6805,7441 c -3,-6 3,-15 14,-21 12,-6 22,-6 26,-1 3,6 -3,15 -14,21 -12,6 -22,6 -26,1 z"
       id="path196"
       inkscape:connector-curvature="0" />
    <path
       d="m 6855,7411 c -3,-6 3,-15 14,-21 12,-6 22,-6 26,-1 3,6 -3,15 -14,21 -12,6 -22,6 -26,1 z"
       id="path198"
       inkscape:connector-curvature="0" />
    <path
       d="m 575,7396 c -11,-8 -14,-16 -8,-19 6,-4 18,0 28,7 11,8 14,16 8,19 -6,4 -18,0 -28,-7 z"
       id="path200"
       inkscape:connector-curvature="0" />
    <path
       d="m 6925,7371 c -3,-6 3,-15 14,-21 12,-6 22,-6 26,-1 3,6 -3,15 -14,21 -12,6 -22,6 -26,1 z"
       id="path202"
       inkscape:connector-curvature="0" />
    <path
       d="m 505,7356 c -11,-8 -14,-16 -8,-19 6,-4 18,0 28,7 11,8 14,16 8,19 -6,4 -18,0 -28,-7 z"
       id="path204"
       inkscape:connector-curvature="0" />
    <path
       d="m 447,7324 c -38,-20 -24,-38 14,-19 16,9 27,20 24,25 -7,12 -4,13 -38,-6 z"
       id="path206"
       inkscape:connector-curvature="0" />
    <path
       d="m 6995,7331 c -3,-6 3,-15 14,-21 12,-6 22,-6 26,-1 3,6 -3,15 -14,21 -12,6 -22,6 -26,1 z"
       id="path208"
       inkscape:connector-curvature="0" />
    <path
       d="m 7045,7301 c -3,-6 3,-15 14,-21 12,-6 22,-6 26,-1 3,6 -3,15 -14,21 -12,6 -22,6 -26,1 z"
       id="path210"
       inkscape:connector-curvature="0" />
    <path
       d="m 385,7286 c -11,-8 -14,-16 -8,-19 6,-4 18,0 28,7 11,8 14,16 8,19 -6,4 -18,0 -28,-7 z"
       id="path212"
       inkscape:connector-curvature="0" />
    <path
       d="m 7115,7261 c -3,-6 3,-15 14,-21 12,-6 22,-6 26,-1 3,6 -3,15 -14,21 -12,6 -22,6 -26,1 z"
       id="path214"
       inkscape:connector-curvature="0" />
    <path
       d="m 315,7246 c -11,-8 -14,-16 -8,-19 6,-4 18,0 28,7 11,8 14,16 8,19 -6,4 -18,0 -28,-7 z"
       id="path216"
       inkscape:connector-curvature="0" />
    <path
       d="m 7185,7221 c -3,-6 3,-15 14,-21 12,-6 22,-6 26,-1 3,6 -3,15 -14,21 -12,6 -22,6 -26,1 z"
       id="path218"
       inkscape:connector-curvature="0" />
    <path
       d="m 245,7206 c -11,-8 -14,-16 -8,-19 6,-4 18,0 28,7 11,8 14,16 8,19 -6,4 -18,0 -28,-7 z"
       id="path220"
       inkscape:connector-curvature="0" />
    <path
       d="m 7235,7191 c -3,-6 3,-15 14,-21 12,-6 22,-6 26,-1 3,6 -3,15 -14,21 -12,6 -22,6 -26,1 z"
       id="path222"
       inkscape:connector-curvature="0" />
    <path
       d="m 175,7166 c -11,-8 -14,-16 -8,-19 6,-4 18,0 28,7 11,8 14,16 8,19 -6,4 -18,0 -28,-7 z"
       id="path224"
       inkscape:connector-curvature="0" />
    <path
       d="m 7305,7151 c -3,-6 3,-15 14,-21 12,-6 22,-6 26,-1 3,6 -3,15 -14,21 -12,6 -22,6 -26,1 z"
       id="path226"
       inkscape:connector-curvature="0" />
    <path
       d="m 113,7130 c -35,-21 -65,-59 -57,-72 3,-4 20,7 37,24 18,18 41,38 51,44 12,6 16,13 10,17 -6,3 -24,-2 -41,-13 z"
       id="path228"
       inkscape:connector-curvature="0" />
    <path
       d="m 7355,7121 c -3,-6 3,-15 14,-21 12,-6 22,-6 26,-1 3,6 -3,15 -14,21 -12,6 -22,6 -26,1 z"
       id="path230"
       inkscape:connector-curvature="0" />
    <path
       d="m 7427,7033 c -11,-11 -8,-381 3,-388 7,-4 10,63 10,194 0,111 -1,201 -3,201 -2,0 -7,-3 -10,-7 z"
       id="path232"
       inkscape:connector-curvature="0" />
    <path
       d="m 45,6449 c -10,-27 0,-2104 10,-2104 7,0 11,358 13,1049 2,975 -1,1112 -23,1055 z"
       id="path234"
       inkscape:connector-curvature="0" />
    <path
       d="m 5920,5904 c -195,-91 -384,-178 -420,-193 -36,-16 -366,-169 -735,-341 -368,-172 -839,-391 -1045,-487 -206,-96 -385,-184 -397,-195 -32,-29 -35,-49 -19,-94 13,-36 288,-632 504,-1089 49,-104 89,-197 89,-205 1,-26 328,-710 357,-747 26,-31 33,-35 65,-30 20,3 322,137 671,299 349,161 649,299 665,304 59,22 1010,467 1020,478 12,13 81,46 96,46 27,0 506,233 527,256 40,45 35,59 -136,414 -43,91 -114,242 -157,335 -43,94 -84,177 -91,185 -16,19 -155,317 -199,425 -18,44 -103,231 -189,415 -156,334 -191,391 -234,389 -9,0 -177,-74 -372,-165 z m 493,-379 c 291,-622 597,-1287 597,-1299 0,-3 20,-51 45,-106 25,-55 45,-104 45,-108 0,-4 -66,-39 -147,-76 -82,-38 -189,-91 -239,-117 -50,-27 -98,-49 -106,-49 -9,0 -53,-18 -99,-39 -46,-22 -275,-128 -509,-236 -234,-108 -432,-202 -440,-209 -34,-29 -1192,-558 -1201,-549 -5,5 -11,18 -13,29 -6,28 -266,585 -285,610 -9,11 -44,81 -78,155 -34,74 -158,341 -276,595 l -214,461 181,83 c 100,46 188,87 197,91 11,6 32,-2 65,-23 178,-114 360,-218 381,-218 13,0 257,108 541,239 774,358 868,402 897,425 25,20 29,36 64,259 21,131 42,242 47,246 20,19 379,180 385,173 4,-4 77,-155 162,-337 z m -756,-43 c -9,-42 -18,-97 -21,-122 l -7,-45 -292,-137 c -161,-76 -456,-214 -656,-307 l -364,-169 -124,75 c -68,42 -122,77 -121,78 3,3 621,290 1258,585 140,65 273,128 295,140 l 40,21 3,-21 c 2,-12 -3,-56 -11,-98 z"
       id="path236"
       inkscape:connector-curvature="0" />
    <path
       d="m 6005,5023 c -114,-41 -209,-154 -235,-278 -40,-193 98,-387 302,-425 148,-29 324,70 390,218 11,24 22,76 25,116 11,149 -65,279 -206,352 -71,37 -199,44 -276,17 z m 215,-175 c 35,-18 51,-35 73,-77 30,-60 33,-106 13,-164 -19,-51 -42,-76 -93,-99 -125,-56 -256,12 -277,144 -24,152 143,267 284,196 z"
       id="path238"
       inkscape:connector-curvature="0" />
    <path
       d="m 5440,4756 c -89,-32 -487,-219 -574,-271 -104,-61 -104,-56 40,-367 64,-139 124,-261 133,-271 30,-36 48,-39 108,-18 119,40 623,281 655,313 32,32 21,74 -68,266 -125,270 -161,339 -186,356 -28,20 -29,20 -108,-8 z m 103,-347 c 43,-94 77,-173 74,-175 -2,-2 -108,-53 -236,-114 l -231,-109 -29,57 c -62,124 -132,284 -126,291 6,6 455,219 465,220 3,0 40,-76 83,-170 z"
       id="path240"
       inkscape:connector-curvature="0" />
    <path
       d="m 4388,4265 c -101,-28 -182,-96 -235,-197 -24,-47 -27,-64 -28,-153 0,-91 3,-105 29,-158 35,-68 103,-135 177,-173 48,-25 65,-28 149,-29 102,0 164,19 209,64 12,12 23,20 26,19 9,-5 86,95 101,130 7,18 19,63 25,98 18,105 -12,200 -93,289 -95,105 -230,146 -360,110 z m 159,-171 c 60,-20 77,-35 104,-90 35,-73 22,-181 -28,-226 -29,-27 -105,-58 -141,-58 -132,-1 -228,144 -177,267 26,62 69,96 140,114 45,11 50,10 102,-7 z"
       id="path242"
       inkscape:connector-curvature="0" />
    <path
       d="m 6455,4153 c -46,-12 -1782,-826 -1803,-845 -49,-46 -9,-141 60,-140 19,0 551,244 1638,752 190,89 207,100 216,147 6,33 4,40 -27,65 -33,28 -45,31 -84,21 z"
       id="path244"
       inkscape:connector-curvature="0" />
    <path
       d="m 1256,5180 c -70,-12 -147,-55 -204,-114 -50,-52 -558,-824 -587,-892 -61,-146 -19,-327 99,-430 70,-61 1919,-1263 1981,-1287 71,-29 191,-28 268,2 109,43 148,91 443,543 166,256 276,434 287,468 56,164 -9,346 -160,448 -180,122 -1855,1208 -1893,1227 -25,13 -72,28 -105,34 -64,12 -60,12 -129,1 z m 125,-437 c 22,-14 38,-31 36,-37 -3,-6 -79,-125 -170,-265 -91,-140 -164,-258 -161,-262 2,-5 59,24 125,62 l 120,70 49,-31 c 28,-18 50,-35 50,-39 0,-3 -7,-62 -15,-131 -9,-75 -11,-128 -5,-134 5,-5 30,24 63,75 160,247 287,439 292,439 11,0 85,-53 85,-61 0,-6 -462,-724 -476,-738 -2,-2 -24,10 -49,25 -29,19 -45,36 -45,49 0,11 9,105 21,208 13,115 18,192 12,198 -6,6 -80,-32 -191,-97 l -181,-106 -46,28 c -25,16 -45,33 -45,37 0,13 474,737 482,737 5,0 27,-12 49,-27 z m 646,-420 c 24,-16 41,-33 39,-40 -3,-6 -48,-77 -100,-158 -53,-80 -96,-150 -96,-155 0,-4 56,-44 124,-89 69,-44 137,-96 151,-115 89,-117 57,-295 -67,-365 -64,-37 -137,-47 -198,-28 -56,17 -382,226 -378,243 4,14 471,734 477,734 2,0 24,-12 48,-27 z m 763,-507 c 53,-19 173,-100 208,-141 63,-71 76,-189 31,-277 -27,-52 -54,-76 -126,-109 l -63,-29 0,-61 c 0,-87 -18,-137 -66,-185 -53,-53 -125,-79 -201,-71 -62,6 -176,66 -249,130 -77,67 -104,190 -63,284 l 14,33 47,-31 c 43,-28 46,-33 37,-55 -28,-74 -1,-120 113,-195 100,-66 137,-73 192,-39 46,28 80,93 73,137 -7,43 -33,72 -110,125 l -57,39 30,44 c 17,25 33,45 36,45 2,0 35,-19 71,-42 101,-64 161,-55 221,32 49,72 20,134 -100,215 -71,47 -89,55 -130,55 -35,0 -54,-6 -77,-26 l -31,-26 -45,26 c -25,15 -45,31 -45,36 0,15 75,73 111,86 45,16 135,16 179,0 z"
       id="path246"
       inkscape:connector-curvature="0" />
    <path
       d="m 1734,3769 c -37,-57 -67,-110 -68,-118 -1,-16 126,-107 219,-157 40,-21 58,-26 87,-20 46,8 104,71 114,122 12,64 -12,94 -143,182 -65,43 -124,82 -130,86 -9,5 -34,-26 -79,-95 z"
       id="path248"
       inkscape:connector-curvature="0" />
    <path
       d="m 46,2871 c -4,-5 -2,-12 4,-16 6,-4 8,-10 5,-15 -3,-5 -1,-11 4,-14 5,-4 12,-2 15,3 4,5 2,12 -4,16 -6,4 -8,10 -5,15 3,5 1,11 -4,14 -5,4 -12,2 -15,-3 z"
       id="path250"
       inkscape:connector-curvature="0" />
    <path
       d="m 7419,2865 c -1,-3 -2,-8 -3,-12 -1,-5 -5,-13 -9,-20 -4,-6 -3,-14 3,-18 5,-3 10,-5 11,-3 6,22 8,58 4,58 -3,0 -6,-2 -6,-5 z"
       id="path252"
       inkscape:connector-curvature="0" />
    <path
       d="m 115,2791 c -3,-6 3,-15 14,-21 12,-6 22,-6 26,-1 3,6 -3,15 -14,21 -12,6 -22,6 -26,1 z"
       id="path254"
       inkscape:connector-curvature="0" />
    <path
       d="m 7335,2776 c -11,-8 -14,-16 -8,-19 6,-4 18,0 28,7 11,8 14,16 8,19 -6,4 -18,0 -28,-7 z"
       id="path256"
       inkscape:connector-curvature="0" />
    <path
       d="m 185,2751 c -3,-6 3,-15 14,-21 12,-6 22,-6 26,-1 3,6 -3,15 -14,21 -12,6 -22,6 -26,1 z"
       id="path258"
       inkscape:connector-curvature="0" />
    <path
       d="m 7265,2736 c -11,-8 -14,-16 -8,-19 6,-4 18,0 28,7 11,8 14,16 8,19 -6,4 -18,0 -28,-7 z"
       id="path260"
       inkscape:connector-curvature="0" />
    <path
       d="m 235,2721 c -3,-6 3,-15 14,-21 12,-6 22,-6 26,-1 3,6 -3,15 -14,21 -12,6 -22,6 -26,1 z"
       id="path262"
       inkscape:connector-curvature="0" />
    <path
       d="m 7215,2706 c -11,-8 -14,-16 -8,-19 6,-4 18,0 28,7 11,8 14,16 8,19 -6,4 -18,0 -28,-7 z"
       id="path264"
       inkscape:connector-curvature="0" />
    <path
       d="m 305,2681 c -3,-6 3,-15 14,-21 12,-6 22,-6 26,-1 3,6 -3,15 -14,21 -12,6 -22,6 -26,1 z"
       id="path266"
       inkscape:connector-curvature="0" />
    <path
       d="m 7145,2666 c -11,-8 -14,-16 -8,-19 6,-4 18,0 28,7 11,8 14,16 8,19 -6,4 -18,0 -28,-7 z"
       id="path268"
       inkscape:connector-curvature="0" />
    <path
       d="m 375,2641 c -3,-6 3,-15 14,-21 12,-6 22,-6 26,-1 3,6 -3,15 -14,21 -12,6 -22,6 -26,1 z"
       id="path270"
       inkscape:connector-curvature="0" />
    <path
       d="m 7075,2626 c -11,-8 -14,-16 -8,-19 6,-4 18,0 28,7 11,8 14,16 8,19 -6,4 -18,0 -28,-7 z"
       id="path272"
       inkscape:connector-curvature="0" />
    <path
       d="m 425,2611 c -3,-6 3,-15 14,-21 12,-6 22,-6 26,-1 3,6 -3,15 -14,21 -12,6 -22,6 -26,1 z"
       id="path274"
       inkscape:connector-curvature="0" />
    <path
       d="m 7005,2586 c -11,-8 -14,-16 -8,-19 6,-4 18,0 28,7 11,8 14,16 8,19 -6,4 -18,0 -28,-7 z"
       id="path276"
       inkscape:connector-curvature="0" />
    <path
       d="m 495,2571 c -3,-6 3,-15 14,-21 12,-6 22,-6 26,-1 3,6 -3,15 -14,21 -12,6 -22,6 -26,1 z"
       id="path278"
       inkscape:connector-curvature="0" />
    <path
       d="m 6935,2546 c -11,-8 -14,-16 -8,-19 6,-4 18,0 28,7 11,8 14,16 8,19 -6,4 -18,0 -28,-7 z"
       id="path280"
       inkscape:connector-curvature="0" />
    <path
       d="m 545,2540 c -3,-5 8,-16 24,-25 18,-9 32,-11 36,-5 3,5 -8,16 -24,25 -18,9 -32,11 -36,5 z"
       id="path282"
       inkscape:connector-curvature="0" />
    <path
       d="m 6885,2516 c -11,-8 -14,-16 -8,-19 6,-4 18,0 28,7 11,8 14,16 8,19 -6,4 -18,0 -28,-7 z"
       id="path284"
       inkscape:connector-curvature="0" />
    <path
       d="m 615,2501 c -3,-6 3,-15 14,-21 12,-6 22,-6 26,-1 3,6 -3,15 -14,21 -12,6 -22,6 -26,1 z"
       id="path286"
       inkscape:connector-curvature="0" />
    <path
       d="m 6815,2476 c -11,-8 -14,-16 -8,-19 6,-4 18,0 28,7 11,8 14,16 8,19 -6,4 -18,0 -28,-7 z"
       id="path288"
       inkscape:connector-curvature="0" />
    <path
       d="m 685,2461 c -3,-6 3,-15 14,-21 12,-6 22,-6 26,-1 3,6 -3,15 -14,21 -12,6 -22,6 -26,1 z"
       id="path290"
       inkscape:connector-curvature="0" />
    <path
       d="m 6745,2436 c -11,-8 -14,-16 -8,-19 6,-4 18,0 28,7 11,8 14,16 8,19 -6,4 -18,0 -28,-7 z"
       id="path292"
       inkscape:connector-curvature="0" />
    <path
       d="m 735,2430 c -3,-5 8,-16 24,-25 18,-9 32,-11 36,-5 3,5 -8,16 -24,25 -18,9 -32,11 -36,5 z"
       id="path294"
       inkscape:connector-curvature="0" />
    <path
       d="m 6675,2396 c -11,-8 -14,-16 -8,-19 6,-4 18,0 28,7 11,8 14,16 8,19 -6,4 -18,0 -28,-7 z"
       id="path296"
       inkscape:connector-curvature="0" />
    <path
       d="m 805,2391 c -3,-6 3,-15 14,-21 12,-6 22,-6 26,-1 3,6 -3,15 -14,21 -12,6 -22,6 -26,1 z"
       id="path298"
       inkscape:connector-curvature="0" />
    <path
       d="m 6605,2356 c -11,-8 -14,-16 -8,-19 6,-4 18,0 28,7 11,8 14,16 8,19 -6,4 -18,0 -28,-7 z"
       id="path300"
       inkscape:connector-curvature="0" />
    <path
       d="m 875,2351 c -3,-6 3,-15 14,-21 12,-6 22,-6 26,-1 3,6 -3,15 -14,21 -12,6 -22,6 -26,1 z"
       id="path302"
       inkscape:connector-curvature="0" />
    <path
       d="m 6547,2324 c -38,-20 -24,-38 14,-19 16,9 27,20 24,25 -7,12 -4,13 -38,-6 z"
       id="path304"
       inkscape:connector-curvature="0" />
    <path
       d="m 925,2320 c -3,-5 8,-16 24,-25 18,-9 32,-11 36,-5 3,5 -8,16 -24,25 -18,9 -32,11 -36,5 z"
       id="path306"
       inkscape:connector-curvature="0" />
    <path
       d="m 6485,2286 c -11,-8 -14,-16 -8,-19 6,-4 18,0 28,7 11,8 14,16 8,19 -6,4 -18,0 -28,-7 z"
       id="path308"
       inkscape:connector-curvature="0" />
    <path
       d="m 995,2281 c -3,-6 3,-15 14,-21 12,-6 22,-6 26,-1 3,6 -3,15 -14,21 -12,6 -22,6 -26,1 z"
       id="path310"
       inkscape:connector-curvature="0" />
    <path
       d="m 6415,2246 c -11,-8 -14,-16 -8,-19 6,-4 18,0 28,7 11,8 14,16 8,19 -6,4 -18,0 -28,-7 z"
       id="path312"
       inkscape:connector-curvature="0" />
    <path
       d="m 1065,2241 c -3,-6 3,-15 14,-21 12,-6 22,-6 26,-1 3,6 -3,15 -14,21 -12,6 -22,6 -26,1 z"
       id="path314"
       inkscape:connector-curvature="0" />
    <path
       d="m 1115,2210 c -3,-5 8,-16 24,-25 18,-9 32,-11 36,-5 3,5 -8,16 -24,25 -18,9 -32,11 -36,5 z"
       id="path316"
       inkscape:connector-curvature="0" />
    <path
       d="m 6345,2206 c -11,-8 -14,-16 -8,-19 6,-4 18,0 28,7 11,8 14,16 8,19 -6,4 -18,0 -28,-7 z"
       id="path318"
       inkscape:connector-curvature="0" />
    <path
       d="m 1185,2171 c -3,-6 3,-15 14,-21 12,-6 22,-6 26,-1 3,6 -3,15 -14,21 -12,6 -22,6 -26,1 z"
       id="path320"
       inkscape:connector-curvature="0" />
    <path
       d="m 6275,2166 c -11,-8 -14,-16 -8,-19 6,-4 18,0 28,7 11,8 14,16 8,19 -6,4 -18,0 -28,-7 z"
       id="path322"
       inkscape:connector-curvature="0" />
    <path
       d="m 1255,2131 c -3,-6 3,-15 14,-21 12,-6 22,-6 26,-1 3,6 -3,15 -14,21 -12,6 -22,6 -26,1 z"
       id="path324"
       inkscape:connector-curvature="0" />
    <path
       d="m 6205,2126 c -11,-8 -14,-16 -8,-19 6,-4 18,0 28,7 11,8 14,16 8,19 -6,4 -18,0 -28,-7 z"
       id="path326"
       inkscape:connector-curvature="0" />
    <path
       d="m 1305,2100 c -3,-5 8,-16 24,-25 18,-9 32,-11 36,-5 3,5 -8,16 -24,25 -18,9 -32,11 -36,5 z"
       id="path328"
       inkscape:connector-curvature="0" />
    <path
       d="m 6155,2096 c -11,-8 -14,-16 -8,-19 6,-4 18,0 28,7 11,8 14,16 8,19 -6,4 -18,0 -28,-7 z"
       id="path330"
       inkscape:connector-curvature="0" />
    <path
       d="m 1375,2061 c -3,-6 3,-15 14,-21 12,-6 22,-6 26,-1 3,6 -3,15 -14,21 -12,6 -22,6 -26,1 z"
       id="path332"
       inkscape:connector-curvature="0" />
    <path
       d="m 6085,2056 c -11,-8 -14,-16 -8,-19 6,-4 18,0 28,7 11,8 14,16 8,19 -6,4 -18,0 -28,-7 z"
       id="path334"
       inkscape:connector-curvature="0" />
    <path
       d="m 1445,2021 c -3,-6 3,-15 14,-21 12,-6 22,-6 26,-1 3,6 -3,15 -14,21 -12,6 -22,6 -26,1 z"
       id="path336"
       inkscape:connector-curvature="0" />
    <path
       d="m 6015,2016 c -11,-8 -14,-16 -8,-19 6,-4 18,0 28,7 11,8 14,16 8,19 -6,4 -18,0 -28,-7 z"
       id="path338"
       inkscape:connector-curvature="0" />
    <path
       d="m 1495,1990 c -3,-5 8,-16 24,-25 18,-9 32,-11 36,-5 3,5 -8,16 -24,25 -18,9 -32,11 -36,5 z"
       id="path340"
       inkscape:connector-curvature="0" />
    <path
       d="m 5945,1976 c -11,-8 -14,-16 -8,-19 6,-4 18,0 28,7 11,8 14,16 8,19 -6,4 -18,0 -28,-7 z"
       id="path342"
       inkscape:connector-curvature="0" />
    <path
       d="m 1565,1951 c -3,-6 3,-15 14,-21 12,-6 22,-6 26,-1 3,6 -3,15 -14,21 -12,6 -22,6 -26,1 z"
       id="path344"
       inkscape:connector-curvature="0" />
    <path
       d="m 5875,1936 c -11,-8 -14,-16 -8,-19 6,-4 18,0 28,7 11,8 14,16 8,19 -6,4 -18,0 -28,-7 z"
       id="path346"
       inkscape:connector-curvature="0" />
    <path
       d="m 1635,1911 c -3,-6 3,-15 14,-21 12,-6 22,-6 26,-1 3,6 -3,15 -14,21 -12,6 -22,6 -26,1 z"
       id="path348"
       inkscape:connector-curvature="0" />
    <path
       d="m 5825,1906 c -11,-8 -14,-16 -8,-19 6,-4 18,0 28,7 11,8 14,16 8,19 -6,4 -18,0 -28,-7 z"
       id="path350"
       inkscape:connector-curvature="0" />
    <path
       d="m 1685,1881 c -3,-6 3,-15 14,-21 12,-6 22,-6 26,-1 3,6 -3,15 -14,21 -12,6 -22,6 -26,1 z"
       id="path352"
       inkscape:connector-curvature="0" />
    <path
       d="m 5755,1866 c -11,-8 -14,-16 -8,-19 6,-4 18,0 28,7 11,8 14,16 8,19 -6,4 -18,0 -28,-7 z"
       id="path354"
       inkscape:connector-curvature="0" />
    <path
       d="m 1755,1841 c -3,-6 3,-15 14,-21 12,-6 22,-6 26,-1 3,6 -3,15 -14,21 -12,6 -22,6 -26,1 z"
       id="path356"
       inkscape:connector-curvature="0" />
    <path
       d="m 5685,1826 c -11,-8 -14,-16 -8,-19 6,-4 18,0 28,7 11,8 14,16 8,19 -6,4 -18,0 -28,-7 z"
       id="path358"
       inkscape:connector-curvature="0" />
    <path
       d="m 1825,1801 c -3,-6 3,-15 14,-21 12,-6 22,-6 26,-1 3,6 -3,15 -14,21 -12,6 -22,6 -26,1 z"
       id="path360"
       inkscape:connector-curvature="0" />
    <path
       d="m 5615,1786 c -11,-8 -14,-16 -8,-19 6,-4 18,0 28,7 11,8 14,16 8,19 -6,4 -18,0 -28,-7 z"
       id="path362"
       inkscape:connector-curvature="0" />
    <path
       d="m 1875,1771 c -3,-6 3,-15 14,-21 12,-6 22,-6 26,-1 3,6 -3,15 -14,21 -12,6 -22,6 -26,1 z"
       id="path364"
       inkscape:connector-curvature="0" />
    <path
       d="m 5545,1746 c -11,-8 -14,-16 -8,-19 6,-4 18,0 28,7 11,8 14,16 8,19 -6,4 -18,0 -28,-7 z"
       id="path366"
       inkscape:connector-curvature="0" />
    <path
       d="m 1945,1731 c -3,-6 3,-15 14,-21 12,-6 22,-6 26,-1 3,6 -3,15 -14,21 -12,6 -22,6 -26,1 z"
       id="path368"
       inkscape:connector-curvature="0" />
    <path
       d="m 5495,1716 c -11,-8 -14,-16 -8,-19 6,-4 18,0 28,7 11,8 14,16 8,19 -6,4 -18,0 -28,-7 z"
       id="path370"
       inkscape:connector-curvature="0" />
    <path
       d="m 2015,1691 c -3,-6 3,-15 14,-21 12,-6 22,-6 26,-1 3,6 -3,15 -14,21 -12,6 -22,6 -26,1 z"
       id="path372"
       inkscape:connector-curvature="0" />
    <path
       d="m 5425,1676 c -11,-8 -14,-16 -8,-19 6,-4 18,0 28,7 11,8 14,16 8,19 -6,4 -18,0 -28,-7 z"
       id="path374"
       inkscape:connector-curvature="0" />
    <path
       d="m 2065,1661 c -3,-6 3,-15 14,-21 12,-6 22,-6 26,-1 3,6 -3,15 -14,21 -12,6 -22,6 -26,1 z"
       id="path376"
       inkscape:connector-curvature="0" />
    <path
       d="m 5355,1636 c -11,-8 -14,-16 -8,-19 6,-4 18,0 28,7 11,8 14,16 8,19 -6,4 -18,0 -28,-7 z"
       id="path378"
       inkscape:connector-curvature="0" />
    <path
       d="m 2135,1621 c -3,-6 3,-15 14,-21 12,-6 22,-6 26,-1 3,6 -3,15 -14,21 -12,6 -22,6 -26,1 z"
       id="path380"
       inkscape:connector-curvature="0" />
    <path
       d="m 5285,1596 c -11,-8 -14,-16 -8,-19 6,-4 18,0 28,7 11,8 14,16 8,19 -6,4 -18,0 -28,-7 z"
       id="path382"
       inkscape:connector-curvature="0" />
    <path
       d="m 2205,1581 c -3,-6 3,-15 14,-21 12,-6 22,-6 26,-1 3,6 -3,15 -14,21 -12,6 -22,6 -26,1 z"
       id="path384"
       inkscape:connector-curvature="0" />
    <path
       d="m 5215,1556 c -11,-8 -14,-16 -8,-19 6,-4 18,0 28,7 11,8 14,16 8,19 -6,4 -18,0 -28,-7 z"
       id="path386"
       inkscape:connector-curvature="0" />
    <path
       d="m 2255,1551 c -3,-6 3,-15 14,-21 12,-6 22,-6 26,-1 3,6 -3,15 -14,21 -12,6 -22,6 -26,1 z"
       id="path388"
       inkscape:connector-curvature="0" />
    <path
       d="m 5157,1524 c -38,-20 -24,-38 14,-19 16,9 27,20 24,25 -7,12 -4,13 -38,-6 z"
       id="path390"
       inkscape:connector-curvature="0" />
    <path
       d="m 2325,1511 c -3,-6 3,-15 14,-21 12,-6 22,-6 26,-1 3,6 -3,15 -14,21 -12,6 -22,6 -26,1 z"
       id="path392"
       inkscape:connector-curvature="0" />
    <path
       d="m 5095,1486 c -11,-8 -14,-16 -8,-19 6,-4 18,0 28,7 11,8 14,16 8,19 -6,4 -18,0 -28,-7 z"
       id="path394"
       inkscape:connector-curvature="0" />
    <path
       d="m 2395,1471 c -3,-6 3,-15 14,-21 12,-6 22,-6 26,-1 3,6 -3,15 -14,21 -12,6 -22,6 -26,1 z"
       id="path396"
       inkscape:connector-curvature="0" />
    <path
       d="m 5025,1446 c -11,-8 -14,-16 -8,-19 6,-4 18,0 28,7 11,8 14,16 8,19 -6,4 -18,0 -28,-7 z"
       id="path398"
       inkscape:connector-curvature="0" />
    <path
       d="m 2445,1441 c -3,-6 3,-15 14,-21 12,-6 22,-6 26,-1 3,6 -3,15 -14,21 -12,6 -22,6 -26,1 z"
       id="path400"
       inkscape:connector-curvature="0" />
    <path
       d="m 4955,1406 c -11,-8 -14,-16 -8,-19 6,-4 18,0 28,7 11,8 14,16 8,19 -6,4 -18,0 -28,-7 z"
       id="path402"
       inkscape:connector-curvature="0" />
    <path
       d="m 2515,1401 c -3,-6 3,-15 14,-21 12,-6 22,-6 26,-1 3,6 -3,15 -14,21 -12,6 -22,6 -26,1 z"
       id="path404"
       inkscape:connector-curvature="0" />
    <path
       d="m 4885,1366 c -11,-8 -14,-16 -8,-19 6,-4 18,0 28,7 11,8 14,16 8,19 -6,4 -18,0 -28,-7 z"
       id="path406"
       inkscape:connector-curvature="0" />
    <path
       d="m 2585,1361 c -3,-6 3,-15 14,-21 12,-6 22,-6 26,-1 3,6 -3,15 -14,21 -12,6 -22,6 -26,1 z"
       id="path408"
       inkscape:connector-curvature="0" />
    <path
       d="m 2635,1331 c -3,-6 3,-15 14,-21 12,-6 22,-6 26,-1 3,6 -3,15 -14,21 -12,6 -22,6 -26,1 z"
       id="path410"
       inkscape:connector-curvature="0" />
    <path
       d="m 4815,1326 c -11,-8 -14,-16 -8,-19 6,-4 18,0 28,7 11,8 14,16 8,19 -6,4 -18,0 -28,-7 z"
       id="path412"
       inkscape:connector-curvature="0" />
    <path
       d="m 4765,1296 c -11,-8 -14,-16 -8,-19 6,-4 18,0 28,7 11,8 14,16 8,19 -6,4 -18,0 -28,-7 z"
       id="path414"
       inkscape:connector-curvature="0" />
    <path
       d="m 2705,1291 c -3,-6 3,-15 14,-21 12,-6 22,-6 26,-1 3,6 -3,15 -14,21 -12,6 -22,6 -26,1 z"
       id="path416"
       inkscape:connector-curvature="0" />
    <path
       d="m 4695,1256 c -11,-8 -14,-16 -8,-19 6,-4 18,0 28,7 11,8 14,16 8,19 -6,4 -18,0 -28,-7 z"
       id="path418"
       inkscape:connector-curvature="0" />
    <path
       d="m 2775,1251 c -3,-6 3,-15 14,-21 12,-6 22,-6 26,-1 3,6 -3,15 -14,21 -12,6 -22,6 -26,1 z"
       id="path420"
       inkscape:connector-curvature="0" />
    <path
       d="m 2825,1221 c -3,-6 3,-15 14,-21 12,-6 22,-6 26,-1 3,6 -3,15 -14,21 -12,6 -22,6 -26,1 z"
       id="path422"
       inkscape:connector-curvature="0" />
    <path
       d="m 4625,1216 c -11,-8 -14,-16 -8,-19 6,-4 18,0 28,7 11,8 14,16 8,19 -6,4 -18,0 -28,-7 z"
       id="path424"
       inkscape:connector-curvature="0" />
    <path
       d="m 2895,1181 c -3,-6 3,-15 14,-21 12,-6 22,-6 26,-1 3,6 -3,15 -14,21 -12,6 -22,6 -26,1 z"
       id="path426"
       inkscape:connector-curvature="0" />
    <path
       d="m 4555,1176 c -11,-8 -14,-16 -8,-19 6,-4 18,0 28,7 11,8 14,16 8,19 -6,4 -18,0 -28,-7 z"
       id="path428"
       inkscape:connector-curvature="0" />
    <path
       d="m 2945,1150 c -3,-5 8,-16 24,-25 18,-9 32,-11 36,-5 3,5 -8,16 -24,25 -18,9 -32,11 -36,5 z"
       id="path430"
       inkscape:connector-curvature="0" />
    <path
       d="m 4485,1136 c -11,-8 -14,-16 -8,-19 6,-4 18,0 28,7 11,8 14,16 8,19 -6,4 -18,0 -28,-7 z"
       id="path432"
       inkscape:connector-curvature="0" />
    <path
       d="m 3015,1111 c -3,-6 3,-15 14,-21 12,-6 22,-6 26,-1 3,6 -3,15 -14,21 -12,6 -22,6 -26,1 z"
       id="path434"
       inkscape:connector-curvature="0" />
    <path
       d="m 4435,1106 c -11,-8 -14,-16 -8,-19 6,-4 18,0 28,7 11,8 14,16 8,19 -6,4 -18,0 -28,-7 z"
       id="path436"
       inkscape:connector-curvature="0" />
    <path
       d="m 3085,1071 c -3,-6 3,-15 14,-21 12,-6 22,-6 26,-1 3,6 -3,15 -14,21 -12,6 -22,6 -26,1 z"
       id="path438"
       inkscape:connector-curvature="0" />
    <path
       d="m 4365,1066 c -11,-8 -14,-16 -8,-19 6,-4 18,0 28,7 11,8 14,16 8,19 -6,4 -18,0 -28,-7 z"
       id="path440"
       inkscape:connector-curvature="0" />
    <path
       d="m 3135,1040 c -3,-5 8,-16 24,-25 18,-9 32,-11 36,-5 3,5 -8,16 -24,25 -18,9 -32,11 -36,5 z"
       id="path442"
       inkscape:connector-curvature="0" />
    <path
       d="m 4295,1026 c -11,-8 -14,-16 -8,-19 6,-4 18,0 28,7 11,8 14,16 8,19 -6,4 -18,0 -28,-7 z"
       id="path444"
       inkscape:connector-curvature="0" />
    <path
       d="m 3205,1001 c -3,-6 3,-15 14,-21 12,-6 22,-6 26,-1 3,6 -3,15 -14,21 -12,6 -22,6 -26,1 z"
       id="path446"
       inkscape:connector-curvature="0" />
    <path
       d="m 4225,986 c -11,-8 -14,-16 -8,-19 6,-4 18,0 28,7 11,8 14,16 8,19 -6,4 -18,0 -28,-7 z"
       id="path448"
       inkscape:connector-curvature="0" />
    <path
       d="m 3275,961 c -3,-6 3,-15 14,-21 12,-6 22,-6 26,-1 3,6 -3,15 -14,21 -12,6 -22,6 -26,1 z"
       id="path450"
       inkscape:connector-curvature="0" />
    <path
       d="m 4155,946 c -11,-8 -14,-16 -8,-19 6,-4 18,0 28,7 11,8 14,16 8,19 -6,4 -18,0 -28,-7 z"
       id="path452"
       inkscape:connector-curvature="0" />
    <path
       d="m 3325,930 c -3,-5 8,-16 24,-25 18,-9 32,-11 36,-5 3,5 -8,16 -24,25 -18,9 -32,11 -36,5 z"
       id="path454"
       inkscape:connector-curvature="0" />
    <path
       d="m 4097,914 c -38,-20 -24,-38 14,-19 16,9 27,20 24,25 -7,12 -4,13 -38,-6 z"
       id="path456"
       inkscape:connector-curvature="0" />
    <path
       d="m 3395,891 c -3,-6 3,-15 14,-21 12,-6 22,-6 26,-1 3,6 -3,15 -14,21 -12,6 -22,6 -26,1 z"
       id="path458"
       inkscape:connector-curvature="0" />
    <path
       d="m 4035,876 c -11,-8 -14,-16 -8,-19 6,-4 18,0 28,7 11,8 14,16 8,19 -6,4 -18,0 -28,-7 z"
       id="path460"
       inkscape:connector-curvature="0" />
    <path
       d="m 3465,851 c -3,-6 3,-15 14,-21 12,-6 22,-6 26,-1 3,6 -3,15 -14,21 -12,6 -22,6 -26,1 z"
       id="path462"
       inkscape:connector-curvature="0" />
    <path
       d="m 3965,836 c -11,-8 -14,-16 -8,-19 6,-4 18,0 28,7 11,8 14,16 8,19 -6,4 -18,0 -28,-7 z"
       id="path464"
       inkscape:connector-curvature="0" />
    <path
       d="m 3515,820 c -3,-5 8,-16 24,-25 18,-9 32,-11 36,-5 3,5 -8,16 -24,25 -18,9 -32,11 -36,5 z"
       id="path466"
       inkscape:connector-curvature="0" />
    <path
       d="m 3895,796 c -11,-8 -14,-16 -8,-19 6,-4 18,0 28,7 11,8 14,16 8,19 -6,4 -18,0 -28,-7 z"
       id="path468"
       inkscape:connector-curvature="0" />
    <path
       d="m 3585,781 c -3,-6 3,-15 14,-21 12,-6 22,-6 26,-1 3,6 -3,15 -14,21 -12,6 -22,6 -26,1 z"
       id="path470"
       inkscape:connector-curvature="0" />
    <path
       d="m 3825,756 c -11,-8 -14,-16 -8,-19 6,-4 18,0 28,7 11,8 14,16 8,19 -6,4 -18,0 -28,-7 z"
       id="path472"
       inkscape:connector-curvature="0" />
    <path
       d="m 3655,740 c -3,-5 8,-16 24,-25 18,-9 32,-11 36,-5 3,5 -8,16 -24,25 -18,9 -32,11 -36,5 z"
       id="path474"
       inkscape:connector-curvature="0" />
  </g>
  <g
     id="g476"
     style="fill:#cb248b;stroke:none"
     transform="translate(-40.857864,-706.57032)">
    <path
       d="M 1910,8156 C 781,7506 87,7102 75,7085 55,7059 55,7041 52,4955 L 50,2850 77,2821 C 93,2805 915,2323 1904,1751 3338,921 3710,710 3737,710 c 28,0 404,212 1836,1036 991,570 1814,1049 1830,1065 l 27,29 0,2113 0,2114 -22,20 c -41,38 -3622,2107 -3653,2111 -25,3 -349,-180 -1845,-1042 z m 1710,59 c 523,-100 936,-439 1129,-927 153,-387 133,-843 -54,-1220 -218,-438 -595,-718 -1094,-812 -126,-24 -386,-22 -525,5 -268,51 -524,175 -723,350 -238,211 -411,515 -479,844 -26,124 -26,443 -1,560 119,546 450,938 956,1129 98,38 187,60 316,81 113,18 356,13 475,-10 z M 6337,6031 c 17,-18 299,-616 377,-796 48,-114 176,-388 187,-401 5,-6 70,-141 145,-300 284,-604 277,-586 238,-624 -23,-22 -487,-240 -512,-240 -9,0 -35,-11 -57,-25 -22,-13 -60,-35 -85,-48 -62,-34 -891,-419 -1015,-472 -55,-23 -296,-134 -535,-245 -686,-319 -734,-340 -772,-340 -27,0 -40,6 -52,25 -25,37 -346,726 -346,741 0,7 -39,95 -86,196 -47,101 -160,343 -251,538 -283,607 -278,596 -250,632 12,16 1277,609 2407,1129 124,56 295,136 380,175 85,40 167,73 182,73 15,1 35,-8 45,-18 z M 1452,5147 c 43,-16 361,-217 998,-632 514,-335 949,-620 965,-633 122,-100 170,-293 108,-433 -29,-66 -538,-846 -582,-892 -20,-21 -65,-52 -101,-70 -60,-30 -72,-32 -165,-32 -93,0 -105,2 -165,33 -36,17 -488,308 -1005,645 -1029,671 -991,642 -1035,771 -34,100 -22,225 28,310 68,114 531,817 556,844 96,103 260,140 398,89 z"
       id="path478"
       inkscape:connector-curvature="0" />
    <path
       d="m 2528,7809 c -105,-82 -288,-276 -288,-307 0,-8 313,-226 443,-308 l 32,-20 102,102 102,102 -161,236 c -88,130 -164,236 -168,236 -5,0 -32,-19 -62,-41 z"
       id="path480"
       inkscape:connector-curvature="0" />
    <path
       d="m 3221,7319 c -24,-4 -82,-27 -130,-50 -148,-72 -267,-214 -315,-378 -21,-70 -21,-228 -1,-305 45,-173 185,-330 360,-403 176,-74 420,-40 575,80 101,79 194,217 219,327 6,25 11,93 11,153 0,168 -47,283 -166,407 -71,74 -182,139 -279,165 -63,16 -201,18 -274,4 z m 199,-474 c 32,-17 60,-70 60,-114 0,-36 -33,-87 -69,-106 -70,-36 -154,-3 -180,72 -13,36 -13,45 3,87 11,29 28,52 44,61 35,19 106,19 142,0 z"
       id="path482"
       inkscape:connector-curvature="0" />
    <path
       d="m 3965,6284 c -9,-14 -53,-61 -97,-105 l -81,-80 106,-157 c 164,-242 212,-307 228,-310 33,-6 339,296 339,335 0,15 -61,61 -295,219 l -183,124 -17,-26 z"
       id="path484"
       inkscape:connector-curvature="0" />
    <path
       d="m 6043,5792 c -100,-48 -187,-92 -193,-97 -9,-10 -16,-46 -61,-345 -14,-93 -25,-140 -37,-152 -16,-15 -382,-188 -1091,-515 -173,-79 -327,-145 -342,-145 -18,-1 -87,35 -206,107 -98,60 -190,115 -204,123 -24,15 -34,11 -215,-72 -104,-48 -195,-93 -202,-100 -10,-10 40,-125 263,-607 152,-327 283,-601 290,-609 17,-19 285,-597 285,-615 0,-7 8,-22 18,-33 17,-21 20,-20 614,257 328,153 603,282 610,288 7,6 193,94 413,195 578,268 601,278 616,278 8,0 39,14 69,31 30,17 141,71 245,120 105,50 194,94 198,99 5,4 -10,50 -33,101 -24,52 -53,119 -65,149 -25,63 -178,398 -332,730 -398,852 -419,895 -439,897 -10,1 -101,-38 -201,-85 z m 236,-799 c 217,-106 264,-391 92,-563 -65,-65 -125,-91 -226,-97 -66,-4 -90,-1 -135,16 -64,25 -153,87 -145,101 4,6 -1,13 -10,16 -33,13 -68,104 -73,190 -9,169 80,304 236,355 79,26 186,19 261,-18 z m -730,-250 c 19,-18 68,-113 139,-268 121,-263 126,-276 117,-304 -3,-10 -47,-41 -98,-69 -153,-84 -572,-272 -606,-272 -18,0 -38,8 -48,19 -24,29 -252,522 -253,548 0,27 10,53 21,53 4,0 31,13 59,30 84,49 603,289 627,290 7,0 26,-12 42,-27 z m -901,-523 c 109,-58 173,-158 180,-282 7,-111 -23,-194 -96,-266 -65,-64 -111,-88 -195,-102 -138,-22 -274,37 -346,149 -124,193 -39,447 178,528 24,9 66,12 127,10 79,-4 98,-8 152,-37 z m 1875,-90 c 22,-11 27,-20 27,-50 0,-23 -7,-43 -18,-53 -10,-9 -222,-112 -472,-228 -250,-116 -652,-303 -893,-415 -241,-112 -448,-204 -460,-204 -50,0 -85,72 -54,113 11,16 1769,840 1812,849 24,5 23,6 58,-12 z"
       id="path486"
       inkscape:connector-curvature="0" />
    <path
       d="m 6065,4872 c -64,-27 -102,-59 -124,-105 -75,-156 80,-339 242,-286 51,17 115,73 134,116 17,43 17,122 -2,166 -19,47 -86,102 -140,116 -55,14 -61,14 -110,-7 z"
       id="path488"
       inkscape:connector-curvature="0" />
    <path
       d="m 5218,4482 c -125,-59 -231,-111 -237,-117 -6,-6 19,-70 70,-180 44,-93 84,-174 89,-179 6,-6 101,34 250,104 133,63 243,116 245,119 7,13 -161,356 -175,358 -8,1 -117,-47 -242,-105 z"
       id="path490"
       inkscape:connector-curvature="0" />
    <path
       d="m 4383,4090 c -36,-20 -61,-44 -79,-76 -78,-133 21,-304 176,-304 142,0 249,148 196,274 -52,124 -180,171 -293,106 z"
       id="path492"
       inkscape:connector-curvature="0" />
    <path
       d="m 5629,5597 c -25,-14 -240,-115 -479,-225 -864,-399 -1092,-507 -1092,-517 0,-9 247,-165 262,-165 7,0 509,233 1045,485 138,64 257,124 266,133 19,21 65,290 52,303 -6,6 -27,0 -54,-14 z"
       id="path494"
       inkscape:connector-curvature="0" />
    <path
       d="M 1150,4523 C 1055,4375 944,4204 903,4143 l -73,-113 48,-35 c 26,-19 54,-34 62,-34 8,0 94,47 190,103 96,57 176,103 178,102 1,-2 -9,-95 -22,-207 -13,-112 -22,-207 -19,-211 11,-18 95,-69 107,-65 10,4 482,718 494,747 1,4 -22,23 -53,44 l -55,36 -127,-192 c -69,-106 -144,-222 -166,-257 -23,-35 -43,-59 -45,-52 -2,7 1,54 7,106 17,142 18,138 -40,174 -28,17 -54,31 -59,31 -7,0 -101,-53 -199,-113 -23,-14 -32,-16 -26,-6 7,11 258,397 322,495 12,20 10,23 -42,57 -30,21 -56,37 -58,37 -1,0 -81,-120 -177,-267 z"
       id="path496"
       inkscape:connector-curvature="0" />
    <path
       d="m 1926,4293 c -23,-38 -129,-201 -235,-362 -106,-162 -196,-302 -201,-312 -8,-14 17,-34 154,-123 209,-136 241,-150 322,-143 182,14 296,202 220,362 -30,64 -66,97 -199,184 l -108,72 22,37 c 13,20 58,90 101,155 43,65 78,123 78,127 0,11 -84,70 -99,70 -6,0 -31,-30 -55,-67 z m 6,-520 c 98,-65 120,-84 133,-117 38,-93 -54,-195 -148,-164 -33,11 -247,146 -247,156 0,12 126,201 135,201 5,1 62,-34 127,-76 z"
       id="path498"
       inkscape:connector-curvature="0" />
    <path
       d="m 2645,3841 c -59,-15 -155,-81 -155,-106 0,-12 79,-75 94,-75 3,0 22,11 42,25 58,39 96,34 195,-28 61,-39 89,-63 102,-90 24,-48 14,-98 -28,-143 -48,-51 -98,-48 -193,11 l -72,45 -35,-53 c -19,-28 -35,-55 -35,-58 0,-4 29,-26 65,-49 82,-53 95,-72 95,-132 0,-41 -5,-54 -34,-86 -31,-33 -39,-37 -83,-36 -40,1 -62,9 -130,53 -98,63 -122,101 -105,165 6,22 8,44 6,48 -11,18 -95,69 -104,63 -35,-21 -51,-141 -30,-217 15,-54 96,-136 190,-193 71,-42 91,-50 147,-53 78,-5 139,15 195,66 60,54 82,104 82,189 l 1,71 36,11 c 55,17 115,65 146,118 24,41 28,59 28,123 0,118 -38,176 -170,261 -102,66 -181,88 -250,70 z"
       id="path500"
       inkscape:connector-curvature="0" />
  </g>
</svg>
