<?xml version="1.0" encoding="UTF-8" standalone="no"?>
<svg
   xmlns:dc="http://purl.org/dc/elements/1.1/"
   xmlns:cc="http://creativecommons.org/ns#"
   xmlns:rdf="http://www.w3.org/1999/02/22-rdf-syntax-ns#"
   xmlns:svg="http://www.w3.org/2000/svg"
   xmlns="http://www.w3.org/2000/svg"
   xmlns:sodipodi="http://sodipodi.sourceforge.net/DTD/sodipodi-0.dtd"
   xmlns:inkscape="http://www.inkscape.org/namespaces/inkscape"
   version="1.0"
   width="741"
   height="854.45667"
   viewBox="0 0 7410 8544.5667"
   preserveAspectRatio="xMidYMid meet"
   id="svg2"
   inkscape:version="0.91 r13725"
   sodipodi:docname="work.svg">
  <metadata
     id="metadata482">
    <rdf:RDF>
      <cc:Work
         rdf:about="">
        <dc:format>image/svg+xml</dc:format>
        <dc:type
           rdf:resource="http://purl.org/dc/dcmitype/StillImage" />
        <dc:title></dc:title>
      </cc:Work>
    </rdf:RDF>
  </metadata>
  <defs
     id="defs480" />
  <sodipodi:namedview
     pagecolor="#ffffff"
     bordercolor="#666666"
     borderopacity="1"
     objecttolerance="10"
     gridtolerance="10"
     guidetolerance="10"
     inkscape:pageopacity="0"
     inkscape:pageshadow="2"
     inkscape:window-width="693"
     inkscape:window-height="480"
     id="namedview478"
     showgrid="false"
     fit-margin-top="0"
     fit-margin-left="0"
     fit-margin-right="0"
     fit-margin-bottom="0"
     inkscape:zoom="0.22412156"
     inkscape:cx="370.5"
     inkscape:cy="443.40017"
     inkscape:window-x="0"
     inkscape:window-y="23"
     inkscape:window-maximized="0"
     inkscape:current-layer="svg2" />
  <g
     id="g4"
     style="fill:#fffedb;stroke:none"
     transform="translate(-20,-1154.4351)">
    <path
       d="m 3657,9674 c -38,-20 -24,-38 14,-19 16,9 27,20 24,25 -7,12 -4,13 -38,-6 z"
       id="path6"
       inkscape:connector-curvature="0" />
    <path
       d="m 3755,9681 c -3,-6 3,-15 14,-21 12,-6 22,-6 26,-1 3,6 -3,15 -14,21 -12,6 -22,6 -26,1 z"
       id="path8"
       inkscape:connector-curvature="0" />
    <path
       d="m 3595,9636 c -11,-8 -14,-16 -8,-19 6,-4 18,0 28,7 11,8 14,16 8,19 -6,4 -18,0 -28,-7 z"
       id="path10"
       inkscape:connector-curvature="0" />
    <path
       d="m 3825,9641 c -3,-6 3,-15 14,-21 12,-6 22,-6 26,-1 3,6 -3,15 -14,21 -12,6 -22,6 -26,1 z"
       id="path12"
       inkscape:connector-curvature="0" />
    <path
       d="m 3875,9611 c -3,-6 3,-15 14,-21 12,-6 22,-6 26,-1 3,6 -3,15 -14,21 -12,6 -22,6 -26,1 z"
       id="path14"
       inkscape:connector-curvature="0" />
    <path
       d="m 3525,9596 c -11,-8 -14,-16 -8,-19 6,-4 18,0 28,7 11,8 14,16 8,19 -6,4 -18,0 -28,-7 z"
       id="path16"
       inkscape:connector-curvature="0" />
    <path
       d="m 3467,9564 c -38,-20 -24,-38 14,-19 16,9 27,20 24,25 -7,12 -4,13 -38,-6 z"
       id="path18"
       inkscape:connector-curvature="0" />
    <path
       d="m 3945,9571 c -3,-6 3,-15 14,-21 12,-6 22,-6 26,-1 3,6 -3,15 -14,21 -12,6 -22,6 -26,1 z"
       id="path20"
       inkscape:connector-curvature="0" />
    <path
       d="m 3405,9526 c -11,-8 -14,-16 -8,-19 6,-4 18,0 28,7 11,8 14,16 8,19 -6,4 -18,0 -28,-7 z"
       id="path22"
       inkscape:connector-curvature="0" />
    <path
       d="m 4015,9531 c -3,-6 3,-15 14,-21 12,-6 22,-6 26,-1 3,6 -3,15 -14,21 -12,6 -22,6 -26,1 z"
       id="path24"
       inkscape:connector-curvature="0" />
    <path
       d="m 3335,9486 c -11,-8 -14,-16 -8,-19 6,-4 18,0 28,7 11,8 14,16 8,19 -6,4 -18,0 -28,-7 z"
       id="path26"
       inkscape:connector-curvature="0" />
    <path
       d="m 4085,9491 c -3,-6 3,-15 14,-21 12,-6 22,-6 26,-1 3,6 -3,15 -14,21 -12,6 -22,6 -26,1 z"
       id="path28"
       inkscape:connector-curvature="0" />
    <path
       d="m 3277,9454 c -38,-20 -24,-38 14,-19 16,9 27,20 24,25 -7,12 -4,13 -38,-6 z"
       id="path30"
       inkscape:connector-curvature="0" />
    <path
       d="m 4155,9451 c -3,-6 3,-15 14,-21 12,-6 22,-6 26,-1 3,6 -3,15 -14,21 -12,6 -22,6 -26,1 z"
       id="path32"
       inkscape:connector-curvature="0" />
    <path
       d="m 3215,9416 c -11,-8 -14,-16 -8,-19 6,-4 18,0 28,7 11,8 14,16 8,19 -6,4 -18,0 -28,-7 z"
       id="path34"
       inkscape:connector-curvature="0" />
    <path
       d="m 4205,9420 c -3,-5 8,-16 24,-25 18,-9 32,-11 36,-5 3,5 -8,16 -24,25 -18,9 -32,11 -36,5 z"
       id="path36"
       inkscape:connector-curvature="0" />
    <path
       d="m 3145,9376 c -11,-8 -14,-16 -8,-19 6,-4 18,0 28,7 11,8 14,16 8,19 -6,4 -18,0 -28,-7 z"
       id="path38"
       inkscape:connector-curvature="0" />
    <path
       d="m 4275,9381 c -3,-6 3,-15 14,-21 12,-6 22,-6 26,-1 3,6 -3,15 -14,21 -12,6 -22,6 -26,1 z"
       id="path40"
       inkscape:connector-curvature="0" />
    <path
       d="m 3087,9344 c -38,-20 -24,-38 14,-19 16,9 27,20 24,25 -7,12 -4,13 -38,-6 z"
       id="path42"
       inkscape:connector-curvature="0" />
    <path
       d="m 4345,9341 c -3,-6 3,-15 14,-21 12,-6 22,-6 26,-1 3,6 -3,15 -14,21 -12,6 -22,6 -26,1 z"
       id="path44"
       inkscape:connector-curvature="0" />
    <path
       d="m 3025,9306 c -11,-8 -14,-16 -8,-19 6,-4 18,0 28,7 11,8 14,16 8,19 -6,4 -18,0 -28,-7 z"
       id="path46"
       inkscape:connector-curvature="0" />
    <path
       d="m 4415,9301 c -3,-6 3,-15 14,-21 12,-6 22,-6 26,-1 3,6 -3,15 -14,21 -12,6 -22,6 -26,1 z"
       id="path48"
       inkscape:connector-curvature="0" />
    <path
       d="m 2955,9266 c -11,-8 -14,-16 -8,-19 6,-4 18,0 28,7 11,8 14,16 8,19 -6,4 -18,0 -28,-7 z"
       id="path50"
       inkscape:connector-curvature="0" />
    <path
       d="m 4485,9261 c -3,-6 3,-15 14,-21 12,-6 22,-6 26,-1 3,6 -3,15 -14,21 -12,6 -22,6 -26,1 z"
       id="path52"
       inkscape:connector-curvature="0" />
    <path
       d="m 2905,9236 c -11,-8 -14,-16 -8,-19 6,-4 18,0 28,7 11,8 14,16 8,19 -6,4 -18,0 -28,-7 z"
       id="path54"
       inkscape:connector-curvature="0" />
    <path
       d="m 4555,9221 c -3,-6 3,-15 14,-21 12,-6 22,-6 26,-1 3,6 -3,15 -14,21 -12,6 -22,6 -26,1 z"
       id="path56"
       inkscape:connector-curvature="0" />
    <path
       d="m 2835,9196 c -11,-8 -14,-16 -8,-19 6,-4 18,0 28,7 11,8 14,16 8,19 -6,4 -18,0 -28,-7 z"
       id="path58"
       inkscape:connector-curvature="0" />
    <path
       d="m 4605,9191 c -3,-6 3,-15 14,-21 12,-6 22,-6 26,-1 3,6 -3,15 -14,21 -12,6 -22,6 -26,1 z"
       id="path60"
       inkscape:connector-curvature="0" />
    <path
       d="m 2765,9156 c -11,-8 -14,-16 -8,-19 6,-4 18,0 28,7 11,8 14,16 8,19 -6,4 -18,0 -28,-7 z"
       id="path62"
       inkscape:connector-curvature="0" />
    <path
       d="m 4675,9151 c -3,-6 3,-15 14,-21 12,-6 22,-6 26,-1 3,6 -3,15 -14,21 -12,6 -22,6 -26,1 z"
       id="path64"
       inkscape:connector-curvature="0" />
    <path
       d="m 2715,9126 c -11,-8 -14,-16 -8,-19 6,-4 18,0 28,7 11,8 14,16 8,19 -6,4 -18,0 -28,-7 z"
       id="path66"
       inkscape:connector-curvature="0" />
    <path
       d="m 4745,9111 c -3,-6 3,-15 14,-21 12,-6 22,-6 26,-1 3,6 -3,15 -14,21 -12,6 -22,6 -26,1 z"
       id="path68"
       inkscape:connector-curvature="0" />
    <path
       d="m 2645,9086 c -11,-8 -14,-16 -8,-19 6,-4 18,0 28,7 11,8 14,16 8,19 -6,4 -18,0 -28,-7 z"
       id="path70"
       inkscape:connector-curvature="0" />
    <path
       d="m 4815,9071 c -3,-6 3,-15 14,-21 12,-6 22,-6 26,-1 3,6 -3,15 -14,21 -12,6 -22,6 -26,1 z"
       id="path72"
       inkscape:connector-curvature="0" />
    <path
       d="m 2575,9046 c -11,-8 -14,-16 -8,-19 6,-4 18,0 28,7 11,8 14,16 8,19 -6,4 -18,0 -28,-7 z"
       id="path74"
       inkscape:connector-curvature="0" />
    <path
       d="m 4885,9031 c -3,-6 3,-15 14,-21 12,-6 22,-6 26,-1 3,6 -3,15 -14,21 -12,6 -22,6 -26,1 z"
       id="path76"
       inkscape:connector-curvature="0" />
    <path
       d="m 2525,9016 c -11,-8 -14,-16 -8,-19 6,-4 18,0 28,7 11,8 14,16 8,19 -6,4 -18,0 -28,-7 z"
       id="path78"
       inkscape:connector-curvature="0" />
    <path
       d="m 4935,9001 c -3,-6 3,-15 14,-21 12,-6 22,-6 26,-1 3,6 -3,15 -14,21 -12,6 -22,6 -26,1 z"
       id="path80"
       inkscape:connector-curvature="0" />
    <path
       d="m 2455,8976 c -11,-8 -14,-16 -8,-19 6,-4 18,0 28,7 11,8 14,16 8,19 -6,4 -18,0 -28,-7 z"
       id="path82"
       inkscape:connector-curvature="0" />
    <path
       d="m 5005,8961 c -3,-6 3,-15 14,-21 12,-6 22,-6 26,-1 3,6 -3,15 -14,21 -12,6 -22,6 -26,1 z"
       id="path84"
       inkscape:connector-curvature="0" />
    <path
       d="m 2385,8936 c -11,-8 -14,-16 -8,-19 6,-4 18,0 28,7 11,8 14,16 8,19 -6,4 -18,0 -28,-7 z"
       id="path86"
       inkscape:connector-curvature="0" />
    <path
       d="m 5075,8921 c -3,-6 3,-15 14,-21 12,-6 22,-6 26,-1 3,6 -3,15 -14,21 -12,6 -22,6 -26,1 z"
       id="path88"
       inkscape:connector-curvature="0" />
    <path
       d="m 2335,8906 c -11,-8 -14,-16 -8,-19 6,-4 18,0 28,7 11,8 14,16 8,19 -6,4 -18,0 -28,-7 z"
       id="path90"
       inkscape:connector-curvature="0" />
    <path
       d="m 5145,8881 c -3,-6 3,-15 14,-21 12,-6 22,-6 26,-1 3,6 -3,15 -14,21 -12,6 -22,6 -26,1 z"
       id="path92"
       inkscape:connector-curvature="0" />
    <path
       d="m 2265,8866 c -11,-8 -14,-16 -8,-19 6,-4 18,0 28,7 11,8 14,16 8,19 -6,4 -18,0 -28,-7 z"
       id="path94"
       inkscape:connector-curvature="0" />
    <path
       d="m 5215,8841 c -3,-6 3,-15 14,-21 12,-6 22,-6 26,-1 3,6 -3,15 -14,21 -12,6 -22,6 -26,1 z"
       id="path96"
       inkscape:connector-curvature="0" />
    <path
       d="m 2195,8826 c -11,-8 -14,-16 -8,-19 6,-4 18,0 28,7 11,8 14,16 8,19 -6,4 -18,0 -28,-7 z"
       id="path98"
       inkscape:connector-curvature="0" />
    <path
       d="m 5265,8811 c -3,-6 3,-15 14,-21 12,-6 22,-6 26,-1 3,6 -3,15 -14,21 -12,6 -22,6 -26,1 z"
       id="path100"
       inkscape:connector-curvature="0" />
    <path
       d="m 2145,8796 c -11,-8 -14,-16 -8,-19 6,-4 18,0 28,7 11,8 14,16 8,19 -6,4 -18,0 -28,-7 z"
       id="path102"
       inkscape:connector-curvature="0" />
    <path
       d="m 5335,8771 c -3,-6 3,-15 14,-21 12,-6 22,-6 26,-1 3,6 -3,15 -14,21 -12,6 -22,6 -26,1 z"
       id="path104"
       inkscape:connector-curvature="0" />
    <path
       d="m 2075,8756 c -11,-8 -14,-16 -8,-19 6,-4 18,0 28,7 11,8 14,16 8,19 -6,4 -18,0 -28,-7 z"
       id="path106"
       inkscape:connector-curvature="0" />
    <path
       d="m 2017,8724 c -38,-20 -24,-38 14,-19 16,9 27,20 24,25 -7,12 -4,13 -38,-6 z"
       id="path108"
       inkscape:connector-curvature="0" />
    <path
       d="m 5405,8731 c -3,-6 3,-15 14,-21 12,-6 22,-6 26,-1 3,6 -3,15 -14,21 -12,6 -22,6 -26,1 z"
       id="path110"
       inkscape:connector-curvature="0" />
    <path
       d="m 1955,8686 c -11,-8 -14,-16 -8,-19 6,-4 18,0 28,7 11,8 14,16 8,19 -6,4 -18,0 -28,-7 z"
       id="path112"
       inkscape:connector-curvature="0" />
    <path
       d="m 5475,8691 c -3,-6 3,-15 14,-21 12,-6 22,-6 26,-1 3,6 -3,15 -14,21 -12,6 -22,6 -26,1 z"
       id="path114"
       inkscape:connector-curvature="0" />
    <path
       d="m 4074,8619 c -14,-28 -23,-57 -20,-64 3,-8 63,-43 133,-79 392,-199 712,-469 982,-826 263,-348 435,-738 498,-1125 27,-168 24,-466 -6,-605 -89,-407 -312,-715 -621,-857 -150,-69 -348,-90 -536,-58 -202,36 -315,87 -421,190 -40,39 -73,78 -73,87 0,12 15,19 58,27 31,6 80,18 108,26 178,52 289,248 239,421 -35,123 -126,218 -246,255 -78,24 -121,24 -203,-1 -54,-17 -79,-33 -133,-83 -101,-94 -129,-178 -112,-337 12,-123 33,-192 89,-305 126,-255 355,-423 660,-485 384,-78 725,10 1032,267 246,207 401,490 463,848 21,123 22,447 0,581 -20,128 -76,341 -121,463 -259,696 -890,1347 -1612,1662 -62,27 -117,49 -122,49 -5,0 -21,-23 -36,-51 z"
       id="path116"
       inkscape:connector-curvature="0" />
    <path
       d="m 1885,8646 c -11,-8 -14,-16 -8,-19 6,-4 18,0 28,7 11,8 14,16 8,19 -6,4 -18,0 -28,-7 z"
       id="path118"
       inkscape:connector-curvature="0" />
    <path
       d="m 5545,8651 c -3,-6 3,-15 14,-21 12,-6 22,-6 26,-1 3,6 -3,15 -14,21 -12,6 -22,6 -26,1 z"
       id="path120"
       inkscape:connector-curvature="0" />
    <path
       d="m 1827,8614 c -38,-20 -24,-38 14,-19 16,9 27,20 24,25 -7,12 -4,13 -38,-6 z"
       id="path122"
       inkscape:connector-curvature="0" />
    <path
       d="m 5615,8611 c -3,-6 3,-15 14,-21 12,-6 22,-6 26,-1 3,6 -3,15 -14,21 -12,6 -22,6 -26,1 z"
       id="path124"
       inkscape:connector-curvature="0" />
    <path
       d="m 1765,8576 c -11,-8 -14,-16 -8,-19 6,-4 18,0 28,7 11,8 14,16 8,19 -6,4 -18,0 -28,-7 z"
       id="path126"
       inkscape:connector-curvature="0" />
    <path
       d="m 5665,8581 c -3,-6 3,-15 14,-21 12,-6 22,-6 26,-1 3,6 -3,15 -14,21 -12,6 -22,6 -26,1 z"
       id="path128"
       inkscape:connector-curvature="0" />
    <path
       d="m 1695,8536 c -11,-8 -14,-16 -8,-19 6,-4 18,0 28,7 11,8 14,16 8,19 -6,4 -18,0 -28,-7 z"
       id="path130"
       inkscape:connector-curvature="0" />
    <path
       d="m 5735,8541 c -3,-6 3,-15 14,-21 12,-6 22,-6 26,-1 3,6 -3,15 -14,21 -12,6 -22,6 -26,1 z"
       id="path132"
       inkscape:connector-curvature="0" />
    <path
       d="m 1637,8504 c -38,-20 -24,-38 14,-19 16,9 27,20 24,25 -7,12 -4,13 -38,-6 z"
       id="path134"
       inkscape:connector-curvature="0" />
    <path
       d="m 5805,8501 c -3,-6 3,-15 14,-21 12,-6 22,-6 26,-1 3,6 -3,15 -14,21 -12,6 -22,6 -26,1 z"
       id="path136"
       inkscape:connector-curvature="0" />
    <path
       d="m 1575,8466 c -11,-8 -14,-16 -8,-19 6,-4 18,0 28,7 11,8 14,16 8,19 -6,4 -18,0 -28,-7 z"
       id="path138"
       inkscape:connector-curvature="0" />
    <path
       d="m 5875,8461 c -3,-6 3,-15 14,-21 12,-6 22,-6 26,-1 3,6 -3,15 -14,21 -12,6 -22,6 -26,1 z"
       id="path140"
       inkscape:connector-curvature="0" />
    <path
       d="m 1505,8426 c -11,-8 -14,-16 -8,-19 6,-4 18,0 28,7 11,8 14,16 8,19 -6,4 -18,0 -28,-7 z"
       id="path142"
       inkscape:connector-curvature="0" />
    <path
       d="m 5945,8421 c -3,-6 3,-15 14,-21 12,-6 22,-6 26,-1 3,6 -3,15 -14,21 -12,6 -22,6 -26,1 z"
       id="path144"
       inkscape:connector-curvature="0" />
    <path
       d="m 1447,8394 c -38,-20 -24,-38 14,-19 16,9 27,20 24,25 -7,12 -4,13 -38,-6 z"
       id="path146"
       inkscape:connector-curvature="0" />
    <path
       d="m 5995,8391 c -3,-6 3,-15 14,-21 12,-6 22,-6 26,-1 3,6 -3,15 -14,21 -12,6 -22,6 -26,1 z"
       id="path148"
       inkscape:connector-curvature="0" />
    <path
       d="m 1385,8356 c -11,-8 -14,-16 -8,-19 6,-4 18,0 28,7 11,8 14,16 8,19 -6,4 -18,0 -28,-7 z"
       id="path150"
       inkscape:connector-curvature="0" />
    <path
       d="m 6065,8351 c -3,-6 3,-15 14,-21 12,-6 22,-6 26,-1 3,6 -3,15 -14,21 -12,6 -22,6 -26,1 z"
       id="path152"
       inkscape:connector-curvature="0" />
    <path
       d="m 1315,8316 c -11,-8 -14,-16 -8,-19 6,-4 18,0 28,7 11,8 14,16 8,19 -6,4 -18,0 -28,-7 z"
       id="path154"
       inkscape:connector-curvature="0" />
    <path
       d="m 6135,8311 c -3,-6 3,-15 14,-21 12,-6 22,-6 26,-1 3,6 -3,15 -14,21 -12,6 -22,6 -26,1 z"
       id="path156"
       inkscape:connector-curvature="0" />
    <path
       d="m 1257,8284 c -38,-20 -24,-38 14,-19 16,9 27,20 24,25 -7,12 -4,13 -38,-6 z"
       id="path158"
       inkscape:connector-curvature="0" />
    <path
       d="m 6205,8271 c -3,-6 3,-15 14,-21 12,-6 22,-6 26,-1 3,6 -3,15 -14,21 -12,6 -22,6 -26,1 z"
       id="path160"
       inkscape:connector-curvature="0" />
    <path
       d="m 1195,8246 c -11,-8 -14,-16 -8,-19 6,-4 18,0 28,7 11,8 14,16 8,19 -6,4 -18,0 -28,-7 z"
       id="path162"
       inkscape:connector-curvature="0" />
    <path
       d="m 6275,8231 c -3,-6 3,-15 14,-21 12,-6 22,-6 26,-1 3,6 -3,15 -14,21 -12,6 -22,6 -26,1 z"
       id="path164"
       inkscape:connector-curvature="0" />
    <path
       d="m 1125,8206 c -11,-8 -14,-16 -8,-19 6,-4 18,0 28,7 11,8 14,16 8,19 -6,4 -18,0 -28,-7 z"
       id="path166"
       inkscape:connector-curvature="0" />
    <path
       d="m 6325,8201 c -3,-6 3,-15 14,-21 12,-6 22,-6 26,-1 3,6 -3,15 -14,21 -12,6 -22,6 -26,1 z"
       id="path168"
       inkscape:connector-curvature="0" />
    <path
       d="m 1067,8174 c -38,-20 -24,-38 14,-19 16,9 27,20 24,25 -7,12 -4,13 -38,-6 z"
       id="path170"
       inkscape:connector-curvature="0" />
    <path
       d="m 6395,8161 c -3,-6 3,-15 14,-21 12,-6 22,-6 26,-1 3,6 -3,15 -14,21 -12,6 -22,6 -26,1 z"
       id="path172"
       inkscape:connector-curvature="0" />
    <path
       d="m 1005,8136 c -11,-8 -14,-16 -8,-19 6,-4 18,0 28,7 11,8 14,16 8,19 -6,4 -18,0 -28,-7 z"
       id="path174"
       inkscape:connector-curvature="0" />
    <path
       d="m 6465,8121 c -3,-6 3,-15 14,-21 12,-6 22,-6 26,-1 3,6 -3,15 -14,21 -12,6 -22,6 -26,1 z"
       id="path176"
       inkscape:connector-curvature="0" />
    <path
       d="m 935,8096 c -11,-8 -14,-16 -8,-19 6,-4 18,0 28,7 11,8 14,16 8,19 -6,4 -18,0 -28,-7 z"
       id="path178"
       inkscape:connector-curvature="0" />
    <path
       d="m 6535,8081 c -3,-6 3,-15 14,-21 12,-6 22,-6 26,-1 3,6 -3,15 -14,21 -12,6 -22,6 -26,1 z"
       id="path180"
       inkscape:connector-curvature="0" />
    <path
       d="m 885,8066 c -11,-8 -14,-16 -8,-19 6,-4 18,0 28,7 11,8 14,16 8,19 -6,4 -18,0 -28,-7 z"
       id="path182"
       inkscape:connector-curvature="0" />
    <path
       d="m 6605,8041 c -3,-6 3,-15 14,-21 12,-6 22,-6 26,-1 3,6 -3,15 -14,21 -12,6 -22,6 -26,1 z"
       id="path184"
       inkscape:connector-curvature="0" />
    <path
       d="m 815,8026 c -11,-8 -14,-16 -8,-19 6,-4 18,0 28,7 11,8 14,16 8,19 -6,4 -18,0 -28,-7 z"
       id="path186"
       inkscape:connector-curvature="0" />
    <path
       d="m 6655,8010 c -3,-5 8,-16 24,-25 18,-9 32,-11 36,-5 3,5 -8,16 -24,25 -18,9 -32,11 -36,5 z"
       id="path188"
       inkscape:connector-curvature="0" />
    <path
       d="m 745,7986 c -11,-8 -14,-16 -8,-19 6,-4 18,0 28,7 11,8 14,16 8,19 -6,4 -18,0 -28,-7 z"
       id="path190"
       inkscape:connector-curvature="0" />
    <path
       d="m 6725,7971 c -3,-6 3,-15 14,-21 12,-6 22,-6 26,-1 3,6 -3,15 -14,21 -12,6 -22,6 -26,1 z"
       id="path192"
       inkscape:connector-curvature="0" />
    <path
       d="m 695,7956 c -11,-8 -14,-16 -8,-19 6,-4 18,0 28,7 11,8 14,16 8,19 -6,4 -18,0 -28,-7 z"
       id="path194"
       inkscape:connector-curvature="0" />
    <path
       d="m 6795,7931 c -3,-6 3,-15 14,-21 12,-6 22,-6 26,-1 3,6 -3,15 -14,21 -12,6 -22,6 -26,1 z"
       id="path196"
       inkscape:connector-curvature="0" />
    <path
       d="m 625,7916 c -11,-8 -14,-16 -8,-19 6,-4 18,0 28,7 11,8 14,16 8,19 -6,4 -18,0 -28,-7 z"
       id="path198"
       inkscape:connector-curvature="0" />
    <path
       d="m 6865,7891 c -3,-6 3,-15 14,-21 12,-6 22,-6 26,-1 3,6 -3,15 -14,21 -12,6 -22,6 -26,1 z"
       id="path200"
       inkscape:connector-curvature="0" />
    <path
       d="m 555,7876 c -11,-8 -14,-16 -8,-19 6,-4 18,0 28,7 11,8 14,16 8,19 -6,4 -18,0 -28,-7 z"
       id="path202"
       inkscape:connector-curvature="0" />
    <path
       d="m 505,7846 c -11,-8 -14,-16 -8,-19 6,-4 18,0 28,7 11,8 14,16 8,19 -6,4 -18,0 -28,-7 z"
       id="path204"
       inkscape:connector-curvature="0" />
    <path
       d="m 6935,7851 c -3,-6 3,-15 14,-21 12,-6 22,-6 26,-1 3,6 -3,15 -14,21 -12,6 -22,6 -26,1 z"
       id="path206"
       inkscape:connector-curvature="0" />
    <path
       d="m 435,7806 c -11,-8 -14,-16 -8,-19 6,-4 18,0 28,7 11,8 14,16 8,19 -6,4 -18,0 -28,-7 z"
       id="path208"
       inkscape:connector-curvature="0" />
    <path
       d="m 7005,7811 c -3,-6 3,-15 14,-21 12,-6 22,-6 26,-1 3,6 -3,15 -14,21 -12,6 -22,6 -26,1 z"
       id="path210"
       inkscape:connector-curvature="0" />
    <path
       d="m 7055,7781 c -3,-6 3,-15 14,-21 12,-6 22,-6 26,-1 3,6 -3,15 -14,21 -12,6 -22,6 -26,1 z"
       id="path212"
       inkscape:connector-curvature="0" />
    <path
       d="m 365,7766 c -11,-8 -14,-16 -8,-19 6,-4 18,0 28,7 11,8 14,16 8,19 -6,4 -18,0 -28,-7 z"
       id="path214"
       inkscape:connector-curvature="0" />
    <path
       d="m 315,7736 c -11,-8 -14,-16 -8,-19 6,-4 18,0 28,7 11,8 14,16 8,19 -6,4 -18,0 -28,-7 z"
       id="path216"
       inkscape:connector-curvature="0" />
    <path
       d="m 7125,7741 c -3,-6 3,-15 14,-21 12,-6 22,-6 26,-1 3,6 -3,15 -14,21 -12,6 -22,6 -26,1 z"
       id="path218"
       inkscape:connector-curvature="0" />
    <path
       d="m 245,7696 c -11,-8 -14,-16 -8,-19 6,-4 18,0 28,7 11,8 14,16 8,19 -6,4 -18,0 -28,-7 z"
       id="path220"
       inkscape:connector-curvature="0" />
    <path
       d="m 7195,7701 c -3,-6 3,-15 14,-21 12,-6 22,-6 26,-1 3,6 -3,15 -14,21 -12,6 -22,6 -26,1 z"
       id="path222"
       inkscape:connector-curvature="0" />
    <path
       d="m 175,7656 c -11,-8 -14,-16 -8,-19 6,-4 18,0 28,7 11,8 14,16 8,19 -6,4 -18,0 -28,-7 z"
       id="path224"
       inkscape:connector-curvature="0" />
    <path
       d="m 7265,7661 c -3,-6 3,-15 14,-21 12,-6 22,-6 26,-1 3,6 -3,15 -14,21 -12,6 -22,6 -26,1 z"
       id="path226"
       inkscape:connector-curvature="0" />
    <path
       d="m 125,7626 c -11,-8 -14,-16 -8,-19 6,-4 18,0 28,7 11,8 14,16 8,19 -6,4 -18,0 -28,-7 z"
       id="path228"
       inkscape:connector-curvature="0" />
    <path
       d="m 7335,7621 c -3,-6 3,-15 14,-21 12,-6 22,-6 26,-1 3,6 -3,15 -14,21 -12,6 -22,6 -26,1 z"
       id="path230"
       inkscape:connector-curvature="0" />
    <path
       d="m 55,7586 c -11,-8 -14,-16 -8,-19 6,-4 18,0 28,7 11,8 14,16 8,19 -6,4 -18,0 -28,-7 z"
       id="path232"
       inkscape:connector-curvature="0" />
    <path
       d="m 7385,7590 c -3,-6 1,-13 9,-16 14,-6 16,-89 16,-794 0,-515 3,-791 10,-795 7,-4 10,263 10,794 0,782 0,801 -19,811 -13,7 -22,7 -26,0 z"
       id="path234"
       inkscape:connector-curvature="0" />
    <path
       d="m 1970,7081 c -139,-44 -297,-166 -368,-283 -75,-125 -98,-279 -54,-365 50,-97 140,-124 205,-60 48,48 59,97 51,220 -6,86 -4,114 12,163 34,107 127,173 259,182 62,4 78,1 121,-21 63,-32 108,-83 147,-164 25,-55 30,-80 38,-196 4,-72 8,-192 9,-264 0,-125 -1,-133 -19,-133 -11,0 -78,-5 -148,-11 -652,-54 -1083,-354 -1215,-847 -29,-110 -36,-340 -14,-450 42,-209 163,-402 377,-607 193,-183 455,-355 805,-526 l 201,-98 7,-47 c 3,-26 6,-135 6,-243 0,-236 12,-379 46,-527 55,-248 133,-421 239,-530 103,-105 150,-115 263,-59 78,40 170,129 216,211 72,128 115,344 102,520 -20,281 -146,514 -433,802 l -133,133 0,383 0,383 83,7 c 326,26 518,173 594,456 26,93 25,378 0,470 -27,96 -99,237 -163,313 -117,143 -264,221 -475,252 l -36,5 -7,194 c -7,223 -23,301 -88,436 -74,153 -225,278 -376,309 -77,16 -189,13 -252,-8 z m 884,-1147 c 220,-53 356,-264 356,-551 0,-66 -5,-116 -14,-137 -18,-42 -80,-112 -126,-141 -75,-48 -250,-95 -349,-95 l -31,0 0,475 0,476 53,-7 c 28,-3 79,-12 111,-20 z m -464,-455 0,-471 -27,7 c -38,9 -70,30 -89,61 -14,20 -18,63 -24,212 -6,163 -10,192 -29,229 -26,53 -45,63 -116,63 -55,0 -56,0 -85,-46 -42,-66 -54,-137 -47,-279 10,-209 72,-369 187,-486 66,-66 126,-102 195,-115 l 38,-7 -5,-303 c -3,-167 -8,-307 -11,-310 -11,-12 -263,137 -375,221 -158,119 -298,278 -369,419 -80,159 -102,279 -84,464 24,252 104,429 259,573 132,122 359,217 570,238 9,1 12,-99 12,-470 z m 442,-2102 c 96,-69 182,-167 226,-256 l 37,-75 0,-141 c 0,-159 -18,-234 -83,-360 -39,-73 -133,-178 -173,-190 -30,-10 -42,8 -68,103 -46,175 -81,545 -81,870 l 0,144 38,-23 c 20,-12 67,-45 104,-72 z"
       id="path236"
       inkscape:connector-curvature="0" />
    <path
       d="m 6362,6744 c -92,-46 -162,-153 -162,-248 0,-95 74,-212 164,-258 104,-53 237,-27 321,63 60,64 75,102 75,192 0,59 -5,83 -26,125 -66,133 -240,192 -372,126 z"
       id="path238"
       inkscape:connector-curvature="0" />
    <path
       d="m 6388,5804 c -92,-28 -178,-146 -186,-255 -6,-79 24,-144 99,-213 70,-65 110,-80 198,-74 79,6 130,30 188,90 54,55 73,102 73,179 0,87 -17,133 -69,192 -81,89 -185,117 -303,81 z"
       id="path240"
       inkscape:connector-curvature="0" />
    <path
       d="m 27,3944 c -4,-4 -7,-152 -7,-329 0,-275 2,-324 15,-335 8,-7 15,-9 15,-4 4,131 -3,661 -8,666 -5,5 -11,5 -15,2 z"
       id="path242"
       inkscape:connector-curvature="0" />
    <path
       d="m 7385,3286 c -11,-8 -14,-16 -8,-19 6,-4 18,0 28,7 11,8 14,16 8,19 -6,4 -18,0 -28,-7 z"
       id="path244"
       inkscape:connector-curvature="0" />
    <path
       d="m 65,3270 c -3,-5 8,-16 24,-25 18,-9 32,-11 36,-5 3,5 -8,16 -24,25 -18,9 -32,11 -36,5 z"
       id="path246"
       inkscape:connector-curvature="0" />
    <path
       d="m 7335,3256 c -11,-8 -14,-16 -8,-19 6,-4 18,0 28,7 11,8 14,16 8,19 -6,4 -18,0 -28,-7 z"
       id="path248"
       inkscape:connector-curvature="0" />
    <path
       d="m 135,3230 c -3,-5 8,-16 24,-25 18,-9 32,-11 36,-5 3,5 -8,16 -24,25 -18,9 -32,11 -36,5 z"
       id="path250"
       inkscape:connector-curvature="0" />
    <path
       d="m 7265,3216 c -11,-8 -14,-16 -8,-19 6,-4 18,0 28,7 11,8 14,16 8,19 -6,4 -18,0 -28,-7 z"
       id="path252"
       inkscape:connector-curvature="0" />
    <path
       d="m 205,3191 c -3,-6 3,-15 14,-21 12,-6 22,-6 26,-1 3,6 -3,15 -14,21 -12,6 -22,6 -26,1 z"
       id="path254"
       inkscape:connector-curvature="0" />
    <path
       d="m 7195,3176 c -11,-8 -14,-16 -8,-19 6,-4 18,0 28,7 11,8 14,16 8,19 -6,4 -18,0 -28,-7 z"
       id="path256"
       inkscape:connector-curvature="0" />
    <path
       d="m 275,3151 c -3,-6 3,-15 14,-21 12,-6 22,-6 26,-1 3,6 -3,15 -14,21 -12,6 -22,6 -26,1 z"
       id="path258"
       inkscape:connector-curvature="0" />
    <path
       d="m 7145,3146 c -11,-8 -14,-16 -8,-19 6,-4 18,0 28,7 11,8 14,16 8,19 -6,4 -18,0 -28,-7 z"
       id="path260"
       inkscape:connector-curvature="0" />
    <path
       d="m 345,3111 c -3,-6 3,-15 14,-21 12,-6 22,-6 26,-1 3,6 -3,15 -14,21 -12,6 -22,6 -26,1 z"
       id="path262"
       inkscape:connector-curvature="0" />
    <path
       d="m 7075,3106 c -11,-8 -14,-16 -8,-19 6,-4 18,0 28,7 11,8 14,16 8,19 -6,4 -18,0 -28,-7 z"
       id="path264"
       inkscape:connector-curvature="0" />
    <path
       d="m 415,3071 c -3,-6 3,-15 14,-21 12,-6 22,-6 26,-1 3,6 -3,15 -14,21 -12,6 -22,6 -26,1 z"
       id="path266"
       inkscape:connector-curvature="0" />
    <path
       d="m 7005,3066 c -11,-8 -14,-16 -8,-19 6,-4 18,0 28,7 11,8 14,16 8,19 -6,4 -18,0 -28,-7 z"
       id="path268"
       inkscape:connector-curvature="0" />
    <path
       d="m 465,3040 c -3,-5 8,-16 24,-25 18,-9 32,-11 36,-5 3,5 -8,16 -24,25 -18,9 -32,11 -36,5 z"
       id="path270"
       inkscape:connector-curvature="0" />
    <path
       d="m 6955,3036 c -11,-8 -14,-16 -8,-19 6,-4 18,0 28,7 11,8 14,16 8,19 -6,4 -18,0 -28,-7 z"
       id="path272"
       inkscape:connector-curvature="0" />
    <path
       d="m 535,3001 c -3,-6 3,-15 14,-21 12,-6 22,-6 26,-1 3,6 -3,15 -14,21 -12,6 -22,6 -26,1 z"
       id="path274"
       inkscape:connector-curvature="0" />
    <path
       d="m 6885,2996 c -11,-8 -14,-16 -8,-19 6,-4 18,0 28,7 11,8 14,16 8,19 -6,4 -18,0 -28,-7 z"
       id="path276"
       inkscape:connector-curvature="0" />
    <path
       d="m 605,2961 c -3,-6 3,-15 14,-21 12,-6 22,-6 26,-1 3,6 -3,15 -14,21 -12,6 -22,6 -26,1 z"
       id="path278"
       inkscape:connector-curvature="0" />
    <path
       d="m 6765,2926 c -11,-8 -14,-16 -8,-19 6,-4 18,0 28,7 11,8 14,16 8,19 -6,4 -18,0 -28,-7 z"
       id="path280"
       inkscape:connector-curvature="0" />
    <path
       d="m 675,2921 c -3,-6 3,-15 14,-21 12,-6 22,-6 26,-1 3,6 -3,15 -14,21 -12,6 -22,6 -26,1 z"
       id="path282"
       inkscape:connector-curvature="0" />
    <path
       d="m 6695,2886 c -11,-8 -14,-16 -8,-19 6,-4 18,0 28,7 11,8 14,16 8,19 -6,4 -18,0 -28,-7 z"
       id="path284"
       inkscape:connector-curvature="0" />
    <path
       d="m 745,2881 c -3,-6 3,-15 14,-21 12,-6 22,-6 26,-1 3,6 -3,15 -14,21 -12,6 -22,6 -26,1 z"
       id="path286"
       inkscape:connector-curvature="0" />
    <path
       d="m 6645,2856 c -11,-8 -14,-16 -8,-19 6,-4 18,0 28,7 11,8 14,16 8,19 -6,4 -18,0 -28,-7 z"
       id="path288"
       inkscape:connector-curvature="0" />
    <path
       d="m 795,2850 c -3,-5 8,-16 24,-25 18,-9 32,-11 36,-5 3,5 -8,16 -24,25 -18,9 -32,11 -36,5 z"
       id="path290"
       inkscape:connector-curvature="0" />
    <path
       d="m 6575,2816 c -11,-8 -14,-16 -8,-19 6,-4 18,0 28,7 11,8 14,16 8,19 -6,4 -18,0 -28,-7 z"
       id="path292"
       inkscape:connector-curvature="0" />
    <path
       d="m 865,2811 c -3,-6 3,-15 14,-21 12,-6 22,-6 26,-1 3,6 -3,15 -14,21 -12,6 -22,6 -26,1 z"
       id="path294"
       inkscape:connector-curvature="0" />
    <path
       d="m 6505,2776 c -11,-8 -14,-16 -8,-19 6,-4 18,0 28,7 11,8 14,16 8,19 -6,4 -18,0 -28,-7 z"
       id="path296"
       inkscape:connector-curvature="0" />
    <path
       d="m 935,2771 c -3,-6 3,-15 14,-21 12,-6 22,-6 26,-1 3,6 -3,15 -14,21 -12,6 -22,6 -26,1 z"
       id="path298"
       inkscape:connector-curvature="0" />
    <path
       d="m 6455,2746 c -11,-8 -14,-16 -8,-19 6,-4 18,0 28,7 11,8 14,16 8,19 -6,4 -18,0 -28,-7 z"
       id="path300"
       inkscape:connector-curvature="0" />
    <path
       d="m 1005,2731 c -3,-6 3,-15 14,-21 12,-6 22,-6 26,-1 3,6 -3,15 -14,21 -12,6 -22,6 -26,1 z"
       id="path302"
       inkscape:connector-curvature="0" />
    <path
       d="m 6385,2706 c -11,-8 -14,-16 -8,-19 6,-4 18,0 28,7 11,8 14,16 8,19 -6,4 -18,0 -28,-7 z"
       id="path304"
       inkscape:connector-curvature="0" />
    <path
       d="m 1075,2691 c -3,-6 3,-15 14,-21 12,-6 22,-6 26,-1 3,6 -3,15 -14,21 -12,6 -22,6 -26,1 z"
       id="path306"
       inkscape:connector-curvature="0" />
    <path
       d="m 6315,2666 c -11,-8 -14,-16 -8,-19 6,-4 18,0 28,7 11,8 14,16 8,19 -6,4 -18,0 -28,-7 z"
       id="path308"
       inkscape:connector-curvature="0" />
    <path
       d="m 1125,2660 c -3,-5 8,-16 24,-25 18,-9 32,-11 36,-5 3,5 -8,16 -24,25 -18,9 -32,11 -36,5 z"
       id="path310"
       inkscape:connector-curvature="0" />
    <path
       d="m 6265,2636 c -11,-8 -14,-16 -8,-19 6,-4 18,0 28,7 11,8 14,16 8,19 -6,4 -18,0 -28,-7 z"
       id="path312"
       inkscape:connector-curvature="0" />
    <path
       d="m 1195,2620 c -3,-5 8,-16 24,-25 18,-9 32,-11 36,-5 3,5 -8,16 -24,25 -18,9 -32,11 -36,5 z"
       id="path314"
       inkscape:connector-curvature="0" />
    <path
       d="m 6195,2596 c -11,-8 -14,-16 -8,-19 6,-4 18,0 28,7 11,8 14,16 8,19 -6,4 -18,0 -28,-7 z"
       id="path316"
       inkscape:connector-curvature="0" />
    <path
       d="m 1265,2581 c -3,-6 3,-15 14,-21 12,-6 22,-6 26,-1 3,6 -3,15 -14,21 -12,6 -22,6 -26,1 z"
       id="path318"
       inkscape:connector-curvature="0" />
    <path
       d="m 6125,2556 c -11,-8 -14,-16 -8,-19 6,-4 18,0 28,7 11,8 14,16 8,19 -6,4 -18,0 -28,-7 z"
       id="path320"
       inkscape:connector-curvature="0" />
    <path
       d="m 1335,2541 c -3,-6 3,-15 14,-21 12,-6 22,-6 26,-1 3,6 -3,15 -14,21 -12,6 -22,6 -26,1 z"
       id="path322"
       inkscape:connector-curvature="0" />
    <path
       d="m 6075,2526 c -11,-8 -14,-16 -8,-19 6,-4 18,0 28,7 11,8 14,16 8,19 -6,4 -18,0 -28,-7 z"
       id="path324"
       inkscape:connector-curvature="0" />
    <path
       d="m 1405,2501 c -3,-6 3,-15 14,-21 12,-6 22,-6 26,-1 3,6 -3,15 -14,21 -12,6 -22,6 -26,1 z"
       id="path326"
       inkscape:connector-curvature="0" />
    <path
       d="m 6005,2486 c -11,-8 -14,-16 -8,-19 6,-4 18,0 28,7 11,8 14,16 8,19 -6,4 -18,0 -28,-7 z"
       id="path328"
       inkscape:connector-curvature="0" />
    <path
       d="m 1475,2461 c -3,-6 3,-15 14,-21 12,-6 22,-6 26,-1 3,6 -3,15 -14,21 -12,6 -22,6 -26,1 z"
       id="path330"
       inkscape:connector-curvature="0" />
    <path
       d="m 5935,2446 c -11,-8 -14,-16 -8,-19 6,-4 18,0 28,7 11,8 14,16 8,19 -6,4 -18,0 -28,-7 z"
       id="path332"
       inkscape:connector-curvature="0" />
    <path
       d="m 1525,2430 c -3,-5 8,-16 24,-25 18,-9 32,-11 36,-5 3,5 -8,16 -24,25 -18,9 -32,11 -36,5 z"
       id="path334"
       inkscape:connector-curvature="0" />
    <path
       d="m 5885,2416 c -11,-8 -14,-16 -8,-19 6,-4 18,0 28,7 11,8 14,16 8,19 -6,4 -18,0 -28,-7 z"
       id="path336"
       inkscape:connector-curvature="0" />
    <path
       d="m 1595,2391 c -3,-6 3,-15 14,-21 12,-6 22,-6 26,-1 3,6 -3,15 -14,21 -12,6 -22,6 -26,1 z"
       id="path338"
       inkscape:connector-curvature="0" />
    <path
       d="m 5815,2376 c -11,-8 -14,-16 -8,-19 6,-4 18,0 28,7 11,8 14,16 8,19 -6,4 -18,0 -28,-7 z"
       id="path340"
       inkscape:connector-curvature="0" />
    <path
       d="m 1665,2351 c -3,-6 3,-15 14,-21 12,-6 22,-6 26,-1 3,6 -3,15 -14,21 -12,6 -22,6 -26,1 z"
       id="path342"
       inkscape:connector-curvature="0" />
    <path
       d="m 5745,2336 c -11,-8 -14,-16 -8,-19 6,-4 18,0 28,7 11,8 14,16 8,19 -6,4 -18,0 -28,-7 z"
       id="path344"
       inkscape:connector-curvature="0" />
    <path
       d="m 1735,2311 c -3,-6 3,-15 14,-21 12,-6 22,-6 26,-1 3,6 -3,15 -14,21 -12,6 -22,6 -26,1 z"
       id="path346"
       inkscape:connector-curvature="0" />
    <path
       d="m 5695,2306 c -11,-8 -14,-16 -8,-19 6,-4 18,0 28,7 11,8 14,16 8,19 -6,4 -18,0 -28,-7 z"
       id="path348"
       inkscape:connector-curvature="0" />
    <path
       d="m 1805,2271 c -3,-6 3,-15 14,-21 12,-6 22,-6 26,-1 3,6 -3,15 -14,21 -12,6 -22,6 -26,1 z"
       id="path350"
       inkscape:connector-curvature="0" />
    <path
       d="m 5625,2266 c -11,-8 -14,-16 -8,-19 6,-4 18,0 28,7 11,8 14,16 8,19 -6,4 -18,0 -28,-7 z"
       id="path352"
       inkscape:connector-curvature="0" />
    <path
       d="m 1855,2240 c -3,-5 8,-16 24,-25 18,-9 32,-11 36,-5 3,5 -8,16 -24,25 -18,9 -32,11 -36,5 z"
       id="path354"
       inkscape:connector-curvature="0" />
    <path
       d="m 5555,2226 c -11,-8 -14,-16 -8,-19 6,-4 18,0 28,7 11,8 14,16 8,19 -6,4 -18,0 -28,-7 z"
       id="path356"
       inkscape:connector-curvature="0" />
    <path
       d="m 1925,2201 c -3,-6 3,-15 14,-21 12,-6 22,-6 26,-1 3,6 -3,15 -14,21 -12,6 -22,6 -26,1 z"
       id="path358"
       inkscape:connector-curvature="0" />
    <path
       d="m 5505,2196 c -11,-8 -14,-16 -8,-19 6,-4 18,0 28,7 11,8 14,16 8,19 -6,4 -18,0 -28,-7 z"
       id="path360"
       inkscape:connector-curvature="0" />
    <path
       d="m 1995,2161 c -3,-6 3,-15 14,-21 12,-6 22,-6 26,-1 3,6 -3,15 -14,21 -12,6 -22,6 -26,1 z"
       id="path362"
       inkscape:connector-curvature="0" />
    <path
       d="m 5435,2156 c -11,-8 -14,-16 -8,-19 6,-4 18,0 28,7 11,8 14,16 8,19 -6,4 -18,0 -28,-7 z"
       id="path364"
       inkscape:connector-curvature="0" />
    <path
       d="m 2065,2121 c -3,-6 3,-15 14,-21 12,-6 22,-6 26,-1 3,6 -3,15 -14,21 -12,6 -22,6 -26,1 z"
       id="path366"
       inkscape:connector-curvature="0" />
    <path
       d="m 5365,2116 c -11,-8 -14,-16 -8,-19 6,-4 18,0 28,7 11,8 14,16 8,19 -6,4 -18,0 -28,-7 z"
       id="path368"
       inkscape:connector-curvature="0" />
    <path
       d="m 5315,2086 c -11,-8 -14,-16 -8,-19 6,-4 18,0 28,7 11,8 14,16 8,19 -6,4 -18,0 -28,-7 z"
       id="path370"
       inkscape:connector-curvature="0" />
    <path
       d="m 2135,2081 c -3,-6 3,-15 14,-21 12,-6 22,-6 26,-1 3,6 -3,15 -14,21 -12,6 -22,6 -26,1 z"
       id="path372"
       inkscape:connector-curvature="0" />
    <path
       d="m 2185,2050 c -3,-5 8,-16 24,-25 18,-9 32,-11 36,-5 3,5 -8,16 -24,25 -18,9 -32,11 -36,5 z"
       id="path374"
       inkscape:connector-curvature="0" />
    <path
       d="m 5245,2046 c -11,-8 -14,-16 -8,-19 6,-4 18,0 28,7 11,8 14,16 8,19 -6,4 -18,0 -28,-7 z"
       id="path376"
       inkscape:connector-curvature="0" />
    <path
       d="m 2255,2010 c -3,-5 8,-16 24,-25 18,-9 32,-11 36,-5 3,5 -8,16 -24,25 -18,9 -32,11 -36,5 z"
       id="path378"
       inkscape:connector-curvature="0" />
    <path
       d="m 5175,2006 c -11,-8 -14,-16 -8,-19 6,-4 18,0 28,7 11,8 14,16 8,19 -6,4 -18,0 -28,-7 z"
       id="path380"
       inkscape:connector-curvature="0" />
    <path
       d="m 5125,1976 c -11,-8 -14,-16 -8,-19 6,-4 18,0 28,7 11,8 14,16 8,19 -6,4 -18,0 -28,-7 z"
       id="path382"
       inkscape:connector-curvature="0" />
    <path
       d="m 2325,1971 c -3,-6 3,-15 14,-21 12,-6 22,-6 26,-1 3,6 -3,15 -14,21 -12,6 -22,6 -26,1 z"
       id="path384"
       inkscape:connector-curvature="0" />
    <path
       d="m 5055,1936 c -11,-8 -14,-16 -8,-19 6,-4 18,0 28,7 11,8 14,16 8,19 -6,4 -18,0 -28,-7 z"
       id="path386"
       inkscape:connector-curvature="0" />
    <path
       d="m 2395,1931 c -3,-6 3,-15 14,-21 12,-6 22,-6 26,-1 3,6 -3,15 -14,21 -12,6 -22,6 -26,1 z"
       id="path388"
       inkscape:connector-curvature="0" />
    <path
       d="m 4985,1896 c -11,-8 -14,-16 -8,-19 6,-4 18,0 28,7 11,8 14,16 8,19 -6,4 -18,0 -28,-7 z"
       id="path390"
       inkscape:connector-curvature="0" />
    <path
       d="m 2465,1891 c -3,-6 3,-15 14,-21 12,-6 22,-6 26,-1 3,6 -3,15 -14,21 -12,6 -22,6 -26,1 z"
       id="path392"
       inkscape:connector-curvature="0" />
    <path
       d="m 4935,1866 c -11,-8 -14,-16 -8,-19 6,-4 18,0 28,7 11,8 14,16 8,19 -6,4 -18,0 -28,-7 z"
       id="path394"
       inkscape:connector-curvature="0" />
    <path
       d="m 2515,1860 c -3,-5 8,-16 24,-25 18,-9 32,-11 36,-5 3,5 -8,16 -24,25 -18,9 -32,11 -36,5 z"
       id="path396"
       inkscape:connector-curvature="0" />
    <path
       d="m 4865,1826 c -11,-8 -14,-16 -8,-19 6,-4 18,0 28,7 11,8 14,16 8,19 -6,4 -18,0 -28,-7 z"
       id="path398"
       inkscape:connector-curvature="0" />
    <path
       d="m 2585,1820 c -3,-5 8,-16 24,-25 18,-9 32,-11 36,-5 3,5 -8,16 -24,25 -18,9 -32,11 -36,5 z"
       id="path400"
       inkscape:connector-curvature="0" />
    <path
       d="m 2655,1781 c -3,-6 3,-15 14,-21 12,-6 22,-6 26,-1 3,6 -3,15 -14,21 -12,6 -22,6 -26,1 z"
       id="path402"
       inkscape:connector-curvature="0" />
    <path
       d="m 4745,1756 c -11,-8 -14,-16 -8,-19 6,-4 18,0 28,7 11,8 14,16 8,19 -6,4 -18,0 -28,-7 z"
       id="path404"
       inkscape:connector-curvature="0" />
    <path
       d="m 2725,1741 c -3,-6 3,-15 14,-21 12,-6 22,-6 26,-1 3,6 -3,15 -14,21 -12,6 -22,6 -26,1 z"
       id="path406"
       inkscape:connector-curvature="0" />
    <path
       d="m 4675,1716 c -11,-8 -14,-16 -8,-19 6,-4 18,0 28,7 11,8 14,16 8,19 -6,4 -18,0 -28,-7 z"
       id="path408"
       inkscape:connector-curvature="0" />
    <path
       d="m 2795,1701 c -3,-6 3,-15 14,-21 12,-6 22,-6 26,-1 3,6 -3,15 -14,21 -12,6 -22,6 -26,1 z"
       id="path410"
       inkscape:connector-curvature="0" />
    <path
       d="m 4625,1686 c -11,-8 -14,-16 -8,-19 6,-4 18,0 28,7 11,8 14,16 8,19 -6,4 -18,0 -28,-7 z"
       id="path412"
       inkscape:connector-curvature="0" />
    <path
       d="m 2865,1661 c -3,-6 3,-15 14,-21 12,-6 22,-6 26,-1 3,6 -3,15 -14,21 -12,6 -22,6 -26,1 z"
       id="path414"
       inkscape:connector-curvature="0" />
    <path
       d="m 4555,1646 c -11,-8 -14,-16 -8,-19 6,-4 18,0 28,7 11,8 14,16 8,19 -6,4 -18,0 -28,-7 z"
       id="path416"
       inkscape:connector-curvature="0" />
    <path
       d="m 2915,1630 c -3,-5 8,-16 24,-25 18,-9 32,-11 36,-5 3,5 -8,16 -24,25 -18,9 -32,11 -36,5 z"
       id="path418"
       inkscape:connector-curvature="0" />
    <path
       d="m 4485,1606 c -11,-8 -14,-16 -8,-19 6,-4 18,0 28,7 11,8 14,16 8,19 -6,4 -18,0 -28,-7 z"
       id="path420"
       inkscape:connector-curvature="0" />
    <path
       d="m 2985,1591 c -3,-6 3,-15 14,-21 12,-6 22,-6 26,-1 3,6 -3,15 -14,21 -12,6 -22,6 -26,1 z"
       id="path422"
       inkscape:connector-curvature="0" />
    <path
       d="m 4435,1576 c -11,-8 -14,-16 -8,-19 6,-4 18,0 28,7 11,8 14,16 8,19 -6,4 -18,0 -28,-7 z"
       id="path424"
       inkscape:connector-curvature="0" />
    <path
       d="m 3055,1551 c -3,-6 3,-15 14,-21 12,-6 22,-6 26,-1 3,6 -3,15 -14,21 -12,6 -22,6 -26,1 z"
       id="path426"
       inkscape:connector-curvature="0" />
    <path
       d="m 4365,1536 c -11,-8 -14,-16 -8,-19 6,-4 18,0 28,7 11,8 14,16 8,19 -6,4 -18,0 -28,-7 z"
       id="path428"
       inkscape:connector-curvature="0" />
    <path
       d="m 3125,1511 c -3,-6 3,-15 14,-21 12,-6 22,-6 26,-1 3,6 -3,15 -14,21 -12,6 -22,6 -26,1 z"
       id="path430"
       inkscape:connector-curvature="0" />
    <path
       d="m 4295,1496 c -11,-8 -14,-16 -8,-19 6,-4 18,0 28,7 11,8 14,16 8,19 -6,4 -18,0 -28,-7 z"
       id="path432"
       inkscape:connector-curvature="0" />
    <path
       d="m 3195,1471 c -3,-6 3,-15 14,-21 12,-6 22,-6 26,-1 3,6 -3,15 -14,21 -12,6 -22,6 -26,1 z"
       id="path434"
       inkscape:connector-curvature="0" />
    <path
       d="m 4245,1466 c -11,-8 -14,-16 -8,-19 6,-4 18,0 28,7 11,8 14,16 8,19 -6,4 -18,0 -28,-7 z"
       id="path436"
       inkscape:connector-curvature="0" />
    <path
       d="m 3245,1440 c -3,-5 8,-16 24,-25 18,-9 32,-11 36,-5 3,5 -8,16 -24,25 -18,9 -32,11 -36,5 z"
       id="path438"
       inkscape:connector-curvature="0" />
    <path
       d="m 4175,1426 c -11,-8 -14,-16 -8,-19 6,-4 18,0 28,7 11,8 14,16 8,19 -6,4 -18,0 -28,-7 z"
       id="path440"
       inkscape:connector-curvature="0" />
    <path
       d="m 3315,1401 c -3,-6 3,-15 14,-21 12,-6 22,-6 26,-1 3,6 -3,15 -14,21 -12,6 -22,6 -26,1 z"
       id="path442"
       inkscape:connector-curvature="0" />
    <path
       d="m 4105,1386 c -11,-8 -14,-16 -8,-19 6,-4 18,0 28,7 11,8 14,16 8,19 -6,4 -18,0 -28,-7 z"
       id="path444"
       inkscape:connector-curvature="0" />
    <path
       d="m 3385,1361 c -3,-6 3,-15 14,-21 12,-6 22,-6 26,-1 3,6 -3,15 -14,21 -12,6 -22,6 -26,1 z"
       id="path446"
       inkscape:connector-curvature="0" />
    <path
       d="m 4055,1356 c -11,-8 -14,-16 -8,-19 6,-4 18,0 28,7 11,8 14,16 8,19 -6,4 -18,0 -28,-7 z"
       id="path448"
       inkscape:connector-curvature="0" />
    <path
       d="m 3455,1321 c -3,-6 3,-15 14,-21 12,-6 22,-6 26,-1 3,6 -3,15 -14,21 -12,6 -22,6 -26,1 z"
       id="path450"
       inkscape:connector-curvature="0" />
    <path
       d="m 3985,1316 c -11,-8 -14,-16 -8,-19 6,-4 18,0 28,7 11,8 14,16 8,19 -6,4 -18,0 -28,-7 z"
       id="path452"
       inkscape:connector-curvature="0" />
    <path
       d="m 3525,1281 c -3,-6 3,-15 14,-21 12,-6 22,-6 26,-1 3,6 -3,15 -14,21 -12,6 -22,6 -26,1 z"
       id="path454"
       inkscape:connector-curvature="0" />
    <path
       d="m 3915,1276 c -11,-8 -14,-16 -8,-19 6,-4 18,0 28,7 11,8 14,16 8,19 -6,4 -18,0 -28,-7 z"
       id="path456"
       inkscape:connector-curvature="0" />
    <path
       d="m 3575,1250 c -3,-5 8,-16 24,-25 18,-9 32,-11 36,-5 3,5 -8,16 -24,25 -18,9 -32,11 -36,5 z"
       id="path458"
       inkscape:connector-curvature="0" />
    <path
       d="m 3865,1246 c -11,-8 -14,-16 -8,-19 6,-4 18,0 28,7 11,8 14,16 8,19 -6,4 -18,0 -28,-7 z"
       id="path460"
       inkscape:connector-curvature="0" />
    <path
       d="m 3645,1210 c -3,-5 8,-16 24,-25 18,-9 32,-11 36,-5 3,5 -8,16 -24,25 -18,9 -32,11 -36,5 z"
       id="path462"
       inkscape:connector-curvature="0" />
    <path
       d="m 3795,1206 c -11,-8 -14,-16 -8,-19 6,-4 18,0 28,7 11,8 14,16 8,19 -6,4 -18,0 -28,-7 z"
       id="path464"
       inkscape:connector-curvature="0" />
    <path
       d="m 3715,1170 c -3,-5 -2,-10 2,-12 13,-7 33,-3 36,6 3,12 -31,17 -38,6 z"
       id="path466"
       inkscape:connector-curvature="0" />
  </g>
  <g
     id="g468"
     style="fill:#cb248b;stroke:none"
     transform="translate(-20,-1154.4351)">
    <path
       d="M 1883,8637 C 875,8053 45,7568 38,7560 27,7548 26,7127 30,5416 L 35,3286 1865,2232 c 1007,-579 1840,-1058 1851,-1064 19,-9 259,127 1830,1037 995,576 1826,1058 1847,1071 l 37,24 -2,2136 -3,2136 -1849,1064 c -1016,585 -1851,1064 -1855,1063 -3,0 -831,-478 -1838,-1062 z m 2419,-60 c 213,-103 399,-217 558,-341 607,-472 988,-1083 1095,-1756 19,-124 20,-413 0,-542 -69,-461 -316,-825 -692,-1021 -179,-93 -320,-127 -534,-127 -376,0 -651,123 -837,375 -77,104 -121,208 -147,340 -20,106 -19,215 2,283 21,66 95,152 157,184 153,79 351,36 443,-96 75,-105 87,-234 35,-346 -17,-36 -39,-74 -49,-86 -53,-61 -148,-105 -255,-118 -101,-13 -101,-41 0,-138 105,-102 206,-151 386,-189 127,-27 329,-26 433,2 271,73 518,287 661,574 36,72 92,240 118,350 26,113 27,486 1,625 -78,412 -242,769 -523,1135 -268,350 -611,629 -1016,829 -43,21 -78,40 -78,42 0,2 10,25 22,50 20,43 23,46 54,41 18,-3 93,-35 166,-70 z M 2222,7079 c 149,-31 293,-146 362,-291 65,-138 77,-193 88,-423 6,-131 15,-214 22,-221 6,-6 46,-16 88,-22 225,-33 403,-165 508,-376 66,-135 83,-215 84,-401 1,-138 -2,-172 -22,-245 -32,-117 -75,-194 -152,-270 -103,-103 -226,-151 -430,-168 l -85,-7 -3,-390 -2,-391 95,-88 c 215,-198 377,-437 435,-639 86,-303 15,-674 -160,-842 -66,-62 -167,-115 -221,-115 -99,0 -231,157 -310,368 -87,231 -109,379 -116,760 l -6,304 -141,67 c -632,301 -1016,612 -1180,956 -66,136 -81,210 -81,395 1,136 4,180 22,251 102,405 398,675 872,794 99,25 318,55 407,55 60,0 85,4 94,15 9,11 11,74 8,257 -4,224 -7,248 -28,303 -31,82 -60,124 -114,172 -56,49 -116,68 -195,60 -105,-9 -188,-60 -239,-146 -26,-44 -27,-51 -27,-196 -1,-163 -8,-193 -61,-234 -52,-41 -136,-15 -170,51 -22,43 -29,150 -15,218 38,176 202,354 386,418 33,12 69,23 80,25 41,9 156,7 207,-4 z m 4400,-356 c 35,-20 64,-46 86,-79 31,-47 32,-53 32,-147 0,-77 -4,-106 -20,-136 -39,-77 -146,-141 -236,-141 -50,0 -143,36 -177,67 -98,93 -118,243 -48,356 69,112 238,150 363,80 z m -17,-941 c 22,-11 54,-35 71,-54 54,-57 64,-87 64,-196 0,-94 -2,-101 -29,-139 -110,-152 -309,-165 -429,-28 -76,86 -88,182 -38,290 48,104 140,158 256,152 40,-3 80,-12 105,-25 z"
       id="path470"
       inkscape:connector-curvature="0" />
    <path
       d="m 2685,5958 c -3,-7 -4,-224 -3,-483 l 3,-470 70,2 c 83,3 190,27 262,59 63,27 145,101 181,163 25,42 26,53 25,157 -1,120 -18,205 -58,291 -64,142 -191,245 -334,273 -101,19 -141,22 -146,8 z"
       id="path472"
       inkscape:connector-curvature="0" />
    <path
       d="m 2285,5945 c -302,-52 -537,-218 -662,-470 -82,-163 -116,-427 -77,-598 45,-197 176,-395 373,-564 141,-121 434,-302 467,-289 12,5 14,56 12,317 l -3,312 -61,17 c -78,21 -122,49 -180,113 -55,60 -124,200 -148,299 -37,155 -30,347 17,438 22,43 25,45 72,48 77,5 94,-3 117,-55 17,-39 21,-73 25,-217 5,-192 16,-234 67,-265 17,-11 45,-21 61,-23 l 30,-3 0,475 c 0,415 -2,475 -15,476 -8,1 -51,-4 -95,-11 z"
       id="path474"
       inkscape:connector-curvature="0" />
    <path
       d="m 2684,3465 c -11,-28 4,-545 20,-680 27,-238 60,-383 94,-425 26,-32 51,-21 131,61 78,79 138,188 166,304 23,98 23,277 0,341 -45,120 -162,255 -305,350 -103,69 -99,67 -106,49 z"
       id="path476"
       inkscape:connector-curvature="0" />
  </g>
</svg>
